<svg viewBox="0 0 633 400" xmlns="http://www.w3.org/2000/svg"><g><g><g><g><g><line x1="40" y1="377" x2="35" y2="377" style="visibility: inherit;" fill="rgb(0, 0, 0)" stroke="rgb(204, 204, 204)" stroke-width="1px"></line><line x1="40" y1="345.5833333333333" x2="35" y2="345.5833333333333" style="visibility: inherit;" fill="rgb(0, 0, 0)" stroke="rgb(204, 204, 204)" stroke-width="1px"></line><line x1="40" y1="314.1666666666667" x2="35" y2="314.1666666666667" style="visibility: inherit;" fill="rgb(0, 0, 0)" stroke="rgb(204, 204, 204)" stroke-width="1px"></line><line x1="40" y1="282.75" x2="35" y2="282.75" style="visibility: inherit;" fill="rgb(0, 0, 0)" stroke="rgb(204, 204, 204)" stroke-width="1px"></line><line x1="40" y1="251.33333333333337" x2="35" y2="251.33333333333337" style="visibility: inherit;" fill="rgb(0, 0, 0)" stroke="rgb(204, 204, 204)" stroke-width="1px"></line><line x1="40" y1="219.91666666666663" x2="35" y2="219.91666666666663" style="visibility: inherit;" fill="rgb(0, 0, 0)" stroke="rgb(204, 204, 204)" stroke-width="1px"></line><line x1="40" y1="188.5" x2="35" y2="188.5" style="visibility: inherit;" fill="rgb(0, 0, 0)" stroke="rgb(204, 204, 204)" stroke-width="1px"></line><line x1="40" y1="157.08333333333331" x2="35" y2="157.08333333333331" style="visibility: inherit;" fill="rgb(0, 0, 0)" stroke="rgb(204, 204, 204)" stroke-width="1px"></line><line x1="40" y1="125.66666666666669" x2="35" y2="125.66666666666669" style="visibility: inherit;" fill="rgb(0, 0, 0)" stroke="rgb(204, 204, 204)" stroke-width="1px"></line><line x1="40" y1="94.25" x2="35" y2="94.25" style="visibility: inherit;" fill="rgb(0, 0, 0)" stroke="rgb(204, 204, 204)" stroke-width="1px"></line><line x1="40" y1="62.83333333333332" x2="35" y2="62.83333333333332" style="visibility: inherit;" fill="rgb(0, 0, 0)" stroke="rgb(204, 204, 204)" stroke-width="1px"></line><line x1="40" y1="31.416666666666682" x2="35" y2="31.416666666666682" style="visibility: inherit;" fill="rgb(0, 0, 0)" stroke="rgb(204, 204, 204)" stroke-width="1px"></line><line x1="40" y1="0" x2="35" y2="0" style="visibility: inherit;" fill="rgb(0, 0, 0)" stroke="rgb(204, 204, 204)" stroke-width="1px"></line></g><g transform="translate(30, 0)"><text x="0" y="377" dx="0em" dy="0.3em" style="text-anchor: end; visibility: hidden; font-family: Roboto, sans-serif; font-size: 12px; font-weight: 200;" fill="rgb(33, 33, 33)" stroke="none" stroke-width="1px">-20</text><text x="0" y="345.5833333333333" dx="0em" dy="0.3em" style="text-anchor: end; visibility: inherit; font-family: Roboto, sans-serif; font-size: 12px; font-weight: 200;" fill="rgb(33, 33, 33)" stroke="none" stroke-width="1px">0</text><text x="0" y="314.1666666666667" dx="0em" dy="0.3em" style="text-anchor: end; visibility: inherit; font-family: Roboto, sans-serif; font-size: 12px; font-weight: 200;" fill="rgb(33, 33, 33)" stroke="none" stroke-width="1px">20</text><text x="0" y="282.75" dx="0em" dy="0.3em" style="text-anchor: end; visibility: inherit; font-family: Roboto, sans-serif; font-size: 12px; font-weight: 200;" fill="rgb(33, 33, 33)" stroke="none" stroke-width="1px">40</text><text x="0" y="251.33333333333337" dx="0em" dy="0.3em" style="text-anchor: end; visibility: inherit; font-family: Roboto, sans-serif; font-size: 12px; font-weight: 200;" fill="rgb(33, 33, 33)" stroke="none" stroke-width="1px">60</text><text x="0" y="219.91666666666663" dx="0em" dy="0.3em" style="text-anchor: end; visibility: inherit; font-family: Roboto, sans-serif; font-size: 12px; font-weight: 200;" fill="rgb(33, 33, 33)" stroke="none" stroke-width="1px">80</text><text x="0" y="188.5" dx="0em" dy="0.3em" style="text-anchor: end; visibility: inherit; font-family: Roboto, sans-serif; font-size: 12px; font-weight: 200;" fill="rgb(33, 33, 33)" stroke="none" stroke-width="1px">100</text><text x="0" y="157.08333333333331" dx="0em" dy="0.3em" style="text-anchor: end; visibility: inherit; font-family: Roboto, sans-serif; font-size: 12px; font-weight: 200;" fill="rgb(33, 33, 33)" stroke="none" stroke-width="1px">120</text><text x="0" y="125.66666666666669" dx="0em" dy="0.3em" style="text-anchor: end; visibility: inherit; font-family: Roboto, sans-serif; font-size: 12px; font-weight: 200;" fill="rgb(33, 33, 33)" stroke="none" stroke-width="1px">140</text><text x="0" y="94.25" dx="0em" dy="0.3em" style="text-anchor: end; visibility: inherit; font-family: Roboto, sans-serif; font-size: 12px; font-weight: 200;" fill="rgb(33, 33, 33)" stroke="none" stroke-width="1px">160</text><text x="0" y="62.83333333333332" dx="0em" dy="0.3em" style="text-anchor: end; visibility: inherit; font-family: Roboto, sans-serif; font-size: 12px; font-weight: 200;" fill="rgb(33, 33, 33)" stroke="none" stroke-width="1px">180</text><text x="0" y="31.416666666666682" dx="0em" dy="0.3em" style="text-anchor: end; visibility: inherit; font-family: Roboto, sans-serif; font-size: 12px; font-weight: 200;" fill="rgb(33, 33, 33)" stroke="none" stroke-width="1px">200</text><text x="0" y="0" dx="0em" dy="0.3em" style="text-anchor: end; visibility: hidden; font-family: Roboto, sans-serif; font-size: 12px; font-weight: 200;" fill="rgb(33, 33, 33)" stroke="none" stroke-width="1px">220</text></g><line x1="40" y1="0" x2="40" y2="377" fill="rgb(0, 0, 0)" stroke="rgb(204, 204, 204)" stroke-width="1px"></line></g></g><g transform="translate(40, 0)" clip-path="url(#clip_0)"><clipPath id="clip_0"><rect width="593" height="377"></rect></clipPath><g><g><g><line x1="0" y1="0" x2="0" y2="377" fill="rgb(0, 0, 0)" stroke="rgb(66, 66, 66)" stroke-width="1px" opacity="0.25"></line><line x1="49.416666666666664" y1="0" x2="49.416666666666664" y2="377" fill="rgb(0, 0, 0)" stroke="rgb(66, 66, 66)" stroke-width="1px" opacity="0.25"></line><line x1="98.83333333333333" y1="0" x2="98.83333333333333" y2="377" fill="rgb(0, 0, 0)" stroke="rgb(66, 66, 66)" stroke-width="1px" opacity="0.25"></line><line x1="148.25" y1="0" x2="148.25" y2="377" fill="rgb(0, 0, 0)" stroke="rgb(66, 66, 66)" stroke-width="1px" opacity="0.25"></line><line x1="197.66666666666666" y1="0" x2="197.66666666666666" y2="377" fill="rgb(0, 0, 0)" stroke="rgb(66, 66, 66)" stroke-width="1px" opacity="0.25"></line><line x1="247.08333333333334" y1="0" x2="247.08333333333334" y2="377" fill="rgb(0, 0, 0)" stroke="rgb(66, 66, 66)" stroke-width="1px" opacity="0.25"></line><line x1="296.5" y1="0" x2="296.5" y2="377" fill="rgb(0, 0, 0)" stroke="rgb(66, 66, 66)" stroke-width="1px" opacity="0.25"></line><line x1="345.9166666666667" y1="0" x2="345.9166666666667" y2="377" fill="rgb(0, 0, 0)" stroke="rgb(66, 66, 66)" stroke-width="1px" opacity="0.25"></line><line x1="395.3333333333333" y1="0" x2="395.3333333333333" y2="377" fill="rgb(0, 0, 0)" stroke="rgb(66, 66, 66)" stroke-width="1px" opacity="0.25"></line><line x1="444.75" y1="0" x2="444.75" y2="377" fill="rgb(0, 0, 0)" stroke="rgb(66, 66, 66)" stroke-width="1px" opacity="0.25"></line><line x1="494.1666666666667" y1="0" x2="494.1666666666667" y2="377" fill="rgb(0, 0, 0)" stroke="rgb(66, 66, 66)" stroke-width="1px" opacity="0.25"></line><line x1="543.5833333333333" y1="0" x2="543.5833333333333" y2="377" fill="rgb(0, 0, 0)" stroke="rgb(66, 66, 66)" stroke-width="1px" opacity="0.25"></line><line x1="593" y1="0" x2="593" y2="377" fill="rgb(0, 0, 0)" stroke="rgb(66, 66, 66)" stroke-width="1px" opacity="0.25"></line></g><g><line x1="0" y1="377" x2="593" y2="377" fill="rgb(0, 0, 0)" stroke="rgb(66, 66, 66)" stroke-width="1px" opacity="0.25"></line><line x1="0" y1="345.5833333333333" x2="593" y2="345.5833333333333" fill="rgb(0, 0, 0)" stroke="rgb(66, 66, 66)" stroke-width="1px" opacity="0.25"></line><line x1="0" y1="314.1666666666667" x2="593" y2="314.1666666666667" fill="rgb(0, 0, 0)" stroke="rgb(66, 66, 66)" stroke-width="1px" opacity="0.25"></line><line x1="0" y1="282.75" x2="593" y2="282.75" fill="rgb(0, 0, 0)" stroke="rgb(66, 66, 66)" stroke-width="1px" opacity="0.25"></line><line x1="0" y1="251.33333333333337" x2="593" y2="251.33333333333337" fill="rgb(0, 0, 0)" stroke="rgb(66, 66, 66)" stroke-width="1px" opacity="0.25"></line><line x1="0" y1="219.91666666666663" x2="593" y2="219.91666666666663" fill="rgb(0, 0, 0)" stroke="rgb(66, 66, 66)" stroke-width="1px" opacity="0.25"></line><line x1="0" y1="188.5" x2="593" y2="188.5" fill="rgb(0, 0, 0)" stroke="rgb(66, 66, 66)" stroke-width="1px" opacity="0.25"></line><line x1="0" y1="157.08333333333331" x2="593" y2="157.08333333333331" fill="rgb(0, 0, 0)" stroke="rgb(66, 66, 66)" stroke-width="1px" opacity="0.25"></line><line x1="0" y1="125.66666666666669" x2="593" y2="125.66666666666669" fill="rgb(0, 0, 0)" stroke="rgb(66, 66, 66)" stroke-width="1px" opacity="0.25"></line><line x1="0" y1="94.25" x2="593" y2="94.25" fill="rgb(0, 0, 0)" stroke="rgb(66, 66, 66)" stroke-width="1px" opacity="0.25"></line><line x1="0" y1="62.83333333333332" x2="593" y2="62.83333333333332" fill="rgb(0, 0, 0)" stroke="rgb(66, 66, 66)" stroke-width="1px" opacity="0.25"></line><line x1="0" y1="31.416666666666682" x2="593" y2="31.416666666666682" fill="rgb(0, 0, 0)" stroke="rgb(66, 66, 66)" stroke-width="1px" opacity="0.25"></line><line x1="0" y1="0" x2="593" y2="0" fill="rgb(0, 0, 0)" stroke="rgb(66, 66, 66)" stroke-width="1px" opacity="0.25"></line></g></g></g><g><g><line x1="0" y1="345.5833333333333" x2="593" y2="345.5833333333333" fill="rgb(0, 0, 0)" stroke="rgb(153, 153, 153)" stroke-width="1.5px"></line></g></g><g><g><line x1="49.416666666666664" y1="0" x2="49.416666666666664" y2="377" fill="rgb(0, 0, 0)" stroke="rgb(153, 153, 153)" stroke-width="1.5px"></line></g></g><g><g><g><g><g><path stroke="rgb(255, 112, 67)" stroke-width="2px" d="M50.405,331.4458333333333L51.39333333333334,331.4458333333333L52.38166666666667,333.01666666666665L53.37,329.875L54.35833333333333,329.875L55.34666666666667,329.875L56.335,328.3041666666667L57.32333333333333,333.01666666666665L58.31166666666666,331.4458333333333L59.300000000000004,331.4458333333333L60.288333333333334,329.875L61.276666666666664,328.3041666666667L62.265,325.1625L63.25333333333334,325.1625L64.24166666666667,326.73333333333335L65.23,325.1625L66.21833333333333,326.73333333333335L67.20666666666666,329.875L68.19500000000001,322.0208333333333L69.18333333333334,326.73333333333335L70.17166666666667,333.01666666666665L71.16,331.4458333333333L72.14833333333334,331.4458333333333L73.13666666666667,329.875L74.125,329.875L75.11333333333334,329.875L76.10166666666666,329.875L77.09,331.4458333333333L78.07833333333332,329.875L79.06666666666666,300.0291666666667L80.055,292.175L81.04333333333332,270.18333333333334L82.03166666666667,229.3416666666667L83.02000000000001,306.3125L84.00833333333333,311.025L84.99666666666667,312.5958333333333L85.985,307.8833333333333L86.97333333333333,320.45L87.96166666666667,314.1666666666667L88.95,304.7416666666667L89.93833333333333,309.45416666666665L90.92666666666666,259.1875L91.915,298.4583333333333L92.90333333333334,273.325L93.89166666666667,279.60833333333335L94.88,282.75L95.86833333333333,296.8875L96.85666666666667,284.3208333333333L97.845,287.4625L98.83333333333333,237.19583333333333L99.82166666666667,281.1791666666667L100.81,284.3208333333333L101.79833333333333,213.63333333333333L102.78666666666668,128.80833333333334L103.77499999999999,273.325L104.76333333333334,116.24166666666667L105.75166666666668,218.3458333333333L106.74,215.20416666666665L107.72833333333334,237.19583333333333L108.71666666666665,221.4875L109.705,224.62916666666666L110.69333333333334,186.92916666666667L111.68166666666666,202.6375L112.67,127.23750000000001L113.65833333333335,128.80833333333334L114.64666666666666,153.94166666666666L115.635,152.37083333333334L116.62333333333332,138.23333333333335L117.61166666666666,226.2L118.60000000000001,31.416666666666682L119.58833333333332,177.50416666666666L120.57666666666667,230.91250000000002L121.565,278.0375L122.55333333333333,152.37083333333334L123.54166666666667,147.65833333333336L124.53,193.21249999999998L125.51833333333333,274.89583333333337L126.50666666666667,241.9083333333333L127.495,213.63333333333333L128.48333333333335,89.53750000000002L129.47166666666666,31.416666666666682L130.46,169.64999999999998L131.44833333333335,219.91666666666663L132.43666666666667,226.2L133.425,76.97083333333336L134.41333333333333,31.416666666666682L135.40166666666667,31.416666666666682L136.39000000000001,50.26666666666666L137.37833333333333,31.416666666666682L138.36666666666667,31.416666666666682L139.355,48.695833333333326L140.34333333333333,31.416666666666682L141.33166666666668,31.416666666666682L142.32,31.416666666666682L143.30833333333334,31.416666666666682L144.29666666666668,31.416666666666682L145.285,36.12916666666666L146.27333333333334,31.416666666666682L147.26166666666666,31.416666666666682L148.25,31.416666666666682L149.23833333333332,53.40833333333335L150.2266666666667,31.416666666666682L151.215,31.416666666666682L152.20333333333332,31.416666666666682L153.1916666666667,48.695833333333326L154.18,31.416666666666682L155.16833333333332,31.416666666666682L156.15666666666664,86.39583333333331L157.145,70.6875L158.13333333333333,155.5125L159.12166666666664,174.3625L160.11,164.9375L161.09833333333333,59.69166666666666L162.08666666666664,31.416666666666682L163.07500000000002,53.40833333333335L164.06333333333333,50.26666666666666L165.05166666666665,31.416666666666682L166.04000000000002,31.416666666666682L167.02833333333334,31.416666666666682L168.01666666666665,31.416666666666682L169.005,31.416666666666682L169.99333333333334,31.416666666666682L170.98166666666665,31.416666666666682L171.97,31.416666666666682L172.95833333333334,31.416666666666682L173.94666666666666,31.416666666666682L174.935,31.416666666666682L175.92333333333335,56.55000000000001L176.91166666666666,31.416666666666682L177.9,31.416666666666682L178.88833333333335,31.416666666666682L179.87666666666667,31.416666666666682L180.865,31.416666666666682L181.85333333333332,31.416666666666682L182.84166666666667,31.416666666666682L183.83,31.416666666666682L184.81833333333333,31.416666666666682L185.80666666666667,31.416666666666682L186.795,100.53333333333336L187.78333333333333,64.40416666666664L188.77166666666668,47.125L189.76,31.416666666666682L190.74833333333333,31.416666666666682L191.73666666666665,31.416666666666682L192.725,91.10833333333335L193.71333333333334,31.416666666666682L194.70166666666665,31.416666666666682L195.69,100.53333333333336L196.67833333333334,31.416666666666682L197.66666666666666,31.416666666666682L198.655,31.416666666666682L199.64333333333335,31.416666666666682L200.63166666666666,31.416666666666682L201.62,31.416666666666682L202.60833333333335,31.416666666666682L203.59666666666666,31.416666666666682L204.58499999999998,31.416666666666682L205.57333333333335,31.416666666666682L206.56166666666667,31.416666666666682L207.54999999999998,31.416666666666682L208.53833333333336,31.416666666666682L209.52666666666667,31.416666666666682L210.515,31.416666666666682L211.50333333333336,31.416666666666682L212.49166666666667,31.416666666666682L213.48,31.416666666666682L214.46833333333336,31.416666666666682L215.45666666666668,31.416666666666682L216.445,47.125L217.4333333333333,31.416666666666682L218.42166666666668,31.416666666666682L219.41,31.416666666666682L220.3983333333333,31.416666666666682L221.38666666666668,31.416666666666682L222.375,31.416666666666682L223.36333333333332,31.416666666666682L224.3516666666667,31.416666666666682L225.34,36.12916666666666L226.32833333333332,31.416666666666682L227.3166666666667,31.416666666666682L228.305,75.39999999999998L229.29333333333332,31.416666666666682L230.28166666666664,31.416666666666682L231.27,31.416666666666682L232.25833333333333,31.416666666666682L233.24666666666664,31.416666666666682L234.235,98.96249999999998L235.22333333333333,31.416666666666682L236.21166666666664,31.416666666666682L237.20000000000002,31.416666666666682L238.18833333333333,31.416666666666682L239.17666666666665,31.416666666666682L240.16500000000002,31.416666666666682L241.15333333333334,31.416666666666682L242.14166666666665,31.416666666666682L243.13,31.416666666666682L244.11833333333334,31.416666666666682L245.10666666666665,65.97500000000002L246.095,31.416666666666682L247.08333333333334,31.416666666666682L248.07166666666666,31.416666666666682L249.06,84.82499999999999L250.04833333333335,31.416666666666682L251.03666666666666,31.416666666666682L252.025,31.416666666666682L253.01333333333335,31.416666666666682L254.00166666666667,31.416666666666682L254.99,31.416666666666682L255.97833333333332,31.416666666666682L256.9666666666667,31.416666666666682L257.955,45.554166666666674L258.9433333333333,31.416666666666682L259.9316666666667,31.416666666666682L260.92,87.96666666666664L261.9083333333333,31.416666666666682L262.8966666666667,83.25416666666666L263.885,31.416666666666682L264.87333333333333,31.416666666666682L265.8616666666667,31.416666666666682L266.85,31.416666666666682L267.8383333333333,102.10416666666669L268.82666666666665,31.416666666666682L269.815,31.416666666666682L270.80333333333334,37.69999999999999L271.79166666666663,31.416666666666682L272.78000000000003,31.416666666666682L273.7683333333333,53.40833333333335L274.75666666666666,31.416666666666682L275.745,59.69166666666666L276.73333333333335,31.416666666666682L277.72166666666664,31.416666666666682L278.71,31.416666666666682L279.6983333333333,32.98750000000001L280.68666666666667,31.416666666666682L281.675,31.416666666666682L282.66333333333336,72.25833333333333L283.65166666666664,31.416666666666682L284.64,31.416666666666682L285.62833333333333,31.416666666666682L286.6166666666667,31.416666666666682L287.605,130.37916666666666L288.59333333333336,31.416666666666682L289.58166666666665,31.416666666666682L290.57,31.416666666666682L291.55833333333334,31.416666666666682L292.5466666666667,31.416666666666682L293.535,31.416666666666682L294.5233333333333,47.125L295.51166666666666,67.54583333333335L296.5,31.416666666666682L297.48833333333334,31.416666666666682L298.47666666666663,31.416666666666682L299.465,31.416666666666682L300.4533333333334,108.38749999999999L301.44166666666666,31.416666666666682L302.43,56.55000000000001L303.41833333333335,31.416666666666682L304.40666666666664,75.39999999999998L305.395,95.82083333333333L306.3833333333334,31.416666666666682L307.37166666666667,58.12083333333334L308.36,92.67916666666667L309.3483333333333,51.837499999999984L310.33666666666664,31.416666666666682L311.325,31.416666666666682L312.3133333333333,31.416666666666682L313.3016666666667,31.416666666666682L314.29,89.53750000000002L315.2783333333333,105.24583333333334L316.26666666666665,31.416666666666682L317.255,89.53750000000002L318.2433333333333,31.416666666666682L319.2316666666667,31.416666666666682L320.22,31.416666666666682L321.2083333333333,31.416666666666682L322.19666666666666,42.412500000000016L323.185,31.416666666666682L324.1733333333333,31.416666666666682L325.1616666666667,31.416666666666682L326.15000000000003,138.23333333333335L327.1383333333333,114.67083333333335L328.12666666666667,127.23750000000001L329.115,31.416666666666682L330.1033333333333,39.27083333333332L331.0916666666667,31.416666666666682L332.08000000000004,31.416666666666682L333.0683333333333,31.416666666666682L334.0566666666667,31.416666666666682L335.04499999999996,56.55000000000001L336.0333333333333,31.416666666666682L337.0216666666667,31.416666666666682L338.01,31.416666666666682L338.99833333333333,43.98333333333334L339.9866666666667,87.96666666666664L340.97499999999997,31.416666666666682L341.9633333333333,31.416666666666682L342.9516666666667,31.416666666666682L343.94,91.10833333333335L344.92833333333334,31.416666666666682L345.9166666666667,31.416666666666682L346.905,31.416666666666682L347.8933333333333,73.82916666666665L348.8816666666667,76.97083333333336L349.87,39.27083333333332L350.85833333333335,62.83333333333332L351.8466666666667,59.69166666666666L352.835,67.54583333333335L353.8233333333333,70.6875L354.8116666666667,43.98333333333334L355.8,31.416666666666682L356.78833333333336,31.416666666666682L357.7766666666667,31.416666666666682L358.765,31.416666666666682L359.75333333333333,31.416666666666682L360.7416666666666,31.416666666666682L361.73,62.83333333333332L362.71833333333336,76.97083333333336L363.70666666666665,31.416666666666682L364.695,31.416666666666682L365.68333333333334,53.40833333333335L366.6716666666666,31.416666666666682L367.66,50.26666666666666L368.64833333333337,76.97083333333336L369.63666666666666,102.10416666666669L370.625,117.8125L371.61333333333334,51.837499999999984L372.60166666666663,31.416666666666682L373.59,31.416666666666682L374.5783333333334,102.10416666666669L375.56666666666666,31.416666666666682L376.555,31.416666666666682L377.54333333333335,31.416666666666682L378.53166666666664,51.837499999999984L379.52,31.416666666666682L380.5083333333334,31.416666666666682L381.49666666666667,56.55000000000001L382.485,61.26249999999999L383.4733333333333,139.80416666666667L384.46166666666664,31.416666666666682L385.45,51.837499999999984L386.4383333333333,32.98750000000001L387.4266666666667,31.416666666666682L388.415,31.416666666666682L389.4033333333333,67.54583333333335L390.39166666666665,31.416666666666682L391.38,31.416666666666682L392.3683333333333,43.98333333333334L393.3566666666667,76.97083333333336L394.345,138.23333333333335L395.3333333333333,42.412500000000016L396.32166666666666,31.416666666666682L397.31,31.416666666666682L398.2983333333333,87.96666666666664L399.2866666666667,31.416666666666682L400.27500000000003,133.52083333333331L401.2633333333333,61.26249999999999L402.25166666666667,31.416666666666682L403.24,32.98750000000001L404.2283333333333,61.26249999999999L405.2166666666667,31.416666666666682L406.20500000000004,31.416666666666682L407.1933333333333,86.39583333333331L408.1816666666667,81.68333333333334L409.16999999999996,31.416666666666682L410.1583333333333,31.416666666666682L411.1466666666667,31.416666666666682L412.135,100.53333333333336L413.12333333333333,31.416666666666682L414.1116666666667,31.416666666666682L415.09999999999997,113.10000000000002L416.0883333333333,105.24583333333334L417.0766666666667,31.416666666666682L418.065,94.25L419.05333333333334,64.40416666666664L420.0416666666667,31.416666666666682L421.03,31.416666666666682L422.0183333333333,51.837499999999984L423.0066666666667,48.695833333333326L423.995,64.40416666666664L424.98333333333335,100.53333333333336L425.9716666666667,34.55833333333334L426.96,31.416666666666682L427.9483333333333,31.416666666666682L428.9366666666667,31.416666666666682L429.925,31.416666666666682L430.91333333333336,31.416666666666682L431.9016666666667,31.416666666666682L432.89,98.96249999999998L433.87833333333333,31.416666666666682L434.8666666666666,67.54583333333335L435.855,119.38333333333333L436.84333333333336,40.84166666666665L437.83166666666665,116.24166666666667L438.82,53.40833333333335L439.80833333333334,87.96666666666664L440.7966666666666,130.37916666666666L441.785,31.416666666666682L442.77333333333337,31.416666666666682L443.76166666666666,31.416666666666682L444.75,31.416666666666682L445.73833333333334,116.24166666666667L446.72666666666663,31.416666666666682L447.715,31.416666666666682L448.7033333333334,32.98750000000001L449.69166666666666,81.68333333333334L450.68,70.6875L451.66833333333335,94.25L452.65666666666664,31.416666666666682L453.645,120.95416666666665L454.6333333333334,31.416666666666682L455.62166666666667,31.416666666666682L456.61,31.416666666666682L457.5983333333333,31.416666666666682L458.58666666666664,124.09583333333336L459.575,31.416666666666682L460.5633333333333,116.24166666666667L461.5516666666667,119.38333333333333L462.54,31.416666666666682L463.5283333333333,76.97083333333336L464.51666666666665,31.416666666666682L465.505,48.695833333333326L466.4933333333333,135.09166666666664L467.4816666666667,120.95416666666665L468.47,124.09583333333336L469.4583333333333,67.54583333333335L470.44666666666666,133.52083333333331L471.435,100.53333333333336L472.4233333333333,84.82499999999999L473.4116666666667,130.37916666666666L474.40000000000003,94.25L475.3883333333333,61.26249999999999L476.37666666666667,31.416666666666682L477.365,31.416666666666682L478.3533333333333,111.52916666666664L479.3416666666667,64.40416666666664L480.33000000000004,80.11250000000001L481.3183333333333,72.25833333333333L482.3066666666667,31.416666666666682L483.29499999999996,31.416666666666682L484.2833333333333,138.23333333333335L485.2716666666667,124.09583333333336L486.26,114.67083333333335L487.24833333333333,34.55833333333334L488.2366666666667,83.25416666666666L489.22499999999997,81.68333333333334L490.2133333333333,40.84166666666665L491.2016666666667,31.416666666666682L492.19,31.416666666666682L493.17833333333334,102.10416666666669L494.1666666666667,31.416666666666682L495.155,102.10416666666669L496.1433333333333,31.416666666666682L497.1316666666667,78.54166666666669L498.12,45.554166666666674L499.10833333333335,117.8125L500.0966666666667,31.416666666666682L501.085,31.416666666666682L502.0733333333333,94.25L503.0616666666667,43.98333333333334L504.05,31.416666666666682L505.03833333333336,65.97500000000002L506.0266666666667,97.39166666666665L507.015,31.416666666666682L508.00333333333333,34.55833333333334L508.9916666666666,64.40416666666664L509.98,31.416666666666682L510.96833333333336,31.416666666666682L511.95666666666665,65.97500000000002L512.945,31.416666666666682L513.9333333333334,91.10833333333335L514.9216666666666,94.25L515.91,83.25416666666666L516.8983333333333,31.416666666666682L517.8866666666667,31.416666666666682L518.875,53.40833333333335L519.8633333333333,100.53333333333336L520.8516666666667,114.67083333333335L521.84,109.95833333333331L522.8283333333334,31.416666666666682L523.8166666666666,125.66666666666669L524.805,31.416666666666682L525.7933333333334,92.67916666666667L526.7816666666666,31.416666666666682L527.77,70.6875L528.7583333333333,142.94583333333333L529.7466666666667,51.837499999999984L530.735,31.416666666666682L531.7233333333334,31.416666666666682L532.7116666666667,48.695833333333326L533.7,36.12916666666666L534.6883333333333,51.837499999999984L535.6766666666666,31.416666666666682L536.665,31.416666666666682L537.6533333333333,31.416666666666682L538.6416666666667,31.416666666666682L539.63,31.416666666666682L540.6183333333333,31.416666666666682L541.6066666666667,54.97916666666668L542.595,31.416666666666682L543.5833333333333,89.53750000000002L544.5716666666667,61.26249999999999L545.5600000000001,36.12916666666666L546.5483333333333,65.97500000000002L547.5366666666666,31.416666666666682L548.525,139.80416666666667L549.5133333333333,31.416666666666682L550.5016666666667,119.38333333333333L551.49,31.416666666666682L552.4783333333334,64.40416666666664L553.4666666666667,31.416666666666682L554.455,31.416666666666682L555.4433333333333,119.38333333333333L556.4316666666667,31.416666666666682L557.42,97.39166666666665L558.4083333333333,31.416666666666682L559.3966666666666,31.416666666666682L560.385,31.416666666666682L561.3733333333333,31.416666666666682L562.3616666666667,130.37916666666666L563.35,75.39999999999998L564.3383333333334,31.416666666666682L565.3266666666667,73.82916666666665L566.3149999999999,31.416666666666682L567.3033333333333,31.416666666666682L568.2916666666667,31.416666666666682L569.28,31.416666666666682L570.2683333333333,106.81666666666666L571.2566666666667,31.416666666666682L572.245,31.416666666666682L573.2333333333333,50.26666666666666" style="fill: none;" fill="none"></path></g></g></g></g></g></g><g transform="translate(40, 377)" clip-path="url(#clip_1)"><clipPath id="clip_1"><rect width="593" height="23"></rect></clipPath><g><g><line x1="0" y1="0" x2="0" y2="5" style="visibility: inherit;" fill="rgb(0, 0, 0)" stroke="rgb(204, 204, 204)" stroke-width="1px"></line><line x1="49.416666666666664" y1="0" x2="49.416666666666664" y2="5" style="visibility: inherit;" fill="rgb(0, 0, 0)" stroke="rgb(204, 204, 204)" stroke-width="1px"></line><line x1="98.83333333333333" y1="0" x2="98.83333333333333" y2="5" style="visibility: inherit;" fill="rgb(0, 0, 0)" stroke="rgb(204, 204, 204)" stroke-width="1px"></line><line x1="148.25" y1="0" x2="148.25" y2="5" style="visibility: inherit;" fill="rgb(0, 0, 0)" stroke="rgb(204, 204, 204)" stroke-width="1px"></line><line x1="197.66666666666666" y1="0" x2="197.66666666666666" y2="5" style="visibility: inherit;" fill="rgb(0, 0, 0)" stroke="rgb(204, 204, 204)" stroke-width="1px"></line><line x1="247.08333333333334" y1="0" x2="247.08333333333334" y2="5" style="visibility: inherit;" fill="rgb(0, 0, 0)" stroke="rgb(204, 204, 204)" stroke-width="1px"></line><line x1="296.5" y1="0" x2="296.5" y2="5" style="visibility: inherit;" fill="rgb(0, 0, 0)" stroke="rgb(204, 204, 204)" stroke-width="1px"></line><line x1="345.9166666666667" y1="0" x2="345.9166666666667" y2="5" style="visibility: inherit;" fill="rgb(0, 0, 0)" stroke="rgb(204, 204, 204)" stroke-width="1px"></line><line x1="395.3333333333333" y1="0" x2="395.3333333333333" y2="5" style="visibility: inherit;" fill="rgb(0, 0, 0)" stroke="rgb(204, 204, 204)" stroke-width="1px"></line><line x1="444.75" y1="0" x2="444.75" y2="5" style="visibility: inherit;" fill="rgb(0, 0, 0)" stroke="rgb(204, 204, 204)" stroke-width="1px"></line><line x1="494.1666666666667" y1="0" x2="494.1666666666667" y2="5" style="visibility: inherit;" fill="rgb(0, 0, 0)" stroke="rgb(204, 204, 204)" stroke-width="1px"></line><line x1="543.5833333333333" y1="0" x2="543.5833333333333" y2="5" style="visibility: inherit;" fill="rgb(0, 0, 0)" stroke="rgb(204, 204, 204)" stroke-width="1px"></line><line x1="593" y1="0" x2="593" y2="5" style="visibility: inherit;" fill="rgb(0, 0, 0)" stroke="rgb(204, 204, 204)" stroke-width="1px"></line></g><g transform="translate(0, 8)"><text x="0" y="0" dx="0em" dy="0.95em" style="text-anchor: middle; visibility: hidden; font-family: Roboto, sans-serif; font-size: 12px; font-weight: 200;" fill="rgb(33, 33, 33)" stroke="none" stroke-width="1px">-50</text><text x="49.416666666666664" y="0" dx="0em" dy="0.95em" style="text-anchor: middle; visibility: inherit; font-family: Roboto, sans-serif; font-size: 12px; font-weight: 200;" fill="rgb(33, 33, 33)" stroke="none" stroke-width="1px">0</text><text x="98.83333333333333" y="0" dx="0em" dy="0.95em" style="text-anchor: middle; visibility: inherit; font-family: Roboto, sans-serif; font-size: 12px; font-weight: 200;" fill="rgb(33, 33, 33)" stroke="none" stroke-width="1px">50</text><text x="148.25" y="0" dx="0em" dy="0.95em" style="text-anchor: middle; visibility: inherit; font-family: Roboto, sans-serif; font-size: 12px; font-weight: 200;" fill="rgb(33, 33, 33)" stroke="none" stroke-width="1px">100</text><text x="197.66666666666666" y="0" dx="0em" dy="0.95em" style="text-anchor: middle; visibility: inherit; font-family: Roboto, sans-serif; font-size: 12px; font-weight: 200;" fill="rgb(33, 33, 33)" stroke="none" stroke-width="1px">150</text><text x="247.08333333333334" y="0" dx="0em" dy="0.95em" style="text-anchor: middle; visibility: inherit; font-family: Roboto, sans-serif; font-size: 12px; font-weight: 200;" fill="rgb(33, 33, 33)" stroke="none" stroke-width="1px">200</text><text x="296.5" y="0" dx="0em" dy="0.95em" style="text-anchor: middle; visibility: inherit; font-family: Roboto, sans-serif; font-size: 12px; font-weight: 200;" fill="rgb(33, 33, 33)" stroke="none" stroke-width="1px">250</text><text x="345.9166666666667" y="0" dx="0em" dy="0.95em" style="text-anchor: middle; visibility: inherit; font-family: Roboto, sans-serif; font-size: 12px; font-weight: 200;" fill="rgb(33, 33, 33)" stroke="none" stroke-width="1px">300</text><text x="395.3333333333333" y="0" dx="0em" dy="0.95em" style="text-anchor: middle; visibility: inherit; font-family: Roboto, sans-serif; font-size: 12px; font-weight: 200;" fill="rgb(33, 33, 33)" stroke="none" stroke-width="1px">350</text><text x="444.75" y="0" dx="0em" dy="0.95em" style="text-anchor: middle; visibility: inherit; font-family: Roboto, sans-serif; font-size: 12px; font-weight: 200;" fill="rgb(33, 33, 33)" stroke="none" stroke-width="1px">400</text><text x="494.1666666666667" y="0" dx="0em" dy="0.95em" style="text-anchor: middle; visibility: inherit; font-family: Roboto, sans-serif; font-size: 12px; font-weight: 200;" fill="rgb(33, 33, 33)" stroke="none" stroke-width="1px">450</text><text x="543.5833333333333" y="0" dx="0em" dy="0.95em" style="text-anchor: middle; visibility: inherit; font-family: Roboto, sans-serif; font-size: 12px; font-weight: 200;" fill="rgb(33, 33, 33)" stroke="none" stroke-width="1px">500</text><text x="593" y="0" dx="0em" dy="0.95em" style="text-anchor: middle; visibility: hidden; font-family: Roboto, sans-serif; font-size: 12px; font-weight: 200;" fill="rgb(33, 33, 33)" stroke="none" stroke-width="1px">550</text></g><line x1="0" y1="0" x2="593" y2="0" fill="rgb(0, 0, 0)" stroke="rgb(204, 204, 204)" stroke-width="1px"></line></g></g></g></g></svg>