<svg viewBox="0 0 633 400" xmlns="http://www.w3.org/2000/svg"><g><g><g><g><g><line x1="50" y1="356.16201927031426" x2="45" y2="356.16201927031426" style="visibility: inherit;" fill="rgb(0, 0, 0)" stroke="rgb(204, 204, 204)" stroke-width="1px"></line><line x1="50" y1="303.71074144911944" x2="45" y2="303.71074144911944" style="visibility: inherit;" fill="rgb(0, 0, 0)" stroke="rgb(204, 204, 204)" stroke-width="1px"></line><line x1="50" y1="251.2594636279246" x2="45" y2="251.2594636279246" style="visibility: inherit;" fill="rgb(0, 0, 0)" stroke="rgb(204, 204, 204)" stroke-width="1px"></line><line x1="50" y1="198.80818580672974" x2="45" y2="198.80818580672974" style="visibility: inherit;" fill="rgb(0, 0, 0)" stroke="rgb(204, 204, 204)" stroke-width="1px"></line><line x1="50" y1="146.35690798553495" x2="45" y2="146.35690798553495" style="visibility: inherit;" fill="rgb(0, 0, 0)" stroke="rgb(204, 204, 204)" stroke-width="1px"></line><line x1="50" y1="93.90563016434012" x2="45" y2="93.90563016434012" style="visibility: inherit;" fill="rgb(0, 0, 0)" stroke="rgb(204, 204, 204)" stroke-width="1px"></line><line x1="50" y1="41.45435234314527" x2="45" y2="41.45435234314527" style="visibility: inherit;" fill="rgb(0, 0, 0)" stroke="rgb(204, 204, 204)" stroke-width="1px"></line></g><g transform="translate(40, 0)"><text x="0" y="356.16201927031426" dx="0em" dy="0.3em" style="text-anchor: end; visibility: inherit; font-family: Roboto, sans-serif; font-size: 12px; font-weight: 200;" fill="rgb(33, 33, 33)" stroke="none" stroke-width="1px">-600</text><text x="0" y="303.71074144911944" dx="0em" dy="0.3em" style="text-anchor: end; visibility: inherit; font-family: Roboto, sans-serif; font-size: 12px; font-weight: 200;" fill="rgb(33, 33, 33)" stroke="none" stroke-width="1px">-500</text><text x="0" y="251.2594636279246" dx="0em" dy="0.3em" style="text-anchor: end; visibility: inherit; font-family: Roboto, sans-serif; font-size: 12px; font-weight: 200;" fill="rgb(33, 33, 33)" stroke="none" stroke-width="1px">-400</text><text x="0" y="198.80818580672974" dx="0em" dy="0.3em" style="text-anchor: end; visibility: inherit; font-family: Roboto, sans-serif; font-size: 12px; font-weight: 200;" fill="rgb(33, 33, 33)" stroke="none" stroke-width="1px">-300</text><text x="0" y="146.35690798553495" dx="0em" dy="0.3em" style="text-anchor: end; visibility: inherit; font-family: Roboto, sans-serif; font-size: 12px; font-weight: 200;" fill="rgb(33, 33, 33)" stroke="none" stroke-width="1px">-200</text><text x="0" y="93.90563016434012" dx="0em" dy="0.3em" style="text-anchor: end; visibility: inherit; font-family: Roboto, sans-serif; font-size: 12px; font-weight: 200;" fill="rgb(33, 33, 33)" stroke="none" stroke-width="1px">-100</text><text x="0" y="41.45435234314527" dx="0em" dy="0.3em" style="text-anchor: end; visibility: inherit; font-family: Roboto, sans-serif; font-size: 12px; font-weight: 200;" fill="rgb(33, 33, 33)" stroke="none" stroke-width="1px">0</text></g><line x1="50" y1="0" x2="50" y2="377" fill="rgb(0, 0, 0)" stroke="rgb(204, 204, 204)" stroke-width="1px"></line></g></g><g transform="translate(50, 0)" clip-path="url(#clip_0)"><clipPath id="clip_0"><rect width="583" height="377"></rect></clipPath><g><g><g><line x1="10.557362744913622" y1="0" x2="10.557362744913622" y2="377" fill="rgb(0, 0, 0)" stroke="rgb(66, 66, 66)" stroke-width="1px" opacity="0.25"></line><line x1="66.77776988272" y1="0" x2="66.77776988272" y2="377" fill="rgb(0, 0, 0)" stroke="rgb(66, 66, 66)" stroke-width="1px" opacity="0.25"></line><line x1="122.99817702052638" y1="0" x2="122.99817702052638" y2="377" fill="rgb(0, 0, 0)" stroke="rgb(66, 66, 66)" stroke-width="1px" opacity="0.25"></line><line x1="179.21858415833276" y1="0" x2="179.21858415833276" y2="377" fill="rgb(0, 0, 0)" stroke="rgb(66, 66, 66)" stroke-width="1px" opacity="0.25"></line><line x1="235.43899129613914" y1="0" x2="235.43899129613914" y2="377" fill="rgb(0, 0, 0)" stroke="rgb(66, 66, 66)" stroke-width="1px" opacity="0.25"></line><line x1="291.65939843394546" y1="0" x2="291.65939843394546" y2="377" fill="rgb(0, 0, 0)" stroke="rgb(66, 66, 66)" stroke-width="1px" opacity="0.25"></line><line x1="347.87980557175183" y1="0" x2="347.87980557175183" y2="377" fill="rgb(0, 0, 0)" stroke="rgb(66, 66, 66)" stroke-width="1px" opacity="0.25"></line><line x1="404.1002127095582" y1="0" x2="404.1002127095582" y2="377" fill="rgb(0, 0, 0)" stroke="rgb(66, 66, 66)" stroke-width="1px" opacity="0.25"></line><line x1="460.32061984736464" y1="0" x2="460.32061984736464" y2="377" fill="rgb(0, 0, 0)" stroke="rgb(66, 66, 66)" stroke-width="1px" opacity="0.25"></line><line x1="516.541026985171" y1="0" x2="516.541026985171" y2="377" fill="rgb(0, 0, 0)" stroke="rgb(66, 66, 66)" stroke-width="1px" opacity="0.25"></line><line x1="572.7614341229773" y1="0" x2="572.7614341229773" y2="377" fill="rgb(0, 0, 0)" stroke="rgb(66, 66, 66)" stroke-width="1px" opacity="0.25"></line></g><g><line x1="0" y1="356.16201927031426" x2="583" y2="356.16201927031426" fill="rgb(0, 0, 0)" stroke="rgb(66, 66, 66)" stroke-width="1px" opacity="0.25"></line><line x1="0" y1="303.71074144911944" x2="583" y2="303.71074144911944" fill="rgb(0, 0, 0)" stroke="rgb(66, 66, 66)" stroke-width="1px" opacity="0.25"></line><line x1="0" y1="251.2594636279246" x2="583" y2="251.2594636279246" fill="rgb(0, 0, 0)" stroke="rgb(66, 66, 66)" stroke-width="1px" opacity="0.25"></line><line x1="0" y1="198.80818580672974" x2="583" y2="198.80818580672974" fill="rgb(0, 0, 0)" stroke="rgb(66, 66, 66)" stroke-width="1px" opacity="0.25"></line><line x1="0" y1="146.35690798553495" x2="583" y2="146.35690798553495" fill="rgb(0, 0, 0)" stroke="rgb(66, 66, 66)" stroke-width="1px" opacity="0.25"></line><line x1="0" y1="93.90563016434012" x2="583" y2="93.90563016434012" fill="rgb(0, 0, 0)" stroke="rgb(66, 66, 66)" stroke-width="1px" opacity="0.25"></line><line x1="0" y1="41.45435234314527" x2="583" y2="41.45435234314527" fill="rgb(0, 0, 0)" stroke="rgb(66, 66, 66)" stroke-width="1px" opacity="0.25"></line></g></g></g><g><g><line x1="0" y1="41.45435234314527" x2="583" y2="41.45435234314527" fill="rgb(0, 0, 0)" stroke="rgb(153, 153, 153)" stroke-width="1.5px"></line></g></g><g><g><line x1="10.557362744913622" y1="0" x2="10.557362744913622" y2="377" fill="rgb(0, 0, 0)" stroke="rgb(153, 153, 153)" stroke-width="1.5px"></line></g></g><g><g><g><g><g><path stroke="rgb(51, 187, 238)" stroke-width="2px" d="M17.303811601450388,303.71074144911944L18.428219744206515,303.71074144911944L24.050260457987154,303.71074144911944L27.423484886255533,303.71074144911944L28.547893029011664,303.71074144911944L31.921117457280044,303.71074144911944L34.1699337427923,193.03854524639834L38.667566313816806,247.58787418044096L52.160464026890345,272.23997475640255L56.658096597914856,281.6812047642176L58.90691288342711,303.71074144911944L61.15572916893936,272.23997475640255L62.28013731169549,232.90151639050643L64.52895359720775,201.95526247600148L71.27540245374452,303.71074144911944L72.39981059650063,153.7000868805022L73.52421873925677,272.76448753461443L74.64862688201289,214.01905637487627L75.77303502476903,229.75443972123475L84.76830016681804,156.84716354977394L88.14152459508644,139.5382418687796L91.51474902335481,168.9109574486487L92.63915716611093,232.37700361229446L93.76356530886707,140.58726742520352L94.88797345162318,204.05331358884928L100.51001416540383,164.71485522295316L109.50527930745285,134.81762686487207L110.62968745020898,178.87670023467575L117.37613630674575,123.80285852242116L126.37140144879476,208.24941581454482L129.74462587706316,189.3669557989147L130.86903401981928,165.76388077937702L138.73989101911215,148.97947187659472L142.11311544738055,161.04326577546948L144.3619317328928,117.5087051838778L153.35719687494182,152.1265485458664L156.7304213032102,157.37167632798585L157.85482944596635,133.24408853023624L167.97450273077146,145.30788242911106L170.22331901628374,144.25885687268715L171.34772715903986,123.80285852242116L172.472135301796,113.83711573639417L180.34299230108888,142.6853185380513L185.96503301486953,143.7343440944752L188.21384930038178,148.45495909838274L189.3382574431379,158.42070188440974L193.83589001416243,148.97947187659472L199.45793072794308,173.1070596743443L200.58233887069918,162.0922913318934L203.95556329896755,135.86665242129598L210.70201215550435,152.1265485458664L211.82642029826044,133.24408853023624L214.07523658377272,124.32737130063312L217.4484610120411,123.2783457442092L219.69727729755334,166.28839355758896L220.82168544030947,151.60203576765443L223.07050172582174,108.59198795427467L225.319318011334,114.88614129281802L226.44372615409011,119.08224351851362L234.314583153383,113.83711573639417L243.309848295432,134.29311408666013L244.43425643818816,147.40593354195883L245.55866458094428,182.54828968215938L250.0562971519688,112.2635774017583L261.30037857953005,152.65106132407834L262.42478672228617,127.99896074811676L264.6736030077984,100.19978350288349L269.171235578823,152.1265485458664L272.54446000709135,127.4744479699048L273.66886814984747,156.32265077156197L274.7932762926036,133.24408853023624L278.16650072087197,130.62152463917647L291.65939843394546,146.8814207637469L298.40584729048226,125.37639685705703L301.77907171875063,201.4307496977895L304.0278880042629,135.34213964308404L305.152296147019,142.6853185380513L307.4011124325313,109.64101351069857L311.8987450035558,125.90090963526897L316.39637757458024,130.62152463917647L318.64519386009255,121.18029463136143L324.26723457387317,117.5087051838778L340.00894857245896,114.36162851460612L345.63098928623964,122.2293201877853L346.7553974289957,130.62152463917647L351.2530300000202,133.24408853023624L352.3774381427764,110.16552628891053L356.8750707138009,136.39116519950792L357.99947885655706,152.65106132407834L360.24829514206925,120.65578185314948L363.6215195703376,119.08224351851362L369.2435602841183,101.77332183751935L370.36796842687437,110.69003906712244L371.49237656963055,132.7195757520243L377.11441728341117,87.0869640475848L378.2388254261673,99.67527072467153L379.3632335689234,124.85188407884507L382.7364579971918,127.99896074811676L392.85613128199697,133.7686013084482L395.1049475675092,303.71074144911944L401.851396424046,111.73906462354635L408.59784528058276,122.2293201877853L409.7222534233389,148.45495909838274L416.46870227987563,107.54296239785076L419.841926708144,124.85188407884507L424.33955927916855,95.47916849897594L428.83719185019305,115.93516684924194L431.0860081357053,109.64101351069857L435.5836407067298,115.93516684924194L436.708048849486,118.55773074030166L437.83245699224204,106.49393684142689L440.08127327775435,99.15075794645958L445.7033139915349,106.49393684142689L451.3253547053156,100.72429628109543L452.44976284807177,97.05270683361181L453.57417099082784,116.4596796274539L470.44029313216976,99.15075794645958L478.3111501314627,133.7686013084482L485.0575989879994,120.13126907493753L486.18200713075555,97.05270683361181L488.4308234162678,102.2978346157313L490.6796397017801,107.54296239785076L495.17727227280454,115.93516684924194L505.2969455576097,98.1017323900357L507.54576184312197,111.73906462354635L508.6701699858781,107.0184496196388L512.0433944141465,102.82234739394326L518.7898432706833,126.42542241348089L527.7851084127323,133.7686013084482L528.9095165554884,154.22459965871417L532.2827409837569,100.72429628109543L533.4071491265129,88.13598960400867L543.5268224113181,171.00900856149653L544.6512305540741,93.90563016434012L557.0197201243916,105.96942406321494L560.39294455266,94.43014294255208L561.5173526954161,97.05270683361181L563.7661689809283,101.24880905930739L566.0149852664406,102.2978346157313L581.7566992650264,105.96942406321494L587.3787399788071,93.90563016434012" style="fill: none;" fill="none"></path></g></g></g></g></g></g><g transform="translate(50, 377)" clip-path="url(#clip_1)"><clipPath id="clip_1"><rect width="583" height="23"></rect></clipPath><g><g><line x1="10.557362744913622" y1="0" x2="10.557362744913622" y2="5" style="visibility: inherit;" fill="rgb(0, 0, 0)" stroke="rgb(204, 204, 204)" stroke-width="1px"></line><line x1="66.77776988272" y1="0" x2="66.77776988272" y2="5" style="visibility: inherit;" fill="rgb(0, 0, 0)" stroke="rgb(204, 204, 204)" stroke-width="1px"></line><line x1="122.99817702052638" y1="0" x2="122.99817702052638" y2="5" style="visibility: inherit;" fill="rgb(0, 0, 0)" stroke="rgb(204, 204, 204)" stroke-width="1px"></line><line x1="179.21858415833276" y1="0" x2="179.21858415833276" y2="5" style="visibility: inherit;" fill="rgb(0, 0, 0)" stroke="rgb(204, 204, 204)" stroke-width="1px"></line><line x1="235.43899129613914" y1="0" x2="235.43899129613914" y2="5" style="visibility: inherit;" fill="rgb(0, 0, 0)" stroke="rgb(204, 204, 204)" stroke-width="1px"></line><line x1="291.65939843394546" y1="0" x2="291.65939843394546" y2="5" style="visibility: inherit;" fill="rgb(0, 0, 0)" stroke="rgb(204, 204, 204)" stroke-width="1px"></line><line x1="347.87980557175183" y1="0" x2="347.87980557175183" y2="5" style="visibility: inherit;" fill="rgb(0, 0, 0)" stroke="rgb(204, 204, 204)" stroke-width="1px"></line><line x1="404.1002127095582" y1="0" x2="404.1002127095582" y2="5" style="visibility: inherit;" fill="rgb(0, 0, 0)" stroke="rgb(204, 204, 204)" stroke-width="1px"></line><line x1="460.32061984736464" y1="0" x2="460.32061984736464" y2="5" style="visibility: inherit;" fill="rgb(0, 0, 0)" stroke="rgb(204, 204, 204)" stroke-width="1px"></line><line x1="516.541026985171" y1="0" x2="516.541026985171" y2="5" style="visibility: inherit;" fill="rgb(0, 0, 0)" stroke="rgb(204, 204, 204)" stroke-width="1px"></line><line x1="572.7614341229773" y1="0" x2="572.7614341229773" y2="5" style="visibility: inherit;" fill="rgb(0, 0, 0)" stroke="rgb(204, 204, 204)" stroke-width="1px"></line></g><g transform="translate(0, 8)"><text x="10.557362744913622" y="0" dx="0em" dy="0.95em" style="text-anchor: middle; visibility: inherit; font-family: Roboto, sans-serif; font-size: 12px; font-weight: 200;" fill="rgb(33, 33, 33)" stroke="none" stroke-width="1px">0</text><text x="66.77776988272" y="0" dx="0em" dy="0.95em" style="text-anchor: middle; visibility: inherit; font-family: Roboto, sans-serif; font-size: 12px; font-weight: 200;" fill="rgb(33, 33, 33)" stroke="none" stroke-width="1px">50</text><text x="122.99817702052638" y="0" dx="0em" dy="0.95em" style="text-anchor: middle; visibility: inherit; font-family: Roboto, sans-serif; font-size: 12px; font-weight: 200;" fill="rgb(33, 33, 33)" stroke="none" stroke-width="1px">100</text><text x="179.21858415833276" y="0" dx="0em" dy="0.95em" style="text-anchor: middle; visibility: inherit; font-family: Roboto, sans-serif; font-size: 12px; font-weight: 200;" fill="rgb(33, 33, 33)" stroke="none" stroke-width="1px">150</text><text x="235.43899129613914" y="0" dx="0em" dy="0.95em" style="text-anchor: middle; visibility: inherit; font-family: Roboto, sans-serif; font-size: 12px; font-weight: 200;" fill="rgb(33, 33, 33)" stroke="none" stroke-width="1px">200</text><text x="291.65939843394546" y="0" dx="0em" dy="0.95em" style="text-anchor: middle; visibility: inherit; font-family: Roboto, sans-serif; font-size: 12px; font-weight: 200;" fill="rgb(33, 33, 33)" stroke="none" stroke-width="1px">250</text><text x="347.87980557175183" y="0" dx="0em" dy="0.95em" style="text-anchor: middle; visibility: inherit; font-family: Roboto, sans-serif; font-size: 12px; font-weight: 200;" fill="rgb(33, 33, 33)" stroke="none" stroke-width="1px">300</text><text x="404.1002127095582" y="0" dx="0em" dy="0.95em" style="text-anchor: middle; visibility: inherit; font-family: Roboto, sans-serif; font-size: 12px; font-weight: 200;" fill="rgb(33, 33, 33)" stroke="none" stroke-width="1px">350</text><text x="460.32061984736464" y="0" dx="0em" dy="0.95em" style="text-anchor: middle; visibility: inherit; font-family: Roboto, sans-serif; font-size: 12px; font-weight: 200;" fill="rgb(33, 33, 33)" stroke="none" stroke-width="1px">400</text><text x="516.541026985171" y="0" dx="0em" dy="0.95em" style="text-anchor: middle; visibility: inherit; font-family: Roboto, sans-serif; font-size: 12px; font-weight: 200;" fill="rgb(33, 33, 33)" stroke="none" stroke-width="1px">450</text><text x="572.7614341229773" y="0" dx="0em" dy="0.95em" style="text-anchor: middle; visibility: inherit; font-family: Roboto, sans-serif; font-size: 12px; font-weight: 200;" fill="rgb(33, 33, 33)" stroke="none" stroke-width="1px">500</text></g><line x1="0" y1="0" x2="583" y2="0" fill="rgb(0, 0, 0)" stroke="rgb(204, 204, 204)" stroke-width="1px"></line></g></g></g></g></svg>