<svg viewBox="0 0 633 400" xmlns="http://www.w3.org/2000/svg"><g><g><g><g><g><line x1="50" y1="356.16201927031426" x2="45" y2="356.16201927031426" style="visibility: inherit;" fill="rgb(0, 0, 0)" stroke="rgb(204, 204, 204)" stroke-width="1px"></line><line x1="50" y1="303.71074144911944" x2="45" y2="303.71074144911944" style="visibility: inherit;" fill="rgb(0, 0, 0)" stroke="rgb(204, 204, 204)" stroke-width="1px"></line><line x1="50" y1="251.2594636279246" x2="45" y2="251.2594636279246" style="visibility: inherit;" fill="rgb(0, 0, 0)" stroke="rgb(204, 204, 204)" stroke-width="1px"></line><line x1="50" y1="198.80818580672974" x2="45" y2="198.80818580672974" style="visibility: inherit;" fill="rgb(0, 0, 0)" stroke="rgb(204, 204, 204)" stroke-width="1px"></line><line x1="50" y1="146.35690798553495" x2="45" y2="146.35690798553495" style="visibility: inherit;" fill="rgb(0, 0, 0)" stroke="rgb(204, 204, 204)" stroke-width="1px"></line><line x1="50" y1="93.90563016434012" x2="45" y2="93.90563016434012" style="visibility: inherit;" fill="rgb(0, 0, 0)" stroke="rgb(204, 204, 204)" stroke-width="1px"></line><line x1="50" y1="41.45435234314527" x2="45" y2="41.45435234314527" style="visibility: inherit;" fill="rgb(0, 0, 0)" stroke="rgb(204, 204, 204)" stroke-width="1px"></line></g><g transform="translate(40, 0)"><text x="0" y="356.16201927031426" dx="0em" dy="0.3em" style="text-anchor: end; visibility: inherit; font-family: Roboto, sans-serif; font-size: 12px; font-weight: 200;" fill="rgb(33, 33, 33)" stroke="none" stroke-width="1px">-600</text><text x="0" y="303.71074144911944" dx="0em" dy="0.3em" style="text-anchor: end; visibility: inherit; font-family: Roboto, sans-serif; font-size: 12px; font-weight: 200;" fill="rgb(33, 33, 33)" stroke="none" stroke-width="1px">-500</text><text x="0" y="251.2594636279246" dx="0em" dy="0.3em" style="text-anchor: end; visibility: inherit; font-family: Roboto, sans-serif; font-size: 12px; font-weight: 200;" fill="rgb(33, 33, 33)" stroke="none" stroke-width="1px">-400</text><text x="0" y="198.80818580672974" dx="0em" dy="0.3em" style="text-anchor: end; visibility: inherit; font-family: Roboto, sans-serif; font-size: 12px; font-weight: 200;" fill="rgb(33, 33, 33)" stroke="none" stroke-width="1px">-300</text><text x="0" y="146.35690798553495" dx="0em" dy="0.3em" style="text-anchor: end; visibility: inherit; font-family: Roboto, sans-serif; font-size: 12px; font-weight: 200;" fill="rgb(33, 33, 33)" stroke="none" stroke-width="1px">-200</text><text x="0" y="93.90563016434012" dx="0em" dy="0.3em" style="text-anchor: end; visibility: inherit; font-family: Roboto, sans-serif; font-size: 12px; font-weight: 200;" fill="rgb(33, 33, 33)" stroke="none" stroke-width="1px">-100</text><text x="0" y="41.45435234314527" dx="0em" dy="0.3em" style="text-anchor: end; visibility: inherit; font-family: Roboto, sans-serif; font-size: 12px; font-weight: 200;" fill="rgb(33, 33, 33)" stroke="none" stroke-width="1px">0</text></g><line x1="50" y1="0" x2="50" y2="377" fill="rgb(0, 0, 0)" stroke="rgb(204, 204, 204)" stroke-width="1px"></line></g></g><g transform="translate(50, 0)" clip-path="url(#clip_0)"><clipPath id="clip_0"><rect width="583" height="377"></rect></clipPath><g><g><g><line x1="10.557362744913622" y1="0" x2="10.557362744913622" y2="377" fill="rgb(0, 0, 0)" stroke="rgb(66, 66, 66)" stroke-width="1px" opacity="0.25"></line><line x1="66.77776988272" y1="0" x2="66.77776988272" y2="377" fill="rgb(0, 0, 0)" stroke="rgb(66, 66, 66)" stroke-width="1px" opacity="0.25"></line><line x1="122.99817702052638" y1="0" x2="122.99817702052638" y2="377" fill="rgb(0, 0, 0)" stroke="rgb(66, 66, 66)" stroke-width="1px" opacity="0.25"></line><line x1="179.21858415833276" y1="0" x2="179.21858415833276" y2="377" fill="rgb(0, 0, 0)" stroke="rgb(66, 66, 66)" stroke-width="1px" opacity="0.25"></line><line x1="235.43899129613914" y1="0" x2="235.43899129613914" y2="377" fill="rgb(0, 0, 0)" stroke="rgb(66, 66, 66)" stroke-width="1px" opacity="0.25"></line><line x1="291.65939843394546" y1="0" x2="291.65939843394546" y2="377" fill="rgb(0, 0, 0)" stroke="rgb(66, 66, 66)" stroke-width="1px" opacity="0.25"></line><line x1="347.87980557175183" y1="0" x2="347.87980557175183" y2="377" fill="rgb(0, 0, 0)" stroke="rgb(66, 66, 66)" stroke-width="1px" opacity="0.25"></line><line x1="404.1002127095582" y1="0" x2="404.1002127095582" y2="377" fill="rgb(0, 0, 0)" stroke="rgb(66, 66, 66)" stroke-width="1px" opacity="0.25"></line><line x1="460.32061984736464" y1="0" x2="460.32061984736464" y2="377" fill="rgb(0, 0, 0)" stroke="rgb(66, 66, 66)" stroke-width="1px" opacity="0.25"></line><line x1="516.541026985171" y1="0" x2="516.541026985171" y2="377" fill="rgb(0, 0, 0)" stroke="rgb(66, 66, 66)" stroke-width="1px" opacity="0.25"></line><line x1="572.7614341229773" y1="0" x2="572.7614341229773" y2="377" fill="rgb(0, 0, 0)" stroke="rgb(66, 66, 66)" stroke-width="1px" opacity="0.25"></line></g><g><line x1="0" y1="356.16201927031426" x2="583" y2="356.16201927031426" fill="rgb(0, 0, 0)" stroke="rgb(66, 66, 66)" stroke-width="1px" opacity="0.25"></line><line x1="0" y1="303.71074144911944" x2="583" y2="303.71074144911944" fill="rgb(0, 0, 0)" stroke="rgb(66, 66, 66)" stroke-width="1px" opacity="0.25"></line><line x1="0" y1="251.2594636279246" x2="583" y2="251.2594636279246" fill="rgb(0, 0, 0)" stroke="rgb(66, 66, 66)" stroke-width="1px" opacity="0.25"></line><line x1="0" y1="198.80818580672974" x2="583" y2="198.80818580672974" fill="rgb(0, 0, 0)" stroke="rgb(66, 66, 66)" stroke-width="1px" opacity="0.25"></line><line x1="0" y1="146.35690798553495" x2="583" y2="146.35690798553495" fill="rgb(0, 0, 0)" stroke="rgb(66, 66, 66)" stroke-width="1px" opacity="0.25"></line><line x1="0" y1="93.90563016434012" x2="583" y2="93.90563016434012" fill="rgb(0, 0, 0)" stroke="rgb(66, 66, 66)" stroke-width="1px" opacity="0.25"></line><line x1="0" y1="41.45435234314527" x2="583" y2="41.45435234314527" fill="rgb(0, 0, 0)" stroke="rgb(66, 66, 66)" stroke-width="1px" opacity="0.25"></line></g></g></g><g><g><line x1="0" y1="41.45435234314527" x2="583" y2="41.45435234314527" fill="rgb(0, 0, 0)" stroke="rgb(153, 153, 153)" stroke-width="1.5px"></line></g></g><g><g><line x1="10.557362744913622" y1="0" x2="10.557362744913622" y2="377" fill="rgb(0, 0, 0)" stroke="rgb(153, 153, 153)" stroke-width="1.5px"></line></g></g><g><g><g><g><g><path stroke="rgb(255, 112, 67)" stroke-width="2px" d="M11.681770887669751,303.71074144911944L12.806179030425877,96.52819405539985L13.930587173182007,90.23404071685648L15.054995315938132,99.15075794645958L16.17940345869426,117.5087051838778L17.303811601450388,87.61147682579671L18.428219744206515,98.62624516824766L19.552627886962643,109.64101351069857L20.67703602971877,88.66050238222063L21.8014441724749,93.90563016434012L22.925852315231023,125.37639685705703L24.050260457987154,303.71074144911944L25.17466860074328,303.71074144911944L26.29907674349941,303.71074144911944L27.423484886255533,303.71074144911944L28.547893029011664,110.69003906712244L29.672301171767792,303.71074144911944L30.79670931452392,105.96942406321494L31.921117457280044,151.60203576765443L33.04552560003618,303.71074144911944L34.1699337427923,86.0379384911609L35.29434188554843,111.2145518453344L36.41875002830456,155.79813799335002L37.54315817106068,167.33741911401287L38.667566313816806,102.82234739394326L39.79197445657294,88.13598960400867L40.91638259932907,303.71074144911944L42.04079074208519,90.75855349506844L43.165198884841324,110.69003906712244L44.289607027597455,303.71074144911944L45.41401517035357,78.17024681798168L46.5384233131097,92.33209182970425L47.662831455865835,90.75855349506844L48.78723959862196,110.16552628891053L49.91164774137809,107.0184496196388L51.036055884134214,303.71074144911944L52.160464026890345,104.92039850679103L53.28487216964647,95.47916849897594L54.40928031240259,97.05270683361181L55.533688455158725,93.38111738612817L56.658096597914856,94.43014294255208L57.78250474067098,104.92039850679103L58.90691288342711,303.71074144911944L60.031321026183235,86.0379384911609L61.15572916893936,84.98891293473699L62.28013731169549,107.54296239785076L63.404545454451615,303.71074144911944L64.52895359720775,303.71074144911944L65.65336173996387,113.83711573639417L66.77776988272,78.69475959619362L67.90217802547613,73.97414459228608L69.02658616823226,78.17024681798168L70.15099431098838,303.71074144911944L71.27540245374452,138.4892163123557L72.39981059650063,93.38111738612817L73.52421873925677,78.69475959619362L74.64862688201289,102.82234739394326L75.77303502476903,77.64573403976972L76.89744316752514,78.17024681798168L78.02185131028128,99.67527072467153L79.1462594530374,133.24408853023624L80.27066759579354,303.71074144911944L81.39507573854966,303.71074144911944L82.51948388130579,303.71074144911944L83.64389202406191,303.71074144911944L84.76830016681804,122.75383296599726L85.89270830957418,130.09701186096453L87.0171164523303,303.71074144911944L88.14152459508644,93.90563016434012L89.26593273784255,127.4744479699048L90.39034088059867,303.71074144911944L91.51474902335481,78.69475959619362L92.63915716611093,78.69475959619362L93.76356530886707,89.70952793864453L94.88797345162318,78.69475959619362L96.01238159437932,88.13598960400867L97.13678973713544,91.80757905149231L98.26119787989157,97.05270683361181L99.3856060226477,78.17024681798168L100.51001416540383,101.24880905930739L101.63442230815996,87.61147682579671L102.75883045091608,115.41065407102998L103.88323859367222,303.71074144911944L105.00764673642834,74.49865737049804L106.13205487918447,88.66050238222063L107.25646302194059,74.49865737049804L108.38087116469671,157.8961891061978L109.50527930745285,85.51342571294894L110.62968745020898,75.02317014871L111.75409559296511,90.23404071685648L112.87850373572124,85.51342571294894L114.00291187847735,78.17024681798168L115.12732002123349,122.75383296599726L116.25172816398961,136.39116519950792L117.37613630674575,126.42542241348089L118.50054444950187,78.17024681798168L119.624952592258,91.28306627328035L120.74936073501412,89.18501516043258L121.87376887777025,84.46440015652503L122.99817702052638,111.73906462354635L124.12258516328251,96.0036812771879L125.24699330603863,101.24880905930739L126.37140144879476,78.69475959619362L127.4958095915509,82.36634904367726L128.62021773430703,89.70952793864453L129.74462587706316,90.23404071685648L130.86903401981928,93.38111738612817L131.9934421625754,87.61147682579671L133.11785030533153,131.14603741738844L134.24225844808765,119.60675629672558L135.36666659084378,84.98891293473699L136.49107473359993,87.61147682579671L137.61548287635603,84.98891293473699L138.73989101911215,82.89086182188922L139.8642991618683,78.69475959619362L140.98870730462443,123.2783457442092L142.11311544738055,114.36162851460612L143.23752359013668,97.05270683361181L144.3619317328928,82.36634904367726L145.48633987564892,84.98891293473699L146.61074801840505,78.69475959619362L147.7351561611612,84.98891293473699L148.8595643039173,86.0379384911609L149.98397244667345,90.23404071685648L151.10838058942957,78.69475959619362L152.23278873218572,89.18501516043258L153.35719687494182,124.85188407884507L154.48160501769794,89.70952793864453L155.6060131604541,91.80757905149231L156.7304213032102,85.51342571294894L157.85482944596635,89.18501516043258L158.97923758872247,74.49865737049804L160.10364573147857,81.31732348725335L161.22805387423472,81.8418362654653L162.35246201699084,86.56245126937286L163.476870159747,85.51342571294894L164.6012783025031,83.93988737831309L165.7256864452592,95.47916849897594L166.85009458801537,91.28306627328035L167.97450273077146,84.98891293473699L169.09891087352761,91.80757905149231L170.22331901628374,78.69475959619362L171.34772715903986,85.51342571294894L172.472135301796,94.43014294255208L173.5965434445521,85.51342571294894L174.72095158730826,82.89086182188922L175.8453597300644,99.15075794645958L176.96976787282048,91.80757905149231L178.09417601557664,84.98891293473699L179.21858415833276,83.93988737831309L180.34299230108888,83.93988737831309L181.467400443845,102.2978346157313L182.59180858660116,303.71074144911944L183.71621672935728,84.98891293473699L184.84062487211338,85.51342571294894L185.96503301486953,90.75855349506844L187.08944115762566,87.0869640475848L188.21384930038178,87.0869640475848L189.3382574431379,90.75855349506844L190.46266558589403,78.17024681798168L191.58707372865018,303.71074144911944L192.71148187140628,303.71074144911944L193.83589001416243,80.7928107090414L194.96029815691855,86.0379384911609L196.08470629967465,74.49865737049804L197.2091144424308,73.97414459228608L198.33352258518693,79.21927237440558L199.45793072794308,89.18501516043258L200.58233887069918,89.18501516043258L201.7067470134553,303.71074144911944L202.83115515621145,86.0379384911609L203.95556329896755,85.51342571294894L205.0799714417237,78.69475959619362L206.20437958447982,74.49865737049804L207.32878772723592,95.47916849897594L208.45319586999207,303.71074144911944L209.5776040127482,136.39116519950792L210.70201215550435,303.71074144911944L211.82642029826044,93.90563016434012L212.95082844101657,78.17024681798168L214.07523658377272,92.33209182970425L215.19964472652882,92.33209182970425L216.32405286928497,303.71074144911944L217.4484610120411,94.95465572076404L218.57286915479725,303.71074144911944L219.69727729755334,303.71074144911944L220.82168544030947,303.71074144911944L221.94609358306562,84.98891293473699L223.07050172582174,92.33209182970425L224.19490986857787,303.71074144911944L225.319318011334,127.4744479699048L226.44372615409011,127.4744479699048L227.56813429684624,88.13598960400867L228.69254243960236,93.90563016434012L229.81695058235852,92.85660460791621L230.94135872511464,303.71074144911944L232.06576686787074,92.33209182970425L233.1901750106269,89.70952793864453L234.314583153383,90.23404071685648L235.43899129613914,303.71074144911944L236.56339943889526,92.33209182970425L237.68780758165138,86.0379384911609L238.81221572440754,105.96942406321494L239.93662386716363,122.2293201877853L241.06103200991978,109.64101351069857L242.1854401526759,83.93988737831309L243.309848295432,303.71074144911944L244.43425643818816,303.71074144911944L245.55866458094428,303.71074144911944L246.68307272370043,81.8418362654653L247.80748086645653,81.31732348725335L248.93188900921268,86.0379384911609L250.0562971519688,119.60675629672558L251.1807052947249,100.19978350288349L252.30511343748105,115.41065407102998L253.42952158023718,303.71074144911944L254.55392972299333,277.485102538522L255.67833786574943,100.19978350288349L256.80274600850555,303.71074144911944L257.9271541512617,110.69003906712244L259.0515622940178,134.29311408666013L260.175970436774,98.62624516824766L261.30037857953005,91.28306627328035L262.42478672228617,87.61147682579671L263.54919486504235,99.15075794645958L264.6736030077984,123.2783457442092L265.7980111505546,78.69475959619362L266.9224192933107,303.71074144911944L268.04682743606685,102.82234739394326L269.171235578823,74.49865737049804L270.2956437215791,90.23404071685648L271.4200518643352,303.71074144911944L272.54446000709135,87.0869640475848L273.66886814984747,86.56245126937286L274.7932762926036,100.72429628109543L275.9176844353597,303.71074144911944L277.04209257811584,303.71074144911944L278.16650072087197,96.52819405539985L279.29090886362815,303.71074144911944L280.4153170063842,93.90563016434012L281.53972514914034,125.37639685705703L282.6641332918965,126.94993519169284L283.78854143465264,303.71074144911944L284.91294957740877,303.71074144911944L286.0373577201649,82.89086182188922L287.161765862921,78.17024681798168L288.2861740056771,303.71074144911944L289.4105821484332,303.71074144911944L290.5349902911894,303.71074144911944L291.65939843394546,303.71074144911944L292.78380657670164,148.97947187659472L293.9082147194577,81.8418362654653L295.0326228622139,101.24880905930739L296.15703100497,93.90563016434012L297.28143914772613,91.28306627328035L298.40584729048226,97.57721961182376L299.5302554332384,122.75383296599726L300.6546635759945,108.59198795427467L301.77907171875063,88.66050238222063L302.90347986150675,89.70952793864453L304.0278880042629,89.18501516043258L305.152296147019,303.71074144911944L306.2767042897751,83.93988737831309L307.4011124325313,87.0869640475848L308.52552057528743,303.71074144911944L309.6499287180435,75.54768292692194L310.7743368607997,114.36162851460612L311.8987450035558,80.7928107090414L313.02315314631187,78.17024681798168L314.14756128906805,90.75855349506844L315.2719694318242,75.02317014871L316.39637757458024,85.51342571294894L317.5207857173364,103.87137295036712L318.64519386009255,303.71074144911944L319.76960200284867,303.71074144911944L320.8940101456048,105.44491128500299L322.0184182883609,89.70952793864453L323.1428264311171,303.71074144911944L324.26723457387317,96.52819405539985L325.3916427166293,81.31732348725335L326.5160508593855,91.80757905149231L327.6404590021416,90.75855349506844L328.76486714489766,89.70952793864453L329.88927528765385,303.71074144911944L331.01368343040997,79.74378515261749L332.13809157316604,91.80757905149231L333.2624997159222,86.0379384911609L334.38690785867834,303.71074144911944L335.5113160014344,89.70952793864453L336.6357241441906,74.49865737049804L337.7601322869467,258.6026425228919L338.8845404297029,303.71074144911944L340.00894857245896,86.0379384911609L341.1333567152151,303.71074144911944L342.25776485797127,303.71074144911944L343.38217300072733,111.73906462354635L344.50658114348346,81.31732348725335L345.63098928623964,87.0869640475848L346.7553974289957,303.71074144911944L347.87980557175183,96.0036812771879L349.004213714508,303.71074144911944L350.12862185726414,303.71074144911944L351.2530300000202,104.92039850679103L352.3774381427764,303.71074144911944L353.5018462855325,88.13598960400867L354.6262544282886,303.71074144911944L355.75066257104476,80.7928107090414L356.8750707138009,101.77332183751935L357.99947885655706,102.2978346157313L359.12388699931313,90.23404071685648L360.24829514206925,303.71074144911944L361.37270328482543,107.0184496196388L362.4971114275815,101.77332183751935L363.6215195703376,112.2635774017583L364.7459277130938,91.28306627328035L365.8703358558499,303.71074144911944L366.994743998606,303.71074144911944L368.1191521413622,199.85721136315365L369.2435602841183,138.4892163123557L370.36796842687437,303.71074144911944L371.49237656963055,303.71074144911944L372.6167847123867,115.93516684924194L373.7411928551428,96.52819405539985L374.8656009978989,109.64101351069857L375.99000914065505,303.71074144911944L377.11441728341117,99.67527072467153L378.2388254261673,96.52819405539985L379.3632335689234,97.57721961182376L380.4876417116796,303.71074144911944L381.61204985443567,97.05270683361181L382.7364579971918,89.70952793864453L383.860866139948,303.71074144911944L384.98527428270404,303.71074144911944L386.10968242546016,98.62624516824766L387.23409056821635,98.1017323900357L388.35849871097247,97.05270683361181L389.4829068537286,107.0184496196388L390.6073149964847,303.71074144911944L391.73172313924084,303.71074144911944L392.85613128199697,96.52819405539985L393.9805394247531,303.71074144911944L395.1049475675092,102.2978346157313L396.22935571026534,90.23404071685648L397.35376385302146,303.71074144911944L398.4781719957776,94.43014294255208L399.60258013853377,303.71074144911944L400.72698828128983,303.71074144911944L401.851396424046,303.71074144911944L402.97580456680214,303.71074144911944L404.1002127095582,303.71074144911944L405.2246208523144,303.71074144911944L406.3490289950705,303.71074144911944L407.4734371378266,303.71074144911944L408.59784528058276,88.13598960400867L409.7222534233389,248.63689973686488L410.846661566095,84.46440015652503L411.97106970885113,85.51342571294894L413.09547785160726,94.95465572076404L414.2198859943634,111.2145518453344L415.3442941371195,303.71074144911944L416.46870227987563,303.71074144911944L417.5931104226318,107.0184496196388L418.71751856538793,303.71074144911944L419.841926708144,303.71074144911944L420.9663348509002,303.71074144911944L422.0907429936563,303.71074144911944L423.2151511364124,303.71074144911944L424.33955927916855,303.71074144911944L425.4639674219247,303.71074144911944L426.58837556468075,109.64101351069857L427.7127837074369,303.71074144911944L428.83719185019305,303.71074144911944L429.96159999294923,303.71074144911944L431.0860081357053,303.71074144911944L432.2104162784614,303.71074144911944L433.3348244212176,303.71074144911944L434.45923256397367,303.71074144911944L435.5836407067298,303.71074144911944L436.708048849486,303.71074144911944L437.83245699224204,303.71074144911944L438.95686513499817,303.71074144911944L440.08127327775435,303.71074144911944L441.2056814205105,89.70952793864453L442.33008956326654,303.71074144911944L443.4544977060227,303.71074144911944L444.57890584877885,303.71074144911944L445.7033139915349,303.71074144911944L446.8277221342911,303.71074144911944L447.9521302770472,303.71074144911944L449.0765384198034,303.71074144911944L450.20094656255947,303.71074144911944L451.3253547053156,303.71074144911944L452.44976284807177,80.7928107090414L453.57417099082784,303.71074144911944L454.69857913358396,85.51342571294894L455.82298727634014,303.71074144911944L456.9473954190962,303.71074144911944L458.07180356185233,83.93988737831309L459.1962117046085,303.71074144911944L460.32061984736464,94.43014294255208L461.4450279901207,90.75855349506844L462.5694361328769,303.71074144911944L463.693844275633,303.71074144911944L464.8182524183891,90.23404071685648L465.94266056114526,303.71074144911944L467.0670687039014,303.71074144911944L468.1914768466575,83.41537460010117L469.31588498941363,107.0184496196388L470.44029313216976,303.71074144911944L471.56470127492594,303.71074144911944L472.689109417682,303.71074144911944L473.81351756043813,303.71074144911944L474.9379257031943,86.56245126937286L476.0623338459504,79.21927237440558L477.1867419887065,303.71074144911944L478.3111501314627,303.71074144911944L479.4355582742188,97.57721961182376L480.5599664169749,303.71074144911944L481.68437455973105,84.46440015652503L482.8087827024872,105.44491128500299L483.9331908452433,86.0379384911609L485.0575989879994,80.26829793082945L486.18200713075555,73.97414459228608L487.3064152735117,87.61147682579671L488.4308234162678,82.36634904367726L489.5552315590239,87.61147682579671L490.6796397017801,303.71074144911944L491.80404784453617,303.71074144911944L492.9284559872923,152.65106132407834L494.0528641300485,303.71074144911944L495.17727227280454,303.71074144911944L496.3016804155607,303.71074144911944L497.42608855831685,303.71074144911944L498.5504967010729,303.71074144911944L499.6749048438291,93.90563016434012L500.7993129865852,303.71074144911944L501.92372112934135,302.1372031144836L503.04812927209747,303.71074144911944L504.1725374148536,89.70952793864453L505.2969455576097,97.05270683361181L506.42135370036584,100.19978350288349L507.54576184312197,303.71074144911944L508.6701699858781,303.71074144911944L509.79457812863427,129.04798630454067L510.91898627139034,303.71074144911944L512.0433944141465,303.71074144911944L513.1678025569026,303.71074144911944L514.2922106996588,303.71074144911944L515.4166188424149,137.96470353414375L516.541026985171,105.96942406321494L517.6654351279271,131.67055019560038L518.7898432706833,303.71074144911944L519.9142514134394,105.44491128500299L521.0386595561955,303.71074144911944L522.1630676989516,87.0869640475848L523.2874758417078,80.26829793082945L524.4118839844639,98.1017323900357L525.53629212722,79.21927237440558L526.6607002699761,303.71074144911944L527.7851084127323,303.71074144911944L528.9095165554884,303.71074144911944L530.0339246982445,86.56245126937286L531.1583328410006,303.71074144911944L532.2827409837569,303.71074144911944L533.4071491265129,303.71074144911944L534.531557269269,91.80757905149231L535.6559654120252,303.71074144911944L536.7803735547812,98.62624516824766L537.9047816975374,303.71074144911944L539.0291898402936,97.05270683361181L540.1535979830497,90.75855349506844L541.2780061258057,110.16552628891053L542.402414268562,303.71074144911944L543.5268224113181,97.57721961182376L544.6512305540741,303.71074144911944L545.7756386968304,303.71074144911944L546.9000468395865,88.66050238222063L548.0244549823425,157.8961891061978L549.1488631250987,96.52819405539985L550.2732712678549,92.33209182970425L551.397679410611,303.71074144911944L552.5220875533671,303.71074144911944L553.6464956961232,91.80757905149231L554.7709038388793,303.71074144911944L555.8953119816355,303.71074144911944L557.0197201243916,303.71074144911944L558.1441282671477,303.71074144911944L559.2685364099038,116.98419240566585L560.39294455266,303.71074144911944L561.5173526954161,303.71074144911944L562.6417608381722,303.71074144911944L563.7661689809283,120.13126907493753L564.8905771236845,303.71074144911944L566.0149852664406,121.70480740957339L567.1393934091967,303.71074144911944L568.2638015519528,303.71074144911944L569.388209694709,90.23404071685648L570.5126178374652,303.71074144911944L571.6370259802212,89.70952793864453L572.7614341229773,303.71074144911944L573.8858422657336,303.71074144911944L575.0102504084896,303.71074144911944L576.1346585512457,303.71074144911944L577.259066694002,130.09701186096453L578.383474836758,102.82234739394326L579.5078829795141,303.71074144911944L580.6322911222703,89.70952793864453L581.7566992650264,303.71074144911944L582.8811074077826,303.71074144911944L584.0055155505386,303.71074144911944" style="fill: none;" fill="none"></path></g></g></g></g></g></g><g transform="translate(50, 377)" clip-path="url(#clip_1)"><clipPath id="clip_1"><rect width="583" height="23"></rect></clipPath><g><g><line x1="10.557362744913622" y1="0" x2="10.557362744913622" y2="5" style="visibility: inherit;" fill="rgb(0, 0, 0)" stroke="rgb(204, 204, 204)" stroke-width="1px"></line><line x1="66.77776988272" y1="0" x2="66.77776988272" y2="5" style="visibility: inherit;" fill="rgb(0, 0, 0)" stroke="rgb(204, 204, 204)" stroke-width="1px"></line><line x1="122.99817702052638" y1="0" x2="122.99817702052638" y2="5" style="visibility: inherit;" fill="rgb(0, 0, 0)" stroke="rgb(204, 204, 204)" stroke-width="1px"></line><line x1="179.21858415833276" y1="0" x2="179.21858415833276" y2="5" style="visibility: inherit;" fill="rgb(0, 0, 0)" stroke="rgb(204, 204, 204)" stroke-width="1px"></line><line x1="235.43899129613914" y1="0" x2="235.43899129613914" y2="5" style="visibility: inherit;" fill="rgb(0, 0, 0)" stroke="rgb(204, 204, 204)" stroke-width="1px"></line><line x1="291.65939843394546" y1="0" x2="291.65939843394546" y2="5" style="visibility: inherit;" fill="rgb(0, 0, 0)" stroke="rgb(204, 204, 204)" stroke-width="1px"></line><line x1="347.87980557175183" y1="0" x2="347.87980557175183" y2="5" style="visibility: inherit;" fill="rgb(0, 0, 0)" stroke="rgb(204, 204, 204)" stroke-width="1px"></line><line x1="404.1002127095582" y1="0" x2="404.1002127095582" y2="5" style="visibility: inherit;" fill="rgb(0, 0, 0)" stroke="rgb(204, 204, 204)" stroke-width="1px"></line><line x1="460.32061984736464" y1="0" x2="460.32061984736464" y2="5" style="visibility: inherit;" fill="rgb(0, 0, 0)" stroke="rgb(204, 204, 204)" stroke-width="1px"></line><line x1="516.541026985171" y1="0" x2="516.541026985171" y2="5" style="visibility: inherit;" fill="rgb(0, 0, 0)" stroke="rgb(204, 204, 204)" stroke-width="1px"></line><line x1="572.7614341229773" y1="0" x2="572.7614341229773" y2="5" style="visibility: inherit;" fill="rgb(0, 0, 0)" stroke="rgb(204, 204, 204)" stroke-width="1px"></line></g><g transform="translate(0, 8)"><text x="10.557362744913622" y="0" dx="0em" dy="0.95em" style="text-anchor: middle; visibility: inherit; font-family: Roboto, sans-serif; font-size: 12px; font-weight: 200;" fill="rgb(33, 33, 33)" stroke="none" stroke-width="1px">0</text><text x="66.77776988272" y="0" dx="0em" dy="0.95em" style="text-anchor: middle; visibility: inherit; font-family: Roboto, sans-serif; font-size: 12px; font-weight: 200;" fill="rgb(33, 33, 33)" stroke="none" stroke-width="1px">50</text><text x="122.99817702052638" y="0" dx="0em" dy="0.95em" style="text-anchor: middle; visibility: inherit; font-family: Roboto, sans-serif; font-size: 12px; font-weight: 200;" fill="rgb(33, 33, 33)" stroke="none" stroke-width="1px">100</text><text x="179.21858415833276" y="0" dx="0em" dy="0.95em" style="text-anchor: middle; visibility: inherit; font-family: Roboto, sans-serif; font-size: 12px; font-weight: 200;" fill="rgb(33, 33, 33)" stroke="none" stroke-width="1px">150</text><text x="235.43899129613914" y="0" dx="0em" dy="0.95em" style="text-anchor: middle; visibility: inherit; font-family: Roboto, sans-serif; font-size: 12px; font-weight: 200;" fill="rgb(33, 33, 33)" stroke="none" stroke-width="1px">200</text><text x="291.65939843394546" y="0" dx="0em" dy="0.95em" style="text-anchor: middle; visibility: inherit; font-family: Roboto, sans-serif; font-size: 12px; font-weight: 200;" fill="rgb(33, 33, 33)" stroke="none" stroke-width="1px">250</text><text x="347.87980557175183" y="0" dx="0em" dy="0.95em" style="text-anchor: middle; visibility: inherit; font-family: Roboto, sans-serif; font-size: 12px; font-weight: 200;" fill="rgb(33, 33, 33)" stroke="none" stroke-width="1px">300</text><text x="404.1002127095582" y="0" dx="0em" dy="0.95em" style="text-anchor: middle; visibility: inherit; font-family: Roboto, sans-serif; font-size: 12px; font-weight: 200;" fill="rgb(33, 33, 33)" stroke="none" stroke-width="1px">350</text><text x="460.32061984736464" y="0" dx="0em" dy="0.95em" style="text-anchor: middle; visibility: inherit; font-family: Roboto, sans-serif; font-size: 12px; font-weight: 200;" fill="rgb(33, 33, 33)" stroke="none" stroke-width="1px">400</text><text x="516.541026985171" y="0" dx="0em" dy="0.95em" style="text-anchor: middle; visibility: inherit; font-family: Roboto, sans-serif; font-size: 12px; font-weight: 200;" fill="rgb(33, 33, 33)" stroke="none" stroke-width="1px">450</text><text x="572.7614341229773" y="0" dx="0em" dy="0.95em" style="text-anchor: middle; visibility: inherit; font-family: Roboto, sans-serif; font-size: 12px; font-weight: 200;" fill="rgb(33, 33, 33)" stroke="none" stroke-width="1px">500</text></g><line x1="0" y1="0" x2="583" y2="0" fill="rgb(0, 0, 0)" stroke="rgb(204, 204, 204)" stroke-width="1px"></line></g></g></g></g></svg>