<svg viewBox="0 0 1441 400" xmlns="http://www.w3.org/2000/svg"><g><g><g><g><g><line x1="50" y1="377" x2="45" y2="377" style="visibility: inherit;" fill="rgb(0, 0, 0)" stroke="rgb(204, 204, 204)" stroke-width="1px"></line><line x1="50" y1="342.7272727272727" x2="45" y2="342.7272727272727" style="visibility: inherit;" fill="rgb(0, 0, 0)" stroke="rgb(204, 204, 204)" stroke-width="1px"></line><line x1="50" y1="308.45454545454544" x2="45" y2="308.45454545454544" style="visibility: inherit;" fill="rgb(0, 0, 0)" stroke="rgb(204, 204, 204)" stroke-width="1px"></line><line x1="50" y1="274.1818181818182" x2="45" y2="274.1818181818182" style="visibility: inherit;" fill="rgb(0, 0, 0)" stroke="rgb(204, 204, 204)" stroke-width="1px"></line><line x1="50" y1="239.9090909090909" x2="45" y2="239.9090909090909" style="visibility: inherit;" fill="rgb(0, 0, 0)" stroke="rgb(204, 204, 204)" stroke-width="1px"></line><line x1="50" y1="205.63636363636363" x2="45" y2="205.63636363636363" style="visibility: inherit;" fill="rgb(0, 0, 0)" stroke="rgb(204, 204, 204)" stroke-width="1px"></line><line x1="50" y1="171.36363636363637" x2="45" y2="171.36363636363637" style="visibility: inherit;" fill="rgb(0, 0, 0)" stroke="rgb(204, 204, 204)" stroke-width="1px"></line><line x1="50" y1="137.0909090909091" x2="45" y2="137.0909090909091" style="visibility: inherit;" fill="rgb(0, 0, 0)" stroke="rgb(204, 204, 204)" stroke-width="1px"></line><line x1="50" y1="102.81818181818181" x2="45" y2="102.81818181818181" style="visibility: inherit;" fill="rgb(0, 0, 0)" stroke="rgb(204, 204, 204)" stroke-width="1px"></line><line x1="50" y1="68.54545454545453" x2="45" y2="68.54545454545453" style="visibility: inherit;" fill="rgb(0, 0, 0)" stroke="rgb(204, 204, 204)" stroke-width="1px"></line><line x1="50" y1="34.27272727272729" x2="45" y2="34.27272727272729" style="visibility: inherit;" fill="rgb(0, 0, 0)" stroke="rgb(204, 204, 204)" stroke-width="1px"></line><line x1="50" y1="0" x2="45" y2="0" style="visibility: inherit;" fill="rgb(0, 0, 0)" stroke="rgb(204, 204, 204)" stroke-width="1px"></line></g><g transform="translate(40, 0)"><text x="0" y="377" dx="0em" dy="0.3em" style="text-anchor: end; visibility: hidden; font-family: Roboto, sans-serif; font-size: 12px; font-weight: 200;" fill="rgb(33, 33, 33)" stroke="none" stroke-width="1px">-550</text><text x="0" y="342.7272727272727" dx="0em" dy="0.3em" style="text-anchor: end; visibility: inherit; font-family: Roboto, sans-serif; font-size: 12px; font-weight: 200;" fill="rgb(33, 33, 33)" stroke="none" stroke-width="1px">-500</text><text x="0" y="308.45454545454544" dx="0em" dy="0.3em" style="text-anchor: end; visibility: inherit; font-family: Roboto, sans-serif; font-size: 12px; font-weight: 200;" fill="rgb(33, 33, 33)" stroke="none" stroke-width="1px">-450</text><text x="0" y="274.1818181818182" dx="0em" dy="0.3em" style="text-anchor: end; visibility: inherit; font-family: Roboto, sans-serif; font-size: 12px; font-weight: 200;" fill="rgb(33, 33, 33)" stroke="none" stroke-width="1px">-400</text><text x="0" y="239.9090909090909" dx="0em" dy="0.3em" style="text-anchor: end; visibility: inherit; font-family: Roboto, sans-serif; font-size: 12px; font-weight: 200;" fill="rgb(33, 33, 33)" stroke="none" stroke-width="1px">-350</text><text x="0" y="205.63636363636363" dx="0em" dy="0.3em" style="text-anchor: end; visibility: inherit; font-family: Roboto, sans-serif; font-size: 12px; font-weight: 200;" fill="rgb(33, 33, 33)" stroke="none" stroke-width="1px">-300</text><text x="0" y="171.36363636363637" dx="0em" dy="0.3em" style="text-anchor: end; visibility: inherit; font-family: Roboto, sans-serif; font-size: 12px; font-weight: 200;" fill="rgb(33, 33, 33)" stroke="none" stroke-width="1px">-250</text><text x="0" y="137.0909090909091" dx="0em" dy="0.3em" style="text-anchor: end; visibility: inherit; font-family: Roboto, sans-serif; font-size: 12px; font-weight: 200;" fill="rgb(33, 33, 33)" stroke="none" stroke-width="1px">-200</text><text x="0" y="102.81818181818181" dx="0em" dy="0.3em" style="text-anchor: end; visibility: inherit; font-family: Roboto, sans-serif; font-size: 12px; font-weight: 200;" fill="rgb(33, 33, 33)" stroke="none" stroke-width="1px">-150</text><text x="0" y="68.54545454545453" dx="0em" dy="0.3em" style="text-anchor: end; visibility: inherit; font-family: Roboto, sans-serif; font-size: 12px; font-weight: 200;" fill="rgb(33, 33, 33)" stroke="none" stroke-width="1px">-100</text><text x="0" y="34.27272727272729" dx="0em" dy="0.3em" style="text-anchor: end; visibility: inherit; font-family: Roboto, sans-serif; font-size: 12px; font-weight: 200;" fill="rgb(33, 33, 33)" stroke="none" stroke-width="1px">-50</text><text x="0" y="0" dx="0em" dy="0.3em" style="text-anchor: end; visibility: hidden; font-family: Roboto, sans-serif; font-size: 12px; font-weight: 200;" fill="rgb(33, 33, 33)" stroke="none" stroke-width="1px">0</text></g><line x1="50" y1="0" x2="50" y2="377" fill="rgb(0, 0, 0)" stroke="rgb(204, 204, 204)" stroke-width="1px"></line></g></g><g transform="translate(50, 0)" clip-path="url(#clip_0)"><clipPath id="clip_0"><rect width="1391" height="377"></rect></clipPath><g><g><g><line x1="0" y1="0" x2="0" y2="377" fill="rgb(0, 0, 0)" stroke="rgb(66, 66, 66)" stroke-width="1px" opacity="0.25"></line><line x1="173.875" y1="0" x2="173.875" y2="377" fill="rgb(0, 0, 0)" stroke="rgb(66, 66, 66)" stroke-width="1px" opacity="0.25"></line><line x1="347.75" y1="0" x2="347.75" y2="377" fill="rgb(0, 0, 0)" stroke="rgb(66, 66, 66)" stroke-width="1px" opacity="0.25"></line><line x1="521.625" y1="0" x2="521.625" y2="377" fill="rgb(0, 0, 0)" stroke="rgb(66, 66, 66)" stroke-width="1px" opacity="0.25"></line><line x1="695.5" y1="0" x2="695.5" y2="377" fill="rgb(0, 0, 0)" stroke="rgb(66, 66, 66)" stroke-width="1px" opacity="0.25"></line><line x1="869.375" y1="0" x2="869.375" y2="377" fill="rgb(0, 0, 0)" stroke="rgb(66, 66, 66)" stroke-width="1px" opacity="0.25"></line><line x1="1043.25" y1="0" x2="1043.25" y2="377" fill="rgb(0, 0, 0)" stroke="rgb(66, 66, 66)" stroke-width="1px" opacity="0.25"></line><line x1="1217.125" y1="0" x2="1217.125" y2="377" fill="rgb(0, 0, 0)" stroke="rgb(66, 66, 66)" stroke-width="1px" opacity="0.25"></line><line x1="1391" y1="0" x2="1391" y2="377" fill="rgb(0, 0, 0)" stroke="rgb(66, 66, 66)" stroke-width="1px" opacity="0.25"></line></g><g><line x1="0" y1="377" x2="1391" y2="377" fill="rgb(0, 0, 0)" stroke="rgb(66, 66, 66)" stroke-width="1px" opacity="0.25"></line><line x1="0" y1="342.7272727272727" x2="1391" y2="342.7272727272727" fill="rgb(0, 0, 0)" stroke="rgb(66, 66, 66)" stroke-width="1px" opacity="0.25"></line><line x1="0" y1="308.45454545454544" x2="1391" y2="308.45454545454544" fill="rgb(0, 0, 0)" stroke="rgb(66, 66, 66)" stroke-width="1px" opacity="0.25"></line><line x1="0" y1="274.1818181818182" x2="1391" y2="274.1818181818182" fill="rgb(0, 0, 0)" stroke="rgb(66, 66, 66)" stroke-width="1px" opacity="0.25"></line><line x1="0" y1="239.9090909090909" x2="1391" y2="239.9090909090909" fill="rgb(0, 0, 0)" stroke="rgb(66, 66, 66)" stroke-width="1px" opacity="0.25"></line><line x1="0" y1="205.63636363636363" x2="1391" y2="205.63636363636363" fill="rgb(0, 0, 0)" stroke="rgb(66, 66, 66)" stroke-width="1px" opacity="0.25"></line><line x1="0" y1="171.36363636363637" x2="1391" y2="171.36363636363637" fill="rgb(0, 0, 0)" stroke="rgb(66, 66, 66)" stroke-width="1px" opacity="0.25"></line><line x1="0" y1="137.0909090909091" x2="1391" y2="137.0909090909091" fill="rgb(0, 0, 0)" stroke="rgb(66, 66, 66)" stroke-width="1px" opacity="0.25"></line><line x1="0" y1="102.81818181818181" x2="1391" y2="102.81818181818181" fill="rgb(0, 0, 0)" stroke="rgb(66, 66, 66)" stroke-width="1px" opacity="0.25"></line><line x1="0" y1="68.54545454545453" x2="1391" y2="68.54545454545453" fill="rgb(0, 0, 0)" stroke="rgb(66, 66, 66)" stroke-width="1px" opacity="0.25"></line><line x1="0" y1="34.27272727272729" x2="1391" y2="34.27272727272729" fill="rgb(0, 0, 0)" stroke="rgb(66, 66, 66)" stroke-width="1px" opacity="0.25"></line><line x1="0" y1="0" x2="1391" y2="0" fill="rgb(0, 0, 0)" stroke="rgb(66, 66, 66)" stroke-width="1px" opacity="0.25"></line></g></g></g><g><g><line x1="0" y1="0" x2="1391" y2="0" fill="rgb(0, 0, 0)" stroke="rgb(153, 153, 153)" stroke-width="1.5px"></line></g></g><g><g><line x1="173.875" y1="0" x2="173.875" y2="377" fill="rgb(0, 0, 0)" stroke="rgb(153, 153, 153)" stroke-width="1.5px"></line></g></g><g><g><g><g><g><path stroke="rgb(51, 187, 238)" stroke-width="2px" d="M175.9615,342.7272727272727L176.30925,342.7272727272727L178.048,342.7272727272727L179.09125,342.7272727272727L179.439,342.7272727272727L180.48225,342.7272727272727L181.17775,283.20877198863184L182.56875,277.58424732241593L186.74175000000002,287.2883433228972L188.13275000000002,298.013127389102L188.82825000000003,315.96391043679625L189.52375,310.20581213540635L189.87150000000003,286.16845646286816L190.567,255.57673729634982L192.6535,290.4533499282914L193.00125000000003,232.93069127366053L193.34900000000002,260.67729315518613L193.69675,246.61076547898858L194.04450000000003,246.3977190324732L196.82649999999998,208.15723328673675L197.86974999999998,176.16563817399913L198.91299999999998,172.32551417821497L199.26074999999997,203.19773413236226L199.6085,173.73886452842302L199.95624999999998,189.2397264228143L201.695,177.97654391348448L204.47699999999998,155.59026707231558L204.82475,165.18980250204493L206.91125,142.1604184704454L209.69325,172.48607596829737L210.7365,180.81091941249466L211.08425,173.46764197216112L213.5185,160.28785728120874L214.56175,158.6861688682895L215.25725,134.9680645496064L218.03925,138.83320240599411L219.0825,143.89410329309842L219.43025,134.3182801221204L222.56,134.8789680745214L223.2555,134.6670172080659L223.60325,123.84675577070657L223.951,112.14514436588375L226.38525,120.20417753094809L228.12400000000002,125.5879610649561L228.8195,131.28586754865688L229.16725000000002,139.91406598427767L230.55825000000002,140.15571231784836L232.29700000000003,152.91306375463182L232.64475000000002,154.8096564346228L233.68800000000002,142.23852113339936L235.77450000000002,143.19547631640788L236.12225,133.89910397163584L236.81775000000002,123.6601896556909L237.86100000000002,116.96847742977117L238.55650000000003,135.43635918514698L238.90425000000002,138.8399973292713L239.59974999999997,118.39927112483089L240.29524999999998,109.42501722035185L240.64299999999997,106.23391942311994L243.07725,101.57744256296266L245.85924999999997,109.47664735595959L246.207,121.07071568630326L246.55474999999998,146.3973385026913L247.94574999999998,124.85294855616009L251.42325,133.03831458824155L251.771,125.06298875294489L252.4665,105.74615688813056L253.8575,121.300057769242L254.90075,117.74585284336337L255.2485,130.69332988783626L255.59625,126.3978161145199L256.6395,122.44959875962108L260.8125,128.58030471031816L262.899,121.01727373528173L263.94225,156.2358187866236L264.63775,142.82003672651965L264.9855,138.6091129450027L265.681,118.80910413063796L267.072,115.4287352056555L268.463,115.86815021430239L269.1585,111.1965264922178L270.89725,106.47427953169435L275.76575,101.99584044628932L277.5045,103.42150426777359L277.85225,108.66381165157327L279.24325,113.18010517276213L279.591,103.82588128547546L280.982,111.92243786219437L281.32975,125.28000817186208L282.02525,116.56945944857179L283.0685,110.52058476005216L284.80725,97.84325994694036L285.155,94.89795596816423L285.50275,104.64640994453488L287.2415,86.6416641485391L287.58925,82.41918030730528L287.937,93.04641727529228L288.98025,101.06785036517535L292.11,108.89671021910526L292.8055,202.42893522237227L294.892,158.197724769787L296.9785,137.1426348618722L297.32625,138.21867182621418L299.41275,117.47811218663757L300.456,114.08177640289168L301.847,96.68979311446225L303.238,96.94769405049556L303.9335,93.81225279393368L305.3245,95.22116985817837L305.67225,97.4374291876343L306.02,92.46100296712605L306.7155,85.63660178027561L308.45425,85.38050652271082L310.193,82.21084936817196L310.54075,78.3897823481759L310.8885,86.24186940890554L316.10475,81.90512164534333L318.539,97.39907298720598L320.6255,99.56671651959634L320.97325,88.80330263903049L321.66875,85.08707249250922L322.36425,85.59915258641462L323.75525,90.29330973366694L326.885,83.78762220383652L327.5805,87.01293695866553L327.92825,86.4804894479266L328.9715,83.9675663960287L331.058,94.79799438307175L333.84,105.13479662984307L334.18775,122.02996888699676L335.231,104.2005267867435L335.57875,86.92249789022789L338.7085,119.87640782504587L339.05625,99.34402651320934L342.8815,93.33077954428921L343.92475,83.69083136293716L344.2725,79.27777154503504L344.968,78.82339019974832L345.6635,79.09912502893987L350.532,81.18383865372755L352.27074999999996,76.12848501041837L352.96624999999995,87.3527273698874L354.0095,89.9745455128415L354.705,98.95054548952312L356.44374999999997,84.86923638462295L356.7915,88.48445092168286L358.878,91.75030691664607L359.5735,108.5156386954422L359.92125,94.44683776271985L360.61674999999997,83.26373902126825L360.9645,82.58587977639729L362.00775,77.51807332038382L362.70324999999997,86.54138944677578L364.442,89.76192457715638L364.78974999999997,90.04915474629382L367.9195,88.57640193868536L368.615,101.67602298139305L370.00600000000003,91.43979560701766L370.35375,95.9911500914833L370.7015,94.33505369125362L372.09250000000003,87.03521403293398L373.48350000000005,87.04221932885132L373.83125,81.56278614276535L374.8745,78.54930804929555L375.57000000000005,89.90194846594095L375.91775,85.74625998865551L376.26550000000003,84.3495741750115L376.61325,90.09192632318872L376.961,97.37588306664051L377.30875,103.39134802180247L378.00425,113.3068088130815L378.35200000000003,100.06335801512161L380.09075,105.82637844543662L380.43850000000003,149.8630997945347L381.82950000000005,129.67422351308446L382.87275,113.72235228966885L383.56825,98.66759319198313L385.65475,95.11837409700809L386.35025,90.52120627638664L388.08900000000006,85.84363285674108L389.48,92.35927062313557L389.82775,92.7042896466086L390.52325,96.47566469705606L394.69625,89.41630790914272L397.1305,76.68105747275835L397.47825,76.44281630183684L398.17375,93.57332614473845L398.52149999999995,103.02908659593398L398.86925,95.81599741210587L399.217,83.5368711745362L399.91249999999997,78.362849977449L400.95575,115.83734635010579L402.34675,98.29149871915436L402.69449999999995,96.26362650421991L404.08549999999997,90.3858122661683L405.12875,99.7456691778828L406.51975,93.84594696127513L407.563,88.112659085856L407.91075,114.28432272424082L408.25849999999997,110.5204118163627L408.60625,104.14933799890852L408.95399999999995,93.7463300720724L409.6495,84.21434349778886L409.99725,83.70460609867335L410.34499999999997,93.26930911374946L411.38825,93.52449455915875L411.736,145.7721512809498L412.08375,123.65529076856988L412.77925000000005,120.52990173386921L413.47475000000003,101.65539558577606L413.8225,94.16923735146565L416.25675,114.07972422906118L417.3,99.43037999198218L418.691,101.60804617700748L419.73425000000003,103.18882770620449L420.42975,109.07256935099542L421.12525000000005,99.44208706514272L422.51625,116.14670678454019L423.90725000000003,104.23493316163321L424.9505,93.52350535152537L425.29825000000005,75.30683048364249L425.646,81.92446192654911L425.99375000000003,80.41140442865675L428.08025000000004,94.58356992992132L430.16675000000004,88.0068692306801L430.86225,88.72193972022625L431.21,75.99025474122664L432.601,84.25378920837234L433.64425000000006,74.40609170684156L433.992,77.81965502410496L435.03524999999996,78.49688392355388L435.383,90.41885762685963L435.73074999999994,95.92695093975213L436.42625,109.1023523820331L437.12174999999996,121.12032052012894L439.20824999999996,98.71946503935011L440.2515,89.39167902361004L440.59925,78.3113710505297L441.6425,135.5475499030451L441.99024999999995,105.45652994182704L442.338,91.24046341964164L443.0335,83.80755077905773L443.38124999999997,77.15434864925282L445.46774999999997,84.95224555318805L446.85875,109.64625642282193L447.2065,92.93175385369318L447.902,99.353961403125L448.5975,120.48074047823862L449.293,103.27098974148862L449.64074999999997,94.86441202671136L449.9885,91.4655563069359L450.33624999999995,86.68442469325244L450.684,90.94447299776961L451.72724999999997,88.29104743502545L452.42274999999995,77.37681027919706L453.11825,73.84426798570004L454.1615,74.74074260960185L454.857,79.39135465667022L455.20475,81.90754006672941L455.5525,71.62743313094671L457.639,61.895005333113495L457.98675,68.3937304725954L458.68225,72.84132919264813L459.7255,88.39643387922524L461.11650000000003,77.98840578208062L462.15975,74.21122528743017L463.20300000000003,66.18709880882176L463.55075,106.61262292165668L464.24625,94.40175557117583L464.94175,78.84978061543279L465.63725,76.3731410965324L467.37600000000003,98.74097556701037L468.41925,131.902767158388L469.11475,183.87911484048735L474.331,145.14855981338332L475.72200000000004,112.86222679712093L476.4175,121.7311542600907L476.76525,93.05396528332716L478.15625,87.08910644272359L478.85175,86.52619113836138L479.19949999999994,110.86480559210773L480.24275,91.19524699162828L480.93825,89.53823910406791L481.63375,88.26985255334986L482.67699999999996,79.28336607746449L483.37249999999995,108.16420146466048L483.72025,101.36470269697813L484.41575,93.72063980000505L485.80675,102.29492933454844L487.19775,97.56895760072908L489.63199999999995,93.36246546952835L489.97975,91.66111564535338L490.3275,101.05921484175747L490.67525,86.13443799596357L491.37075,76.08284461575998L492.414,74.7129794967287L492.76175,79.92306042530998L493.10949999999997,81.12983625518596L494.15275,85.96662902583884L494.5005,80.64325014277603L494.84825,71.69140463112015L495.19599999999997,129.38211550594482L497.97799999999995,109.98272384902143L498.32575,89.84345249123102L499.36899999999997,84.06607149473864L501.80325000000005,93.21200653320679L502.8465,92.11920391992409L505.6285,80.77043144286354L505.97625000000005,73.41280432026358L506.67175000000003,68.17568259215818L507.0195,63.11413682802214L507.36725,61.44811846044966L508.4105,62.64196198536067L508.75825000000003,61.98735900939824L509.45375,85.72259722382074L510.14925000000005,83.78701287974704L511.888,90.02857136421181L512.23575,97.06368827307256L513.62675,88.9465766002072L513.9745,79.96358232376065L514.32225,78.68651303062005L514.67,68.59808963655387L515.71325,82.56030832738685L516.061,76.95436681461392L516.40875,106.2184382705865L517.452,111.43869932598828L517.79975,90.71703777741118L520.58175,79.92913175735579L521.9727499999999,69.89202450895891L522.66825,72.64357834173899L523.36375,86.90687427777065L523.7115,88.3361245666624L524.75475,77.67803837636109L525.798,76.76682302581665L526.14575,86.09063927003542L526.4935,123.76420174383944L526.84125,97.56397559175821L527.8845,82.94056717323676L530.6665,91.7141584857602L531.362,89.57540418236523L532.0575,86.92124250941916L532.753,81.21601823292417L533.10075,77.79288366702724L534.144,74.64227565476183L534.8395,71.38100175649345L535.535,63.666419235714294L537.27375,69.18239699597402L539.708,75.50798365212984L540.05575,73.27133564582334L541.099,71.10680138749404L541.7945,68.98553537795097L543.881,64.14841213586149L544.22875,77.97122909969872L544.92425,71.18491927800105L545.61975,69.58076974861879L547.01075,69.71500730371672L548.40175,70.06973165495732L549.09725,77.13711172024712L550.836,88.50626703214827L551.18375,98.34376021928894L551.5315,87.79534704066425L553.96575,77.62775367894405L554.3135,70.15628857100278L556.4,69.51195496078348L557.791,70.22208206737916L558.13875,71.7448856040639L558.4865,73.48111318062016L561.61625,80.00648609019028L562.31175,74.87370983593235L563.355,64.11695317428669L565.4414999999999,60.67889917729925L565.78925,60.26115768819777L567.18025,57.54287643110047L568.2235,59.4762713132057L568.57125,65.29739915155982L568.919,64.677348581845L569.96225,59.64422733092518L573.7875,68.9625363985551L574.83075,75.65024911186035L575.874,66.50214946711618L576.22175,66.22274422572424L576.5695,68.24855562634363L577.61275,66.72222428489711L577.9605,73.75769820730186L578.30825,76.33389165165389L583.5245,68.28324408190142L584.56775,69.4848555400499L585.26325,66.64145877857541L585.611,64.66123890350889L586.3065,61.553834251196214L586.65425,84.9141187325359L587.6975,88.51138033043064L588.74075,82.44428274371293L589.0885,93.88402419168229L589.784,85.39368724228213L590.4795,74.54166689082379L591.175,101.20645467994888L591.8705,87.3195091716057L592.91375,80.08406913932701L593.60925,83.14571421086897L594.30475,84.70851943561226L595.00025,73.8563843886401L595.69575,125.74583063318406L596.39125,99.84968019809223L599.86875,95.55344448249171L601.25975,86.12115759858594L602.65075,73.33305819551524L602.9985,69.4987440082182L603.34625,69.11742822311273L604.04175,67.51772966114035L605.085,69.57391052395694L606.12825,79.58143722346509L606.82375,75.9895896068063L607.867,82.60829921862923L609.9535,75.33807044026844L610.649,91.53956953688835L611.3445,83.98701444940575L611.69225,88.5034813969162L612.7355,87.10063429269516L613.08325,78.85601693925348L613.431,83.23142834537026L614.47425,99.83994791631306L617.25625,88.9672414770606L618.995,77.50834488623637L619.6905,82.42282511356L621.777,86.19405870449964L623.168,80.77970794997253L623.51575,76.16018840634715L623.8635,67.63065849835374L624.21125,69.64166782628497L626.29775,64.5420916048619L627.341,59.83725496291715L629.77525,68.25580752320484L630.47075,70.29093905937748L631.514,66.02838161744468L631.86175,76.90575624319408L632.905,71.36818101864374L633.25275,77.09363588391348L634.9915,76.6903633485299L635.33925,77.81930891820886L635.687,67.80358535092529L636.73025,63.71342393782792L637.7735,79.62950890815131L638.12125,79.58279625398168L638.469,72.97440502511627L638.81675,69.00937028779707L639.1645,69.64634944540552L641.251,72.22199148542512L643.3375,94.60519489125505L645.424,78.42348057111664L646.815,71.73045197903365L647.5105,68.26299846014746L649.24925,68.92434453063392L650.64025,59.998970354743996L653.0745,67.53029130375548L653.77,121.40181114588968L654.81325,178.94945032389742L655.50875,132.04603383070207L655.8565,111.03271120751216L656.89975,89.65089945178002L657.2475,86.41817603470436L657.943,77.89817834809534L658.29075,73.06036155431177L659.334,77.28639875076887L665.24575,77.9027483413704L665.5935,70.32128536845863L665.94125,63.578953039256994L666.289,67.48482636900876L667.68,65.16725945776889L668.72325,60.76071931102498L670.11425,57.84261340479678L670.462,85.15502258833264L670.80975,73.57592264390868L672.20075,65.80591722270886L672.5485,67.1759139699889L672.89625,66.07863929108429L673.59175,62.95263812010514L674.28725,61.35121923569942L674.98275,69.43836790505601L675.67825,68.25865710666996L678.46025,63.9864669912747L680.199,74.0355165584012L680.54675,65.5333099350407L683.6765,66.1898041428426L684.02425,78.64770066752372L687.8495,73.51007494596878L689.58825,73.99186314939945L690.6315,83.6031178896397L690.97925,69.90296164287473L692.0225,74.29523153117938L692.718,80.76913891870761L693.06575,72.04111971486094L695.8477499999999,71.46539910164381L696.1954999999999,70.84578491553178L696.5432500000001,60.05510731295544L696.891,73.32179166050048L697.93425,76.07234772357305L698.62975,117.20486317959838L698.9775,91.98328154412265L699.3252500000001,81.78560529010997L702.10725,73.47354499224778L703.846,75.61503608625777L704.19375,73.88393074266375L705.237,66.2649039001437L707.6712500000001,60.87094234008624L708.36675,63.39238358586992L711.8442500000001,63.53433924243103L713.583,72.66751263636772L713.93075,77.87323485454792L714.62625,72.22285000363783L714.974,63.89734636581905L717.0604999999999,58.90204418312781L717.4082500000001,59.19504469169485L719.49475,54.16139045138057L719.8425,65.39865245264654L722.97225,57.609373289769735L724.3632500000001,51.56489670113456L725.05875,56.43784711158979L726.44975,59.6357991760448L729.5794999999999,58.81275223289957L730.275,59.689833157921576L731.31825,65.15135444020746L732.01375,64.86390357321541L732.3615,67.98161487120196L734.1002500000001,72.86824164999392L735.1434999999999,67.84894498999638L736.8822500000001,65.65991244854328L737.57775,68.7334020145805L738.96875,63.722950299657384L739.6642499999999,62.361770179794476L740.0120000000001,68.94797119878572L740.35975,68.51278271927144L741.0552499999999,60.84876054065375L741.75075,57.89543814257411L743.4895,59.139444703726234L744.53275,62.627666822235774L745.2282499999999,62.80132736606872L746.2715,67.0182509650958L747.31475,67.08076876087563L748.70575,68.48918852925267L749.749,63.57642220846068L751.1400000000001,93.25639877962186L751.48775,93.79093017686401L751.8355,92.4665581061184L754.26975,78.23702577276194L754.96525,76.2796700091117L755.66075,69.89580200546702L756.7040000000001,76.48439029418928L757.05175,75.22808872196813L759.13825,67.89394414227179L759.4860000000001,64.31600284899943L760.8770000000001,64.63687443667239L762.268,62.63594284382163L763.31125,54.58083843356572L763.6590000000001,64.82777578741215L764.00675,88.24939274517456L764.3545,81.19036291983201L765.0500000000001,84.08367229735373L766.0932499999999,73.48147610568496L768.5275,72.05543111795643L768.8752499999999,67.63544048895568L770.614,71.56380974791884L771.3095,70.90483130329677L771.65725,63.65489878197805L772.0050000000001,62.595121087368646L775.13475,69.6363453796939L776.52575,62.071261773270884L776.8735,56.4354843366898L777.2212499999999,56.89256332928663L777.5690000000001,56.070083452117416L778.2645,56.94750461672497L780.00325,55.00632095185317L780.3510000000001,57.95433802565738L781.0465,79.73842099721257L781.3942499999999,68.95505259832754L781.7420000000001,178.46394064990565L782.7852499999999,159.44709166267063L783.4807500000001,113.21589136123875L783.8285,93.70262572583417L784.17625,86.92993907186413L787.3059999999999,73.2699634431185L788.34925,76.31543261132562L791.4789999999999,67.17544138497719L793.5655,67.99762846734991L793.91325,62.184758898591824L795.9997500000001,58.422855339155085L796.3475,56.439895021674864L796.69525,54.42757337664126L797.39075,59.2521803896211L799.47725,62.969490051954516L801.56375,64.9256940311727L801.9115,92.69505278233999L804.6935,83.85775894213127L805.04125,96.10301900164238L806.0845,80.96726594643997L807.1277500000001,68.04726865877309L808.5187500000001,64.68217937708202L809.21425,62.937307626249186L810.60525,66.82565730302223L812.6917500000001,62.029939836358835L814.08275,62.442691174542546L814.4305,64.3354328865437L815.4737500000001,59.43907791374442L816.16925,57.872174020973915L817.2125,54.19021350349346L818.6035,55.8195826475506L819.299,63.10338595216675L819.9945,58.4256679349364L820.34225,54.522309851870915L820.6899999999999,56.018840456577095L823.12425,56.64257700121899L823.8197500000001,63.04881892800411L824.1675,61.40892772043882L826.2539999999999,65.08608390499057L826.6017499999999,59.34110488844888L826.9495000000001,63.84539020579659L827.645,68.74141594165977L828.3405,69.75975865590492L832.5135,62.419491557179335L835.64325,58.56369493430762L837.03425,53.782580596948186L838.773,60.78445744907801L839.1207499999999,59.50194719671951L840.8595,62.57098649984992L841.20725,82.78259189990995L841.555,66.94300968540053L842.946,65.66471490214943L843.2937499999999,60.78501075947148L845.38025,68.82446100113742L846.77125,67.06776750977335L847.119,61.62684232404583L847.4667499999999,59.73319630351842L848.16225,56.67773596392922L848.51,56.76373248744845L850.24875,103.4262394924691L851.292,88.10301642275417L851.9875000000001,70.40944621728886L853.0307499999999,69.11548591219149L854.074,99.04747336549673L855.11725,84.92739311020713L855.8127499999999,84.13243586612427L857.89925,86.12309788331093L858.247,81.83385872998656L858.9425000000001,68.84140614708282L859.638,80.78702550643153L862.76775,69.85839712204071L863.1155000000001,80.84885645504262L863.46325,116.23222296393465L863.811,87.01278832381531L868.6795000000001,101.83458208519829L870.0704999999999,84.95456743293717L871.4614999999999,76.1974677324896L871.80925,66.5562988213119L872.8525,61.31996111096898L873.2002500000001,67.50034030294503L874.2434999999999,91.22384054540338L874.939,72.28194069087837L875.6344999999999,70.78734623270887L877.3732500000001,61.939316830534366L878.4164999999999,56.630499189229745L879.112,70.71866314990145L879.45975,65.46247061721361L880.15525,64.77639146123725L881.1985,62.71965305856052L882.24175,78.75906456240905L882.9372500000001,66.7223478283545L883.9804999999999,71.5643177879218L885.02375,61.85713612729856L885.3715,60.419736221833645L886.41475,55.44456900582745L887.458,65.620195948951L890.24,63.77429938755244L890.58775,79.11767054162235L891.2832500000001,77.90478414315525L893.022,77.17705230407495L894.76075,63.579685927899504L895.1084999999999,57.34053882946699L895.4562500000001,53.87123238858928L896.15175,67.69219397860812L896.4994999999999,62.275680023528494L897.195,64.2352261959353L897.8905,63.21749935392481L898.93375,58.768317794173086L899.2814999999999,58.56644522195838L900.6724999999999,57.074412587720474L902.4112500000001,57.82428391626861L903.10675,132.85166125885212L905.19325,103.56481493712946L905.541,89.55707078045947L905.88875,77.03969701373023L906.2365,67.33581820823812L906.5842500000001,66.4487636522156L907.6274999999999,65.91653091860209L908.323,63.403736732979446L909.36625,57.23496931251492L909.714,56.2755270420544L910.7572500000001,57.07077077068722L911.45275,62.48318973513961L912.1482500000001,69.5691865683565L912.4960000000001,66.14369375919571L912.84375,78.07167080097194L914.23475,64.11645702603772L915.62575,61.226965124713544L915.9735,56.203088165737206L916.32125,65.25276199035142L917.7122499999999,85.21420264875631L918.0600000000001,72.7888852256174L918.7555,62.59187658991591L919.1032499999999,56.47367140849501L919.79875,56.641293754187885L920.1465,57.016048979785474L920.49425,54.499083933325835L921.18975,57.1016321781773L921.5375,58.114797488724584L922.2330000000001,59.81942394778021L923.2762499999999,61.664745277759025L923.97175,70.72321080301906L924.3195,112.89865375453876L926.4060000000001,97.35082861635959L926.75375,96.5217698970885L927.1015,80.39597102916217L928.4925,71.54303716295188L929.1880000000001,67.60218593413474L929.8835,63.04422065138994L931.2745,60.03525966356125L933.70875,56.85897397995493L934.7520000000001,55.22738438797292L935.4475,57.53861245096562L936.143,61.94134928876119L936.49075,63.21208230052944L937.88175,61.506885743954044L938.5772499999999,69.25758599182696L938.9250000000001,67.60182432236891L939.27275,62.49564004796679L940.316,63.81883857423465L940.66375,67.90293950817711L941.7070000000001,71.72430915945172L942.05475,62.22731276839832L943.0980000000001,54.33566038831172L944.1412499999999,69.89012350571427L945.53225,82.51298319433768L947.61875,72.53906264387533L947.9665,69.29652849541608L949.00975,81.60846255179514L949.3575,148.76725934925892L950.0530000000001,111.46908288228263L950.7485,203.97235882027863L951.0962499999999,160.76886983762174L951.79175,149.92677644802757L952.1395,117.64842950518015L952.835,100.47487588492626L953.18275,84.41292553095576L953.5305,70.3888462276644L953.87825,62.24858046387133L954.57375,59.00951191468644L955.2692499999999,67.21079805790274L955.6170000000001,60.06756974383259L957.0079999999999,173.13145093720865L957.3557500000001,125.265052380507L958.05125,112.99612233739511L959.0945,91.10312794789158L959.79,111.96587676873497L960.83325,96.24279878851371L965.00625,85.71222472765372L966.39725,71.16842574568311L967.4405,62.16796453831898L969.17925,61.15459690480954L969.8747500000001,56.15966723379482L970.9179999999999,51.24343670391323L973.0045,65.84133474962067L973.35225,62.810255395226974L974.0477500000001,64.83015323713617L975.0909999999999,89.62172830591804L976.13425,87.77158243809627L976.482,73.77494946285776L976.8297500000001,72.23151513226013L979.9595,60.61236362481059L980.30725,58.57614544761362L980.655,54.33841454129548L981.0027500000001,49.87650327023182L981.69825,51.31208378032092L982.3937500000001,51.35088663182892L983.4369999999999,65.90580470637009L985.1757500000001,60.65548282382204L985.87125,55.311835148838675L986.2189999999999,58.68601018021231L986.5667500000001,62.355606108127375L986.9145,65.65409093760368L989.6965,60.77863638074404L992.82625,58.401727282991864L994.5649999999999,61.36249091524967L997.347,75.751312730968L997.6947500000001,79.9976967294899L998.7379999999999,71.85243621951216L1000.1289999999999,62.03000718625271L1001.17225,60.79764067538797L1002.56325,72.9447662234146L1003.6065000000001,83.79740518859424L1004.6497499999999,77.97080674952018L1004.9975000000001,69.26539314062121L1005.34525,64.86469042982725L1006.0407499999999,66.06281425789639L1008.8227499999999,70.62023400928327L1009.51825,64.03250404193362L1010.2137499999999,74.0631387887965L1010.90925,148.90115600055063L1012.648,112.92032996396678L1014.3867499999999,89.13837979656188L1017.1687499999999,70.48230060520986L1017.5165000000001,67.51410763585316L1017.86425,63.813919126966475L1019.25525,59.40035147617987L1020.2985000000001,61.68748361298064L1021.3417499999999,58.39867198597024L1024.12375,59.98974864612756L1024.81925,55.46075827858561L1026.21025,52.19500042169684L1026.558,60.10609116210902L1026.90575,57.4498365154472L1027.2535,51.743356454722864L1027.949,57.915832054651894L1028.6445,56.684044687336616L1029.68775,81.71806317603829L1030.731,74.80392881471391L1031.07875,73.12308456155561L1031.77425,66.08257800966061L1032.46975,87.9055468057964L1034.904,76.04878262893237L1036.295,76.88599685008668L1036.9905,69.98541629187015L1037.686,63.10324977512212L1038.3815,66.37685895598236L1038.72925,67.24429719177121L1039.42475,66.11966922415365L1040.468,65.71907426176492L1041.1635,60.543444557058926L1042.20675,57.98643037059902L1042.90225,53.71040367690488L1043.9454999999998,72.5309694788702L1044.29325,65.17894532368577L1044.641,58.84845810330232L1048.1185,65.19489304379957L1048.46625,61.59984491718884L1049.16175,63.82972513213151L1049.5095,57.216380533824385L1049.85725,60.377101047567315L1050.205,60.90262426490404L1051.24825,64.23393819530605L1051.596,55.53963564445635L1052.2915,72.80596320485562L1053.33475,69.45666883200427L1054.03025,58.94745584465714L1054.72575,58.399746234066995L1055.42125,54.78093864953108L1058.551,50.41619955335501L1058.89875,53.280992459285756L1059.942,55.822413657389596L1060.6375,55.70217546716104L1061.333,62.75875982575116L1062.0285,59.58980134999618L1062.724,53.30151717363409L1063.07175,58.02818303145317L1064.115,54.55800072796283L1066.2015,53.84680043677769L1066.54925,51.77498935297572L1067.94025,73.56317542996725L1068.9835,83.34590525798036L1070.02675,84.28027042751549L1070.72225,74.6961622565093L1071.07,83.47733371754191L1072.461,73.11767295779786L1073.852,67.99860377467873L1074.89525,66.57225317389812L1075.243,59.41026099524796L1075.59075,56.75815659714877L1075.9385,58.73125759465291L1076.98175,63.20530001133718L1078.37275,68.08318000680232L1079.06825,64.42954436771775L1080.45925,85.26863571153974L1080.807,72.54736324510564L1081.5025,60.80187249251796L1081.85025,56.22221440460165L1083.589,53.20023773367009L1084.63225,54.951415367474794L1084.98,59.840667402303055L1085.6755,57.29058225956365L1086.371,60.4216220830109L1087.0665,53.52642779526112L1087.4142499999998,51.308583949883925L1088.4575,51.897150369930394L1088.80525,64.04010840377642L1089.50075,60.6327923149931L1090.544,53.65312993445043L1090.89175,51.658787051579296L1091.58725,48.268726776402175L1093.67375,45.96050879311402L1094.717,51.155941639504775L1095.76025,58.385928620066466L1096.108,69.85264808113082L1097.499,65.21704339413301L1099.5855,63.80658967284347L1104.10625,61.86359016734242L1105.49725,72.48760864586004L1106.19275,78.58783791478872L1107.9315,70.73233911250964L1108.97475,67.93831255841482L1109.67025,64.06844208050344L1111.06125,71.89124706648388L1112.8,64.24674823989034L1114.191,68.70804894393422L1115.582,59.59501118454234L1116.62525,59.61082489254357L1119.755,54.68504039007162L1121.8415,74.21247877949749L1125.319,73.59075999497125L1125.66675,134.36027417880092L1126.0145,106.38925541637148L1127.05775,87.68737143164104L1127.4055,71.80515013171188L1129.14425,68.30781735175442L1129.83975,66.4835995019617L1131.23075,108.16143242844977L1131.5785,83.81540491161535L1131.92625,78.25578840151461L1132.274,67.79129122272695L1132.62175,60.141683824545254L1132.9695,103.25955574927261L1133.31725,83.61609708592721L1136.09925,73.20093097882906L1137.1425,61.194013132751955L1139.229,71.26331697056025L1140.62,59.75726290960891L1144.0975,54.49872138212898L1144.44525,65.05268737473193L1144.793,59.869430606657325L1147.22725,69.64602200035802L1148.966,59.06106774566937L1150.00925,65.32245882921983L1150.70475,56.46692984298642L1151.0525,58.28233972397367L1151.40025,53.88794928892967L1151.748,61.67022411881232L1153.139,55.64649810765102L1155.921,52.854807955499716L1156.26875,60.50197568239073L1157.312,56.316458136707205L1158.0075,56.54696579111523L1158.35525,57.23363402012369L1159.05075,51.613634957528745L1160.7895,57.83799915633546L1163.22375,51.976254039255814L1163.91925,47.636661514462574L1164.9625,49.41981509049571L1165.658,57.070070872479235L1167.39675,61.660224341669355L1168.44,73.18813460500161L1169.48325,66.39578985391007L1172.613,63.417110275982395L1172.9607500000002,56.694629801953056L1174.004,50.74186879026278L1175.04725,49.63784854688494L1175.74275,48.70125458267639L1176.0905,50.05857093142406L1178.177,52.243869831581684L1179.22025,66.98995826258539L1179.568,93.11106586664211L1180.2635,79.72045770180344L1181.30675,66.47663825744574L1182.00225,59.07871022719472L1182.69775,54.091589772680464L1183.741,53.84113568179005L1184.08875,140.6064995908922L1184.4365,127.41044520908082L1186.87075,98.1066307618121L1188.6095,79.97597845708728L1189.305,66.90413252879782L1189.65275,59.061024971824146L1190.0005,63.677342255821785L1191.3915,55.20567808076578L1191.73925,60.815770484823105L1193.478,58.42400774543931L1193.82575,56.166404647263555L1195.21675,61.11802460653997L1196.26,64.08899658210579L1196.60775,57.92030704017258L1197.30325,55.86418422410353L1199.7375,51.06614689809849L1200.08525,52.02586995704089L1201.824,57.53697651967911L1205.997,94.29382227544383L1207.73575,75.76902063799355L1208.43125,69.58941238279616L1208.779,66.1558292478595L1209.82225,56.96695209417027L1210.17,51.45362580195668L1213.29975,63.77399366299223L1215.38625,57.73130528870441L1216.77725,66.16969226413174L1217.125,69.31345172211539" style="fill: none;" fill="none"></path></g></g></g></g><g opacity="0.2"><g><g><g><path stroke="rgb(51, 187, 238)" stroke-width="2px" d="M175.9615,342.7272727272727L176.30925,342.7272727272727L178.048,342.7272727272727L179.09125,342.7272727272727L179.439,342.7272727272727L180.48225,342.7272727272727L181.17775,198.0963636363636L182.56875,269.38363636363636L186.74175000000002,301.6L188.13275000000002,313.9381818181818L188.82825000000003,342.7272727272727L189.52375,301.6L189.87150000000003,250.19090909090906L190.567,209.7490909090909L192.6535,342.7272727272727L193.00125000000003,146.6872727272727L193.34900000000002,302.2854545454545L193.69675,225.51454545454544L194.04450000000003,246.0781818181818L196.82649999999998,150.8L197.86974999999998,128.17999999999998L198.91299999999998,166.56545454545454L199.26074999999997,249.50545454545457L199.6085,129.5509090909091L199.95624999999998,212.49090909090913L201.695,161.08181818181816L204.47699999999998,122.01090909090908L204.82475,179.58909090909088L206.91125,107.61636363636362L209.69325,217.97454545454542L210.7365,193.2981818181818L211.08425,162.45272727272726L213.5185,140.5181818181818L214.56175,156.28363636363636L215.25725,99.3909090909091L218.03925,144.6309090909091L219.0825,151.48545454545456L219.43025,119.95454545454547L222.56,135.72L223.2555,134.3490909090909L223.60325,107.61636363636362L223.951,94.59272727272726L226.38525,132.2927272727273L228.12400000000002,133.66363636363636L228.8195,139.83272727272725L229.16725000000002,152.85636363636362L230.55825000000002,140.5181818181818L232.29700000000003,172.04909090909092L232.64475000000002,157.65454545454546L233.68800000000002,123.38181818181818L235.77450000000002,144.6309090909091L236.12225,119.95454545454547L236.81775000000002,108.30181818181816L237.86100000000002,106.93090909090911L238.55650000000003,163.13818181818183L238.90425000000002,143.94545454545454L239.59974999999997,87.73818181818184L240.29524999999998,95.96363636363635L240.64299999999997,101.4472727272727L243.07725,94.59272727272726L245.85924999999997,121.32545454545453L246.207,138.4618181818182L246.55474999999998,184.38727272727274L247.94574999999998,92.53636363636365L251.42325,145.31636363636366L251.771,113.10000000000002L252.4665,76.77090909090909L253.8575,144.6309090909091L254.90075,112.41454545454546L255.2485,150.11454545454546L255.59625,119.95454545454547L256.6395,116.52727272727273L260.8125,137.77636363636364L262.899,109.67272727272727L263.94225,209.06363636363636L264.63775,122.69636363636363L264.9855,132.2927272727273L265.681,89.1090909090909L267.072,110.35818181818182L268.463,116.52727272727273L269.1585,104.18909090909091L270.89725,99.3909090909091L275.76575,95.2781818181818L277.5045,105.56000000000002L277.85225,116.52727272727273L279.24325,119.95454545454547L279.591,89.79454545454544L280.982,124.06727272727274L281.32975,145.31636363636366L282.02525,103.50363636363636L283.0685,101.4472727272727L284.80725,78.82727272727273L285.155,90.47999999999999L285.50275,119.26909090909092L287.2415,59.63454545454546L287.58925,76.08545454545454L287.937,108.98727272727271L288.98025,113.10000000000002L292.11,120.63999999999999L292.8055,342.7272727272727L294.892,91.8509090909091L296.9785,105.56000000000002L297.32625,139.83272727272725L299.41275,86.36727272727273L300.456,108.98727272727271L301.847,70.60181818181817L303.238,97.33454545454545L303.9335,89.1090909090909L305.3245,97.33454545454545L305.67225,100.76181818181816L306.02,84.99636363636364L306.7155,75.39999999999998L308.45425,84.99636363636364L310.193,77.45636363636363L310.54075,72.65818181818183L310.8885,98.02000000000001L316.10475,75.39999999999998L318.539,120.63999999999999L320.6255,102.81818181818181L320.97325,72.65818181818183L321.66875,79.51272727272729L322.36425,86.36727272727273L323.75525,97.33454545454545L326.885,74.02909090909093L327.5805,91.8509090909091L327.92825,85.68181818181819L328.9715,80.19818181818184L331.058,111.04363636363637L333.84,120.63999999999999L334.18775,147.37272727272725L335.231,77.45636363636363L335.57875,61.00545454545456L338.7085,169.30727272727273L339.05625,68.54545454545453L342.8815,84.31090909090909L343.92475,69.23090909090908L344.2725,72.65818181818183L344.968,78.14181818181818L345.6635,79.51272727272729L350.532,84.31090909090909L352.27074999999996,68.54545454545453L352.96624999999995,104.18909090909091L354.0095,93.90727272727274L354.705,112.41454545454546L356.44374999999997,63.74727272727272L356.7915,93.90727272727274L358.878,96.6490909090909L359.5735,133.66363636363636L359.92125,73.34363636363638L360.61674999999997,66.48909090909092L360.9645,81.56909090909089L362.00775,69.91636363636363L362.70324999999997,100.07636363636365L364.442,94.59272727272726L364.78974999999997,90.47999999999999L367.9195,86.36727272727273L368.615,121.32545454545453L370.00600000000003,76.08545454545454L370.35375,102.81818181818181L370.7015,91.8509090909091L372.09250000000003,76.08545454545454L373.48350000000005,87.0527272727273L373.83125,73.34363636363638L374.8745,74.02909090909093L375.57000000000005,106.93090909090911L375.91775,79.51272727272729L376.26550000000003,82.25454545454544L376.61325,98.70545454545456L376.961,108.30181818181816L377.30875,112.41454545454546L378.00425,128.17999999999998L378.35200000000003,80.19818181818184L380.09075,114.47090909090907L380.43850000000003,215.91818181818184L381.82950000000005,99.3909090909091L382.87275,89.79454545454544L383.56825,76.08545454545454L385.65475,89.79454545454544L386.35025,83.62545454545455L388.08900000000006,78.82727272727273L389.48,102.13272727272727L389.82775,93.2218181818182L390.52325,102.13272727272727L394.69625,78.82727272727273L397.1305,57.57818181818181L397.47825,76.08545454545454L398.17375,119.26909090909092L398.52149999999995,117.21272727272728L398.86925,84.99636363636364L399.217,65.11818181818182L399.91249999999997,70.60181818181817L400.95575,172.04909090909092L402.34675,71.97272727272727L402.69449999999995,93.2218181818182L404.08549999999997,81.56909090909089L405.12875,113.78545454545453L406.51975,84.99636363636364L407.563,79.51272727272729L407.91075,153.54181818181817L408.25849999999997,104.87454545454545L408.60625,94.59272727272726L408.95399999999995,78.14181818181818L409.6495,69.91636363636363L409.99725,82.93999999999998L410.34499999999997,107.61636363636362L411.38825,93.90727272727274L411.736,224.14363636363635L412.08375,90.47999999999999L412.77925000000005,115.84181818181817L413.47475000000003,73.34363636363638L413.8225,82.93999999999998L416.25675,143.94545454545454L417.3,77.45636363636363L418.691,104.87454545454545L419.73425000000003,105.56000000000002L420.42975,117.89818181818183L421.12525000000005,84.99636363636364L422.51625,141.20363636363635L423.90725000000003,86.36727272727273L424.9505,77.45636363636363L425.29825000000005,47.9818181818182L425.646,91.8509090909091L425.99375000000003,78.14181818181818L428.08025000000004,115.84181818181817L430.16675000000004,78.14181818181818L430.86225,89.79454545454544L431.21,56.892727272727264L432.601,96.6490909090909L433.64425000000006,59.63454545454546L433.992,82.93999999999998L435.03524999999996,79.51272727272729L435.383,108.30181818181816L435.73074999999994,104.18909090909091L436.42625,128.86545454545453L437.12174999999996,139.14727272727274L439.20824999999996,65.11818181818182L440.2515,75.39999999999998L440.59925,61.69090909090911L441.6425,221.4018181818182L441.99024999999995,60.320000000000014L442.338,69.91636363636363L443.0335,72.65818181818183L443.38124999999997,67.17454545454547L445.46774999999997,96.6490909090909L446.85875,146.6872727272727L447.2065,67.86000000000001L447.902,108.98727272727271L448.5975,152.1709090909091L449.293,77.45636363636363L449.64074999999997,82.25454545454544L449.9885,86.36727272727273L450.33624999999995,79.51272727272729L450.684,97.33454545454545L451.72724999999997,84.31090909090909L452.42274999999995,61.00545454545456L453.11825,68.54545454545453L454.1615,76.08545454545454L454.857,86.36727272727273L455.20475,85.68181818181819L455.5525,56.20727272727271L457.639,47.29636363636365L457.98675,78.14181818181818L458.68225,79.51272727272729L459.7255,111.72909090909091L461.11650000000003,62.37636363636362L462.15975,68.54545454545453L463.20300000000003,54.1509090909091L463.55075,167.2509090909091L464.24625,76.08545454545454L464.94175,55.52181818181816L465.63725,72.65818181818183L467.37600000000003,132.2927272727273L468.41925,181.64545454545456L469.11475,261.8436363636364L474.331,87.0527272727273L475.72200000000004,64.43272727272726L476.4175,135.03454545454545L476.76525,50.038181818181805L478.15625,78.14181818181818L478.85175,85.68181818181819L479.19949999999994,147.37272727272725L480.24275,61.69090909090911L480.93825,87.0527272727273L481.63375,86.36727272727273L482.67699999999996,65.80363636363637L483.37249999999995,151.48545454545456L483.72025,91.16545454545455L484.41575,82.25454545454544L485.80675,115.15636363636362L487.19775,90.47999999999999L489.63199999999995,87.0527272727273L489.97975,89.1090909090909L490.3275,115.15636363636362L490.67525,63.74727272727272L491.37075,61.00545454545456L492.414,72.65818181818183L492.76175,87.73818181818184L493.10949999999997,82.93999999999998L494.15275,93.2218181818182L494.5005,72.65818181818183L494.84825,58.263636363636365L495.19599999999997,215.91818181818184L497.97799999999995,80.88363636363638L498.32575,59.63454545454546L499.36899999999997,75.39999999999998L501.80325000000005,106.93090909090911L502.8465,90.47999999999999L505.6285,63.74727272727272L505.97625000000005,62.37636363636362L506.67175000000003,60.320000000000014L507.0195,55.52181818181816L507.36725,58.94909090909091L508.4105,64.43272727272726L508.75825000000003,61.00545454545456L509.45375,121.32545454545453L510.14925000000005,80.88363636363638L511.888,99.3909090909091L512.23575,107.61636363636362L513.62675,76.77090909090909L513.9745,66.48909090909092L514.32225,76.77090909090909L514.67,53.465454545454556L515.71325,103.50363636363636L516.061,68.54545454545453L516.40875,150.11454545454546L517.452,119.26909090909092L517.79975,59.63454545454546L520.58175,63.74727272727272L521.9727499999999,54.83636363636366L522.66825,76.77090909090909L523.36375,108.30181818181816L523.7115,90.47999999999999L524.75475,61.69090909090911L525.798,75.39999999999998L526.14575,100.07636363636365L526.4935,180.27454545454543L526.84125,58.263636363636365L527.8845,61.00545454545456L530.6665,104.87454545454545L531.362,86.36727272727273L532.0575,82.93999999999998L532.753,72.65818181818183L533.10075,72.65818181818183L534.144,69.91636363636363L534.8395,66.48909090909092L535.535,52.094545454545454L537.27375,77.45636363636363L539.708,84.99636363636364L540.05575,69.91636363636363L541.099,67.86000000000001L541.7945,65.80363636363637L543.881,56.892727272727264L544.22875,98.70545454545456L544.92425,61.00545454545456L545.61975,67.17454545454547L547.01075,69.91636363636363L548.40175,70.60181818181817L549.09725,87.73818181818184L550.836,105.56000000000002L551.18375,113.10000000000002L551.5315,71.97272727272727L553.96575,62.37636363636362L554.3135,58.94909090909091L556.4,68.54545454545453L557.791,71.28727272727272L558.13875,74.02909090909093L558.4865,76.08545454545454L561.61625,89.79454545454544L562.31175,67.17454545454547L563.355,47.9818181818182L565.4414999999999,55.52181818181816L565.78925,59.63454545454546L567.18025,53.465454545454556L568.2235,62.37636363636362L568.57125,74.02909090909093L568.919,63.74727272727272L569.96225,52.094545454545454L573.7875,82.93999999999998L574.83075,85.68181818181819L575.874,52.78000000000001L576.22175,65.80363636363637L576.5695,71.28727272727272L577.61275,64.43272727272726L577.9605,84.31090909090909L578.30825,80.19818181818184L583.5245,56.20727272727271L584.56775,71.28727272727272L585.26325,62.37636363636362L585.611,61.69090909090911L586.3065,56.892727272727264L586.65425,119.95454545454547L587.6975,93.90727272727274L588.74075,73.34363636363638L589.0885,111.04363636363637L589.784,72.65818181818183L590.4795,58.263636363636365L591.175,141.20363636363635L591.8705,66.48909090909092L592.91375,69.23090909090908L593.60925,87.73818181818184L594.30475,87.0527272727273L595.00025,57.57818181818181L595.69575,203.58L596.39125,61.00545454545456L599.86875,89.1090909090909L601.25975,71.97272727272727L602.65075,54.1509090909091L602.9985,63.74727272727272L603.34625,68.54545454545453L604.04175,65.11818181818182L605.085,72.65818181818183L606.12825,94.59272727272726L606.82375,70.60181818181817L607.867,92.53636363636365L609.9535,64.43272727272726L610.649,115.84181818181817L611.3445,72.65818181818183L611.69225,95.2781818181818L612.7355,84.99636363636364L613.08325,66.48909090909092L613.431,89.79454545454544L614.47425,124.75272727272728L617.25625,72.65818181818183L618.995,60.320000000000014L619.6905,89.79454545454544L621.777,91.8509090909091L623.168,72.65818181818183L623.51575,69.23090909090908L623.8635,54.83636363636366L624.21125,72.65818181818183L626.29775,56.892727272727264L627.341,52.78000000000001L629.77525,80.88363636363638L630.47075,73.34363636363638L631.514,59.63454545454546L631.86175,93.2218181818182L632.905,63.06181818181817L633.25275,85.68181818181819L634.9915,76.08545454545454L635.33925,79.51272727272729L635.687,52.78000000000001L636.73025,57.57818181818181L637.7735,103.50363636363636L638.12125,79.51272727272729L638.469,63.06181818181817L638.81675,63.06181818181817L639.1645,70.60181818181817L641.251,76.08545454545454L643.3375,128.17999999999998L645.424,54.1509090909091L646.815,61.69090909090911L647.5105,63.06181818181817L649.24925,69.91636363636363L650.64025,46.6109090909091L653.0745,78.82727272727273L653.77,202.20909090909092L654.81325,265.2709090909091L655.50875,61.69090909090911L655.8565,79.51272727272729L656.89975,57.57818181818181L657.2475,81.56909090909089L657.943,65.11818181818182L658.29075,65.80363636363637L659.334,83.62545454545455L665.24575,78.82727272727273L665.5935,58.94909090909091L665.94125,53.465454545454556L666.289,73.34363636363638L667.68,61.69090909090911L668.72325,54.1509090909091L670.11425,53.465454545454556L670.462,126.12363636363638L670.80975,56.20727272727271L672.20075,54.1509090909091L672.5485,69.23090909090908L672.89625,64.43272727272726L673.59175,58.263636363636365L674.28725,58.94909090909091L674.98275,81.56909090909089L675.67825,66.48909090909092L678.46025,57.57818181818181L680.199,89.1090909090909L680.54675,52.78000000000001L683.6765,67.17454545454547L684.02425,97.33454545454545L687.8495,65.80363636363637L689.58825,74.71454545454547L690.6315,98.02000000000001L690.97925,49.35272727272726L692.0225,80.88363636363638L692.718,90.47999999999999L693.06575,58.94909090909091L695.8477499999999,70.60181818181817L696.1954999999999,69.91636363636363L696.5432500000001,43.8690909090909L696.891,93.2218181818182L697.93425,80.19818181818184L698.62975,178.90363636363634L698.9775,54.1509090909091L699.3252500000001,66.48909090909092L702.10725,61.00545454545456L703.846,78.82727272727273L704.19375,71.28727272727272L705.237,54.83636363636366L707.6712500000001,52.78000000000001L708.36675,67.17454545454547L711.8442500000001,63.74727272727272L713.583,86.36727272727273L713.93075,85.68181818181819L714.62625,63.74727272727272L714.974,51.40909090909091L717.0604999999999,51.40909090909091L717.4082500000001,59.63454545454546L719.49475,46.6109090909091L719.8425,82.25454545454544L722.97225,45.92545454545455L724.3632500000001,42.4981818181818L725.05875,63.74727272727272L726.44975,64.43272727272726L729.5794999999999,57.57818181818181L730.275,61.00545454545456L731.31825,73.34363636363638L732.01375,64.43272727272726L732.3615,72.65818181818183L734.1002500000001,80.19818181818184L735.1434999999999,60.320000000000014L736.8822500000001,62.37636363636362L737.57775,73.34363636363638L738.96875,56.20727272727271L739.6642499999999,60.320000000000014L740.0120000000001,78.82727272727273L740.35975,67.86000000000001L741.0552499999999,49.35272727272726L741.75075,53.465454545454556L743.4895,61.00545454545456L744.53275,67.86000000000001L745.2282499999999,63.06181818181817L746.2715,73.34363636363638L747.31475,67.17454545454547L748.70575,70.60181818181817L749.749,56.20727272727271L751.1400000000001,137.77636363636364L751.48775,94.59272727272726L751.8355,90.47999999999999L754.26975,56.892727272727264L754.96525,73.34363636363638L755.66075,60.320000000000014L756.7040000000001,86.36727272727273L757.05175,73.34363636363638L759.13825,56.892727272727264L759.4860000000001,58.94909090909091L760.8770000000001,65.11818181818182L762.268,59.63454545454546L763.31125,42.4981818181818L763.6590000000001,80.19818181818184L764.00675,123.38181818181818L764.3545,70.60181818181817L765.0500000000001,88.42363636363635L766.0932499999999,57.57818181818181L768.5275,69.91636363636363L768.8752499999999,61.00545454545456L770.614,77.45636363636363L771.3095,69.91636363636363L771.65725,52.78000000000001L772.0050000000001,61.00545454545456L775.13475,80.19818181818184L776.52575,50.72363636363635L776.8735,47.9818181818182L777.2212499999999,57.57818181818181L777.5690000000001,54.83636363636366L778.2645,58.263636363636365L780.00325,52.094545454545454L780.3510000000001,62.37636363636362L781.0465,112.41454545454546L781.3942499999999,52.78000000000001L781.7420000000001,342.7272727272727L782.7852499999999,130.9218181818182L783.4807500000001,43.8690909090909L783.8285,64.43272727272726L784.17625,76.77090909090909L787.3059999999999,52.78000000000001L788.34925,80.88363636363638L791.4789999999999,53.465454545454556L793.5655,69.23090909090908L793.91325,53.465454545454556L795.9997500000001,52.78000000000001L796.3475,53.465454545454556L796.69525,51.40909090909091L797.39075,66.48909090909092L799.47725,68.54545454545453L801.56375,67.86000000000001L801.9115,134.3490909090909L804.6935,70.60181818181817L805.04125,114.47090909090907L806.0845,58.263636363636365L807.1277500000001,48.667272727272746L808.5187500000001,59.63454545454546L809.21425,60.320000000000014L810.60525,72.65818181818183L812.6917500000001,54.83636363636366L814.08275,63.06181818181817L814.4305,67.17454545454547L815.4737500000001,52.094545454545454L816.16925,55.52181818181816L817.2125,48.667272727272746L818.6035,58.263636363636365L819.299,74.02909090909093L819.9945,51.40909090909091L820.34225,48.667272727272746L820.6899999999999,58.263636363636365L823.12425,57.57818181818181L823.8197500000001,72.65818181818183L824.1675,58.94909090909091L826.2539999999999,70.60181818181817L826.6017499999999,50.72363636363635L826.9495000000001,70.60181818181817L827.645,76.08545454545454L828.3405,71.28727272727272L832.5135,51.40909090909091L835.64325,52.78000000000001L837.03425,46.6109090909091L838.773,71.28727272727272L839.1207499999999,57.57818181818181L840.8595,67.17454545454547L841.20725,113.10000000000002L841.555,43.183636363636346L842.946,63.74727272727272L843.2937499999999,53.465454545454556L845.38025,80.88363636363638L846.77125,64.43272727272726L847.119,53.465454545454556L847.4667499999999,56.892727272727264L848.16225,52.094545454545454L848.51,56.892727272727264L850.24875,173.42L851.292,65.11818181818182L851.9875000000001,43.8690909090909L853.0307499999999,67.17454545454547L854.074,143.94545454545454L855.11725,63.74727272727272L855.8127499999999,82.93999999999998L857.89925,89.1090909090909L858.247,75.39999999999998L858.9425000000001,49.35272727272726L859.638,98.70545454545456L862.76775,53.465454545454556L863.1155000000001,97.33454545454545L863.46325,169.30727272727273L863.811,43.183636363636346L868.6795000000001,124.06727272727274L870.0704999999999,59.63454545454546L871.4614999999999,63.06181818181817L871.80925,52.094545454545454L872.8525,53.465454545454556L873.2002500000001,76.77090909090909L874.2434999999999,126.80909090909088L874.939,43.8690909090909L875.6344999999999,68.54545454545453L877.3732500000001,48.667272727272746L878.4164999999999,48.667272727272746L879.112,91.8509090909091L879.45975,57.57818181818181L880.15525,63.74727272727272L881.1985,59.63454545454546L882.24175,102.81818181818181L882.9372500000001,48.667272727272746L883.9804999999999,78.82727272727273L885.02375,47.29636363636365L885.3715,58.263636363636365L886.41475,47.9818181818182L887.458,80.88363636363638L890.24,61.00545454545456L890.58775,102.13272727272727L891.2832500000001,76.08545454545454L893.022,76.08545454545454L894.76075,43.183636363636346L895.1084999999999,47.9818181818182L895.4562500000001,48.667272727272746L896.15175,88.42363636363635L896.4994999999999,54.1509090909091L897.195,67.17454545454547L897.8905,61.69090909090911L898.93375,52.094545454545454L899.2814999999999,58.263636363636365L900.6724999999999,54.83636363636366L902.4112500000001,58.94909090909091L903.10675,245.39272727272726L905.19325,59.63454545454546L905.541,68.54545454545453L905.88875,58.263636363636365L906.2365,52.78000000000001L906.5842500000001,65.11818181818182L907.6274999999999,65.11818181818182L908.323,59.63454545454546L909.36625,47.9818181818182L909.714,54.83636363636366L910.7572500000001,58.263636363636365L911.45275,70.60181818181817L912.1482500000001,80.19818181818184L912.4960000000001,61.00545454545456L912.84375,95.96363636363635L914.23475,43.183636363636346L915.62575,56.892727272727264L915.9735,48.667272727272746L916.32125,78.82727272727273L917.7122499999999,115.15636363636362L918.0600000000001,54.1509090909091L918.7555,47.29636363636365L919.1032499999999,47.29636363636365L919.79875,56.892727272727264L920.1465,57.57818181818181L920.49425,50.72363636363635L921.18975,61.00545454545456L921.5375,59.63454545454546L922.2330000000001,62.37636363636362L923.2762499999999,64.43272727272726L923.97175,84.31090909090909L924.3195,176.16181818181818L926.4060000000001,74.02909090909093L926.75375,95.2781818181818L927.1015,56.20727272727271L928.4925,58.263636363636365L929.1880000000001,61.69090909090911L929.8835,56.20727272727271L931.2745,55.52181818181816L933.70875,52.094545454545454L934.7520000000001,52.78000000000001L935.4475,61.00545454545456L936.143,68.54545454545453L936.49075,65.11818181818182L937.88175,58.94909090909091L938.5772499999999,80.88363636363638L938.9250000000001,65.11818181818182L939.27275,54.83636363636366L940.316,65.80363636363637L940.66375,74.02909090909093L941.7070000000001,77.45636363636363L942.05475,47.9818181818182L943.0980000000001,42.4981818181818L944.1412499999999,93.2218181818182L945.53225,101.4472727272727L947.61875,57.57818181818181L947.9665,64.43272727272726L949.00975,100.07636363636365L949.3575,249.50545454545457L950.0530000000001,55.52181818181816L950.7485,342.7272727272727L951.0962499999999,95.96363636363635L951.79175,133.66363636363636L952.1395,69.23090909090908L952.835,74.71454545454547L953.18275,60.320000000000014L953.5305,49.35272727272726L953.87825,50.038181818181805L954.57375,54.1509090909091L955.2692499999999,79.51272727272729L955.6170000000001,49.35272727272726L957.0079999999999,342.7272727272727L957.3557500000001,53.465454545454556L958.05125,94.59272727272726L959.0945,58.263636363636365L959.79,143.26L960.83325,72.65818181818183L965.00625,69.91636363636363L966.39725,49.35272727272726L967.4405,48.667272727272746L969.17925,59.63454545454546L969.8747500000001,48.667272727272746L970.9179999999999,43.8690909090909L973.0045,87.73818181818184L973.35225,58.263636363636365L974.0477500000001,67.86000000000001L975.0909999999999,126.80909090909088L976.13425,84.99636363636364L976.482,52.78000000000001L976.8297500000001,69.91636363636363L979.9595,43.183636363636346L980.30725,55.52181818181816L980.655,47.9818181818182L981.0027500000001,43.183636363636346L981.69825,53.465454545454556L982.3937500000001,51.40909090909091L983.4369999999999,87.73818181818184L985.1757500000001,52.78000000000001L985.87125,47.29636363636365L986.2189999999999,63.74727272727272L986.5667500000001,67.86000000000001L986.9145,70.60181818181817L989.6965,53.465454545454556L992.82625,54.83636363636366L994.5649999999999,65.80363636363637L997.347,97.33454545454545L997.6947500000001,86.36727272727273L998.7379999999999,59.63454545454546L1000.1289999999999,47.29636363636365L1001.17225,58.94909090909091L1002.56325,91.16545454545455L1003.6065000000001,100.07636363636365L1004.6497499999999,69.23090909090908L1004.9975000000001,56.20727272727271L1005.34525,58.263636363636365L1006.0407499999999,67.86000000000001L1008.8227499999999,77.45636363636363L1009.51825,54.1509090909091L1010.2137499999999,89.1090909090909L1010.90925,261.15818181818184L1012.648,58.94909090909091L1014.3867499999999,53.465454545454556L1017.1687499999999,42.4981818181818L1017.5165000000001,63.06181818181817L1017.86425,58.263636363636365L1019.25525,52.78000000000001L1020.2985000000001,65.11818181818182L1021.3417499999999,53.465454545454556L1024.12375,62.37636363636362L1024.81925,48.667272727272746L1026.21025,47.29636363636365L1026.558,71.97272727272727L1026.90575,53.465454545454556L1027.2535,43.183636363636346L1027.949,67.17454545454547L1028.6445,54.83636363636366L1029.68775,119.26909090909092L1030.731,64.43272727272726L1031.07875,70.60181818181817L1031.77425,55.52181818181816L1032.46975,120.63999999999999L1034.904,58.263636363636365L1036.295,78.14181818181818L1036.9905,59.63454545454546L1037.686,52.78000000000001L1038.3815,71.28727272727272L1038.72925,68.54545454545453L1039.42475,64.43272727272726L1040.468,65.11818181818182L1041.1635,52.78000000000001L1042.20675,54.1509090909091L1042.90225,47.29636363636365L1043.9454999999998,100.76181818181816L1044.29325,54.1509090909091L1044.641,49.35272727272726L1048.1185,74.71454545454547L1048.46625,56.20727272727271L1049.16175,67.17454545454547L1049.5095,47.29636363636365L1049.85725,65.11818181818182L1050.205,61.69090909090911L1051.24825,69.23090909090908L1051.596,42.4981818181818L1052.2915,98.70545454545456L1053.33475,64.43272727272726L1054.03025,43.183636363636346L1054.72575,57.57818181818181L1055.42125,49.35272727272726L1058.551,43.8690909090909L1058.89875,57.57818181818181L1059.942,59.63454545454546L1060.6375,55.52181818181816L1061.333,73.34363636363638L1062.0285,54.83636363636366L1062.724,43.8690909090909L1063.07175,65.11818181818182L1064.115,49.35272727272726L1066.2015,52.78000000000001L1066.54925,48.667272727272746L1067.94025,106.24545454545456L1068.9835,98.02000000000001L1070.02675,85.68181818181819L1070.72225,60.320000000000014L1071.07,96.6490909090909L1072.461,57.57818181818181L1073.852,60.320000000000014L1074.89525,64.43272727272726L1075.243,48.667272727272746L1075.59075,52.78000000000001L1075.9385,61.69090909090911L1076.98175,69.91636363636363L1078.37275,75.39999999999998L1079.06825,58.94909090909091L1080.45925,116.52727272727273L1080.807,53.465454545454556L1081.5025,43.183636363636346L1081.85025,49.35272727272726L1083.589,48.667272727272746L1084.63225,57.57818181818181L1084.98,67.17454545454547L1085.6755,53.465454545454556L1086.371,65.11818181818182L1087.0665,43.183636363636346L1087.4142499999998,47.9818181818182L1088.4575,52.78000000000001L1088.80525,82.25454545454544L1089.50075,55.52181818181816L1090.544,43.183636363636346L1090.89175,48.667272727272746L1091.58725,43.183636363636346L1093.67375,42.4981818181818L1094.717,58.94909090909091L1095.76025,69.23090909090908L1096.108,87.0527272727273L1097.499,58.263636363636365L1099.5855,61.69090909090911L1104.10625,58.94909090909091L1105.49725,88.42363636363635L1106.19275,87.73818181818184L1107.9315,58.94909090909091L1108.97475,63.74727272727272L1109.67025,58.263636363636365L1111.06125,83.62545454545455L1112.8,52.78000000000001L1114.191,75.39999999999998L1115.582,45.92545454545455L1116.62525,59.63454545454546L1119.755,47.29636363636365L1121.8415,103.50363636363636L1125.319,72.65818181818183L1125.66675,225.51454545454544L1126.0145,64.43272727272726L1127.05775,59.63454545454546L1127.4055,47.9818181818182L1129.14425,63.06181818181817L1129.83975,63.74727272727272L1131.23075,170.67818181818183L1131.5785,47.29636363636365L1131.92625,69.91636363636363L1132.274,52.094545454545454L1132.62175,48.667272727272746L1132.9695,167.93636363636364L1133.31725,54.1509090909091L1136.09925,57.57818181818181L1137.1425,43.183636363636346L1139.229,86.36727272727273L1140.62,42.4981818181818L1144.0975,46.6109090909091L1144.44525,80.88363636363638L1144.793,52.094545454545454L1147.22725,84.31090909090909L1148.966,43.183636363636346L1150.00925,74.71454545454547L1150.70475,43.183636363636346L1151.0525,61.00545454545456L1151.40025,47.29636363636365L1151.748,73.34363636363638L1153.139,46.6109090909091L1155.921,48.667272727272746L1156.26875,71.97272727272727L1157.312,50.038181818181805L1158.0075,56.892727272727264L1158.35525,58.263636363636365L1159.05075,43.183636363636346L1160.7895,67.17454545454547L1163.22375,43.183636363636346L1163.91925,41.12727272727274L1164.9625,52.094545454545454L1165.658,68.54545454545453L1167.39675,68.54545454545453L1168.44,90.47999999999999L1169.48325,56.20727272727271L1172.613,58.94909090909091L1172.9607500000002,46.6109090909091L1174.004,41.812727272727294L1175.04725,47.9818181818182L1175.74275,47.29636363636365L1176.0905,52.094545454545454L1178.177,55.52181818181816L1179.22025,89.1090909090909L1179.568,132.2927272727273L1180.2635,59.63454545454546L1181.30675,46.6109090909091L1182.00225,47.9818181818182L1182.69775,46.6109090909091L1183.741,53.465454545454556L1184.08875,270.7545454545455L1184.4365,107.61636363636362L1186.87075,54.1509090909091L1188.6095,52.78000000000001L1189.305,47.29636363636365L1189.65275,47.29636363636365L1190.0005,70.60181818181817L1191.3915,42.4981818181818L1191.73925,69.23090909090908L1193.478,54.83636363636366L1193.82575,52.78000000000001L1195.21675,68.54545454545453L1196.26,68.54545454545453L1196.60775,48.667272727272746L1197.30325,52.78000000000001L1199.7375,43.8690909090909L1200.08525,53.465454545454556L1201.824,65.80363636363637L1205.997,149.42909090909092L1207.73575,47.9818181818182L1208.43125,60.320000000000014L1208.779,61.00545454545456L1209.82225,43.183636363636346L1210.17,43.183636363636346L1213.29975,82.25454545454544L1215.38625,48.667272727272746L1216.77725,78.82727272727273L1217.125,74.02909090909093" style="fill: none;" fill="none"></path></g></g></g></g></g></g><g transform="translate(50, 377)" clip-path="url(#clip_1)"><clipPath id="clip_1"><rect width="1391" height="23"></rect></clipPath><g><g><line x1="0" y1="0" x2="0" y2="5" style="visibility: inherit;" fill="rgb(0, 0, 0)" stroke="rgb(204, 204, 204)" stroke-width="1px"></line><line x1="173.875" y1="0" x2="173.875" y2="5" style="visibility: inherit;" fill="rgb(0, 0, 0)" stroke="rgb(204, 204, 204)" stroke-width="1px"></line><line x1="347.75" y1="0" x2="347.75" y2="5" style="visibility: inherit;" fill="rgb(0, 0, 0)" stroke="rgb(204, 204, 204)" stroke-width="1px"></line><line x1="521.625" y1="0" x2="521.625" y2="5" style="visibility: inherit;" fill="rgb(0, 0, 0)" stroke="rgb(204, 204, 204)" stroke-width="1px"></line><line x1="695.5" y1="0" x2="695.5" y2="5" style="visibility: inherit;" fill="rgb(0, 0, 0)" stroke="rgb(204, 204, 204)" stroke-width="1px"></line><line x1="869.375" y1="0" x2="869.375" y2="5" style="visibility: inherit;" fill="rgb(0, 0, 0)" stroke="rgb(204, 204, 204)" stroke-width="1px"></line><line x1="1043.25" y1="0" x2="1043.25" y2="5" style="visibility: inherit;" fill="rgb(0, 0, 0)" stroke="rgb(204, 204, 204)" stroke-width="1px"></line><line x1="1217.125" y1="0" x2="1217.125" y2="5" style="visibility: inherit;" fill="rgb(0, 0, 0)" stroke="rgb(204, 204, 204)" stroke-width="1px"></line><line x1="1391" y1="0" x2="1391" y2="5" style="visibility: inherit;" fill="rgb(0, 0, 0)" stroke="rgb(204, 204, 204)" stroke-width="1px"></line></g><g transform="translate(0, 8)"><text x="0" y="0" dx="0em" dy="0.95em" style="text-anchor: middle; visibility: hidden; font-family: Roboto, sans-serif; font-size: 12px; font-weight: 200;" fill="rgb(33, 33, 33)" stroke="none" stroke-width="1px">-500</text><text x="173.875" y="0" dx="0em" dy="0.95em" style="text-anchor: middle; visibility: inherit; font-family: Roboto, sans-serif; font-size: 12px; font-weight: 200;" fill="rgb(33, 33, 33)" stroke="none" stroke-width="1px">0</text><text x="347.75" y="0" dx="0em" dy="0.95em" style="text-anchor: middle; visibility: inherit; font-family: Roboto, sans-serif; font-size: 12px; font-weight: 200;" fill="rgb(33, 33, 33)" stroke="none" stroke-width="1px">500</text><text x="521.625" y="0" dx="0em" dy="0.95em" style="text-anchor: middle; visibility: inherit; font-family: Roboto, sans-serif; font-size: 12px; font-weight: 200;" fill="rgb(33, 33, 33)" stroke="none" stroke-width="1px">1k</text><text x="695.5" y="0" dx="0em" dy="0.95em" style="text-anchor: middle; visibility: inherit; font-family: Roboto, sans-serif; font-size: 12px; font-weight: 200;" fill="rgb(33, 33, 33)" stroke="none" stroke-width="1px">1.5k</text><text x="869.375" y="0" dx="0em" dy="0.95em" style="text-anchor: middle; visibility: inherit; font-family: Roboto, sans-serif; font-size: 12px; font-weight: 200;" fill="rgb(33, 33, 33)" stroke="none" stroke-width="1px">2k</text><text x="1043.25" y="0" dx="0em" dy="0.95em" style="text-anchor: middle; visibility: inherit; font-family: Roboto, sans-serif; font-size: 12px; font-weight: 200;" fill="rgb(33, 33, 33)" stroke="none" stroke-width="1px">2.5k</text><text x="1217.125" y="0" dx="0em" dy="0.95em" style="text-anchor: middle; visibility: inherit; font-family: Roboto, sans-serif; font-size: 12px; font-weight: 200;" fill="rgb(33, 33, 33)" stroke="none" stroke-width="1px">3k</text><text x="1391" y="0" dx="0em" dy="0.95em" style="text-anchor: middle; visibility: hidden; font-family: Roboto, sans-serif; font-size: 12px; font-weight: 200;" fill="rgb(33, 33, 33)" stroke="none" stroke-width="1px">3.5k</text></g><line x1="0" y1="0" x2="1391" y2="0" fill="rgb(0, 0, 0)" stroke="rgb(204, 204, 204)" stroke-width="1px"></line></g></g></g></g></svg>