<svg viewBox="0 0 597 400" xmlns="http://www.w3.org/2000/svg"><g><g><g><g><g><line x1="50" y1="372.3911249330728" x2="45" y2="372.3911249330728" style="visibility: inherit;" fill="rgb(0, 0, 0)" stroke="rgb(204, 204, 204)" stroke-width="1px"></line><line x1="50" y1="329.9781930680052" x2="45" y2="329.9781930680052" style="visibility: inherit;" fill="rgb(0, 0, 0)" stroke="rgb(204, 204, 204)" stroke-width="1px"></line><line x1="50" y1="287.56526120293773" x2="45" y2="287.56526120293773" style="visibility: inherit;" fill="rgb(0, 0, 0)" stroke="rgb(204, 204, 204)" stroke-width="1px"></line><line x1="50" y1="245.15232933787024" x2="45" y2="245.15232933787024" style="visibility: inherit;" fill="rgb(0, 0, 0)" stroke="rgb(204, 204, 204)" stroke-width="1px"></line><line x1="50" y1="202.73939747280275" x2="45" y2="202.73939747280275" style="visibility: inherit;" fill="rgb(0, 0, 0)" stroke="rgb(204, 204, 204)" stroke-width="1px"></line><line x1="50" y1="160.32646560773526" x2="45" y2="160.32646560773526" style="visibility: inherit;" fill="rgb(0, 0, 0)" stroke="rgb(204, 204, 204)" stroke-width="1px"></line><line x1="50" y1="117.91353374266775" x2="45" y2="117.91353374266775" style="visibility: inherit;" fill="rgb(0, 0, 0)" stroke="rgb(204, 204, 204)" stroke-width="1px"></line><line x1="50" y1="75.50060187760026" x2="45" y2="75.50060187760026" style="visibility: inherit;" fill="rgb(0, 0, 0)" stroke="rgb(204, 204, 204)" stroke-width="1px"></line><line x1="50" y1="33.087670012532755" x2="45" y2="33.087670012532755" style="visibility: inherit;" fill="rgb(0, 0, 0)" stroke="rgb(204, 204, 204)" stroke-width="1px"></line></g><g transform="translate(40, 0)"><text x="0" y="372.3911249330728" dx="0em" dy="0.3em" style="text-anchor: end; visibility: hidden; font-family: Roboto, sans-serif; font-size: 12px; font-weight: 200;" fill="rgb(33, 33, 33)" stroke="none" stroke-width="1px">-700</text><text x="0" y="329.9781930680052" dx="0em" dy="0.3em" style="text-anchor: end; visibility: inherit; font-family: Roboto, sans-serif; font-size: 12px; font-weight: 200;" fill="rgb(33, 33, 33)" stroke="none" stroke-width="1px">-600</text><text x="0" y="287.56526120293773" dx="0em" dy="0.3em" style="text-anchor: end; visibility: inherit; font-family: Roboto, sans-serif; font-size: 12px; font-weight: 200;" fill="rgb(33, 33, 33)" stroke="none" stroke-width="1px">-500</text><text x="0" y="245.15232933787024" dx="0em" dy="0.3em" style="text-anchor: end; visibility: inherit; font-family: Roboto, sans-serif; font-size: 12px; font-weight: 200;" fill="rgb(33, 33, 33)" stroke="none" stroke-width="1px">-400</text><text x="0" y="202.73939747280275" dx="0em" dy="0.3em" style="text-anchor: end; visibility: inherit; font-family: Roboto, sans-serif; font-size: 12px; font-weight: 200;" fill="rgb(33, 33, 33)" stroke="none" stroke-width="1px">-300</text><text x="0" y="160.32646560773526" dx="0em" dy="0.3em" style="text-anchor: end; visibility: inherit; font-family: Roboto, sans-serif; font-size: 12px; font-weight: 200;" fill="rgb(33, 33, 33)" stroke="none" stroke-width="1px">-200</text><text x="0" y="117.91353374266775" dx="0em" dy="0.3em" style="text-anchor: end; visibility: inherit; font-family: Roboto, sans-serif; font-size: 12px; font-weight: 200;" fill="rgb(33, 33, 33)" stroke="none" stroke-width="1px">-100</text><text x="0" y="75.50060187760026" dx="0em" dy="0.3em" style="text-anchor: end; visibility: inherit; font-family: Roboto, sans-serif; font-size: 12px; font-weight: 200;" fill="rgb(33, 33, 33)" stroke="none" stroke-width="1px">0</text><text x="0" y="33.087670012532755" dx="0em" dy="0.3em" style="text-anchor: end; visibility: inherit; font-family: Roboto, sans-serif; font-size: 12px; font-weight: 200;" fill="rgb(33, 33, 33)" stroke="none" stroke-width="1px">100</text></g><line x1="50" y1="0" x2="50" y2="377" fill="rgb(0, 0, 0)" stroke="rgb(204, 204, 204)" stroke-width="1px"></line></g></g><g transform="translate(50, 0)" clip-path="url(#clip_0)"><clipPath id="clip_0"><rect width="547" height="377"></rect></clipPath><g><g><g><line x1="13.77236847285196" y1="0" x2="13.77236847285196" y2="377" fill="rgb(0, 0, 0)" stroke="rgb(66, 66, 66)" stroke-width="1px" opacity="0.25"></line><line x1="65.79389264033765" y1="0" x2="65.79389264033765" y2="377" fill="rgb(0, 0, 0)" stroke="rgb(66, 66, 66)" stroke-width="1px" opacity="0.25"></line><line x1="117.81541680782331" y1="0" x2="117.81541680782331" y2="377" fill="rgb(0, 0, 0)" stroke="rgb(66, 66, 66)" stroke-width="1px" opacity="0.25"></line><line x1="169.83694097530898" y1="0" x2="169.83694097530898" y2="377" fill="rgb(0, 0, 0)" stroke="rgb(66, 66, 66)" stroke-width="1px" opacity="0.25"></line><line x1="221.85846514279467" y1="0" x2="221.85846514279467" y2="377" fill="rgb(0, 0, 0)" stroke="rgb(66, 66, 66)" stroke-width="1px" opacity="0.25"></line><line x1="273.8799893102804" y1="0" x2="273.8799893102804" y2="377" fill="rgb(0, 0, 0)" stroke="rgb(66, 66, 66)" stroke-width="1px" opacity="0.25"></line><line x1="325.90151347776606" y1="0" x2="325.90151347776606" y2="377" fill="rgb(0, 0, 0)" stroke="rgb(66, 66, 66)" stroke-width="1px" opacity="0.25"></line><line x1="377.9230376452517" y1="0" x2="377.9230376452517" y2="377" fill="rgb(0, 0, 0)" stroke="rgb(66, 66, 66)" stroke-width="1px" opacity="0.25"></line><line x1="429.94456181273733" y1="0" x2="429.94456181273733" y2="377" fill="rgb(0, 0, 0)" stroke="rgb(66, 66, 66)" stroke-width="1px" opacity="0.25"></line><line x1="481.96608598022306" y1="0" x2="481.96608598022306" y2="377" fill="rgb(0, 0, 0)" stroke="rgb(66, 66, 66)" stroke-width="1px" opacity="0.25"></line><line x1="533.9876101477087" y1="0" x2="533.9876101477087" y2="377" fill="rgb(0, 0, 0)" stroke="rgb(66, 66, 66)" stroke-width="1px" opacity="0.25"></line></g><g><line x1="0" y1="372.3911249330728" x2="547" y2="372.3911249330728" fill="rgb(0, 0, 0)" stroke="rgb(66, 66, 66)" stroke-width="1px" opacity="0.25"></line><line x1="0" y1="329.9781930680052" x2="547" y2="329.9781930680052" fill="rgb(0, 0, 0)" stroke="rgb(66, 66, 66)" stroke-width="1px" opacity="0.25"></line><line x1="0" y1="287.56526120293773" x2="547" y2="287.56526120293773" fill="rgb(0, 0, 0)" stroke="rgb(66, 66, 66)" stroke-width="1px" opacity="0.25"></line><line x1="0" y1="245.15232933787024" x2="547" y2="245.15232933787024" fill="rgb(0, 0, 0)" stroke="rgb(66, 66, 66)" stroke-width="1px" opacity="0.25"></line><line x1="0" y1="202.73939747280275" x2="547" y2="202.73939747280275" fill="rgb(0, 0, 0)" stroke="rgb(66, 66, 66)" stroke-width="1px" opacity="0.25"></line><line x1="0" y1="160.32646560773526" x2="547" y2="160.32646560773526" fill="rgb(0, 0, 0)" stroke="rgb(66, 66, 66)" stroke-width="1px" opacity="0.25"></line><line x1="0" y1="117.91353374266775" x2="547" y2="117.91353374266775" fill="rgb(0, 0, 0)" stroke="rgb(66, 66, 66)" stroke-width="1px" opacity="0.25"></line><line x1="0" y1="75.50060187760026" x2="547" y2="75.50060187760026" fill="rgb(0, 0, 0)" stroke="rgb(66, 66, 66)" stroke-width="1px" opacity="0.25"></line><line x1="0" y1="33.087670012532755" x2="547" y2="33.087670012532755" fill="rgb(0, 0, 0)" stroke="rgb(66, 66, 66)" stroke-width="1px" opacity="0.25"></line></g></g></g><g><g><line x1="0" y1="75.50060187760026" x2="547" y2="75.50060187760026" fill="rgb(0, 0, 0)" stroke="rgb(153, 153, 153)" stroke-width="1.5px"></line></g></g><g><g><line x1="13.77236847285196" y1="0" x2="13.77236847285196" y2="377" fill="rgb(0, 0, 0)" stroke="rgb(153, 153, 153)" stroke-width="1.5px"></line></g></g><g><g><g><g><g><path stroke="rgb(238, 51, 119)" stroke-width="2px" d="M14.812798956201675,287.56526120293773L15.853229439551388,287.56526120293773L16.8936599229011,210.79785452716555L17.934090406250817,245.15232933787024L18.97452088960053,179.8364142656663L20.014951372950243,223.09760476803513L21.055381856299956,200.1946215608987L22.09581233964967,275.26551096206816L23.136242822999385,287.56526120293773L24.176673306349095,261.26924344659585L25.21710378969881,224.79412204263784L26.257534273048524,287.56526120293773L27.29796475639824,164.14362947559133L28.338395239747953,170.92969857400212L29.378825723097663,194.25681109978922L30.41925620644738,141.66477558710554L31.459686689797092,188.3190006386798L32.500117173146805,146.33019809226298L33.54054765649652,136.57522376329743L34.58097813984623,142.93716354305758L35.62140862319595,180.26054358431693L36.66183910654566,195.52919905574123L37.70226958989537,163.71950015694065L38.74270007324509,156.0851724212285L39.7831305565948,168.38492266209806L40.82356103994451,155.23691378392715L41.86399152329423,143.78542218035892L42.90442200664394,154.38865514662578L43.94485248999366,138.27174103790014L44.98528297334337,145.4819394549616L46.025713456693076,140.39238763115353L47.0661439400428,145.9060687736123L48.10657442339251,167.53666402479672L49.147004906742225,172.62621584860483L50.187435390091935,147.602586048215L51.227865873441644,141.66477558710554L52.26829635679137,115.79288714941437L53.30872684014108,132.75805989544136L54.34915732349079,122.15482692917448L55.3895878068405,129.78915466488664L56.43001829019021,148.45084468551633L57.470448773539935,135.30283580734542L58.510879256889645,137.4234824005988L59.55130974023936,153.11626719067377L60.59174022358907,118.3376630613184L61.63217070693878,116.6411457867157L62.6726011902885,124.27547352242786L63.71303167363821,127.24437875298257L64.75346215698792,134.87870648869475L65.79389264033765,131.90980125814002L66.83432312368735,115.36875783076368L67.87475360703706,135.30283580734542L68.91518409038677,121.73069761052383L69.9556145737365,192.56029382518656L70.9960450570862,139.54412899385215L72.03647554043593,144.6336808176603L73.07690602378564,113.2481112375103L74.11733650713535,131.06154262083865L75.15776699048506,124.27547352242786L76.19819747383477,124.27547352242786L77.23862795718449,133.18218921409203L78.2790584405342,197.22571633034397L79.31948892388391,181.95706085891965L80.35991940723363,136.57522376329743L81.40034989058334,117.06527510536638L82.44078037393307,122.15482692917448L83.48121085728278,128.94089602758527L84.52164134063248,123.42721488512653L85.5620718239822,137.4234824005988L86.6025023073319,126.82024943433193L87.64293279068163,123.00308556647585L88.68336327403134,110.70333532560628L89.72379375738105,125.97199079703056L90.76422424073077,117.06527510536638L91.80465472408048,117.06527510536638L92.8450852074302,119.61005101727045L93.88551569077991,134.87870648869475L94.92594617412962,126.39612011568124L95.96637665747933,121.73069761052383L97.00680714082904,131.90980125814002L98.04723762417876,128.51676670893463L99.08766810752847,139.96825831250283L100.12809859087818,120.45830965457178L101.1685290742279,120.45830965457178L102.20895955757761,114.52049919346236L103.24939004092732,120.03418033592114L104.28982052427705,124.27547352242786L105.33025100762676,130.637413302188L106.37068149097647,118.3376630613184L107.41111197432618,196.8015870116933L108.45154245767588,154.81278446527648L109.49197294102561,112.82398191885966L110.53240342437532,141.66477558710554L111.57283390772504,123.42721488512653L112.61326439107475,111.5515939629076L113.65369487442446,120.03418033592114L114.69412535777418,111.97572328155829L115.73455584112389,121.30656829187315L116.7749863244736,120.03418033592114L117.81541680782331,143.78542218035892L118.85584729117302,112.39985260020897L119.89627777452274,124.27547352242786L120.93670825787247,118.76179237996908L121.97713874122218,126.82024943433193L123.01756922457189,118.76179237996908L124.0579997079216,129.78915466488664L125.09843019127132,111.5515939629076L126.13886067462103,118.76179237996908L127.17929115797074,111.12746464425696L128.21972164132046,128.09263739028395L129.26015212467016,125.54786147837987L130.30058260801988,112.39985260020897L131.3410130913696,136.15109444464676L132.3814435747193,131.06154262083865L133.42187405806902,125.12373215972923L134.46230454141872,119.61005101727045L135.50273502476844,114.09636987481167L136.54316550811816,106.8861714577502L137.5835959914679,145.4819394549616L138.6240264748176,116.21701646806505L139.6644569581673,120.88243897322246L140.70488744151703,123.00308556647585L141.74531792486673,113.67224055616099L142.78574840821645,118.3376630613184L143.82617889156617,159.0540776517832L144.86660937491587,111.97572328155829L145.9070398582656,136.99935308194813L146.9474703416153,125.54786147837987L147.987900824965,215.46327703232296L149.02833130831473,136.15109444464676L150.06876179166443,105.1896541831475L151.10919227501415,104.34139554584613L152.14962275836385,111.5515939629076L153.19005324171357,125.54786147837987L154.2304837250633,138.27174103790014L155.270914208413,114.52049919346236L156.3113446917627,120.88243897322246L157.3517751751124,111.5515939629076L158.39220565846216,119.18592169861977L159.43263614181188,123.85134420377717L160.47306662516158,114.52049919346236L161.5134971085113,130.21328398353734L162.553927591861,139.54412899385215L163.59435807521072,123.85134420377717L164.63478855856044,227.3388979545419L165.67521904191014,102.64487827124343L166.71564952525986,123.42721488512653L167.75608000860956,120.88243897322246L168.79651049195928,136.15109444464676L169.83694097530898,130.21328398353734L170.8773714586587,188.3190006386798L171.91780194200842,116.21701646806505L172.95823242535812,118.76179237996908L173.99866290870784,111.12746464425696L175.03909339205754,115.36875783076368L176.07952387540726,123.85134420377717L177.119954358757,123.00308556647585L178.1603848421067,114.944628512113L179.20081532545643,118.76179237996908L180.24124580880613,124.69960284107854L181.28167629215585,129.78915466488664L182.32210677550557,112.39985260020897L183.36253725885527,104.76552486449681L184.402967742205,125.12373215972923L185.4433982255547,209.52546657121354L186.4838287089044,139.54412899385215L187.52425919225414,117.06527510536638L188.56468967560383,116.6411457867157L189.60512015895355,137.4234824005988L190.64555064230325,111.12746464425696L191.68598112565297,111.5515939629076L192.7264116090027,125.54786147837987L193.7668420923524,124.27547352242786L194.80727257570211,113.67224055616099L195.8477030590518,121.30656829187315L196.88813354240153,107.73443009505152L197.92856402575129,113.67224055616099L198.96899450910098,114.52049919346236L200.0094249924507,128.51676670893463L201.0498554758004,115.79288714941437L202.09028595915012,114.09636987481167L203.13071644249985,136.57522376329743L204.17114692584954,114.52049919346236L205.21157740919926,109.00681805100358L206.25200789254896,110.70333532560628L207.29243837589868,115.36875783076368L208.3328688592484,112.39985260020897L209.3732993425981,110.70333532560628L210.41372982594783,111.12746464425696L211.45416030929752,113.67224055616099L212.49459079264724,108.58268873235289L213.53502127599697,261.6933727652466L214.57545175934666,139.96825831250283L215.6158822426964,142.0889049057562L216.65631272604608,105.61378350179818L217.6967432093958,149.72323264146837L218.73717369274556,114.52049919346236L219.77760417609525,116.21701646806505L220.81803465944498,117.06527510536638L221.85846514279467,105.61378350179818L222.8988956261444,111.5515939629076L223.93932610949412,117.48940442401707L224.9797565928438,119.61005101727045L226.02018707619354,110.70333532560628L227.06061755954323,125.54786147837987L228.10104804289296,109.00681805100358L229.14147852624268,142.5130342244069L230.18190900959237,116.6411457867157L231.2223394929421,128.09263739028395L232.2627699762918,130.637413302188L233.30320045964152,125.12373215972923L234.34363094299124,153.11626719067377L235.38406142634093,110.27920600695559L236.42449190969066,193.83268178113858L237.46492239304035,128.09263739028395L238.50535287639008,147.17845672956432L239.54578335973983,121.73069761052383L240.58621384308952,105.1896541831475L241.62664432643925,113.2481112375103L242.66707480978894,107.31030077640088L243.70750529313867,176.86750903511154L244.7479357764884,147.602586048215L245.78836625983809,180.26054358431693L246.8287967431878,105.61378350179818L247.8692272265375,111.12746464425696L248.90965770988723,124.27547352242786L249.95008819323695,246.00058797517158L250.99051867658665,116.21701646806505L252.03094915993637,123.85134420377717L253.07137964328606,116.21701646806505L254.1118101266358,109.00681805100358L255.1522406099855,123.85134420377717L256.1926710933352,118.3376630613184L257.23310157668493,107.73443009505152L258.27353206003465,107.31030077640088L259.3139625433844,111.97572328155829L260.35439302673404,115.36875783076368L261.39482351008377,107.73443009505152L262.4352539934335,133.60631853274273L263.4756844767832,110.70333532560628L264.51611496013294,116.21701646806505L265.5565454434826,114.52049919346236L266.59697592683233,114.52049919346236L267.63740641018205,117.48940442401707L268.6778368935318,115.36875783076368L269.7182673768815,111.5515939629076L270.7586978602312,117.91353374266775L271.79912834358095,116.21701646806505L272.83955882693067,108.1585594137022L273.8799893102804,121.30656829187315L274.92041979363006,123.00308556647585L275.9608502769798,287.56526120293773L277.0012807603295,111.12746464425696L278.04171124367923,111.5515939629076L279.08214172702895,117.91353374266775L280.1225722103786,112.82398191885966L281.16300269372834,112.82398191885966L282.20343317707807,134.45457717004405L283.2438636604278,119.18592169861977L284.2842941437775,111.5515939629076L285.3247246271272,108.1585594137022L286.3651551104769,111.5515939629076L287.40558559382663,185.35009540812507L288.44601607717635,138.27174103790014L289.4864465605261,184.9259660894744L290.52687704387574,104.76552486449681L291.56730752722547,108.1585594137022L292.6077380105752,108.1585594137022L293.6481684939249,105.1896541831475L294.68859897727464,105.61378350179818L295.7290294606243,119.18592169861977L296.769459943974,146.33019809226298L297.80989042732375,156.50930173987916L298.8503209106735,117.48940442401707L299.8907513940232,117.91353374266775L300.93118187737286,133.60631853274273L301.9716123607226,138.27174103790014L303.0120428440723,117.91353374266775L304.05247332742204,115.36875783076368L305.09290381077176,111.5515939629076L306.1333342941214,109.8550766883049L307.17376477747115,116.21701646806505L308.2141952608209,109.00681805100358L309.2546257441706,287.56526120293773L310.2950562275204,113.67224055616099L311.33548671087,108.58268873235289L312.37591719421977,117.06527510536638L313.4163476775695,113.67224055616099L314.4567781609192,248.96949320572628L315.49720864426894,180.26054358431693L316.5376391276186,105.1896541831475L317.5780696109683,159.90233628908456L318.61850009431805,107.31030077640088L319.6589305776678,110.70333532560628L320.6993610610175,164.56775879424197L321.73979154436716,104.34139554584613L322.7802220277169,119.18592169861977L323.8206525110666,134.0304478513934L324.86108299441634,112.82398191885966L325.90151347776606,114.52049919346236L326.9419439611157,112.39985260020897L327.98237444446545,109.00681805100358L329.0228049278152,109.00681805100358L330.0632354111649,113.2481112375103L331.1036658945146,127.66850807163325L332.1440963778643,259.5727261719932L333.184526861214,119.61005101727045L334.22495734456373,122.57895624782516L335.26538782791346,111.97572328155829L336.3058183112632,273.1448643688148L337.34624879461285,287.56526120293773L338.38667927796257,287.56526120293773L339.4271097613123,287.56526120293773L340.467540244662,109.43094736965426L341.50797072801174,111.12746464425696L342.5484012113614,110.70333532560628L343.58883169471113,114.944628512113L344.62926217806086,164.14362947559133L345.6696926614106,106.8861714577502L346.7101231447603,108.1585594137022L347.75055362810997,124.27547352242786L348.7909841114597,107.73443009505152L349.8314145948094,287.56526120293773L350.87184507815914,287.56526120293773L351.9122755615089,287.56526120293773L352.95270604485853,110.70333532560628L353.9931365282083,127.24437875298257L355.03356701155803,136.15109444464676L356.07399749490776,106.46204213909951L357.1144279782575,112.39985260020897L358.15485846160715,123.42721488512653L359.19528894495687,107.31030077640088L360.2357194283066,109.8550766883049L361.2761499116563,241.33516547001418L362.31658039500604,287.56526120293773L363.3570108783557,106.8861714577502L364.39744136170543,287.56526120293773L365.43787184505516,107.73443009505152L366.4783023284049,117.48940442401707L367.5187328117546,287.56526120293773L368.55916329510427,121.73069761052383L369.599593778454,107.31030077640088L370.6400242618037,268.47944186365737L371.68045474515344,107.73443009505152L372.72088522850316,117.48940442401707L373.76131571185283,105.61378350179818L374.80174619520255,107.31030077640088L375.8421766785523,109.43094736965426L376.882607161902,106.8861714577502L377.9230376452517,118.76179237996908L378.9634681286014,107.73443009505152L380.0038986119511,101.7966196339421L381.04432909530084,222.24934613073376L382.08475957865056,287.56526120293773L383.1251900620003,125.97199079703056L384.16562054534995,114.52049919346236L385.2060510286997,113.67224055616099L386.2464815120494,112.39985260020897L387.2869119953991,142.0889049057562L388.32734247874885,120.03418033592114L389.3677729620985,287.56526120293773L390.40820344544824,154.81278446527648L391.44863392879796,268.47944186365737L392.48906441214774,151.84387923472173L393.52949489549746,105.1896541831475L394.56992537884713,215.03914771367232L395.61035586219685,106.8861714577502L396.6507863455466,124.69960284107854L397.6912168288963,221.40108749343244L398.73164731224597,114.09636987481167L399.7720777955957,111.12746464425696L400.8125082789454,117.48940442401707L401.85293876229514,148.0267153668657L402.89336924564486,117.48940442401707L403.93379972899453,123.42721488512653L404.97423021234425,114.944628512113L406.014660695694,287.56526120293773L407.0550911790437,114.52049919346236L408.0955216623934,109.8550766883049L409.1359521457431,119.61005101727045L410.1763826290928,119.18592169861977L411.21681311244254,110.70333532560628L412.25724359579226,106.8861714577502L413.297674079142,120.03418033592114L414.33810456249165,287.56526120293773L415.3785350458414,115.36875783076368L416.4189655291911,105.1896541831475L417.4593960125408,106.8861714577502L418.49982649589055,107.73443009505152L419.5402569792402,105.1896541831475L420.58068746258994,112.82398191885966L421.62111794593966,104.34139554584613L422.6615484292894,287.56526120293773L423.7019789126391,132.33393057679072L424.7424093959888,111.12746464425696L425.7828398793385,121.30656829187315L426.8232703626882,153.11626719067377L427.86370084603794,111.97572328155829L428.90413132938767,287.56526120293773L429.94456181273733,287.56526120293773L430.98499229608706,287.56526120293773L432.0254227794368,133.18218921409203L433.0658532627865,114.52049919346236L434.1062837461363,106.8861714577502L435.1467142294859,114.52049919346236L436.1871447128357,106.8861714577502L437.2275751961854,111.97572328155829L438.2680056795351,114.944628512113L439.30843616288485,107.73443009505152L440.3488666462345,101.7966196339421L441.38929712958424,108.1585594137022L442.42972761293396,105.61378350179818L443.4701580962837,113.2481112375103L444.5105885796334,105.61378350179818L445.5510190629831,123.85134420377717L446.5914495463328,287.56526120293773L447.6318800296825,112.82398191885966L448.67231051303224,178.1398969910636L449.71274099638197,146.75432741091362L450.75317147973163,173.89860380455684L451.79360196308136,121.30656829187315L452.8340324464311,117.06527510536638L453.8744629297808,120.88243897322246L454.9148934131305,128.51676670893463L455.9553238964802,287.56526120293773L456.9957543798299,113.2481112375103L458.03618486317964,120.03418033592114L459.07661534652937,128.09263739028395L460.1170458298791,115.79288714941437L461.15747631322876,104.76552486449681L462.1979067965785,117.91353374266775L463.2383372799282,109.43094736965426L464.2787677632779,107.31030077640088L465.31919824662765,109.8550766883049L466.3596287299773,130.637413302188L467.40005921332704,109.00681805100358L468.44048969667676,115.79288714941437L469.4809201800265,104.34139554584613L470.5213506633762,105.1896541831475L471.5617811467259,107.31030077640088L472.6022116300756,114.944628512113L473.6426421134253,115.36875783076368L474.68307259677505,287.56526120293773L475.72350308012483,287.56526120293773L476.7639335634745,287.56526120293773L477.8043640468242,118.3376630613184L478.84479453017394,124.27547352242786L479.88522501352367,110.70333532560628L480.9256554968734,287.56526120293773L481.96608598022306,120.88243897322246L483.0065164635728,287.56526120293773L484.0469469469225,118.3376630613184L485.0873774302722,287.56526120293773L486.12780791362195,107.31030077640088L487.1682383969716,109.43094736965426L488.20866888032134,130.637413302188L489.24909936367106,114.09636987481167L490.2895298470208,107.73443009505152L491.3299603303705,111.12746464425696L492.3703908137202,218.43218226287772L493.4108212970699,112.82398191885966L494.4512517804196,130.637413302188L495.49168226376935,287.56526120293773L496.5321127471191,287.56526120293773L497.57254323046874,209.52546657121354L498.61297371381846,287.56526120293773L499.6534041971682,120.03418033592114L500.6938346805179,122.57895624782516L501.73426516386763,111.5515939629076L502.7746956472173,107.31030077640088L503.815126130567,287.56526120293773L504.85555661391675,118.76179237996908L505.89598709726647,106.8861714577502L506.9364175806162,102.22074895259279L507.97684806396586,287.56526120293773L509.0172785473156,118.76179237996908L510.0577090306653,115.79288714941437L511.09813951401503,114.944628512113L512.1385699973648,127.24437875298257L513.1790004807144,116.6411457867157L514.2194309640641,108.1585594137022L515.2598614474139,287.56526120293773L516.3002919307636,123.00308556647585L517.3407224141133,287.56526120293773L518.381152897463,287.56526120293773L519.4215833808128,287.56526120293773L520.4620138641625,126.82024943433193L521.5024443475122,111.12746464425696L522.5428748308619,107.31030077640088L523.5833053142115,111.97572328155829L524.6237357975613,107.73443009505152L525.664166280911,114.52049919346236L526.7045967642607,131.48567193948935L527.7450272476104,120.88243897322246L528.7854577309602,107.73443009505152L529.8258882143099,108.1585594137022L530.8663186976596,115.36875783076368L531.9067491810093,287.56526120293773L532.947179664359,118.3376630613184L533.9876101477087,130.21328398353734L535.0280406310584,287.56526120293773L536.0684711144081,107.31030077640088L537.108901597758,287.56526120293773L538.1493320811077,115.36875783076368L539.1897625644573,105.1896541831475L540.230193047807,111.97572328155829L541.2706235311567,122.57895624782516L542.3110540145065,122.57895624782516L543.3514844978562,110.27920600695559L544.3919149812059,105.1896541831475L545.4323454645556,287.56526120293773L546.4727759479053,125.12373215972923L547.5132064312551,112.82398191885966" style="fill: none;" fill="none"></path></g></g></g></g></g></g><g transform="translate(50, 377)" clip-path="url(#clip_1)"><clipPath id="clip_1"><rect width="547" height="23"></rect></clipPath><g><g><line x1="13.77236847285196" y1="0" x2="13.77236847285196" y2="5" style="visibility: inherit;" fill="rgb(0, 0, 0)" stroke="rgb(204, 204, 204)" stroke-width="1px"></line><line x1="65.79389264033765" y1="0" x2="65.79389264033765" y2="5" style="visibility: inherit;" fill="rgb(0, 0, 0)" stroke="rgb(204, 204, 204)" stroke-width="1px"></line><line x1="117.81541680782331" y1="0" x2="117.81541680782331" y2="5" style="visibility: inherit;" fill="rgb(0, 0, 0)" stroke="rgb(204, 204, 204)" stroke-width="1px"></line><line x1="169.83694097530898" y1="0" x2="169.83694097530898" y2="5" style="visibility: inherit;" fill="rgb(0, 0, 0)" stroke="rgb(204, 204, 204)" stroke-width="1px"></line><line x1="221.85846514279467" y1="0" x2="221.85846514279467" y2="5" style="visibility: inherit;" fill="rgb(0, 0, 0)" stroke="rgb(204, 204, 204)" stroke-width="1px"></line><line x1="273.8799893102804" y1="0" x2="273.8799893102804" y2="5" style="visibility: inherit;" fill="rgb(0, 0, 0)" stroke="rgb(204, 204, 204)" stroke-width="1px"></line><line x1="325.90151347776606" y1="0" x2="325.90151347776606" y2="5" style="visibility: inherit;" fill="rgb(0, 0, 0)" stroke="rgb(204, 204, 204)" stroke-width="1px"></line><line x1="377.9230376452517" y1="0" x2="377.9230376452517" y2="5" style="visibility: inherit;" fill="rgb(0, 0, 0)" stroke="rgb(204, 204, 204)" stroke-width="1px"></line><line x1="429.94456181273733" y1="0" x2="429.94456181273733" y2="5" style="visibility: inherit;" fill="rgb(0, 0, 0)" stroke="rgb(204, 204, 204)" stroke-width="1px"></line><line x1="481.96608598022306" y1="0" x2="481.96608598022306" y2="5" style="visibility: inherit;" fill="rgb(0, 0, 0)" stroke="rgb(204, 204, 204)" stroke-width="1px"></line><line x1="533.9876101477087" y1="0" x2="533.9876101477087" y2="5" style="visibility: inherit;" fill="rgb(0, 0, 0)" stroke="rgb(204, 204, 204)" stroke-width="1px"></line></g><g transform="translate(0, 8)"><text x="13.77236847285196" y="0" dx="0em" dy="0.95em" style="text-anchor: middle; visibility: inherit; font-family: Roboto, sans-serif; font-size: 12px; font-weight: 200;" fill="rgb(33, 33, 33)" stroke="none" stroke-width="1px">0</text><text x="65.79389264033765" y="0" dx="0em" dy="0.95em" style="text-anchor: middle; visibility: inherit; font-family: Roboto, sans-serif; font-size: 12px; font-weight: 200;" fill="rgb(33, 33, 33)" stroke="none" stroke-width="1px">50</text><text x="117.81541680782331" y="0" dx="0em" dy="0.95em" style="text-anchor: middle; visibility: inherit; font-family: Roboto, sans-serif; font-size: 12px; font-weight: 200;" fill="rgb(33, 33, 33)" stroke="none" stroke-width="1px">100</text><text x="169.83694097530898" y="0" dx="0em" dy="0.95em" style="text-anchor: middle; visibility: inherit; font-family: Roboto, sans-serif; font-size: 12px; font-weight: 200;" fill="rgb(33, 33, 33)" stroke="none" stroke-width="1px">150</text><text x="221.85846514279467" y="0" dx="0em" dy="0.95em" style="text-anchor: middle; visibility: inherit; font-family: Roboto, sans-serif; font-size: 12px; font-weight: 200;" fill="rgb(33, 33, 33)" stroke="none" stroke-width="1px">200</text><text x="273.8799893102804" y="0" dx="0em" dy="0.95em" style="text-anchor: middle; visibility: inherit; font-family: Roboto, sans-serif; font-size: 12px; font-weight: 200;" fill="rgb(33, 33, 33)" stroke="none" stroke-width="1px">250</text><text x="325.90151347776606" y="0" dx="0em" dy="0.95em" style="text-anchor: middle; visibility: inherit; font-family: Roboto, sans-serif; font-size: 12px; font-weight: 200;" fill="rgb(33, 33, 33)" stroke="none" stroke-width="1px">300</text><text x="377.9230376452517" y="0" dx="0em" dy="0.95em" style="text-anchor: middle; visibility: inherit; font-family: Roboto, sans-serif; font-size: 12px; font-weight: 200;" fill="rgb(33, 33, 33)" stroke="none" stroke-width="1px">350</text><text x="429.94456181273733" y="0" dx="0em" dy="0.95em" style="text-anchor: middle; visibility: inherit; font-family: Roboto, sans-serif; font-size: 12px; font-weight: 200;" fill="rgb(33, 33, 33)" stroke="none" stroke-width="1px">400</text><text x="481.96608598022306" y="0" dx="0em" dy="0.95em" style="text-anchor: middle; visibility: inherit; font-family: Roboto, sans-serif; font-size: 12px; font-weight: 200;" fill="rgb(33, 33, 33)" stroke="none" stroke-width="1px">450</text><text x="533.9876101477087" y="0" dx="0em" dy="0.95em" style="text-anchor: middle; visibility: inherit; font-family: Roboto, sans-serif; font-size: 12px; font-weight: 200;" fill="rgb(33, 33, 33)" stroke="none" stroke-width="1px">500</text></g><line x1="0" y1="0" x2="547" y2="0" fill="rgb(0, 0, 0)" stroke="rgb(204, 204, 204)" stroke-width="1px"></line></g></g></g></g></svg>