<svg viewBox="0 0 633 400" xmlns="http://www.w3.org/2000/svg"><g><g><g><g><g><line x1="40" y1="377" x2="35" y2="377" style="visibility: inherit;" fill="rgb(0, 0, 0)" stroke="rgb(204, 204, 204)" stroke-width="1px"></line><line x1="40" y1="345.5833333333333" x2="35" y2="345.5833333333333" style="visibility: inherit;" fill="rgb(0, 0, 0)" stroke="rgb(204, 204, 204)" stroke-width="1px"></line><line x1="40" y1="314.1666666666667" x2="35" y2="314.1666666666667" style="visibility: inherit;" fill="rgb(0, 0, 0)" stroke="rgb(204, 204, 204)" stroke-width="1px"></line><line x1="40" y1="282.75" x2="35" y2="282.75" style="visibility: inherit;" fill="rgb(0, 0, 0)" stroke="rgb(204, 204, 204)" stroke-width="1px"></line><line x1="40" y1="251.33333333333337" x2="35" y2="251.33333333333337" style="visibility: inherit;" fill="rgb(0, 0, 0)" stroke="rgb(204, 204, 204)" stroke-width="1px"></line><line x1="40" y1="219.91666666666663" x2="35" y2="219.91666666666663" style="visibility: inherit;" fill="rgb(0, 0, 0)" stroke="rgb(204, 204, 204)" stroke-width="1px"></line><line x1="40" y1="188.5" x2="35" y2="188.5" style="visibility: inherit;" fill="rgb(0, 0, 0)" stroke="rgb(204, 204, 204)" stroke-width="1px"></line><line x1="40" y1="157.08333333333331" x2="35" y2="157.08333333333331" style="visibility: inherit;" fill="rgb(0, 0, 0)" stroke="rgb(204, 204, 204)" stroke-width="1px"></line><line x1="40" y1="125.66666666666669" x2="35" y2="125.66666666666669" style="visibility: inherit;" fill="rgb(0, 0, 0)" stroke="rgb(204, 204, 204)" stroke-width="1px"></line><line x1="40" y1="94.25" x2="35" y2="94.25" style="visibility: inherit;" fill="rgb(0, 0, 0)" stroke="rgb(204, 204, 204)" stroke-width="1px"></line><line x1="40" y1="62.83333333333332" x2="35" y2="62.83333333333332" style="visibility: inherit;" fill="rgb(0, 0, 0)" stroke="rgb(204, 204, 204)" stroke-width="1px"></line><line x1="40" y1="31.416666666666682" x2="35" y2="31.416666666666682" style="visibility: inherit;" fill="rgb(0, 0, 0)" stroke="rgb(204, 204, 204)" stroke-width="1px"></line><line x1="40" y1="0" x2="35" y2="0" style="visibility: inherit;" fill="rgb(0, 0, 0)" stroke="rgb(204, 204, 204)" stroke-width="1px"></line></g><g transform="translate(30, 0)"><text x="0" y="377" dx="0em" dy="0.3em" style="text-anchor: end; visibility: hidden; font-family: Roboto, sans-serif; font-size: 12px; font-weight: 200;" fill="rgb(33, 33, 33)" stroke="none" stroke-width="1px">-20</text><text x="0" y="345.5833333333333" dx="0em" dy="0.3em" style="text-anchor: end; visibility: inherit; font-family: Roboto, sans-serif; font-size: 12px; font-weight: 200;" fill="rgb(33, 33, 33)" stroke="none" stroke-width="1px">0</text><text x="0" y="314.1666666666667" dx="0em" dy="0.3em" style="text-anchor: end; visibility: inherit; font-family: Roboto, sans-serif; font-size: 12px; font-weight: 200;" fill="rgb(33, 33, 33)" stroke="none" stroke-width="1px">20</text><text x="0" y="282.75" dx="0em" dy="0.3em" style="text-anchor: end; visibility: inherit; font-family: Roboto, sans-serif; font-size: 12px; font-weight: 200;" fill="rgb(33, 33, 33)" stroke="none" stroke-width="1px">40</text><text x="0" y="251.33333333333337" dx="0em" dy="0.3em" style="text-anchor: end; visibility: inherit; font-family: Roboto, sans-serif; font-size: 12px; font-weight: 200;" fill="rgb(33, 33, 33)" stroke="none" stroke-width="1px">60</text><text x="0" y="219.91666666666663" dx="0em" dy="0.3em" style="text-anchor: end; visibility: inherit; font-family: Roboto, sans-serif; font-size: 12px; font-weight: 200;" fill="rgb(33, 33, 33)" stroke="none" stroke-width="1px">80</text><text x="0" y="188.5" dx="0em" dy="0.3em" style="text-anchor: end; visibility: inherit; font-family: Roboto, sans-serif; font-size: 12px; font-weight: 200;" fill="rgb(33, 33, 33)" stroke="none" stroke-width="1px">100</text><text x="0" y="157.08333333333331" dx="0em" dy="0.3em" style="text-anchor: end; visibility: inherit; font-family: Roboto, sans-serif; font-size: 12px; font-weight: 200;" fill="rgb(33, 33, 33)" stroke="none" stroke-width="1px">120</text><text x="0" y="125.66666666666669" dx="0em" dy="0.3em" style="text-anchor: end; visibility: inherit; font-family: Roboto, sans-serif; font-size: 12px; font-weight: 200;" fill="rgb(33, 33, 33)" stroke="none" stroke-width="1px">140</text><text x="0" y="94.25" dx="0em" dy="0.3em" style="text-anchor: end; visibility: inherit; font-family: Roboto, sans-serif; font-size: 12px; font-weight: 200;" fill="rgb(33, 33, 33)" stroke="none" stroke-width="1px">160</text><text x="0" y="62.83333333333332" dx="0em" dy="0.3em" style="text-anchor: end; visibility: inherit; font-family: Roboto, sans-serif; font-size: 12px; font-weight: 200;" fill="rgb(33, 33, 33)" stroke="none" stroke-width="1px">180</text><text x="0" y="31.416666666666682" dx="0em" dy="0.3em" style="text-anchor: end; visibility: inherit; font-family: Roboto, sans-serif; font-size: 12px; font-weight: 200;" fill="rgb(33, 33, 33)" stroke="none" stroke-width="1px">200</text><text x="0" y="0" dx="0em" dy="0.3em" style="text-anchor: end; visibility: hidden; font-family: Roboto, sans-serif; font-size: 12px; font-weight: 200;" fill="rgb(33, 33, 33)" stroke="none" stroke-width="1px">220</text></g><line x1="40" y1="0" x2="40" y2="377" fill="rgb(0, 0, 0)" stroke="rgb(204, 204, 204)" stroke-width="1px"></line></g></g><g transform="translate(40, 0)" clip-path="url(#clip_0)"><clipPath id="clip_0"><rect width="593" height="377"></rect></clipPath><g><g><g><line x1="0" y1="0" x2="0" y2="377" fill="rgb(0, 0, 0)" stroke="rgb(66, 66, 66)" stroke-width="1px" opacity="0.25"></line><line x1="49.416666666666664" y1="0" x2="49.416666666666664" y2="377" fill="rgb(0, 0, 0)" stroke="rgb(66, 66, 66)" stroke-width="1px" opacity="0.25"></line><line x1="98.83333333333333" y1="0" x2="98.83333333333333" y2="377" fill="rgb(0, 0, 0)" stroke="rgb(66, 66, 66)" stroke-width="1px" opacity="0.25"></line><line x1="148.25" y1="0" x2="148.25" y2="377" fill="rgb(0, 0, 0)" stroke="rgb(66, 66, 66)" stroke-width="1px" opacity="0.25"></line><line x1="197.66666666666666" y1="0" x2="197.66666666666666" y2="377" fill="rgb(0, 0, 0)" stroke="rgb(66, 66, 66)" stroke-width="1px" opacity="0.25"></line><line x1="247.08333333333334" y1="0" x2="247.08333333333334" y2="377" fill="rgb(0, 0, 0)" stroke="rgb(66, 66, 66)" stroke-width="1px" opacity="0.25"></line><line x1="296.5" y1="0" x2="296.5" y2="377" fill="rgb(0, 0, 0)" stroke="rgb(66, 66, 66)" stroke-width="1px" opacity="0.25"></line><line x1="345.9166666666667" y1="0" x2="345.9166666666667" y2="377" fill="rgb(0, 0, 0)" stroke="rgb(66, 66, 66)" stroke-width="1px" opacity="0.25"></line><line x1="395.3333333333333" y1="0" x2="395.3333333333333" y2="377" fill="rgb(0, 0, 0)" stroke="rgb(66, 66, 66)" stroke-width="1px" opacity="0.25"></line><line x1="444.75" y1="0" x2="444.75" y2="377" fill="rgb(0, 0, 0)" stroke="rgb(66, 66, 66)" stroke-width="1px" opacity="0.25"></line><line x1="494.1666666666667" y1="0" x2="494.1666666666667" y2="377" fill="rgb(0, 0, 0)" stroke="rgb(66, 66, 66)" stroke-width="1px" opacity="0.25"></line><line x1="543.5833333333333" y1="0" x2="543.5833333333333" y2="377" fill="rgb(0, 0, 0)" stroke="rgb(66, 66, 66)" stroke-width="1px" opacity="0.25"></line><line x1="593" y1="0" x2="593" y2="377" fill="rgb(0, 0, 0)" stroke="rgb(66, 66, 66)" stroke-width="1px" opacity="0.25"></line></g><g><line x1="0" y1="377" x2="593" y2="377" fill="rgb(0, 0, 0)" stroke="rgb(66, 66, 66)" stroke-width="1px" opacity="0.25"></line><line x1="0" y1="345.5833333333333" x2="593" y2="345.5833333333333" fill="rgb(0, 0, 0)" stroke="rgb(66, 66, 66)" stroke-width="1px" opacity="0.25"></line><line x1="0" y1="314.1666666666667" x2="593" y2="314.1666666666667" fill="rgb(0, 0, 0)" stroke="rgb(66, 66, 66)" stroke-width="1px" opacity="0.25"></line><line x1="0" y1="282.75" x2="593" y2="282.75" fill="rgb(0, 0, 0)" stroke="rgb(66, 66, 66)" stroke-width="1px" opacity="0.25"></line><line x1="0" y1="251.33333333333337" x2="593" y2="251.33333333333337" fill="rgb(0, 0, 0)" stroke="rgb(66, 66, 66)" stroke-width="1px" opacity="0.25"></line><line x1="0" y1="219.91666666666663" x2="593" y2="219.91666666666663" fill="rgb(0, 0, 0)" stroke="rgb(66, 66, 66)" stroke-width="1px" opacity="0.25"></line><line x1="0" y1="188.5" x2="593" y2="188.5" fill="rgb(0, 0, 0)" stroke="rgb(66, 66, 66)" stroke-width="1px" opacity="0.25"></line><line x1="0" y1="157.08333333333331" x2="593" y2="157.08333333333331" fill="rgb(0, 0, 0)" stroke="rgb(66, 66, 66)" stroke-width="1px" opacity="0.25"></line><line x1="0" y1="125.66666666666669" x2="593" y2="125.66666666666669" fill="rgb(0, 0, 0)" stroke="rgb(66, 66, 66)" stroke-width="1px" opacity="0.25"></line><line x1="0" y1="94.25" x2="593" y2="94.25" fill="rgb(0, 0, 0)" stroke="rgb(66, 66, 66)" stroke-width="1px" opacity="0.25"></line><line x1="0" y1="62.83333333333332" x2="593" y2="62.83333333333332" fill="rgb(0, 0, 0)" stroke="rgb(66, 66, 66)" stroke-width="1px" opacity="0.25"></line><line x1="0" y1="31.416666666666682" x2="593" y2="31.416666666666682" fill="rgb(0, 0, 0)" stroke="rgb(66, 66, 66)" stroke-width="1px" opacity="0.25"></line><line x1="0" y1="0" x2="593" y2="0" fill="rgb(0, 0, 0)" stroke="rgb(66, 66, 66)" stroke-width="1px" opacity="0.25"></line></g></g></g><g><g><line x1="0" y1="345.5833333333333" x2="593" y2="345.5833333333333" fill="rgb(0, 0, 0)" stroke="rgb(153, 153, 153)" stroke-width="1.5px"></line></g></g><g><g><line x1="49.416666666666664" y1="0" x2="49.416666666666664" y2="377" fill="rgb(0, 0, 0)" stroke="rgb(153, 153, 153)" stroke-width="1.5px"></line></g></g><g><g><g><g><g><path stroke="rgb(204, 51, 17)" stroke-width="2px" d="M50.405,331.4458333333333L51.39333333333334,333.01666666666665L52.38166666666667,333.01666666666665L53.37,329.875L54.35833333333333,329.875L55.34666666666667,329.875L56.335,331.4458333333333L57.32333333333333,329.875L58.31166666666666,329.875L59.300000000000004,331.4458333333333L60.288333333333334,331.4458333333333L61.276666666666664,331.4458333333333L62.265,331.4458333333333L63.25333333333334,329.875L64.24166666666667,329.875L65.23,331.4458333333333L66.21833333333333,331.4458333333333L67.20666666666666,331.4458333333333L68.19500000000001,329.875L69.18333333333334,333.01666666666665L70.17166666666667,333.01666666666665L71.16,329.875L72.14833333333334,329.875L73.13666666666667,331.4458333333333L74.125,329.875L75.11333333333334,331.4458333333333L76.10166666666666,333.01666666666665L77.09,329.875L78.07833333333332,333.01666666666665L79.06666666666666,331.4458333333333L80.055,331.4458333333333L81.04333333333332,333.01666666666665L82.03166666666667,331.4458333333333L83.02000000000001,329.875L84.00833333333333,329.875L84.99666666666667,329.875L85.985,333.01666666666665L86.97333333333333,331.4458333333333L87.96166666666667,329.875L88.95,333.01666666666665L89.93833333333333,331.4458333333333L90.92666666666666,331.4458333333333L91.915,329.875L92.90333333333334,325.1625L93.89166666666667,323.5916666666667L94.88,318.87916666666666L95.86833333333333,315.7375L96.85666666666667,315.7375L97.845,307.8833333333333L98.83333333333333,301.6L99.82166666666667,276.4666666666667L100.81,241.9083333333333L101.79833333333333,31.416666666666682L102.78666666666668,31.416666666666682L103.77499999999999,87.96666666666664L104.76333333333334,168.07916666666665L105.75166666666668,31.416666666666682L106.74,166.50833333333333L107.72833333333334,234.05416666666667L108.71666666666665,191.64166666666665L109.705,208.92083333333335L110.69333333333334,191.64166666666665L111.68166666666666,237.19583333333333L112.67,180.64583333333331L113.65833333333335,196.35416666666663L114.64666666666666,32.98750000000001L115.635,149.22916666666669L116.62333333333332,246.62083333333334L117.61166666666666,177.50416666666666L118.60000000000001,31.416666666666682L119.58833333333332,31.416666666666682L120.57666666666667,160.22500000000002L121.565,141.375L122.55333333333333,215.20416666666665L123.54166666666667,229.3416666666667L124.53,180.64583333333331L125.51833333333333,196.35416666666663L126.50666666666667,164.9375L127.495,212.0625L128.48333333333335,56.55000000000001L129.47166666666666,229.3416666666667L130.46,149.22916666666669L131.44833333333335,163.36666666666667L132.43666666666667,202.6375L133.425,208.92083333333335L134.41333333333333,51.837499999999984L135.40166666666667,31.416666666666682L136.39000000000001,245.05L137.37833333333333,224.62916666666666L138.36666666666667,263.9L139.355,155.5125L140.34333333333333,230.91250000000002L141.33166666666668,199.49583333333334L142.32,31.416666666666682L143.30833333333334,204.20833333333337L144.29666666666668,221.4875L145.285,144.51666666666665L146.27333333333334,212.0625L147.26166666666666,243.47916666666663L148.25,196.35416666666663L149.23833333333332,186.92916666666667L150.2266666666667,254.47500000000002L151.215,276.4666666666667L152.20333333333332,65.97500000000002L153.1916666666667,223.05833333333334L154.18,219.91666666666663L155.16833333333332,229.3416666666667L156.15666666666664,138.23333333333335L157.145,197.925L158.13333333333333,202.6375L159.12166666666664,256.04583333333335L160.11,174.3625L161.09833333333333,31.416666666666682L162.08666666666664,234.05416666666667L163.07500000000002,224.62916666666666L164.06333333333333,197.925L165.05166666666665,177.50416666666666L166.04000000000002,31.416666666666682L167.02833333333334,218.3458333333333L168.01666666666665,205.7791666666667L169.005,216.77499999999998L169.99333333333334,149.22916666666669L170.98166666666665,128.80833333333334L171.97,238.76666666666665L172.95833333333334,210.49166666666667L173.94666666666666,218.3458333333333L174.935,202.6375L175.92333333333335,205.7791666666667L176.91166666666666,31.416666666666682L177.9,212.0625L178.88833333333335,196.35416666666663L179.87666666666667,207.35000000000002L180.865,234.05416666666667L181.85333333333332,177.50416666666666L182.84166666666667,202.6375L183.83,171.22083333333336L184.81833333333333,114.67083333333335L185.80666666666667,223.05833333333334L186.795,86.39583333333331L187.78333333333333,31.416666666666682L188.77166666666668,31.416666666666682L189.76,150.8L190.74833333333333,31.416666666666682L191.73666666666665,186.92916666666667L192.725,202.6375L193.71333333333334,102.10416666666669L194.70166666666665,175.93333333333334L195.69,169.64999999999998L196.67833333333334,164.9375L197.66666666666666,31.416666666666682L198.655,147.65833333333336L199.64333333333335,53.40833333333335L200.63166666666666,31.416666666666682L201.62,31.416666666666682L202.60833333333335,146.08749999999998L203.59666666666666,161.79583333333335L204.58499999999998,31.416666666666682L205.57333333333335,31.416666666666682L206.56166666666667,31.416666666666682L207.54999999999998,172.79166666666669L208.53833333333336,31.416666666666682L209.52666666666667,125.66666666666669L210.515,31.416666666666682L211.50333333333336,185.35833333333335L212.49166666666667,31.416666666666682L213.48,114.67083333333335L214.46833333333336,31.416666666666682L215.45666666666668,144.51666666666665L216.445,103.67500000000001L217.4333333333333,31.416666666666682L218.42166666666668,199.49583333333334L219.41,56.55000000000001L220.3983333333333,157.08333333333331L221.38666666666668,31.416666666666682L222.375,31.416666666666682L223.36333333333332,177.50416666666666L224.3516666666667,31.416666666666682L225.34,152.37083333333334L226.32833333333332,31.416666666666682L227.3166666666667,160.22500000000002L228.305,31.416666666666682L229.29333333333332,31.416666666666682L230.28166666666664,51.837499999999984L231.27,31.416666666666682L232.25833333333333,31.416666666666682L233.24666666666664,97.39166666666665L234.235,31.416666666666682L235.22333333333333,31.416666666666682L236.21166666666664,31.416666666666682L237.20000000000002,125.66666666666669L238.18833333333333,149.22916666666669L239.17666666666665,31.416666666666682L240.16500000000002,31.416666666666682L241.15333333333334,31.416666666666682L242.14166666666665,120.95416666666665L243.13,111.52916666666664L244.11833333333334,102.10416666666669L245.10666666666665,138.23333333333335L246.095,98.96249999999998L247.08333333333334,31.416666666666682L248.07166666666666,31.416666666666682L249.06,31.416666666666682L250.04833333333335,59.69166666666666L251.03666666666666,31.416666666666682L252.025,31.416666666666682L253.01333333333335,91.10833333333335L254.00166666666667,31.416666666666682L254.99,31.416666666666682L255.97833333333332,31.416666666666682L256.9666666666667,31.416666666666682L257.955,31.416666666666682L258.9433333333333,34.55833333333334L259.9316666666667,128.80833333333334L260.92,31.416666666666682L261.9083333333333,31.416666666666682L262.8966666666667,31.416666666666682L263.885,31.416666666666682L264.87333333333333,105.24583333333334L265.8616666666667,31.416666666666682L266.85,31.416666666666682L267.8383333333333,81.68333333333334L268.82666666666665,100.53333333333336L269.815,31.416666666666682L270.80333333333334,31.416666666666682L271.79166666666663,31.416666666666682L272.78000000000003,31.416666666666682L273.7683333333333,31.416666666666682L274.75666666666666,31.416666666666682L275.745,31.416666666666682L276.73333333333335,40.84166666666665L277.72166666666664,89.53750000000002L278.71,48.695833333333326L279.6983333333333,31.416666666666682L280.68666666666667,31.416666666666682L281.675,80.11250000000001L282.66333333333336,31.416666666666682L283.65166666666664,31.416666666666682L284.64,31.416666666666682L285.62833333333333,31.416666666666682L286.6166666666667,31.416666666666682L287.605,31.416666666666682L288.59333333333336,31.416666666666682L289.58166666666665,31.416666666666682L290.57,31.416666666666682L291.55833333333334,61.26249999999999L292.5466666666667,31.416666666666682L293.535,31.416666666666682L294.5233333333333,31.416666666666682L295.51166666666666,31.416666666666682L296.5,31.416666666666682L297.48833333333334,31.416666666666682L298.47666666666663,31.416666666666682L299.465,31.416666666666682L300.4533333333334,31.416666666666682L301.44166666666666,48.695833333333326L302.43,81.68333333333334L303.41833333333335,31.416666666666682L304.40666666666664,31.416666666666682L305.395,39.27083333333332L306.3833333333334,65.97500000000002L307.37166666666667,31.416666666666682L308.36,31.416666666666682L309.3483333333333,31.416666666666682L310.33666666666664,62.83333333333332L311.325,31.416666666666682L312.3133333333333,32.98750000000001L313.3016666666667,31.416666666666682L314.29,31.416666666666682L315.2783333333333,31.416666666666682L316.26666666666665,59.69166666666666L317.255,34.55833333333334L318.2433333333333,31.416666666666682L319.2316666666667,31.416666666666682L320.22,91.10833333333335L321.2083333333333,31.416666666666682L322.19666666666666,31.416666666666682L323.185,31.416666666666682L324.1733333333333,31.416666666666682L325.1616666666667,31.416666666666682L326.15000000000003,31.416666666666682L327.1383333333333,31.416666666666682L328.12666666666667,65.97500000000002L329.115,69.11666666666667L330.1033333333333,31.416666666666682L331.0916666666667,62.83333333333332L332.08000000000004,31.416666666666682L333.0683333333333,39.27083333333332L334.0566666666667,31.416666666666682L335.04499999999996,31.416666666666682L336.0333333333333,31.416666666666682L337.0216666666667,31.416666666666682L338.01,31.416666666666682L338.99833333333333,31.416666666666682L339.9866666666667,31.416666666666682L340.97499999999997,31.416666666666682L341.9633333333333,31.416666666666682L342.9516666666667,87.96666666666664L343.94,31.416666666666682L344.92833333333334,31.416666666666682L345.9166666666667,31.416666666666682L346.905,83.25416666666666L347.8933333333333,31.416666666666682L348.8816666666667,31.416666666666682L349.87,39.27083333333332L350.85833333333335,31.416666666666682L351.8466666666667,31.416666666666682L352.835,70.6875L353.8233333333333,31.416666666666682L354.8116666666667,47.125L355.8,31.416666666666682L356.78833333333336,31.416666666666682L357.7766666666667,31.416666666666682L358.765,31.416666666666682L359.75333333333333,37.69999999999999L360.7416666666666,31.416666666666682L361.73,51.837499999999984L362.71833333333336,62.83333333333332L363.70666666666665,31.416666666666682L364.695,83.25416666666666L365.68333333333334,51.837499999999984L366.6716666666666,31.416666666666682L367.66,31.416666666666682L368.64833333333337,86.39583333333331L369.63666666666666,31.416666666666682L370.625,31.416666666666682L371.61333333333334,31.416666666666682L372.60166666666663,94.25L373.59,89.53750000000002L374.5783333333334,31.416666666666682L375.56666666666666,31.416666666666682L376.555,31.416666666666682L377.54333333333335,31.416666666666682L378.53166666666664,31.416666666666682L379.52,31.416666666666682L380.5083333333334,64.40416666666664L381.49666666666667,31.416666666666682L382.485,92.67916666666667L383.4733333333333,108.38749999999999L384.46166666666664,59.69166666666666L385.45,31.416666666666682L386.4383333333333,32.98750000000001L387.4266666666667,31.416666666666682L388.415,54.97916666666668L389.4033333333333,31.416666666666682L390.39166666666665,31.416666666666682L391.38,31.416666666666682L392.3683333333333,31.416666666666682L393.3566666666667,73.82916666666665L394.345,31.416666666666682L395.3333333333333,31.416666666666682L396.32166666666666,31.416666666666682L397.31,31.416666666666682L398.2983333333333,31.416666666666682L399.2866666666667,91.10833333333335L400.27500000000003,31.416666666666682L401.2633333333333,69.11666666666667L402.25166666666667,51.837499999999984L403.24,31.416666666666682L404.2283333333333,47.125L405.2166666666667,31.416666666666682L406.20500000000004,67.54583333333335L407.1933333333333,75.39999999999998L408.1816666666667,42.412500000000016L409.16999999999996,31.416666666666682L410.1583333333333,84.82499999999999L411.1466666666667,31.416666666666682L412.135,31.416666666666682L413.12333333333333,31.416666666666682L414.1116666666667,130.37916666666666L415.09999999999997,31.416666666666682L416.0883333333333,31.416666666666682L417.0766666666667,31.416666666666682L418.065,31.416666666666682L419.05333333333334,31.416666666666682L420.0416666666667,31.416666666666682L421.03,31.416666666666682L422.0183333333333,31.416666666666682L423.0066666666667,31.416666666666682L423.995,31.416666666666682L424.98333333333335,89.53750000000002L425.9716666666667,31.416666666666682L426.96,48.695833333333326L427.9483333333333,31.416666666666682L428.9366666666667,31.416666666666682L429.925,31.416666666666682L430.91333333333336,31.416666666666682L431.9016666666667,31.416666666666682L432.89,31.416666666666682L433.87833333333333,31.416666666666682L434.8666666666666,31.416666666666682L435.855,31.416666666666682L436.84333333333336,31.416666666666682L437.83166666666665,31.416666666666682L438.82,31.416666666666682L439.80833333333334,31.416666666666682L440.7966666666666,31.416666666666682L441.785,31.416666666666682L442.77333333333337,122.52499999999998L443.76166666666666,31.416666666666682L444.75,31.416666666666682L445.73833333333334,31.416666666666682L446.72666666666663,31.416666666666682L447.715,31.416666666666682L448.7033333333334,31.416666666666682L449.69166666666666,98.96249999999998L450.68,73.82916666666665L451.66833333333335,70.6875L452.65666666666664,31.416666666666682L453.645,31.416666666666682L454.6333333333334,31.416666666666682L455.62166666666667,31.416666666666682L456.61,47.125L457.5983333333333,31.416666666666682L458.58666666666664,32.98750000000001L459.575,31.416666666666682L460.5633333333333,31.416666666666682L461.5516666666667,86.39583333333331L462.54,31.416666666666682L463.5283333333333,50.26666666666666L464.51666666666665,31.416666666666682L465.505,31.416666666666682L466.4933333333333,31.416666666666682L467.4816666666667,53.40833333333335L468.47,95.82083333333333L469.4583333333333,45.554166666666674L470.44666666666666,31.416666666666682L471.435,31.416666666666682L472.4233333333333,31.416666666666682L473.4116666666667,95.82083333333333L474.40000000000003,31.416666666666682L475.3883333333333,31.416666666666682L476.37666666666667,31.416666666666682L477.365,31.416666666666682L478.3533333333333,31.416666666666682L479.3416666666667,31.416666666666682L480.33000000000004,31.416666666666682L481.3183333333333,97.39166666666665L482.3066666666667,31.416666666666682L483.29499999999996,31.416666666666682L484.2833333333333,31.416666666666682L485.2716666666667,31.416666666666682L486.26,31.416666666666682L487.24833333333333,31.416666666666682L488.2366666666667,76.97083333333336L489.22499999999997,31.416666666666682L490.2133333333333,31.416666666666682L491.2016666666667,31.416666666666682L492.19,61.26249999999999L493.17833333333334,76.97083333333336L494.1666666666667,86.39583333333331L495.155,53.40833333333335L496.1433333333333,31.416666666666682L497.1316666666667,31.416666666666682L498.12,31.416666666666682L499.10833333333335,31.416666666666682L500.0966666666667,78.54166666666669L501.085,78.54166666666669L502.0733333333333,31.416666666666682L503.0616666666667,31.416666666666682L504.05,32.98750000000001L505.03833333333336,31.416666666666682L506.0266666666667,31.416666666666682L507.015,92.67916666666667L508.00333333333333,31.416666666666682L508.9916666666666,67.54583333333335L509.98,65.97500000000002L510.96833333333336,31.416666666666682L511.95666666666665,31.416666666666682L512.945,31.416666666666682L513.9333333333334,50.26666666666666L514.9216666666666,37.69999999999999L515.91,64.40416666666664L516.8983333333333,73.82916666666665L517.8866666666667,64.40416666666664L518.875,73.82916666666665L519.8633333333333,31.416666666666682L520.8516666666667,31.416666666666682L521.84,31.416666666666682L522.8283333333334,31.416666666666682L523.8166666666666,31.416666666666682L524.805,31.416666666666682L525.7933333333334,31.416666666666682L526.7816666666666,31.416666666666682L527.77,31.416666666666682L528.7583333333333,31.416666666666682L529.7466666666667,31.416666666666682L530.735,31.416666666666682L531.7233333333334,51.837499999999984L532.7116666666667,31.416666666666682L533.7,94.25L534.6883333333333,31.416666666666682L535.6766666666666,47.125L536.665,105.24583333333334L537.6533333333333,105.24583333333334L538.6416666666667,61.26249999999999L539.63,31.416666666666682L540.6183333333333,78.54166666666669L541.6066666666667,31.416666666666682L542.595,31.416666666666682L543.5833333333333,31.416666666666682L544.5716666666667,31.416666666666682L545.5600000000001,31.416666666666682L546.5483333333333,31.416666666666682L547.5366666666666,113.10000000000002L548.525,69.11666666666667L549.5133333333333,31.416666666666682L550.5016666666667,31.416666666666682L551.49,31.416666666666682L552.4783333333334,31.416666666666682L553.4666666666667,105.24583333333334L554.455,31.416666666666682L555.4433333333333,31.416666666666682L556.4316666666667,31.416666666666682L557.42,39.27083333333332L558.4083333333333,83.25416666666666L559.3966666666666,31.416666666666682L560.385,31.416666666666682L561.3733333333333,89.53750000000002L562.3616666666667,84.82499999999999L563.35,31.416666666666682L564.3383333333334,31.416666666666682L565.3266666666667,31.416666666666682L566.3149999999999,39.27083333333332" style="fill: none;" fill="none"></path></g></g></g></g></g></g><g transform="translate(40, 377)" clip-path="url(#clip_1)"><clipPath id="clip_1"><rect width="593" height="23"></rect></clipPath><g><g><line x1="0" y1="0" x2="0" y2="5" style="visibility: inherit;" fill="rgb(0, 0, 0)" stroke="rgb(204, 204, 204)" stroke-width="1px"></line><line x1="49.416666666666664" y1="0" x2="49.416666666666664" y2="5" style="visibility: inherit;" fill="rgb(0, 0, 0)" stroke="rgb(204, 204, 204)" stroke-width="1px"></line><line x1="98.83333333333333" y1="0" x2="98.83333333333333" y2="5" style="visibility: inherit;" fill="rgb(0, 0, 0)" stroke="rgb(204, 204, 204)" stroke-width="1px"></line><line x1="148.25" y1="0" x2="148.25" y2="5" style="visibility: inherit;" fill="rgb(0, 0, 0)" stroke="rgb(204, 204, 204)" stroke-width="1px"></line><line x1="197.66666666666666" y1="0" x2="197.66666666666666" y2="5" style="visibility: inherit;" fill="rgb(0, 0, 0)" stroke="rgb(204, 204, 204)" stroke-width="1px"></line><line x1="247.08333333333334" y1="0" x2="247.08333333333334" y2="5" style="visibility: inherit;" fill="rgb(0, 0, 0)" stroke="rgb(204, 204, 204)" stroke-width="1px"></line><line x1="296.5" y1="0" x2="296.5" y2="5" style="visibility: inherit;" fill="rgb(0, 0, 0)" stroke="rgb(204, 204, 204)" stroke-width="1px"></line><line x1="345.9166666666667" y1="0" x2="345.9166666666667" y2="5" style="visibility: inherit;" fill="rgb(0, 0, 0)" stroke="rgb(204, 204, 204)" stroke-width="1px"></line><line x1="395.3333333333333" y1="0" x2="395.3333333333333" y2="5" style="visibility: inherit;" fill="rgb(0, 0, 0)" stroke="rgb(204, 204, 204)" stroke-width="1px"></line><line x1="444.75" y1="0" x2="444.75" y2="5" style="visibility: inherit;" fill="rgb(0, 0, 0)" stroke="rgb(204, 204, 204)" stroke-width="1px"></line><line x1="494.1666666666667" y1="0" x2="494.1666666666667" y2="5" style="visibility: inherit;" fill="rgb(0, 0, 0)" stroke="rgb(204, 204, 204)" stroke-width="1px"></line><line x1="543.5833333333333" y1="0" x2="543.5833333333333" y2="5" style="visibility: inherit;" fill="rgb(0, 0, 0)" stroke="rgb(204, 204, 204)" stroke-width="1px"></line><line x1="593" y1="0" x2="593" y2="5" style="visibility: inherit;" fill="rgb(0, 0, 0)" stroke="rgb(204, 204, 204)" stroke-width="1px"></line></g><g transform="translate(0, 8)"><text x="0" y="0" dx="0em" dy="0.95em" style="text-anchor: middle; visibility: hidden; font-family: Roboto, sans-serif; font-size: 12px; font-weight: 200;" fill="rgb(33, 33, 33)" stroke="none" stroke-width="1px">-50</text><text x="49.416666666666664" y="0" dx="0em" dy="0.95em" style="text-anchor: middle; visibility: inherit; font-family: Roboto, sans-serif; font-size: 12px; font-weight: 200;" fill="rgb(33, 33, 33)" stroke="none" stroke-width="1px">0</text><text x="98.83333333333333" y="0" dx="0em" dy="0.95em" style="text-anchor: middle; visibility: inherit; font-family: Roboto, sans-serif; font-size: 12px; font-weight: 200;" fill="rgb(33, 33, 33)" stroke="none" stroke-width="1px">50</text><text x="148.25" y="0" dx="0em" dy="0.95em" style="text-anchor: middle; visibility: inherit; font-family: Roboto, sans-serif; font-size: 12px; font-weight: 200;" fill="rgb(33, 33, 33)" stroke="none" stroke-width="1px">100</text><text x="197.66666666666666" y="0" dx="0em" dy="0.95em" style="text-anchor: middle; visibility: inherit; font-family: Roboto, sans-serif; font-size: 12px; font-weight: 200;" fill="rgb(33, 33, 33)" stroke="none" stroke-width="1px">150</text><text x="247.08333333333334" y="0" dx="0em" dy="0.95em" style="text-anchor: middle; visibility: inherit; font-family: Roboto, sans-serif; font-size: 12px; font-weight: 200;" fill="rgb(33, 33, 33)" stroke="none" stroke-width="1px">200</text><text x="296.5" y="0" dx="0em" dy="0.95em" style="text-anchor: middle; visibility: inherit; font-family: Roboto, sans-serif; font-size: 12px; font-weight: 200;" fill="rgb(33, 33, 33)" stroke="none" stroke-width="1px">250</text><text x="345.9166666666667" y="0" dx="0em" dy="0.95em" style="text-anchor: middle; visibility: inherit; font-family: Roboto, sans-serif; font-size: 12px; font-weight: 200;" fill="rgb(33, 33, 33)" stroke="none" stroke-width="1px">300</text><text x="395.3333333333333" y="0" dx="0em" dy="0.95em" style="text-anchor: middle; visibility: inherit; font-family: Roboto, sans-serif; font-size: 12px; font-weight: 200;" fill="rgb(33, 33, 33)" stroke="none" stroke-width="1px">350</text><text x="444.75" y="0" dx="0em" dy="0.95em" style="text-anchor: middle; visibility: inherit; font-family: Roboto, sans-serif; font-size: 12px; font-weight: 200;" fill="rgb(33, 33, 33)" stroke="none" stroke-width="1px">400</text><text x="494.1666666666667" y="0" dx="0em" dy="0.95em" style="text-anchor: middle; visibility: inherit; font-family: Roboto, sans-serif; font-size: 12px; font-weight: 200;" fill="rgb(33, 33, 33)" stroke="none" stroke-width="1px">450</text><text x="543.5833333333333" y="0" dx="0em" dy="0.95em" style="text-anchor: middle; visibility: inherit; font-family: Roboto, sans-serif; font-size: 12px; font-weight: 200;" fill="rgb(33, 33, 33)" stroke="none" stroke-width="1px">500</text><text x="593" y="0" dx="0em" dy="0.95em" style="text-anchor: middle; visibility: hidden; font-family: Roboto, sans-serif; font-size: 12px; font-weight: 200;" fill="rgb(33, 33, 33)" stroke="none" stroke-width="1px">550</text></g><line x1="0" y1="0" x2="593" y2="0" fill="rgb(0, 0, 0)" stroke="rgb(204, 204, 204)" stroke-width="1px"></line></g></g></g></g></svg>