<svg viewBox="0 0 633 400" xmlns="http://www.w3.org/2000/svg"><g><g><g><g><g><line x1="50" y1="356.16201927031426" x2="45" y2="356.16201927031426" style="visibility: inherit;" fill="rgb(0, 0, 0)" stroke="rgb(204, 204, 204)" stroke-width="1px"></line><line x1="50" y1="303.71074144911944" x2="45" y2="303.71074144911944" style="visibility: inherit;" fill="rgb(0, 0, 0)" stroke="rgb(204, 204, 204)" stroke-width="1px"></line><line x1="50" y1="251.2594636279246" x2="45" y2="251.2594636279246" style="visibility: inherit;" fill="rgb(0, 0, 0)" stroke="rgb(204, 204, 204)" stroke-width="1px"></line><line x1="50" y1="198.80818580672974" x2="45" y2="198.80818580672974" style="visibility: inherit;" fill="rgb(0, 0, 0)" stroke="rgb(204, 204, 204)" stroke-width="1px"></line><line x1="50" y1="146.35690798553495" x2="45" y2="146.35690798553495" style="visibility: inherit;" fill="rgb(0, 0, 0)" stroke="rgb(204, 204, 204)" stroke-width="1px"></line><line x1="50" y1="93.90563016434012" x2="45" y2="93.90563016434012" style="visibility: inherit;" fill="rgb(0, 0, 0)" stroke="rgb(204, 204, 204)" stroke-width="1px"></line><line x1="50" y1="41.45435234314527" x2="45" y2="41.45435234314527" style="visibility: inherit;" fill="rgb(0, 0, 0)" stroke="rgb(204, 204, 204)" stroke-width="1px"></line></g><g transform="translate(40, 0)"><text x="0" y="356.16201927031426" dx="0em" dy="0.3em" style="text-anchor: end; visibility: inherit; font-family: Roboto, sans-serif; font-size: 12px; font-weight: 200;" fill="rgb(33, 33, 33)" stroke="none" stroke-width="1px">-600</text><text x="0" y="303.71074144911944" dx="0em" dy="0.3em" style="text-anchor: end; visibility: inherit; font-family: Roboto, sans-serif; font-size: 12px; font-weight: 200;" fill="rgb(33, 33, 33)" stroke="none" stroke-width="1px">-500</text><text x="0" y="251.2594636279246" dx="0em" dy="0.3em" style="text-anchor: end; visibility: inherit; font-family: Roboto, sans-serif; font-size: 12px; font-weight: 200;" fill="rgb(33, 33, 33)" stroke="none" stroke-width="1px">-400</text><text x="0" y="198.80818580672974" dx="0em" dy="0.3em" style="text-anchor: end; visibility: inherit; font-family: Roboto, sans-serif; font-size: 12px; font-weight: 200;" fill="rgb(33, 33, 33)" stroke="none" stroke-width="1px">-300</text><text x="0" y="146.35690798553495" dx="0em" dy="0.3em" style="text-anchor: end; visibility: inherit; font-family: Roboto, sans-serif; font-size: 12px; font-weight: 200;" fill="rgb(33, 33, 33)" stroke="none" stroke-width="1px">-200</text><text x="0" y="93.90563016434012" dx="0em" dy="0.3em" style="text-anchor: end; visibility: inherit; font-family: Roboto, sans-serif; font-size: 12px; font-weight: 200;" fill="rgb(33, 33, 33)" stroke="none" stroke-width="1px">-100</text><text x="0" y="41.45435234314527" dx="0em" dy="0.3em" style="text-anchor: end; visibility: inherit; font-family: Roboto, sans-serif; font-size: 12px; font-weight: 200;" fill="rgb(33, 33, 33)" stroke="none" stroke-width="1px">0</text></g><line x1="50" y1="0" x2="50" y2="377" fill="rgb(0, 0, 0)" stroke="rgb(204, 204, 204)" stroke-width="1px"></line></g></g><g transform="translate(50, 0)" clip-path="url(#clip_0)"><clipPath id="clip_0"><rect width="583" height="377"></rect></clipPath><g><g><g><line x1="10.557362744913622" y1="0" x2="10.557362744913622" y2="377" fill="rgb(0, 0, 0)" stroke="rgb(66, 66, 66)" stroke-width="1px" opacity="0.25"></line><line x1="66.77776988272" y1="0" x2="66.77776988272" y2="377" fill="rgb(0, 0, 0)" stroke="rgb(66, 66, 66)" stroke-width="1px" opacity="0.25"></line><line x1="122.99817702052638" y1="0" x2="122.99817702052638" y2="377" fill="rgb(0, 0, 0)" stroke="rgb(66, 66, 66)" stroke-width="1px" opacity="0.25"></line><line x1="179.21858415833276" y1="0" x2="179.21858415833276" y2="377" fill="rgb(0, 0, 0)" stroke="rgb(66, 66, 66)" stroke-width="1px" opacity="0.25"></line><line x1="235.43899129613914" y1="0" x2="235.43899129613914" y2="377" fill="rgb(0, 0, 0)" stroke="rgb(66, 66, 66)" stroke-width="1px" opacity="0.25"></line><line x1="291.65939843394546" y1="0" x2="291.65939843394546" y2="377" fill="rgb(0, 0, 0)" stroke="rgb(66, 66, 66)" stroke-width="1px" opacity="0.25"></line><line x1="347.87980557175183" y1="0" x2="347.87980557175183" y2="377" fill="rgb(0, 0, 0)" stroke="rgb(66, 66, 66)" stroke-width="1px" opacity="0.25"></line><line x1="404.1002127095582" y1="0" x2="404.1002127095582" y2="377" fill="rgb(0, 0, 0)" stroke="rgb(66, 66, 66)" stroke-width="1px" opacity="0.25"></line><line x1="460.32061984736464" y1="0" x2="460.32061984736464" y2="377" fill="rgb(0, 0, 0)" stroke="rgb(66, 66, 66)" stroke-width="1px" opacity="0.25"></line><line x1="516.541026985171" y1="0" x2="516.541026985171" y2="377" fill="rgb(0, 0, 0)" stroke="rgb(66, 66, 66)" stroke-width="1px" opacity="0.25"></line><line x1="572.7614341229773" y1="0" x2="572.7614341229773" y2="377" fill="rgb(0, 0, 0)" stroke="rgb(66, 66, 66)" stroke-width="1px" opacity="0.25"></line></g><g><line x1="0" y1="356.16201927031426" x2="583" y2="356.16201927031426" fill="rgb(0, 0, 0)" stroke="rgb(66, 66, 66)" stroke-width="1px" opacity="0.25"></line><line x1="0" y1="303.71074144911944" x2="583" y2="303.71074144911944" fill="rgb(0, 0, 0)" stroke="rgb(66, 66, 66)" stroke-width="1px" opacity="0.25"></line><line x1="0" y1="251.2594636279246" x2="583" y2="251.2594636279246" fill="rgb(0, 0, 0)" stroke="rgb(66, 66, 66)" stroke-width="1px" opacity="0.25"></line><line x1="0" y1="198.80818580672974" x2="583" y2="198.80818580672974" fill="rgb(0, 0, 0)" stroke="rgb(66, 66, 66)" stroke-width="1px" opacity="0.25"></line><line x1="0" y1="146.35690798553495" x2="583" y2="146.35690798553495" fill="rgb(0, 0, 0)" stroke="rgb(66, 66, 66)" stroke-width="1px" opacity="0.25"></line><line x1="0" y1="93.90563016434012" x2="583" y2="93.90563016434012" fill="rgb(0, 0, 0)" stroke="rgb(66, 66, 66)" stroke-width="1px" opacity="0.25"></line><line x1="0" y1="41.45435234314527" x2="583" y2="41.45435234314527" fill="rgb(0, 0, 0)" stroke="rgb(66, 66, 66)" stroke-width="1px" opacity="0.25"></line></g></g></g><g><g><line x1="0" y1="41.45435234314527" x2="583" y2="41.45435234314527" fill="rgb(0, 0, 0)" stroke="rgb(153, 153, 153)" stroke-width="1.5px"></line></g></g><g><g><line x1="10.557362744913622" y1="0" x2="10.557362744913622" y2="377" fill="rgb(0, 0, 0)" stroke="rgb(153, 153, 153)" stroke-width="1.5px"></line></g></g><g><g><g><g><g><path stroke="rgb(187, 187, 187)" stroke-width="2px" d="M12.806179030425877,101.77332183751935L15.054995315938132,134.29311408666013L17.303811601450388,97.57721961182376L18.428219744206515,107.0184496196388L20.67703602971877,99.15075794645958L22.925852315231023,194.6120835810342L24.050260457987154,83.93988737831309L25.17466860074328,303.71074144911944L26.29907674349941,90.75855349506844L27.423484886255533,303.71074144911944L28.547893029011664,116.98419240566585L29.672301171767792,303.71074144911944L30.79670931452392,107.54296239785076L31.921117457280044,303.71074144911944L33.04552560003618,249.68592529328873L34.1699337427923,122.2293201877853L36.41875002830456,303.71074144911944L38.667566313816806,130.62152463917647L39.79197445657294,303.71074144911944L45.41401517035357,303.71074144911944L46.5384233131097,98.1017323900357L47.662831455865835,303.71074144911944L48.78723959862196,119.60675629672558L49.91164774137809,303.71074144911944L52.160464026890345,145.30788242911106L55.533688455158725,303.71074144911944L56.658096597914856,303.71074144911944L58.90691288342711,105.44491128500299L60.031321026183235,118.03321796208975L61.15572916893936,303.71074144911944L62.28013731169549,303.71074144911944L64.52895359720775,109.64101351069857L66.77776988272,303.71074144911944L67.90217802547613,303.71074144911944L71.27540245374452,94.95465572076404L72.39981059650063,100.72429628109543L73.52421873925677,78.69475959619362L74.64862688201289,102.2978346157313L75.77303502476903,303.71074144911944L79.1462594530374,99.67527072467153L80.27066759579354,96.0036812771879L81.39507573854966,86.56245126937286L82.51948388130579,303.71074144911944L83.64389202406191,303.71074144911944L84.76830016681804,303.71074144911944L85.89270830957418,303.71074144911944L87.0171164523303,85.51342571294894L88.14152459508644,92.33209182970425L89.26593273784255,93.90563016434012L91.51474902335481,120.13126907493753L92.63915716611093,303.71074144911944L93.76356530886707,303.71074144911944L94.88797345162318,99.15075794645958L97.13678973713544,94.95465572076404L99.3856060226477,85.51342571294894L100.51001416540383,86.0379384911609L102.75883045091608,303.71074144911944L103.88323859367222,303.71074144911944L106.13205487918447,303.71074144911944L107.25646302194059,79.74378515261749L108.38087116469671,90.75855349506844L109.50527930745285,89.18501516043258L110.62968745020898,78.69475959619362L111.75409559296511,303.71074144911944L114.00291187847735,303.71074144911944L115.12732002123349,100.72429628109543L116.25172816398961,86.0379384911609L117.37613630674575,303.71074144911944L119.624952592258,103.34686017215517L122.99817702052638,303.71074144911944L124.12258516328251,303.71074144911944L126.37140144879476,90.23404071685648L128.62021773430703,83.41537460010117L129.74462587706316,99.67527072467153L130.86903401981928,83.93988737831309L134.24225844808765,86.0379384911609L135.36666659084378,84.46440015652503L138.73989101911215,78.69475959619362L142.11311544738055,90.23404071685648L144.3619317328928,79.74378515261749L145.48633987564892,86.56245126937286L146.61074801840505,170.48449578328456L151.10838058942957,79.21927237440558L152.23278873218572,303.71074144911944L153.35719687494182,78.17024681798168L154.48160501769794,80.7928107090414L156.7304213032102,100.19978350288349L157.85482944596635,89.70952793864453L161.22805387423472,303.71074144911944L164.6012783025031,105.96942406321494L165.7256864452592,303.71074144911944L167.97450273077146,81.31732348725335L170.22331901628374,91.80757905149231L171.34772715903986,75.02317014871L172.472135301796,104.92039850679103L173.5965434445521,107.54296239785076L174.72095158730826,82.36634904367726L175.8453597300644,80.7928107090414L178.09417601557664,78.69475959619362L179.21858415833276,83.41537460010117L180.34299230108888,303.71074144911944L181.467400443845,86.56245126937286L183.71621672935728,84.98891293473699L184.84062487211338,89.70952793864453L185.96503301486953,90.23404071685648L188.21384930038178,303.71074144911944L189.3382574431379,78.17024681798168L190.46266558589403,81.31732348725335L192.71148187140628,82.36634904367726L193.83589001416243,75.02317014871L196.08470629967465,91.28306627328035L197.2091144424308,82.89086182188922L199.45793072794308,85.51342571294894L200.58233887069918,109.64101351069857L201.7067470134553,81.31732348725335L203.95556329896755,152.65106132407834L205.0799714417237,91.80757905149231L208.45319586999207,102.82234739394326L209.5776040127482,94.43014294255208L210.70201215550435,89.70952793864453L211.82642029826044,137.96470353414375L214.07523658377272,103.87137295036712L215.19964472652882,81.31732348725335L217.4484610120411,84.98891293473699L219.69727729755334,82.36634904367726L220.82168544030947,73.97414459228608L221.94609358306562,81.31732348725335L223.07050172582174,82.36634904367726L225.319318011334,73.97414459228608L226.44372615409011,81.8418362654653L229.81695058235852,86.0379384911609L234.314583153383,84.98891293473699L238.81221572440754,86.0379384911609L242.1854401526759,113.31260295818221L243.309848295432,89.18501516043258L244.43425643818816,87.0869640475848L245.55866458094428,89.70952793864453L246.68307272370043,81.8418362654653L250.0562971519688,94.95465572076404L251.1807052947249,303.71074144911944L252.30511343748105,135.86665242129598L253.42952158023718,84.98891293473699L256.80274600850555,78.17024681798168L257.9271541512617,303.71074144911944L259.0515622940178,303.71074144911944L260.175970436774,101.77332183751935L261.30037857953005,90.23404071685648L262.42478672228617,119.60675629672558L264.6736030077984,159.46972744083365L265.7980111505546,82.89086182188922L266.9224192933107,91.28306627328035L269.171235578823,92.85660460791621L270.2956437215791,91.28306627328035L271.4200518643352,84.98891293473699L272.54446000709135,86.56245126937286L273.66886814984747,74.49865737049804L274.7932762926036,303.71074144911944L275.9176844353597,187.7934174642789L278.16650072087197,120.13126907493753L279.29090886362815,303.71074144911944L281.53972514914034,134.81762686487207L286.0373577201649,303.71074144911944L287.161765862921,303.71074144911944L289.4105821484332,303.71074144911944L290.5349902911894,303.71074144911944L291.65939843394546,121.18029463136143L292.78380657670164,89.70952793864453L293.9082147194577,78.69475959619362L295.0326228622139,81.8418362654653L298.40584729048226,74.49865737049804L301.77907171875063,303.71074144911944L302.90347986150675,303.71074144911944L304.0278880042629,303.71074144911944L305.152296147019,102.82234739394326L307.4011124325313,303.71074144911944L309.6499287180435,229.75443972123475L311.8987450035558,303.71074144911944L314.14756128906805,303.71074144911944L316.39637757458024,89.18501516043258L317.5207857173364,303.71074144911944L318.64519386009255,303.71074144911944L319.76960200284867,303.71074144911944L320.8940101456048,303.71074144911944L323.1428264311171,303.71074144911944L324.26723457387317,303.71074144911944L326.5160508593855,303.71074144911944L327.6404590021416,134.29311408666013L328.76486714489766,303.71074144911944L331.01368343040997,92.85660460791621L336.6357241441906,82.89086182188922L338.8845404297029,303.71074144911944L340.00894857245896,85.51342571294894L342.25776485797127,82.36634904367726L343.38217300072733,303.71074144911944L344.50658114348346,94.43014294255208L345.63098928623964,99.15075794645958L346.7553974289957,303.71074144911944L347.87980557175183,90.23404071685648L349.004213714508,303.71074144911944L350.12862185726414,303.71074144911944L351.2530300000202,303.71074144911944L352.3774381427764,303.71074144911944L356.8750707138009,303.71074144911944L357.99947885655706,303.71074144911944L360.24829514206925,80.7928107090414L363.6215195703376,93.90563016434012L368.1191521413622,98.1017323900357L369.2435602841183,78.17024681798168L370.36796842687437,303.71074144911944L371.49237656963055,303.71074144911944L373.7411928551428,303.71074144911944L374.8656009978989,83.41537460010117L375.99000914065505,303.71074144911944L377.11441728341117,303.71074144911944L378.2388254261673,303.71074144911944L379.3632335689234,87.0869640475848L382.7364579971918,103.34686017215517L383.860866139948,303.71074144911944L386.10968242546016,89.18501516043258L388.35849871097247,303.71074144911944L390.6073149964847,303.71074144911944L392.85613128199697,86.0379384911609L395.1049475675092,103.87137295036712L396.22935571026534,104.39588572857907L397.35376385302146,303.71074144911944L398.4781719957776,303.71074144911944L399.60258013853377,303.71074144911944L400.72698828128983,98.62624516824766L401.851396424046,84.98891293473699L402.97580456680214,88.13598960400867L404.1002127095582,84.46440015652503L406.3490289950705,303.71074144911944L408.59784528058276,303.71074144911944L409.7222534233389,133.7686013084482L411.97106970885113,80.26829793082945L414.2198859943634,303.71074144911944L415.3442941371195,303.71074144911944L416.46870227987563,303.71074144911944L417.5931104226318,303.71074144911944L418.71751856538793,303.71074144911944L419.841926708144,303.71074144911944L420.9663348509002,84.46440015652503L422.0907429936563,303.71074144911944L423.2151511364124,88.13598960400867L424.33955927916855,94.95465572076404L425.4639674219247,120.13126907493753L427.7127837074369,303.71074144911944L428.83719185019305,83.41537460010117L431.0860081357053,303.71074144911944L433.3348244212176,303.71074144911944L434.45923256397367,303.71074144911944L435.5836407067298,79.74378515261749L436.708048849486,303.71074144911944L437.83245699224204,303.71074144911944L440.08127327775435,303.71074144911944L441.2056814205105,303.71074144911944L443.4544977060227,303.71074144911944L444.57890584877885,90.23404071685648L445.7033139915349,303.71074144911944L446.8277221342911,303.71074144911944L447.9521302770472,303.71074144911944L450.20094656255947,303.71074144911944L451.3253547053156,93.90563016434012L452.44976284807177,303.71074144911944L453.57417099082784,303.71074144911944L459.1962117046085,91.28306627328035L460.32061984736464,303.71074144911944L462.5694361328769,87.0869640475848L463.693844275633,89.70952793864453L464.8182524183891,303.71074144911944L467.0670687039014,84.98891293473699L468.1914768466575,93.38111738612817L470.44029313216976,303.71074144911944L472.689109417682,83.93988737831309L478.3111501314627,303.71074144911944L479.4355582742188,303.71074144911944L482.8087827024872,89.18501516043258L483.9331908452433,97.05270683361181L485.0575989879994,98.62624516824766L486.18200713075555,95.47916849897594L487.3064152735117,109.11650073248661L488.4308234162678,303.71074144911944L490.6796397017801,303.71074144911944L492.9284559872923,91.28306627328035L495.17727227280454,303.71074144911944L497.42608855831685,303.71074144911944L500.7993129865852,303.71074144911944L501.92372112934135,77.64573403976972L505.2969455576097,303.71074144911944L506.42135370036584,303.71074144911944L507.54576184312197,89.18501516043258L508.6701699858781,303.71074144911944L510.91898627139034,303.71074144911944L512.0433944141465,303.71074144911944L515.4166188424149,303.71074144911944L516.541026985171,303.71074144911944L518.7898432706833,83.93988737831309L522.1630676989516,74.49865737049804L523.2874758417078,78.17024681798168L525.53629212722,100.72429628109543L526.6607002699761,86.0379384911609L527.7851084127323,85.51342571294894L528.9095165554884,86.56245126937286L530.0339246982445,93.38111738612817L531.1583328410006,303.71074144911944L532.2827409837569,303.71074144911944L533.4071491265129,78.17024681798168L534.531557269269,303.71074144911944L535.6559654120252,303.71074144911944L536.7803735547812,303.71074144911944L537.9047816975374,88.13598960400867L539.0291898402936,303.71074144911944L541.2780061258057,303.71074144911944L543.5268224113181,303.71074144911944L544.6512305540741,108.06747517606271L548.0244549823425,87.61147682579671L549.1488631250987,303.71074144911944L553.6464956961232,303.71074144911944L557.0197201243916,303.71074144911944L558.1441282671477,303.71074144911944L560.39294455266,83.93988737831309L561.5173526954161,303.71074144911944L563.7661689809283,74.49865737049804L564.8905771236845,88.13598960400867L566.0149852664406,303.71074144911944L569.388209694709,303.71074144911944L570.5126178374652,90.23404071685648L572.7614341229773,80.26829793082945L577.259066694002,74.49865737049804L578.383474836758,303.71074144911944L580.6322911222703,303.71074144911944L581.7566992650264,303.71074144911944L582.8811074077826,303.71074144911944L584.0055155505386,89.70952793864453" style="fill: none;" fill="none"></path></g></g></g></g></g></g><g transform="translate(50, 377)" clip-path="url(#clip_1)"><clipPath id="clip_1"><rect width="583" height="23"></rect></clipPath><g><g><line x1="10.557362744913622" y1="0" x2="10.557362744913622" y2="5" style="visibility: inherit;" fill="rgb(0, 0, 0)" stroke="rgb(204, 204, 204)" stroke-width="1px"></line><line x1="66.77776988272" y1="0" x2="66.77776988272" y2="5" style="visibility: inherit;" fill="rgb(0, 0, 0)" stroke="rgb(204, 204, 204)" stroke-width="1px"></line><line x1="122.99817702052638" y1="0" x2="122.99817702052638" y2="5" style="visibility: inherit;" fill="rgb(0, 0, 0)" stroke="rgb(204, 204, 204)" stroke-width="1px"></line><line x1="179.21858415833276" y1="0" x2="179.21858415833276" y2="5" style="visibility: inherit;" fill="rgb(0, 0, 0)" stroke="rgb(204, 204, 204)" stroke-width="1px"></line><line x1="235.43899129613914" y1="0" x2="235.43899129613914" y2="5" style="visibility: inherit;" fill="rgb(0, 0, 0)" stroke="rgb(204, 204, 204)" stroke-width="1px"></line><line x1="291.65939843394546" y1="0" x2="291.65939843394546" y2="5" style="visibility: inherit;" fill="rgb(0, 0, 0)" stroke="rgb(204, 204, 204)" stroke-width="1px"></line><line x1="347.87980557175183" y1="0" x2="347.87980557175183" y2="5" style="visibility: inherit;" fill="rgb(0, 0, 0)" stroke="rgb(204, 204, 204)" stroke-width="1px"></line><line x1="404.1002127095582" y1="0" x2="404.1002127095582" y2="5" style="visibility: inherit;" fill="rgb(0, 0, 0)" stroke="rgb(204, 204, 204)" stroke-width="1px"></line><line x1="460.32061984736464" y1="0" x2="460.32061984736464" y2="5" style="visibility: inherit;" fill="rgb(0, 0, 0)" stroke="rgb(204, 204, 204)" stroke-width="1px"></line><line x1="516.541026985171" y1="0" x2="516.541026985171" y2="5" style="visibility: inherit;" fill="rgb(0, 0, 0)" stroke="rgb(204, 204, 204)" stroke-width="1px"></line><line x1="572.7614341229773" y1="0" x2="572.7614341229773" y2="5" style="visibility: inherit;" fill="rgb(0, 0, 0)" stroke="rgb(204, 204, 204)" stroke-width="1px"></line></g><g transform="translate(0, 8)"><text x="10.557362744913622" y="0" dx="0em" dy="0.95em" style="text-anchor: middle; visibility: inherit; font-family: Roboto, sans-serif; font-size: 12px; font-weight: 200;" fill="rgb(33, 33, 33)" stroke="none" stroke-width="1px">0</text><text x="66.77776988272" y="0" dx="0em" dy="0.95em" style="text-anchor: middle; visibility: inherit; font-family: Roboto, sans-serif; font-size: 12px; font-weight: 200;" fill="rgb(33, 33, 33)" stroke="none" stroke-width="1px">50</text><text x="122.99817702052638" y="0" dx="0em" dy="0.95em" style="text-anchor: middle; visibility: inherit; font-family: Roboto, sans-serif; font-size: 12px; font-weight: 200;" fill="rgb(33, 33, 33)" stroke="none" stroke-width="1px">100</text><text x="179.21858415833276" y="0" dx="0em" dy="0.95em" style="text-anchor: middle; visibility: inherit; font-family: Roboto, sans-serif; font-size: 12px; font-weight: 200;" fill="rgb(33, 33, 33)" stroke="none" stroke-width="1px">150</text><text x="235.43899129613914" y="0" dx="0em" dy="0.95em" style="text-anchor: middle; visibility: inherit; font-family: Roboto, sans-serif; font-size: 12px; font-weight: 200;" fill="rgb(33, 33, 33)" stroke="none" stroke-width="1px">200</text><text x="291.65939843394546" y="0" dx="0em" dy="0.95em" style="text-anchor: middle; visibility: inherit; font-family: Roboto, sans-serif; font-size: 12px; font-weight: 200;" fill="rgb(33, 33, 33)" stroke="none" stroke-width="1px">250</text><text x="347.87980557175183" y="0" dx="0em" dy="0.95em" style="text-anchor: middle; visibility: inherit; font-family: Roboto, sans-serif; font-size: 12px; font-weight: 200;" fill="rgb(33, 33, 33)" stroke="none" stroke-width="1px">300</text><text x="404.1002127095582" y="0" dx="0em" dy="0.95em" style="text-anchor: middle; visibility: inherit; font-family: Roboto, sans-serif; font-size: 12px; font-weight: 200;" fill="rgb(33, 33, 33)" stroke="none" stroke-width="1px">350</text><text x="460.32061984736464" y="0" dx="0em" dy="0.95em" style="text-anchor: middle; visibility: inherit; font-family: Roboto, sans-serif; font-size: 12px; font-weight: 200;" fill="rgb(33, 33, 33)" stroke="none" stroke-width="1px">400</text><text x="516.541026985171" y="0" dx="0em" dy="0.95em" style="text-anchor: middle; visibility: inherit; font-family: Roboto, sans-serif; font-size: 12px; font-weight: 200;" fill="rgb(33, 33, 33)" stroke="none" stroke-width="1px">450</text><text x="572.7614341229773" y="0" dx="0em" dy="0.95em" style="text-anchor: middle; visibility: inherit; font-family: Roboto, sans-serif; font-size: 12px; font-weight: 200;" fill="rgb(33, 33, 33)" stroke="none" stroke-width="1px">500</text></g><line x1="0" y1="0" x2="583" y2="0" fill="rgb(0, 0, 0)" stroke="rgb(204, 204, 204)" stroke-width="1px"></line></g></g></g></g></svg>