<svg viewBox="0 0 633 400" xmlns="http://www.w3.org/2000/svg"><g><g><g><g><g><line x1="50" y1="356.16201927031426" x2="45" y2="356.16201927031426" style="visibility: inherit;" fill="rgb(0, 0, 0)" stroke="rgb(204, 204, 204)" stroke-width="1px"></line><line x1="50" y1="303.71074144911944" x2="45" y2="303.71074144911944" style="visibility: inherit;" fill="rgb(0, 0, 0)" stroke="rgb(204, 204, 204)" stroke-width="1px"></line><line x1="50" y1="251.2594636279246" x2="45" y2="251.2594636279246" style="visibility: inherit;" fill="rgb(0, 0, 0)" stroke="rgb(204, 204, 204)" stroke-width="1px"></line><line x1="50" y1="198.80818580672974" x2="45" y2="198.80818580672974" style="visibility: inherit;" fill="rgb(0, 0, 0)" stroke="rgb(204, 204, 204)" stroke-width="1px"></line><line x1="50" y1="146.35690798553495" x2="45" y2="146.35690798553495" style="visibility: inherit;" fill="rgb(0, 0, 0)" stroke="rgb(204, 204, 204)" stroke-width="1px"></line><line x1="50" y1="93.90563016434012" x2="45" y2="93.90563016434012" style="visibility: inherit;" fill="rgb(0, 0, 0)" stroke="rgb(204, 204, 204)" stroke-width="1px"></line><line x1="50" y1="41.45435234314527" x2="45" y2="41.45435234314527" style="visibility: inherit;" fill="rgb(0, 0, 0)" stroke="rgb(204, 204, 204)" stroke-width="1px"></line></g><g transform="translate(40, 0)"><text x="0" y="356.16201927031426" dx="0em" dy="0.3em" style="text-anchor: end; visibility: inherit; font-family: Roboto, sans-serif; font-size: 12px; font-weight: 200;" fill="rgb(33, 33, 33)" stroke="none" stroke-width="1px">-600</text><text x="0" y="303.71074144911944" dx="0em" dy="0.3em" style="text-anchor: end; visibility: inherit; font-family: Roboto, sans-serif; font-size: 12px; font-weight: 200;" fill="rgb(33, 33, 33)" stroke="none" stroke-width="1px">-500</text><text x="0" y="251.2594636279246" dx="0em" dy="0.3em" style="text-anchor: end; visibility: inherit; font-family: Roboto, sans-serif; font-size: 12px; font-weight: 200;" fill="rgb(33, 33, 33)" stroke="none" stroke-width="1px">-400</text><text x="0" y="198.80818580672974" dx="0em" dy="0.3em" style="text-anchor: end; visibility: inherit; font-family: Roboto, sans-serif; font-size: 12px; font-weight: 200;" fill="rgb(33, 33, 33)" stroke="none" stroke-width="1px">-300</text><text x="0" y="146.35690798553495" dx="0em" dy="0.3em" style="text-anchor: end; visibility: inherit; font-family: Roboto, sans-serif; font-size: 12px; font-weight: 200;" fill="rgb(33, 33, 33)" stroke="none" stroke-width="1px">-200</text><text x="0" y="93.90563016434012" dx="0em" dy="0.3em" style="text-anchor: end; visibility: inherit; font-family: Roboto, sans-serif; font-size: 12px; font-weight: 200;" fill="rgb(33, 33, 33)" stroke="none" stroke-width="1px">-100</text><text x="0" y="41.45435234314527" dx="0em" dy="0.3em" style="text-anchor: end; visibility: inherit; font-family: Roboto, sans-serif; font-size: 12px; font-weight: 200;" fill="rgb(33, 33, 33)" stroke="none" stroke-width="1px">0</text></g><line x1="50" y1="0" x2="50" y2="377" fill="rgb(0, 0, 0)" stroke="rgb(204, 204, 204)" stroke-width="1px"></line></g></g><g transform="translate(50, 0)" clip-path="url(#clip_0)"><clipPath id="clip_0"><rect width="583" height="377"></rect></clipPath><g><g><g><line x1="10.557362744913622" y1="0" x2="10.557362744913622" y2="377" fill="rgb(0, 0, 0)" stroke="rgb(66, 66, 66)" stroke-width="1px" opacity="0.25"></line><line x1="66.77776988272" y1="0" x2="66.77776988272" y2="377" fill="rgb(0, 0, 0)" stroke="rgb(66, 66, 66)" stroke-width="1px" opacity="0.25"></line><line x1="122.99817702052638" y1="0" x2="122.99817702052638" y2="377" fill="rgb(0, 0, 0)" stroke="rgb(66, 66, 66)" stroke-width="1px" opacity="0.25"></line><line x1="179.21858415833276" y1="0" x2="179.21858415833276" y2="377" fill="rgb(0, 0, 0)" stroke="rgb(66, 66, 66)" stroke-width="1px" opacity="0.25"></line><line x1="235.43899129613914" y1="0" x2="235.43899129613914" y2="377" fill="rgb(0, 0, 0)" stroke="rgb(66, 66, 66)" stroke-width="1px" opacity="0.25"></line><line x1="291.65939843394546" y1="0" x2="291.65939843394546" y2="377" fill="rgb(0, 0, 0)" stroke="rgb(66, 66, 66)" stroke-width="1px" opacity="0.25"></line><line x1="347.87980557175183" y1="0" x2="347.87980557175183" y2="377" fill="rgb(0, 0, 0)" stroke="rgb(66, 66, 66)" stroke-width="1px" opacity="0.25"></line><line x1="404.1002127095582" y1="0" x2="404.1002127095582" y2="377" fill="rgb(0, 0, 0)" stroke="rgb(66, 66, 66)" stroke-width="1px" opacity="0.25"></line><line x1="460.32061984736464" y1="0" x2="460.32061984736464" y2="377" fill="rgb(0, 0, 0)" stroke="rgb(66, 66, 66)" stroke-width="1px" opacity="0.25"></line><line x1="516.541026985171" y1="0" x2="516.541026985171" y2="377" fill="rgb(0, 0, 0)" stroke="rgb(66, 66, 66)" stroke-width="1px" opacity="0.25"></line><line x1="572.7614341229773" y1="0" x2="572.7614341229773" y2="377" fill="rgb(0, 0, 0)" stroke="rgb(66, 66, 66)" stroke-width="1px" opacity="0.25"></line></g><g><line x1="0" y1="356.16201927031426" x2="583" y2="356.16201927031426" fill="rgb(0, 0, 0)" stroke="rgb(66, 66, 66)" stroke-width="1px" opacity="0.25"></line><line x1="0" y1="303.71074144911944" x2="583" y2="303.71074144911944" fill="rgb(0, 0, 0)" stroke="rgb(66, 66, 66)" stroke-width="1px" opacity="0.25"></line><line x1="0" y1="251.2594636279246" x2="583" y2="251.2594636279246" fill="rgb(0, 0, 0)" stroke="rgb(66, 66, 66)" stroke-width="1px" opacity="0.25"></line><line x1="0" y1="198.80818580672974" x2="583" y2="198.80818580672974" fill="rgb(0, 0, 0)" stroke="rgb(66, 66, 66)" stroke-width="1px" opacity="0.25"></line><line x1="0" y1="146.35690798553495" x2="583" y2="146.35690798553495" fill="rgb(0, 0, 0)" stroke="rgb(66, 66, 66)" stroke-width="1px" opacity="0.25"></line><line x1="0" y1="93.90563016434012" x2="583" y2="93.90563016434012" fill="rgb(0, 0, 0)" stroke="rgb(66, 66, 66)" stroke-width="1px" opacity="0.25"></line><line x1="0" y1="41.45435234314527" x2="583" y2="41.45435234314527" fill="rgb(0, 0, 0)" stroke="rgb(66, 66, 66)" stroke-width="1px" opacity="0.25"></line></g></g></g><g><g><line x1="0" y1="41.45435234314527" x2="583" y2="41.45435234314527" fill="rgb(0, 0, 0)" stroke="rgb(153, 153, 153)" stroke-width="1.5px"></line></g></g><g><g><line x1="10.557362744913622" y1="0" x2="10.557362744913622" y2="377" fill="rgb(0, 0, 0)" stroke="rgb(153, 153, 153)" stroke-width="1.5px"></line></g></g><g><g><g><g><g><path stroke="rgb(187, 187, 187)" stroke-width="2px" d="M11.681770887669751,303.71074144911944L12.806179030425877,129.5724990827526L13.930587173182007,190.94049413355057L15.054995315938132,180.97475134752352L16.17940345869426,137.96470353414375L17.303811601450388,158.42070188440974L18.428219744206515,155.27362521513805L19.552627886962643,158.42070188440974L20.67703602971877,186.219879129643L21.8014441724749,170.48449578328456L22.925852315231023,303.71074144911944L24.050260457987154,263.3232575267994L25.17466860074328,303.71074144911944L26.29907674349941,188.3179302424908L27.423484886255533,247.58787418044096L28.547893029011664,220.8377224916316L29.672301171767792,214.54356915308819L30.79670931452392,303.71074144911944L31.921117457280044,226.607363051963L33.04552560003618,239.72018250726174L34.1699337427923,303.71074144911944L35.29434188554843,177.82767467825184L36.41875002830456,179.92572579109967L37.54315817106068,217.16613304414795L38.667566313816806,303.71074144911944L39.79197445657294,206.15136470169705L40.91638259932907,204.05331358884928L42.04079074208519,147.40593354195883L43.165198884841324,150.55301021123051L44.289607027597455,132.7195757520243L45.41401517035357,199.85721136315365L46.5384233131097,165.76388077937702L47.662831455865835,168.9109574486487L48.78723959862196,154.7491124369261L49.91164774137809,172.0580341179204L51.036055884134214,133.24408853023624L52.160464026890345,134.29311408666013L53.28487216964647,152.65106132407834L54.40928031240259,160.51875299725756L55.533688455158725,137.44019075593184L56.658096597914856,182.54828968215938L57.78250474067098,232.90151639050643L58.90691288342711,248.63689973686488L60.031321026183235,129.04798630454067L61.15572916893936,205.10233914527316L62.28013731169549,174.68059800898016L63.404545454451615,197.2346474720939L64.52895359720775,148.97947187659472L65.65336173996387,127.99896074811676L66.77776988272,161.56777855368142L67.90217802547613,240.24469528547368L69.02658616823226,112.78809017997025L70.15099431098838,174.68059800898016L71.27540245374452,148.97947187659472L72.39981059650063,145.30788242911106L73.52421873925677,141.11178020341546L74.64862688201289,132.19506297381236L75.77303502476903,154.7491124369261L76.89744316752514,107.54296239785076L78.02185131028128,129.04798630454067L79.1462594530374,118.55773074030166L80.27066759579354,101.77332183751935L81.39507573854966,156.32265077156197L82.51948388130579,127.4744479699048L83.64389202406191,146.8814207637469L84.76830016681804,134.29311408666013L85.89270830957418,145.83239520732297L87.0171164523303,105.96942406321494L88.14152459508644,162.61680411010533L89.26593273784255,113.31260295818221L90.39034088059867,175.72962356540407L91.51474902335481,110.69003906712244L92.63915716611093,169.43547022686064L93.76356530886707,153.7000868805022L94.88797345162318,151.60203576765443L96.01238159437932,138.4892163123557L97.13678973713544,127.4744479699048L98.26119787989157,154.22459965871417L99.3856060226477,133.7686013084482L100.51001416540383,102.82234739394326L101.63442230815996,129.5724990827526L102.75883045091608,128.5234735263287L103.88323859367222,137.96470353414375L105.00764673642834,171.53352133970847L106.13205487918447,130.62152463917647L107.25646302194059,103.34686017215517L108.38087116469671,123.80285852242116L109.50527930745285,101.24880905930739L110.62968745020898,120.13126907493753L111.75409559296511,157.37167632798585L112.87850373572124,111.73906462354635L114.00291187847735,107.54296239785076L115.12732002123349,112.2635774017583L116.25172816398961,99.67527072467153L117.37613630674575,110.69003906712244L118.50054444950187,113.83711573639417L119.624952592258,101.24880905930739L120.74936073501412,144.78336965089912L121.87376887777025,104.92039850679103L122.99817702052638,104.92039850679103L124.12258516328251,123.2783457442092L125.24699330603863,124.32737130063312L126.37140144879476,144.25885687268715L127.4958095915509,102.2978346157313L128.62021773430703,130.62152463917647L129.74462587706316,122.2293201877853L130.86903401981928,100.19978350288349L131.9934421625754,102.2978346157313L133.11785030533153,121.18029463136143L134.24225844808765,127.4744479699048L135.36666659084378,130.09701186096453L136.49107473359993,137.44019075593184L137.61548287635603,120.13126907493753L138.73989101911215,147.9304463201708L139.8642991618683,123.80285852242116L140.98870730462443,130.09701186096453L142.11311544738055,95.47916849897594L143.23752359013668,105.96942406321494L144.3619317328928,139.5382418687796L145.48633987564892,139.01372909056767L146.61074801840505,161.56777855368142L147.7351561611612,114.36162851460612L148.8595643039173,172.0580341179204L149.98397244667345,131.67055019560038L151.10838058942957,86.56245126937286L152.23278873218572,98.62624516824766L153.35719687494182,114.88614129281802L154.48160501769794,137.44019075593184L155.6060131604541,104.92039850679103L156.7304213032102,116.4596796274539L157.85482944596635,119.60675629672558L158.97923758872247,114.88614129281802L160.10364573147857,139.5382418687796L161.22805387423472,157.8961891061978L162.35246201699084,135.86665242129598L163.476870159747,109.64101351069857L164.6012783025031,108.06747517606271L165.7256864452592,118.55773074030166L166.85009458801537,118.03321796208975L167.97450273077146,104.92039850679103L169.09891087352761,207.20039025812093L170.22331901628374,104.39588572857907L171.34772715903986,110.16552628891053L172.472135301796,96.0036812771879L173.5965434445521,108.06747517606271L174.72095158730826,115.93516684924194L175.8453597300644,98.62624516824766L176.96976787282048,100.19978350288349L178.09417601557664,85.51342571294894L179.21858415833276,143.20983131626326L180.34299230108888,113.83711573639417L181.467400443845,105.96942406321494L182.59180858660116,103.87137295036712L183.71621672935728,120.65578185314948L184.84062487211338,122.2293201877853L185.96503301486953,99.15075794645958L187.08944115762566,156.84716354977394L188.21384930038178,103.34686017215517L189.3382574431379,137.96470353414375L190.46266558589403,99.15075794645958L191.58707372865018,103.87137295036712L192.71148187140628,125.37639685705703L193.83589001416243,122.2293201877853L194.96029815691855,136.39116519950792L196.08470629967465,100.72429628109543L197.2091144424308,115.41065407102998L198.33352258518693,109.64101351069857L199.45793072794308,101.77332183751935L200.58233887069918,130.62152463917647L201.7067470134553,178.35218745646378L202.83115515621145,93.38111738612817L203.95556329896755,110.16552628891053L205.0799714417237,110.16552628891053L206.20437958447982,98.1017323900357L207.32878772723592,108.06747517606271L208.45319586999207,124.32737130063312L209.5776040127482,120.65578185314948L210.70201215550435,98.62624516824766L211.82642029826044,105.44491128500299L212.95082844101657,115.41065407102998L214.07523658377272,94.43014294255208L215.19964472652882,98.62624516824766L216.32405286928497,120.65578185314948L217.4484610120411,125.90090963526897L218.57286915479725,103.34686017215517L219.69727729755334,96.0036812771879L220.82168544030947,111.2145518453344L221.94609358306562,100.19978350288349L223.07050172582174,112.78809017997025L224.19490986857787,100.72429628109543L225.319318011334,96.52819405539985L226.44372615409011,103.34686017215517L227.56813429684624,97.57721961182376L228.69254243960236,100.19978350288349L229.81695058235852,122.75383296599726L230.94135872511464,92.33209182970425L232.06576686787074,99.67527072467153L233.1901750106269,108.59198795427467L234.314583153383,108.06747517606271L235.43899129613914,104.92039850679103L236.56339943889526,107.0184496196388L237.68780758165138,122.75383296599726L238.81221572440754,111.2145518453344L239.93662386716363,96.52819405539985L241.06103200991978,111.73906462354635L242.1854401526759,112.78809017997025L243.309848295432,102.82234739394326L244.43425643818816,97.05270683361181L245.55866458094428,107.0184496196388L246.68307272370043,116.98419240566585L247.80748086645653,99.67527072467153L248.93188900921268,101.24880905930739L250.0562971519688,109.64101351069857L251.1807052947249,89.70952793864453L252.30511343748105,113.83711573639417L253.42952158023718,109.64101351069857L254.55392972299333,108.59198795427467L255.67833786574943,111.2145518453344L256.80274600850555,107.0184496196388L257.9271541512617,94.43014294255208L259.0515622940178,177.82767467825184L260.175970436774,105.96942406321494L261.30037857953005,90.23404071685648L262.42478672228617,98.62624516824766L263.54919486504235,128.5234735263287L264.6736030077984,110.16552628891053L265.7980111505546,124.32737130063312L266.9224192933107,125.37639685705703L268.04682743606685,96.0036812771879L269.171235578823,94.95465572076404L270.2956437215791,107.0184496196388L271.4200518643352,119.08224351851362L272.54446000709135,113.31260295818221L273.66886814984747,109.64101351069857L274.7932762926036,111.73906462354635L275.9176844353597,94.95465572076404L277.04209257811584,104.39588572857907L278.16650072087197,128.5234735263287L279.29090886362815,92.33209182970425L280.4153170063842,88.66050238222063L281.53972514914034,103.34686017215517L282.6641332918965,125.90090963526897L283.78854143465264,124.32737130063312L284.91294957740877,95.47916849897594L286.0373577201649,120.13126907493753L287.161765862921,98.62624516824766L288.2861740056771,101.24880905930739L289.4105821484332,103.34686017215517L290.5349902911894,144.25885687268715L291.65939843394546,95.47916849897594L292.78380657670164,95.47916849897594L293.9082147194577,126.94993519169284L295.0326228622139,106.49393684142689L296.15703100497,115.41065407102998L297.28143914772613,97.05270683361181L298.40584729048226,101.77332183751935L299.5302554332384,93.90563016434012L300.6546635759945,98.1017323900357L301.77907171875063,107.0184496196388L302.90347986150675,109.11650073248661L304.0278880042629,93.38111738612817L305.152296147019,104.92039850679103L306.2767042897751,114.88614129281802L307.4011124325313,96.52819405539985L308.52552057528743,108.06747517606271L309.6499287180435,95.47916849897594L310.7743368607997,115.93516684924194L311.8987450035558,116.98419240566585L313.02315314631187,126.42542241348089L314.14756128906805,93.38111738612817L315.2719694318242,121.18029463136143L316.39637757458024,119.60675629672558L317.5207857173364,103.87137295036712L318.64519386009255,127.99896074811676L319.76960200284867,123.2783457442092L320.8940101456048,102.82234739394326L322.0184182883609,114.88614129281802L323.1428264311171,105.44491128500299L324.26723457387317,103.87137295036712L325.3916427166293,89.18501516043258L326.5160508593855,108.06747517606271L327.6404590021416,106.49393684142689L328.76486714489766,119.60675629672558L329.88927528765385,112.78809017997025L331.01368343040997,123.80285852242116L332.13809157316604,111.2145518453344L333.2624997159222,114.88614129281802L334.38690785867834,97.05270683361181L335.5113160014344,129.04798630454067L336.6357241441906,124.85188407884507L337.7601322869467,103.87137295036712L338.8845404297029,122.2293201877853L340.00894857245896,104.92039850679103L341.1333567152151,116.98419240566585L342.25776485797127,119.60675629672558L343.38217300072733,107.54296239785076L344.50658114348346,139.01372909056767L345.63098928623964,97.05270683361181L346.7553974289957,92.85660460791621L347.87980557175183,107.0184496196388L349.004213714508,110.16552628891053L350.12862185726414,115.41065407102998L351.2530300000202,110.16552628891053L352.3774381427764,139.5382418687796L353.5018462855325,152.1265485458664L354.6262544282886,106.49393684142689L355.75066257104476,90.23404071685648L356.8750707138009,98.62624516824766L357.99947885655706,100.72429628109543L359.12388699931313,113.31260295818221L360.24829514206925,103.87137295036712L361.37270328482543,104.39588572857907L362.4971114275815,116.98419240566585L363.6215195703376,90.75855349506844L364.7459277130938,128.5234735263287L365.8703358558499,122.2293201877853L366.994743998606,116.98419240566585L368.1191521413622,101.24880905930739L369.2435602841183,107.54296239785076L370.36796842687437,97.57721961182376L371.49237656963055,92.33209182970425L372.6167847123867,110.69003906712244L373.7411928551428,124.32737130063312L374.8656009978989,113.83711573639417L375.99000914065505,196.18562191567003L377.11441728341117,143.7343440944752L378.2388254261673,93.38111738612817L379.3632335689234,95.47916849897594L380.4876417116796,111.73906462354635L381.61204985443567,119.08224351851362L382.7364579971918,115.41065407102998L383.860866139948,99.15075794645958L384.98527428270404,132.19506297381236L386.10968242546016,92.33209182970425L387.23409056821635,99.67527072467153L388.35849871097247,114.88614129281802L389.4829068537286,124.85188407884507L390.6073149964847,104.92039850679103L391.73172313924084,99.67527072467153L392.85613128199697,102.82234739394326L393.9805394247531,112.78809017997025L395.1049475675092,111.2145518453344L396.22935571026534,89.70952793864453L397.35376385302146,126.94993519169284L398.4781719957776,101.77332183751935L399.60258013853377,100.19978350288349L400.72698828128983,96.0036812771879L401.851396424046,153.7000868805022L402.97580456680214,99.67527072467153L404.1002127095582,99.15075794645958L405.2246208523144,98.1017323900357L406.3490289950705,108.59198795427467L407.4734371378266,85.51342571294894L408.59784528058276,109.11650073248661L409.7222534233389,111.2145518453344L410.846661566095,109.64101351069857L411.97106970885113,94.95465572076404L413.09547785160726,105.44491128500299L414.2198859943634,87.0869640475848L415.3442941371195,97.57721961182376L416.46870227987563,99.67527072467153L417.5931104226318,105.44491128500299L418.71751856538793,100.19978350288349L419.841926708144,87.0869640475848L420.9663348509002,102.82234739394326L422.0907429936563,122.2293201877853L423.2151511364124,94.43014294255208L424.33955927916855,107.0184496196388L425.4639674219247,137.44019075593184L426.58837556468075,105.44491128500299L427.7127837074369,87.0869640475848L428.83719185019305,88.13598960400867L429.96159999294923,101.77332183751935L431.0860081357053,106.49393684142689L432.2104162784614,98.1017323900357L433.3348244212176,119.08224351851362" style="fill: none;" fill="none"></path></g><g><path stroke="rgb(255, 112, 67)" stroke-width="2px" d="M11.681770887669751,303.71074144911944L12.806179030425877,120.65578185314948L13.930587173182007,210.87197970560456L15.054995315938132,150.02849743301857L16.17940345869426,244.44079751116928L17.303811601450388,173.63157245255624L18.428219744206515,154.22459965871417L19.552627886962643,156.84716354977394L20.67703602971877,109.64101351069857L21.8014441724749,174.1560852307682L22.925852315231023,172.0580341179204L24.050260457987154,185.17085357321912L25.17466860074328,147.9304463201708L26.29907674349941,172.58254689613238L27.423484886255533,264.3722830832233L28.547893029011664,278.00961531673397L29.672301171767792,263.3232575267994L30.79670931452392,249.16141251507682L31.921117457280044,173.1070596743443L33.04552560003618,196.18562191567003L34.1699337427923,139.5382418687796L35.29434188554843,145.83239520732297L36.41875002830456,303.71074144911944L37.54315817106068,167.86193189222485L38.667566313816806,196.71013469388203L39.79197445657294,259.65166807931575L40.91638259932907,225.03382471732718L42.04079074208519,145.83239520732297L43.165198884841324,211.39649248381656L44.289607027597455,303.71074144911944L45.41401517035357,164.71485522295316L46.5384233131097,161.04326577546948L47.662831455865835,166.28839355758896L48.78723959862196,214.54356915308819L49.91164774137809,150.55301021123051L51.036055884134214,155.79813799335002L52.160464026890345,195.6611091374581L53.28487216964647,189.3669557989147L54.40928031240259,144.25885687268715L55.533688455158725,126.94993519169284L56.658096597914856,143.20983131626326L57.78250474067098,134.29311408666013L58.90691288342711,125.90090963526897L60.031321026183235,145.83239520732297L61.15572916893936,144.78336965089912L62.28013731169549,140.58726742520352L63.404545454451615,148.45495909838274L64.52895359720775,160.51875299725756L65.65336173996387,132.19506297381236L66.77776988272,146.35690798553495L67.90217802547613,158.42070188440974L69.02658616823226,139.01372909056767L70.15099431098838,118.55773074030166L71.27540245374452,144.78336965089912L72.39981059650063,141.11178020341546L73.52421873925677,148.97947187659472L74.64862688201289,161.56777855368142L75.77303502476903,111.2145518453344L76.89744316752514,120.65578185314948L78.02185131028128,167.86193189222485L79.1462594530374,142.6853185380513L80.27066759579354,163.1413168883173L81.39507573854966,109.11650073248661L82.51948388130579,136.39116519950792L83.64389202406191,140.06275464699158L84.76830016681804,135.86665242129598L85.89270830957418,163.1413168883173L87.0171164523303,139.5382418687796L88.14152459508644,114.88614129281802L89.26593273784255,160.51875299725756L90.39034088059867,169.95998300507262L91.51474902335481,120.13126907493753L92.63915716611093,152.65106132407834L93.76356530886707,137.44019075593184L94.88797345162318,144.78336965089912L96.01238159437932,132.19506297381236L97.13678973713544,126.94993519169284L98.26119787989157,115.41065407102998L99.3856060226477,122.75383296599726L100.51001416540383,114.36162851460612L101.63442230815996,144.78336965089912L102.75883045091608,105.96942406321494L103.88323859367222,141.11178020341546L105.00764673642834,99.67527072467153L106.13205487918447,123.80285852242116L107.25646302194059,105.96942406321494L108.38087116469671,122.2293201877853L109.50527930745285,136.39116519950792L110.62968745020898,98.62624516824766L111.75409559296511,110.16552628891053L112.87850373572124,132.7195757520243L114.00291187847735,114.88614129281802L115.12732002123349,103.87137295036712L116.25172816398961,113.83711573639417L117.37613630674575,106.49393684142689L118.50054444950187,125.90090963526897L119.624952592258,92.85660460791621L120.74936073501412,96.0036812771879L121.87376887777025,124.85188407884507L122.99817702052638,104.39588572857907L124.12258516328251,113.83711573639417L125.24699330603863,123.80285852242116L126.37140144879476,99.67527072467153L127.4958095915509,97.57721961182376L128.62021773430703,97.05270683361181L129.74462587706316,120.65578185314948L130.86903401981928,135.34213964308404L131.9934421625754,105.44491128500299L133.11785030533153,121.70480740957339L134.24225844808765,133.24408853023624L135.36666659084378,106.49393684142689L136.49107473359993,93.90563016434012L137.61548287635603,110.16552628891053L138.73989101911215,109.11650073248661L139.8642991618683,102.2978346157313L140.98870730462443,126.94993519169284L142.11311544738055,303.71074144911944L143.23752359013668,146.8814207637469L144.3619317328928,113.31260295818221L145.48633987564892,109.64101351069857L146.61074801840505,108.59198795427467L147.7351561611612,105.44491128500299L148.8595643039173,104.39588572857907L149.98397244667345,122.75383296599726L151.10838058942957,127.4744479699048L152.23278873218572,95.47916849897594L153.35719687494182,99.15075794645958L154.48160501769794,109.11650073248661L155.6060131604541,108.06747517606271L156.7304213032102,95.47916849897594L157.85482944596635,108.06747517606271L158.97923758872247,107.0184496196388L160.10364573147857,122.2293201877853L161.22805387423472,123.80285852242116L162.35246201699084,110.16552628891053L163.476870159747,132.19506297381236L164.6012783025031,105.44491128500299L165.7256864452592,122.2293201877853L166.85009458801537,103.87137295036712L167.97450273077146,123.2783457442092L169.09891087352761,155.27362521513805L170.22331901628374,205.10233914527316L171.34772715903986,102.82234739394326L172.472135301796,128.5234735263287L173.5965434445521,153.17557410229028L174.72095158730826,108.06747517606271L175.8453597300644,303.71074144911944L176.96976787282048,112.78809017997025L178.09417601557664,102.82234739394326L179.21858415833276,122.2293201877853L180.34299230108888,143.7343440944752L181.467400443845,98.62624516824766L182.59180858660116,123.2783457442092L183.71621672935728,142.16080575983935L184.84062487211338,105.44491128500299L185.96503301486953,134.29311408666013L187.08944115762566,118.55773074030166L188.21384930038178,135.34213964308404L189.3382574431379,175.2051107871921L190.46266558589403,90.75855349506844L191.58707372865018,99.67527072467153L192.71148187140628,108.06747517606271L193.83589001416243,105.44491128500299L194.96029815691855,126.42542241348089L196.08470629967465,107.54296239785076" style="fill: none;" fill="none"></path></g></g></g></g></g></g><g transform="translate(50, 377)" clip-path="url(#clip_1)"><clipPath id="clip_1"><rect width="583" height="23"></rect></clipPath><g><g><line x1="10.557362744913622" y1="0" x2="10.557362744913622" y2="5" style="visibility: inherit;" fill="rgb(0, 0, 0)" stroke="rgb(204, 204, 204)" stroke-width="1px"></line><line x1="66.77776988272" y1="0" x2="66.77776988272" y2="5" style="visibility: inherit;" fill="rgb(0, 0, 0)" stroke="rgb(204, 204, 204)" stroke-width="1px"></line><line x1="122.99817702052638" y1="0" x2="122.99817702052638" y2="5" style="visibility: inherit;" fill="rgb(0, 0, 0)" stroke="rgb(204, 204, 204)" stroke-width="1px"></line><line x1="179.21858415833276" y1="0" x2="179.21858415833276" y2="5" style="visibility: inherit;" fill="rgb(0, 0, 0)" stroke="rgb(204, 204, 204)" stroke-width="1px"></line><line x1="235.43899129613914" y1="0" x2="235.43899129613914" y2="5" style="visibility: inherit;" fill="rgb(0, 0, 0)" stroke="rgb(204, 204, 204)" stroke-width="1px"></line><line x1="291.65939843394546" y1="0" x2="291.65939843394546" y2="5" style="visibility: inherit;" fill="rgb(0, 0, 0)" stroke="rgb(204, 204, 204)" stroke-width="1px"></line><line x1="347.87980557175183" y1="0" x2="347.87980557175183" y2="5" style="visibility: inherit;" fill="rgb(0, 0, 0)" stroke="rgb(204, 204, 204)" stroke-width="1px"></line><line x1="404.1002127095582" y1="0" x2="404.1002127095582" y2="5" style="visibility: inherit;" fill="rgb(0, 0, 0)" stroke="rgb(204, 204, 204)" stroke-width="1px"></line><line x1="460.32061984736464" y1="0" x2="460.32061984736464" y2="5" style="visibility: inherit;" fill="rgb(0, 0, 0)" stroke="rgb(204, 204, 204)" stroke-width="1px"></line><line x1="516.541026985171" y1="0" x2="516.541026985171" y2="5" style="visibility: inherit;" fill="rgb(0, 0, 0)" stroke="rgb(204, 204, 204)" stroke-width="1px"></line><line x1="572.7614341229773" y1="0" x2="572.7614341229773" y2="5" style="visibility: inherit;" fill="rgb(0, 0, 0)" stroke="rgb(204, 204, 204)" stroke-width="1px"></line></g><g transform="translate(0, 8)"><text x="10.557362744913622" y="0" dx="0em" dy="0.95em" style="text-anchor: middle; visibility: inherit; font-family: Roboto, sans-serif; font-size: 12px; font-weight: 200;" fill="rgb(33, 33, 33)" stroke="none" stroke-width="1px">0</text><text x="66.77776988272" y="0" dx="0em" dy="0.95em" style="text-anchor: middle; visibility: inherit; font-family: Roboto, sans-serif; font-size: 12px; font-weight: 200;" fill="rgb(33, 33, 33)" stroke="none" stroke-width="1px">50</text><text x="122.99817702052638" y="0" dx="0em" dy="0.95em" style="text-anchor: middle; visibility: inherit; font-family: Roboto, sans-serif; font-size: 12px; font-weight: 200;" fill="rgb(33, 33, 33)" stroke="none" stroke-width="1px">100</text><text x="179.21858415833276" y="0" dx="0em" dy="0.95em" style="text-anchor: middle; visibility: inherit; font-family: Roboto, sans-serif; font-size: 12px; font-weight: 200;" fill="rgb(33, 33, 33)" stroke="none" stroke-width="1px">150</text><text x="235.43899129613914" y="0" dx="0em" dy="0.95em" style="text-anchor: middle; visibility: inherit; font-family: Roboto, sans-serif; font-size: 12px; font-weight: 200;" fill="rgb(33, 33, 33)" stroke="none" stroke-width="1px">200</text><text x="291.65939843394546" y="0" dx="0em" dy="0.95em" style="text-anchor: middle; visibility: inherit; font-family: Roboto, sans-serif; font-size: 12px; font-weight: 200;" fill="rgb(33, 33, 33)" stroke="none" stroke-width="1px">250</text><text x="347.87980557175183" y="0" dx="0em" dy="0.95em" style="text-anchor: middle; visibility: inherit; font-family: Roboto, sans-serif; font-size: 12px; font-weight: 200;" fill="rgb(33, 33, 33)" stroke="none" stroke-width="1px">300</text><text x="404.1002127095582" y="0" dx="0em" dy="0.95em" style="text-anchor: middle; visibility: inherit; font-family: Roboto, sans-serif; font-size: 12px; font-weight: 200;" fill="rgb(33, 33, 33)" stroke="none" stroke-width="1px">350</text><text x="460.32061984736464" y="0" dx="0em" dy="0.95em" style="text-anchor: middle; visibility: inherit; font-family: Roboto, sans-serif; font-size: 12px; font-weight: 200;" fill="rgb(33, 33, 33)" stroke="none" stroke-width="1px">400</text><text x="516.541026985171" y="0" dx="0em" dy="0.95em" style="text-anchor: middle; visibility: inherit; font-family: Roboto, sans-serif; font-size: 12px; font-weight: 200;" fill="rgb(33, 33, 33)" stroke="none" stroke-width="1px">450</text><text x="572.7614341229773" y="0" dx="0em" dy="0.95em" style="text-anchor: middle; visibility: inherit; font-family: Roboto, sans-serif; font-size: 12px; font-weight: 200;" fill="rgb(33, 33, 33)" stroke="none" stroke-width="1px">500</text></g><line x1="0" y1="0" x2="583" y2="0" fill="rgb(0, 0, 0)" stroke="rgb(204, 204, 204)" stroke-width="1px"></line></g></g></g></g></svg>