<svg viewBox="0 0 1434 400" xmlns="http://www.w3.org/2000/svg"><g><g><g><g><g><line x1="41.6875" y1="364.2507924390777" x2="36.6875" y2="364.2507924390777" style="visibility: inherit;" fill="rgb(0, 0, 0)" stroke="rgb(204, 204, 204)" stroke-width="1px"></line><line x1="41.6875" y1="329.8628225055055" x2="36.6875" y2="329.8628225055055" style="visibility: inherit;" fill="rgb(0, 0, 0)" stroke="rgb(204, 204, 204)" stroke-width="1px"></line><line x1="41.6875" y1="295.47485257193324" x2="36.6875" y2="295.47485257193324" style="visibility: inherit;" fill="rgb(0, 0, 0)" stroke="rgb(204, 204, 204)" stroke-width="1px"></line><line x1="41.6875" y1="261.086882638361" x2="36.6875" y2="261.086882638361" style="visibility: inherit;" fill="rgb(0, 0, 0)" stroke="rgb(204, 204, 204)" stroke-width="1px"></line><line x1="41.6875" y1="226.69891270478882" x2="36.6875" y2="226.69891270478882" style="visibility: inherit;" fill="rgb(0, 0, 0)" stroke="rgb(204, 204, 204)" stroke-width="1px"></line><line x1="41.6875" y1="192.31094277121656" x2="36.6875" y2="192.31094277121656" style="visibility: inherit;" fill="rgb(0, 0, 0)" stroke="rgb(204, 204, 204)" stroke-width="1px"></line><line x1="41.6875" y1="157.92297283764432" x2="36.6875" y2="157.92297283764432" style="visibility: inherit;" fill="rgb(0, 0, 0)" stroke="rgb(204, 204, 204)" stroke-width="1px"></line><line x1="41.6875" y1="123.53500290407206" x2="36.6875" y2="123.53500290407206" style="visibility: inherit;" fill="rgb(0, 0, 0)" stroke="rgb(204, 204, 204)" stroke-width="1px"></line><line x1="41.6875" y1="89.14703297049984" x2="36.6875" y2="89.14703297049984" style="visibility: inherit;" fill="rgb(0, 0, 0)" stroke="rgb(204, 204, 204)" stroke-width="1px"></line><line x1="41.6875" y1="54.75906303692761" x2="36.6875" y2="54.75906303692761" style="visibility: inherit;" fill="rgb(0, 0, 0)" stroke="rgb(204, 204, 204)" stroke-width="1px"></line><line x1="41.6875" y1="20.371093103355385" x2="36.6875" y2="20.371093103355385" style="visibility: inherit;" fill="rgb(0, 0, 0)" stroke="rgb(204, 204, 204)" stroke-width="1px"></line></g><g transform="translate(31.6875, 0)"><text x="0" y="364.2507924390777" dx="0em" dy="0.3em" style="text-anchor: end; visibility: inherit; font-family: Roboto, sans-serif; font-size: 12px; font-weight: 200;" fill="rgb(255, 255, 255)" stroke="none" stroke-width="1px">0</text><text x="0" y="329.8628225055055" dx="0em" dy="0.3em" style="text-anchor: end; visibility: inherit; font-family: Roboto, sans-serif; font-size: 12px; font-weight: 200;" fill="rgb(255, 255, 255)" stroke="none" stroke-width="1px">20</text><text x="0" y="295.47485257193324" dx="0em" dy="0.3em" style="text-anchor: end; visibility: inherit; font-family: Roboto, sans-serif; font-size: 12px; font-weight: 200;" fill="rgb(255, 255, 255)" stroke="none" stroke-width="1px">40</text><text x="0" y="261.086882638361" dx="0em" dy="0.3em" style="text-anchor: end; visibility: inherit; font-family: Roboto, sans-serif; font-size: 12px; font-weight: 200;" fill="rgb(255, 255, 255)" stroke="none" stroke-width="1px">60</text><text x="0" y="226.69891270478882" dx="0em" dy="0.3em" style="text-anchor: end; visibility: inherit; font-family: Roboto, sans-serif; font-size: 12px; font-weight: 200;" fill="rgb(255, 255, 255)" stroke="none" stroke-width="1px">80</text><text x="0" y="192.31094277121656" dx="0em" dy="0.3em" style="text-anchor: end; visibility: inherit; font-family: Roboto, sans-serif; font-size: 12px; font-weight: 200;" fill="rgb(255, 255, 255)" stroke="none" stroke-width="1px">100</text><text x="0" y="157.92297283764432" dx="0em" dy="0.3em" style="text-anchor: end; visibility: inherit; font-family: Roboto, sans-serif; font-size: 12px; font-weight: 200;" fill="rgb(255, 255, 255)" stroke="none" stroke-width="1px">120</text><text x="0" y="123.53500290407206" dx="0em" dy="0.3em" style="text-anchor: end; visibility: inherit; font-family: Roboto, sans-serif; font-size: 12px; font-weight: 200;" fill="rgb(255, 255, 255)" stroke="none" stroke-width="1px">140</text><text x="0" y="89.14703297049984" dx="0em" dy="0.3em" style="text-anchor: end; visibility: inherit; font-family: Roboto, sans-serif; font-size: 12px; font-weight: 200;" fill="rgb(255, 255, 255)" stroke="none" stroke-width="1px">160</text><text x="0" y="54.75906303692761" dx="0em" dy="0.3em" style="text-anchor: end; visibility: inherit; font-family: Roboto, sans-serif; font-size: 12px; font-weight: 200;" fill="rgb(255, 255, 255)" stroke="none" stroke-width="1px">180</text><text x="0" y="20.371093103355385" dx="0em" dy="0.3em" style="text-anchor: end; visibility: inherit; font-family: Roboto, sans-serif; font-size: 12px; font-weight: 200;" fill="rgb(255, 255, 255)" stroke="none" stroke-width="1px">200</text></g><line x1="41.6875" y1="0" x2="41.6875" y2="375" fill="rgb(0, 0, 0)" stroke="rgb(204, 204, 204)" stroke-width="1px"></line></g></g><g transform="translate(41, 0)" clip-path="url(#clip_0)"><clipPath id="clip_0"><rect width="1392" height="375"></rect></clipPath><g><g><g><line x1="94.2379654599123" y1="0" x2="94.2379654599123" y2="375" fill="rgb(0, 0, 0)" stroke="rgb(189, 189, 189)" stroke-width="1px" opacity="0.25"></line><line x1="258.7206117253499" y1="0" x2="258.7206117253499" y2="375" fill="rgb(0, 0, 0)" stroke="rgb(189, 189, 189)" stroke-width="1px" opacity="0.25"></line><line x1="423.2032579907875" y1="0" x2="423.2032579907875" y2="375" fill="rgb(0, 0, 0)" stroke="rgb(189, 189, 189)" stroke-width="1px" opacity="0.25"></line><line x1="587.6859042562251" y1="0" x2="587.6859042562251" y2="375" fill="rgb(0, 0, 0)" stroke="rgb(189, 189, 189)" stroke-width="1px" opacity="0.25"></line><line x1="752.1685505216627" y1="0" x2="752.1685505216627" y2="375" fill="rgb(0, 0, 0)" stroke="rgb(189, 189, 189)" stroke-width="1px" opacity="0.25"></line><line x1="916.6511967871004" y1="0" x2="916.6511967871004" y2="375" fill="rgb(0, 0, 0)" stroke="rgb(189, 189, 189)" stroke-width="1px" opacity="0.25"></line><line x1="1081.133843052538" y1="0" x2="1081.133843052538" y2="375" fill="rgb(0, 0, 0)" stroke="rgb(189, 189, 189)" stroke-width="1px" opacity="0.25"></line><line x1="1245.6164893179755" y1="0" x2="1245.6164893179755" y2="375" fill="rgb(0, 0, 0)" stroke="rgb(189, 189, 189)" stroke-width="1px" opacity="0.25"></line></g><g><line x1="0" y1="364.2507924390777" x2="1392.3125" y2="364.2507924390777" fill="rgb(0, 0, 0)" stroke="rgb(189, 189, 189)" stroke-width="1px" opacity="0.25"></line><line x1="0" y1="329.8628225055055" x2="1392.3125" y2="329.8628225055055" fill="rgb(0, 0, 0)" stroke="rgb(189, 189, 189)" stroke-width="1px" opacity="0.25"></line><line x1="0" y1="295.47485257193324" x2="1392.3125" y2="295.47485257193324" fill="rgb(0, 0, 0)" stroke="rgb(189, 189, 189)" stroke-width="1px" opacity="0.25"></line><line x1="0" y1="261.086882638361" x2="1392.3125" y2="261.086882638361" fill="rgb(0, 0, 0)" stroke="rgb(189, 189, 189)" stroke-width="1px" opacity="0.25"></line><line x1="0" y1="226.69891270478882" x2="1392.3125" y2="226.69891270478882" fill="rgb(0, 0, 0)" stroke="rgb(189, 189, 189)" stroke-width="1px" opacity="0.25"></line><line x1="0" y1="192.31094277121656" x2="1392.3125" y2="192.31094277121656" fill="rgb(0, 0, 0)" stroke="rgb(189, 189, 189)" stroke-width="1px" opacity="0.25"></line><line x1="0" y1="157.92297283764432" x2="1392.3125" y2="157.92297283764432" fill="rgb(0, 0, 0)" stroke="rgb(189, 189, 189)" stroke-width="1px" opacity="0.25"></line><line x1="0" y1="123.53500290407206" x2="1392.3125" y2="123.53500290407206" fill="rgb(0, 0, 0)" stroke="rgb(189, 189, 189)" stroke-width="1px" opacity="0.25"></line><line x1="0" y1="89.14703297049984" x2="1392.3125" y2="89.14703297049984" fill="rgb(0, 0, 0)" stroke="rgb(189, 189, 189)" stroke-width="1px" opacity="0.25"></line><line x1="0" y1="54.75906303692761" x2="1392.3125" y2="54.75906303692761" fill="rgb(0, 0, 0)" stroke="rgb(189, 189, 189)" stroke-width="1px" opacity="0.25"></line><line x1="0" y1="20.371093103355385" x2="1392.3125" y2="20.371093103355385" fill="rgb(0, 0, 0)" stroke="rgb(189, 189, 189)" stroke-width="1px" opacity="0.25"></line></g></g></g><g><g><line x1="0" y1="364.2507924390777" x2="1392.3125" y2="364.2507924390777" fill="rgb(0, 0, 0)" stroke="rgb(153, 153, 153)" stroke-width="1.5px"></line></g></g><g><g><line x1="94.2379654599123" y1="0" x2="94.2379654599123" y2="375" fill="rgb(0, 0, 0)" stroke="rgb(153, 153, 153)" stroke-width="1.5px"></line></g></g><g><g><g><g><g><path stroke="rgb(0, 153, 136)" stroke-width="2px" d="M98.43227293968096,348.26038609201737L101.55744321872427,340.35115399114346L105.1760614365639,219.6493814920004L108.2189903924745,314.04435502426526L111.91984993344684,317.1392742859822L115.7029507975519,318.3428512659618L118.99260372286066,286.87786008854016L123.02242855636386,285.15846159186157L126.39432280480536,289.28502060748417L129.84845837637954,234.60814316591652L133.54931791735189,274.1543085895246L137.16793613519152,179.7593284982749L140.45758906050025,258.33584766726915L143.91172463207445,189.21602023000727L147.5303428499141,262.290462897833L150.81999577522285,232.54487021709L154.27413134679702,231.8571081948246L157.07033633330946,179.58739127220093L160.52447190488365,223.77594050762295L163.40291821452882,228.59024842754135L166.5280884935721,181.65067733899696L169.48877612635002,270.1996933589607L172.28498111286243,188.87214577785934L175.24566874564033,274.6701333857159L178.12411505528547,269.68387512175406L181.41376798059423,214.14729843184713L184.20997296710667,177.8679927755223L186.92393663048637,255.58480613719252L189.1444523550698,226.18308790859743L192.26962263411312,230.82547172041137L194.65462100496197,150.01374237651657L197.5330673146071,212.25596270909458L199.6713417160578,165.1444412765067L202.46754670257025,222.22847923701832L204.8525450734191,266.9328401506622L207.56650873679882,224.11981495977088L210.5271963695767,71.60917355156582L213.40564267922184,132.13199538746514L216.53081295826516,167.55160179545064L218.75132868284857,52.52383974405764L221.87649896189188,101.3547727912936L224.5904626252716,113.04666157995696L227.55115025804946,98.43177435818878L229.8539073057656,162.3934063054148L232.23890567661445,40.144175815159414L234.5416627243306,216.89834652090852L236.9266610951794,215.35088525030383L239.72286608169188,192.65481722336446L242.43682974507158,70.7494743032265L243.99941488459325,120.95590515905415L246.71337854797295,172.36592283333854L249.34510088821997,164.80056682435878L252.1413058747324,225.49533900430157L254.6907868918467,135.22691792867442L256.9113026164301,96.36850140936222L258.8850943716153,102.73027059988529L261.3523340655969,180.2751532944663L263.1616431745167,215.6947597024518L265.21767625283474,200.22017323234428L267.8493985930817,107.20071718562528L269.7409490251342,91.89808105956119L271.87922342658493,51.14831569952693L274.2642217974337,68.85812546250446L276.32025487575174,199.18853675793102L278.5407706003352,218.27385744746968L280.6790450017858,215.35088525030383L283.4752499882983,179.41545404612697L285.86024835914714,81.75361418759402L287.91628143746505,74.87602020087957L290.63024510084483,195.2339149683824L292.9330021485609,109.26399013445179L295.4824831656752,71.95304800371375L297.9497228596568,116.65740891735764L300.2524799073729,31.719133675809793L302.63747827822175,38.08090286633286L305.0224766490706,40.144175815159414L307.3252336967867,32.92270737629703L309.87471471390097,163.4250427798281L312.0952304384844,30.85943442747052L314.0690221936697,40.144175815159414L316.2895379182531,102.21447203963287L318.2633296734383,84.16078782450747L320.5660867211545,171.50622358499925L322.62211979947244,29.99973517913121L325.1716008165867,39.45642691086357L327.721081833701,34.47015552893219L329.9415975582844,24.153764548860522L332.32659592913325,25.873163045539147L334.5471116537167,22.434366052181936L336.19193811637103,20.71496755550331L338.00124722529085,20.371093103355385L340.5507282424051,58.19786003028482L342.6890026438558,161.18983260492757L344.49831175277563,21.574666803842625L346.0608968922973,43.92684726066455L347.6234820318189,20.371093103355385L349.43279114073874,20.371093103355385L351.73554818845486,27.592561542217773L353.38037465110926,20.371093103355385L355.4364077294272,20.371093103355385L357.65692345401067,20.371093103355385L359.7129565323286,20.371093103355385L361.2755416718503,20.371093103355385L363.3315747501682,20.371093103355385L365.63433179788433,20.371093103355385L367.196916937406,20.371093103355385L369.0884673694585,30.17165928723567L371.1445004477765,20.371093103355385L372.8715682335636,23.12214119241675L374.92760131188163,24.497639001008444L377.0658757133323,20.371093103355385L378.7107021759866,20.371093103355385L381.1779418699682,20.371093103355385L382.7405270094898,20.371093103355385L384.8788014109405,20.371093103355385L386.8525931661258,25.701238937434688L389.23759153697466,21.746617147886088L391.37586593842536,20.371093103355385L392.7739684316815,20.371093103355385L394.33655357120324,20.371093103355385L396.0636213569903,20.371093103355385L398.11965443530823,20.371093103355385L399.9289635442281,32.75075703225361L401.6560313300152,20.371093103355385L403.2186164695368,38.768651770628715L405.521373517253,21.918541255990547L407.8241305649691,20.371093103355385L409.38671570449077,20.371093103355385L411.0315421671451,20.371093103355385L412.9230925991977,20.371093103355385L414.4856777387193,24.497639001008444L416.29498684763917,20.371093103355385L418.51550257222254,20.371093103355385L420.4892943274078,20.371093103355385L422.6275687288585,20.371093103355385L423.943429898982,20.371093103355385L425.6704976847691,20.371093103355385L427.23308282429076,20.371093103355385L428.96015061007785,20.371093103355385L430.19377045706864,20.371093103355385L431.9208382428557,20.371093103355385L433.1544580898465,20.371093103355385L435.12824984503175,36.017629917506355L436.9375589539515,20.371093103355385L439.158074678535,21.402742695738162L441.29634907998565,20.371093103355385L442.7766928963746,20.371093103355385L444.7504846515598,20.371093103355385L446.1485871448161,20.371093103355385L447.628930961205,20.371093103355385L449.43824007012483,20.371093103355385L451.32979050217733,20.371093103355385L453.0568582879645,20.371093103355385L454.5372021043534,23.809890096712596L456.099787243875,25.701238937434688L458.23806164532573,20.371093103355385L459.4716814923165,20.371093103355385L461.6099558937672,20.371093103355385L463.09029971015616,20.371093103355385L464.48840220341236,20.371093103355385L466.54443528173033,20.371093103355385L467.8602964518538,20.371093103355385L469.8340882070391,20.371093103355385L471.47891466969344,20.371093103355385L472.9592584860824,20.371093103355385L474.4396023024713,20.371093103355385L476.1666700882584,20.371093103355385L477.15356596585104,20.371093103355385L478.5516684591073,20.371093103355385L480.0320122754962,25.35733824934776L481.43011476875245,20.371093103355385L483.5683891702031,20.371093103355385L485.37769827912297,20.371093103355385L487.10476606491005,20.371093103355385L488.50286855816626,33.61045628059292L490.3121776670861,20.371093103355385L491.87476280660775,20.371093103355385L494.09527853119107,20.371093103355385L495.7401049938455,20.371093103355385L496.97372484083627,20.371093103355385L498.45406865722526,21.574666803842625L499.8521711504814,20.371093103355385L501.25027364373767,20.371093103355385L502.8128587832593,20.371093103355385L504.4576852459137,20.371093103355385L506.1025117085681,20.371093103355385L507.58285552495704,21.746617147886088L509.4744059570096,20.371093103355385L510.9547497733985,21.402742695738162L512.5173349129202,20.371093103355385L514.0799200524418,79.69034123876747L515.8069878382289,20.371093103355385L517.6985382702815,20.371093103355385L519.6723300254666,26.04511338958261L520.9059498724574,20.371093103355385L522.0573283963156,20.371093103355385L523.8666375052353,20.371093103355385L525.4292226447569,20.371093103355385L526.7450838148804,20.371093103355385L528.636634246933,20.371093103355385L529.8702540939238,20.371093103355385L531.021632617782,20.371093103355385L532.5019764341707,74.53214574873164L534.4757681893561,43.75492315256009L536.2850772982758,38.08090286633286L537.9299037609303,20.371093103355385L538.9990409616556,21.574666803842625L540.3971434549119,20.371093103355385L542.124211240699,37.73702841418494L543.9335203496187,20.371093103355385L545.7428294585386,20.371093103355385L547.3054145980602,20.371093103355385L548.7035170913164,20.371093103355385L550.1016195845726,20.371093103355385L551.2529981084307,20.371093103355385L552.7333419248196,20.371093103355385L554.5426510337395,20.371093103355385L555.7762708807303,20.371093103355385L557.2566146971192,20.371093103355385L558.5724758672427,20.371093103355385L559.8883370373662,23.98184044075606L560.9574742380915,20.371093103355385L562.0266114388169,20.371093103355385L563.0957486395422,20.371093103355385L564.4116098096657,20.371093103355385L565.6452296566565,20.371093103355385L567.1255734730454,20.371093103355385L568.6881586125671,20.371093103355385L570.3329850752215,20.371093103355385L571.9778115378758,20.371093103355385L573.3759140311321,20.371093103355385L575.0207404937864,20.371093103355385L576.4188429870426,20.371093103355385L577.7347041571662,21.058842007651236L578.7216000347588,20.371093103355385L580.2019438511477,20.371093103355385L581.1888397287404,20.371093103355385L582.4224595757312,20.371093103355385L583.8205620689873,23.12214119241675L584.8896992697127,20.371093103355385L585.7121125010399,25.1854141412433L586.8634910248979,27.248687090069847L588.014869548756,22.434366052181936L589.2484893957468,20.371093103355385L590.3176265964722,20.371093103355385L592.0446943822593,20.371093103355385L592.8671076135864,21.402742695738162L594.6764167225062,20.371093103355385L596.0745192157625,20.371093103355385L596.9791737702224,20.371093103355385L598.2950349403459,20.371093103355385L599.7753787567348,23.29406530052125L601.2557225731238,21.574666803842625L602.4893424201146,20.371093103355385L603.7229622671052,20.371093103355385L604.8743407909634,20.371093103355385L605.7789953454233,20.371093103355385L607.1770978386795,20.54304344739885L608.9864069475993,20.371093103355385L610.3022681177227,20.371093103355385L611.5358879647135,20.371093103355385L612.6872664885716,20.371093103355385L614.2498516280933,27.936435994365695L615.4834714750841,20.371093103355385L617.0460566146057,20.371093103355385L618.6086417541273,20.371093103355385L619.8422616011181,20.371093103355385L621.1581227712417,20.371093103355385L622.5562252644979,20.371093103355385L624.0365690808869,20.371093103355385L625.1057062816122,20.54304344739885L626.4215674517357,20.371093103355385L627.7374286218592,20.371093103355385L628.8888071457172,20.371093103355385L630.2869096389735,20.371093103355385L631.5205294859643,20.371093103355385L633.2475972717514,20.371093103355385L634.8924237344057,21.574666803842625L636.2082849045293,20.371093103355385L637.6063873977854,20.371093103355385L638.8400072447762,20.371093103355385L640.2381097380324,20.371093103355385L640.978281646227,20.371093103355385L641.7184535544214,20.371093103355385L643.0343147245449,20.371093103355385L644.1856932484029,20.371093103355385L645.3370717722611,20.371093103355385L646.5706916192518,20.371093103355385L647.6398288199771,20.371093103355385L649.449137928897,20.371093103355385L650.7649990990204,20.371093103355385L652.1631015922767,20.371093103355385L653.3967214392675,20.371093103355385L654.2191346705946,20.371093103355385L655.7817198101163,20.371093103355385L657.1798223033725,20.371093103355385L658.4134421503633,20.371093103355385L659.4003380279559,20.371093103355385L660.3872339055486,20.371093103355385L661.4563711062739,20.371093103355385L662.6899909532647,20.371093103355385L663.9236108002555,20.371093103355385L665.239471970379,20.371093103355385L666.8020571099006,20.371093103355385L667.9534356337588,20.371093103355385L668.7758488650859,20.371093103355385L669.6805034195459,20.371093103355385L670.6673992971383,20.371093103355385L671.8187778209965,23.809890096712596L673.13463899112,20.371093103355385L674.2037761918453,20.371093103355385L675.9308439776324,20.371093103355385L677.0822225014905,20.371093103355385L678.3158423484813,20.371093103355385L679.6317035186047,20.371093103355385L681.1942886581264,20.371093103355385L682.5923911513826,20.371093103355385L683.5792870289753,20.371093103355385L684.8951481990988,20.371093103355385L686.2110093692222,20.886917899546773L687.1156639236822,20.371093103355385L688.1848011244075,20.371093103355385L689.2539383251328,20.371093103355385L690.4875581721236,20.371093103355385L691.9679019885126,20.371093103355385L693.0370391892379,20.371093103355385L693.9416937436978,20.371093103355385L695.1753135906886,20.371093103355385L696.6556574070776,29.311960038896355L697.6425532846702,20.371093103355385L698.7939318085282,20.371093103355385L700.35651694805,20.371093103355385L701.3434128256425,20.371093103355385L702.6592739957661,20.371093103355385L703.4816872270932,20.371093103355385L704.4685831046858,20.371093103355385L705.7022029516766,20.371093103355385L706.9358227986673,21.574666803842625L707.8404773531273,20.371093103355385L709.0740972001181,20.371093103355385L710.3899583702415,20.371093103355385L711.459095570967,20.371093103355385L712.3637501254268,20.371093103355385L713.515128649285,20.371093103355385L714.5020245268776,20.371093103355385L715.4066790813374,20.371093103355385L716.7225402514609,20.371093103355385L717.7916774521864,20.371093103355385L718.8608146529116,20.371093103355385L720.2589171461677,20.371093103355385L721.3280543468932,20.371093103355385L722.6439155170167,20.371093103355385L723.8775353640075,20.371093103355385L724.8644312416001,20.371093103355385L726.0980510885909,20.371093103355385L727.0849469661835,26.21703749768707L728.1540841669089,20.371093103355385L729.3877040138997,20.371093103355385L730.5390825377577,20.371093103355385L731.937185031014,20.371093103355385L732.8418395854738,20.371093103355385L733.6642528168011,20.371093103355385L734.9801139869245,20.371093103355385L736.1314925107827,20.371093103355385L737.1183883883753,20.371093103355385L738.1052842659678,20.371093103355385L739.2566627898259,20.371093103355385L740.4080413136841,20.371093103355385L741.4771785144093,20.371093103355385L742.4640743920019,20.371093103355385L743.2042463001964,20.371093103355385L744.3556248240545,20.371093103355385L745.2602793785144,20.371093103355385L746.4938992255052,20.371093103355385L747.4807951030978,20.371093103355385L748.303208334425,20.371093103355385L749.454586858283,20.371093103355385L750.3592414127429,20.371093103355385L751.0994133209374,20.71496755550331L752.2507918447953,49.25699309474385L753.2376877223882,20.371093103355385L754.142342276848,20.371093103355385L755.5404447701042,20.371093103355385L756.4450993245641,20.371093103355385L757.4319952021568,20.371093103355385L758.0076844640857,20.371093103355385L759.0768216648111,20.371093103355385L760.1459588655365,20.371093103355385L760.9683720968637,20.371093103355385L761.8730266513236,20.371093103355385L762.5309572363853,20.371093103355385L763.2711291445797,20.371093103355385L764.1757836990396,20.371093103355385L765.244920899765,20.371093103355385L766.149575454225,20.371093103355385L767.300953978083,20.371093103355385L768.452332501941,20.371093103355385L769.8504349951974,20.371093103355385L771.0018135190553,20.371093103355385L772.0709507197807,20.371093103355385L772.9756052742406,20.371093103355385L773.8802598287004,20.371093103355385L774.9493970294259,20.371093103355385L776.0185342301512,20.371093103355385L777.0876714308766,20.371093103355385L778.403532601,20.371093103355385L779.1437045091944,20.371093103355385L779.8016350942563,20.371093103355385L780.5418070024508,20.371093103355385L781.8576681725742,20.371093103355385L782.7623227270342,20.371093103355385L783.995942574025,20.371093103355385L785.147321097883,20.371093103355385L786.3809409448737,20.371093103355385L787.6145607918645,20.371093103355385L789.0949046082535,20.371093103355385L790.410765778377,20.371093103355385L791.8088682716332,20.371093103355385L792.8780054723586,20.371093103355385L794.2761079656148,20.371093103355385L795.1807625200747,20.371093103355385L796.4143823670655,20.371093103355385L797.2367955983926,20.371093103355385L797.8947261834543,20.371093103355385L798.8816220610471,20.371093103355385L799.786276615507,20.371093103355385L800.6086898468342,20.371093103355385L801.513344401294,20.371093103355385L802.5002402788866,20.371093103355385L803.4871361564793,20.371093103355385L804.3917907109393,20.371093103355385L805.2142039422664,20.371093103355385L806.2833411429917,20.371093103355385L807.1879956974516,20.371093103355385L808.4216155444424,20.371093103355385L809.2440287757696,20.371093103355385L810.5598899458931,20.371093103355385L811.6290271466185,20.371093103355385L812.6981643473438,20.371093103355385L814.1785081637328,24.497639001008444L815.1654040413254,20.371093103355385L816.2345412420507,20.371093103355385L817.4681610890415,20.371093103355385L818.3728156435013,20.371093103355385L819.4419528442268,20.371093103355385L820.3466073986866,20.371093103355385L821.4979859225448,20.371093103355385L822.7316057695356,20.371093103355385L823.8007429702608,20.371093103355385L824.952121494119,20.371093103355385L825.8567760485788,20.371093103355385L827.0081545724369,20.371093103355385L828.1595330962949,24.66958934505191L828.8174636813567,20.371093103355385L829.9688422052147,20.371093103355385L831.4491860216036,20.371093103355385L832.3538405760636,20.371093103355385L833.5874604230544,20.371093103355385L834.4921149775142,20.371093103355385L835.3145282088415,20.371093103355385L836.7126307020976,20.371093103355385L837.3705612871595,20.371093103355385L838.357457164752,20.371093103355385L839.6733183348755,20.371093103355385L840.7424555356009,20.371093103355385L841.8115927363261,20.371093103355385L842.8807299370516,20.371093103355385L843.7031431683788,20.371093103355385L844.6900390459714,20.371093103355385L845.676934923564,20.371093103355385L846.5815894780241,20.371093103355385L847.8152093250146,20.371093103355385L848.8021052026074,20.371093103355385L849.7890010801999,20.371093103355385L850.6114143115271,20.371093103355385L851.516068865987,20.371093103355385L852.8319300361105,20.371093103355385L853.6543432674378,20.371093103355385L854.7234804681632,20.371093103355385L855.7926176688884,20.371093103355385L856.6972722233484,20.371093103355385L857.8486507472064,20.371093103355385L858.9177879479316,20.371093103355385L859.8224425023917,20.371093103355385L860.7270970568516,20.371093103355385L861.8784755807096,20.371093103355385L863.0298541045677,20.371093103355385L863.8522673358949,20.371093103355385L864.8391632134875,20.371093103355385L865.8260590910802,20.371093103355385L866.73071364554,20.371093103355385L867.5531268768673,20.371093103355385L868.5400227544599,20.371093103355385L869.6091599551853,20.371093103355385L870.7605384790432,20.371093103355385L871.5007103872377,20.371093103355385L872.8988128804939,20.371093103355385L873.9679500812193,20.371093103355385L874.9548459588119,20.371093103355385L875.9417418364045,21.2307923516947L877.0108790371299,20.371093103355385L878.0800162378551,20.371093103355385L879.2313947617133,20.371093103355385L880.1360493161732,20.371093103355385L880.9584625475004,20.371093103355385L881.7808757788275,20.371093103355385L882.850012979553,20.371093103355385L883.8369088571455,20.371093103355385L884.7415634116055,20.371093103355385L885.8929419354636,20.371093103355385L886.7153551667908,20.371093103355385L887.784492367516,20.371093103355385L888.9358708913742,20.371093103355385L890.2517320614976,20.371093103355385L891.2386279390902,20.371093103355385L892.3077651398156,20.371093103355385L893.4591436636736,20.371093103355385L894.4460395412664,20.371093103355385L895.8441420345225,20.371093103355385L896.7487965889824,20.371093103355385L897.6534511434422,20.371093103355385L898.7225883441677,20.371093103355385L899.7094842217602,20.371093103355385L901.1075867150164,20.371093103355385L902.0944825926092,20.371093103355385L903.3281024396,20.371093103355385L904.3149983171926,20.371093103355385L905.3018941947852,20.371093103355385L906.1243074261123,20.371093103355385L906.8644793343068,20.371093103355385L907.9336165350321,20.371093103355385L909.1672363820229,20.371093103355385L910.4008562290137,20.71496755550331L911.3877521066063,20.886917899546773L912.6213719535971,20.71496755550331L913.6082678311898,32.40688258010568L914.5951637087824,20.371093103355385L915.7465422326405,20.371093103355385L916.9801620796313,20.371093103355385L917.9670579572239,20.371093103355385L918.789471188551,20.371093103355385L920.1053323586746,20.371093103355385L920.7632629437362,20.371093103355385L921.7501588213289,20.371093103355385L922.7370546989215,20.371093103355385L923.9706745459123,20.371093103355385L924.7108464541069,20.371093103355385L925.4510183623012,20.371093103355385L926.2734315936284,20.371093103355385L926.9313621786902,20.371093103355385L927.5892927637519,20.371093103355385L928.1649820256811,20.371093103355385L929.4808431958045,20.371093103355385L930.3854977502644,20.371093103355385L931.2901523047243,20.371093103355385L932.0303242129188,20.371093103355385L933.1817027367769,20.371093103355385L934.0863572912368,20.371093103355385L934.9910118456967,20.371093103355385L935.8956664001565,20.371093103355385L936.7180796314838,20.371093103355385L937.7872168322091,20.371093103355385L938.5273887404036,20.371093103355385L939.4320432948634,20.371093103355385L940.4189391724561,20.371093103355385L941.3235937269161,20.371093103355385L942.3104896045086,20.371093103355385L943.2973854821012,20.371093103355385L944.3665226828266,20.371093103355385L945.5179012066845,20.371093103355385L946.3403144380118,20.371093103355385L947.3272103156045,20.371093103355385L948.0673822237989,20.371093103355385L948.8897954551261,20.371093103355385L949.7944500095861,20.371093103355385L950.8635872103114,20.371093103355385L951.7682417647712,20.371093103355385L952.6728963192312,20.371093103355385L953.330826904293,20.371093103355385L953.9887574893546,20.371093103355385L954.7289293975491,20.371093103355385L955.6335839520091,20.371093103355385L956.3737558602036,20.371093103355385L957.3606517377962,20.371093103355385L958.265306292256,20.371093103355385L959.2522021698487,20.371093103355385L960.321339370574,20.371093103355385L961.3904765712995,20.371093103355385L962.4596137720247,20.371093103355385L963.2820270033519,20.371093103355385L964.1866815578118,20.371093103355385L964.7623708197409,20.371093103355385L965.4203014048026,20.371093103355385L966.2427146361298,20.371093103355385L967.1473691905896,20.371093103355385L968.0520237450496,20.371093103355385L969.0389196226423,20.371093103355385L969.8613328539695,20.371093103355385L970.6837460852965,20.371093103355385L971.3416766703583,20.371093103355385L972.3285725479509,20.371093103355385L973.3154684255437,20.371093103355385L974.2201229800036,20.371093103355385L975.3715015038615,20.371093103355385L976.6873626739851,20.371093103355385L977.592017228445,20.371093103355385L978.9901197217013,20.371093103355385L979.8125329530284,20.371093103355385L980.8816701537537,20.371093103355385L981.7863247082138,20.371093103355385L982.6087379395408,20.371093103355385L983.1844272014699,20.371093103355385L984.0890817559298,20.371093103355385L984.911494987257,20.371093103355385L985.9806321879822,20.371093103355385L986.8030454193095,20.371093103355385L987.7076999737693,20.371093103355385L988.3656305588312,20.371093103355385L989.270285113291,20.371093103355385L989.9282156983529,20.371093103355385L990.6683876065472,20.371093103355385L991.4085595147418,20.371093103355385L992.4776967154671,20.371093103355385L993.3823512699271,20.371093103355385L993.958040531856,20.371093103355385L994.6982124400505,20.371093103355385L995.5206256713777,20.371093103355385L996.343038902705,20.371093103355385L997.4121761034302,20.371093103355385L998.5635546272883,20.371093103355385L999.4682091817482,20.371093103355385L1000.372863736208,20.371093103355385L1001.3597596138006,20.371093103355385L1002.1821728451279,20.371093103355385L1003.0868273995877,20.371093103355385L1003.9914819540478,20.371093103355385L1004.6494125391094,20.371093103355385L1005.636308416702,20.371093103355385L1006.9521695868257,20.371093103355385L1008.021306787551,20.371093103355385L1009.0082026651435,20.371093103355385L1009.9950985427363,20.371093103355385L1010.7352704509306,20.371093103355385L1011.6399250053905,20.371093103355385L1012.4623382367178,20.371093103355385L1013.4492341143105,20.371093103355385L1014.6006126381684,20.371093103355385L1015.4230258694956,20.371093103355385L1016.1631977776901,20.371093103355385L1017.2323349784156,20.371093103355385L1018.3014721791408,20.371093103355385L1019.2061267336006,20.371093103355385L1020.3575052574588,20.371093103355385L1021.2621598119187,20.371093103355385L1022.2490556895112,20.371093103355385L1022.9892275977057,20.371093103355385L1023.8938821521657,20.371093103355385L1024.8807780297584,20.371093103355385L1025.7854325842184,20.371093103355385L1026.6078458155455,20.371093103355385L1027.6769830162707,20.371093103355385L1028.9106028632616,20.371093103355385L1029.8152574177213,20.371093103355385L1030.802153295314,20.371093103355385L1031.4600838803758,20.371093103355385L1032.282497111703,20.371093103355385L1032.858186373632,20.371093103355385L1033.9273235743574,20.371093103355385L1034.91421945195,20.371093103355385L1035.6543913601445,20.371093103355385L1037.0524938534006,20.371093103355385L1037.6281831153296,20.371093103355385L1038.5328376697896,20.371093103355385L1039.5197335473822,20.371093103355385L1040.4243881018422,20.371093103355385L1041.1645600100367,20.371093103355385L1042.1514558876293,20.371093103355385L1042.9738691189564,20.371093103355385L1044.1252476428147,20.371093103355385L1044.865419551009,20.371093103355385L1045.687832782336,20.371093103355385L1046.4280046905305,20.371093103355385L1047.0036939524596,20.371093103355385L1047.6616245375214,20.371093103355385L1048.5662790919814,20.371093103355385L1049.3886923233085,20.371093103355385L1050.5400708471666,20.371093103355385L1051.3624840784937,20.371093103355385L1052.4316212792191,20.371093103355385L1053.2540345105463,20.371093103355385L1054.2409303881388,20.371093103355385L1055.3100675888643,20.371093103355385L1055.967998173926,20.371093103355385L1057.0371353746514,20.371093103355385L1057.9417899291113,20.371093103355385L1059.4221337455003,20.371093103355385L1060.2445469768272,20.371093103355385L1061.1492015312874,20.371093103355385L1062.13609740888,20.371093103355385L1063.1229932864726,20.371093103355385L1064.1098891640652,20.371093103355385L1064.9323023953923,20.371093103355385L1065.919198272985,20.371093103355385L1066.9060941505777,20.371093103355385L1067.7285073819048,20.371093103355385L1068.3864379669667,20.371093103355385L1069.2088511982936,20.371093103355385L1070.277988399019,20.371093103355385L1071.1004016303464,20.371093103355385L1072.087297507939,20.371093103355385L1073.0741933855315,20.371093103355385L1074.143330586257,20.371093103355385L1075.0479851407167,20.371093103355385L1076.0348810183093,20.371093103355385L1076.9395355727693,20.371093103355385L1077.6797074809638,20.371093103355385L1078.502120712291,20.371093103355385L1079.3245339436182,20.371093103355385L1080.3114298212106,20.371093103355385L1081.380567021936,20.371093103355385L1082.2029802532634,20.371093103355385L1082.9431521614579,20.371093103355385L1083.765565392785,20.371093103355385L1084.670219947245,20.371093103355385L1085.492633178572,20.371093103355385L1086.2328050867666,20.371093103355385L1087.301942287492,20.371093103355385L1087.9598728725537,20.371093103355385L1089.029010073279,20.371093103355385L1089.9336646277388,20.371093103355385L1091.0028018284643,20.371093103355385L1091.7429737366585,20.371093103355385L1092.565386967986,20.371093103355385L1093.4700415224456,20.371093103355385L1094.2102134306404,20.371093103355385L1095.0326266619675,20.371093103355385L1095.772798570162,20.371093103355385L1096.677453124622,20.371093103355385L1097.2531423865507,20.371093103355385L1098.1577969410107,20.371093103355385L1099.0624514954707,20.371093103355385L1100.0493473730633,20.371093103355385L1100.7895192812578,20.371093103355385L1101.6119325125849,20.371093103355385L1102.434345743912,20.371093103355385L1103.5857242677703,20.371093103355385L1104.6548614684957,20.371093103355385L1105.723998669221,20.371093103355385L1106.6286532236809,20.371093103355385L1107.5333077781406,20.371093103355385L1108.4379623326006,20.371093103355385L1109.178134240795,20.371093103355385L1110.4117540877858,20.371093103355385L1111.3164086422457,20.371093103355385L1112.1388218735729,20.371093103355385L1113.2079590742983,20.371093103355385L1114.2770962750237,20.371093103355385L1115.2639921526163,20.371093103355385L1115.8396814145453,20.371093103355385L1116.6620946458725,20.371093103355385L1117.402266554067,20.371093103355385L1118.1424384622615,20.371093103355385L1119.129334339854,20.371093103355385L1120.033988894314,20.371093103355385L1121.2676087413047,20.371093103355385L1121.9255393263666,20.371093103355385L1122.5834699114282,20.371093103355385L1123.6526071121536,20.371093103355385L1124.3927790203481,20.371093103355385L1125.7086401904717,20.371093103355385L1126.6132947449314,20.371093103355385L1127.4357079762588,20.371093103355385L1128.6693278232494,20.371093103355385L1129.656223700842,20.371093103355385L1130.8076022247,20.371093103355385L1131.7944981022927,20.371093103355385L1132.61691133362,20.371093103355385L1133.4393245649471,20.371093103355385L1134.4262204425397,20.371093103355385L1135.1663923507342,20.371093103355385L1136.4822535208577,20.371093103355385L1137.2224254290522,20.371093103355385L1138.0448386603794,20.371093103355385L1139.1139758611046,20.371093103355385L1140.2653543849628,20.371093103355385L1141.1700089394226,20.371093103355385L1141.910180847617,20.371093103355385L1142.568111432679,20.371093103355385L1143.472765987139,20.371093103355385L1144.4596618647315,20.371093103355385L1145.2820750960586,20.371093103355385L1146.0222470042531,20.371093103355385L1146.926901558713,20.371093103355385L1147.9960387594383,20.371093103355385L1148.8184519907654,20.371093103355385L1149.7231065452254,20.371093103355385L1150.8744850690834,20.371093103355385L1151.6968983004108,20.371093103355385L1152.519311531738,20.371093103355385L1153.341724763065,20.371093103355385L1154.3286206406576,20.371093103355385L1154.9865512257195,20.371093103355385L1155.8089644570466,20.371093103355385L1157.0425843040373,20.371093103355385L1157.7827562122318,20.371093103355385L1158.4406867972937,20.371093103355385L1159.4275826748863,20.371093103355385L1160.2499959062134,20.371093103355385L1160.9079264912752,20.371093103355385L1161.8125810457352,20.371093103355385L1162.3882703076642,20.371093103355385L1163.1284422158587,20.371093103355385L1163.9508554471859,20.371093103355385L1164.9377513247784,20.371093103355385L1165.7601645561056,20.371093103355385L1166.829301756831,20.371093103355385L1168.0629216038217,20.371093103355385L1169.1320588045471,20.371093103355385L1170.2011960052723,20.371093103355385L1171.1880918828651,20.371093103355385L1172.2572290835903,20.371093103355385L1173.0796423149177,20.371093103355385L1174.2310208387757,20.371093103355385L1175.0534340701029,20.371093103355385L1176.204812593961,20.371093103355385L1177.2739497946864,20.371093103355385L1177.931880379748,20.371093103355385L1179.083258903606,20.371093103355385L1180.0701547811987,20.371093103355385L1180.7280853662605,20.371093103355385L1181.7149812438531,20.371093103355385L1182.4551531520476,20.371093103355385L1183.195325060242,20.371093103355385L1184.4289449072328,20.371093103355385L1185.3335994616928,20.371093103355385L1186.5672193086834,20.371093103355385L1187.4718738631434,20.371093103355385L1188.458769740736,20.371093103355385L1189.5279069414614,20.371093103355385L1190.4325614959214,20.371093103355385L1191.419457373514,20.371093103355385L1192.241870604841,20.371093103355385L1193.2287664824337,20.371093103355385L1193.8866970674956,20.371093103355385L1195.1203169144862,20.371093103355385L1195.8604888226807,20.371093103355385L1197.3408326390697,20.371093103355385L1198.2454871935295,20.371093103355385L1198.985659101724,20.371093103355385L1200.0547963024494,20.371093103355385L1200.8772095337765,20.371093103355385L1201.617381441971,20.371093103355385L1202.9332426120945,20.371093103355385L1203.673414520289,20.371093103355385L1204.4135864284833,20.371093103355385L1205.1537583366778,20.371093103355385L1205.9761715680052,20.371093103355385L1206.880826122465,20.371093103355385L1207.7854806769249,20.371093103355385L1208.6901352313848,20.371093103355385L1209.5947897858448,20.371093103355385L1210.5816856634374,20.371093103355385L1211.239616248499,20.371093103355385L1211.897546833561,20.371093103355385L1212.8022013880209,20.371093103355385L1213.871338588746,20.371093103355385L1214.6115104969406,20.371093103355385L1215.351682405135,20.371093103355385L1216.1740956364622,20.371093103355385L1217.2432328371874,20.371093103355385L1217.9834047453821,20.371093103355385L1218.9703006229747,20.371093103355385L1219.9571965005673,20.371093103355385L1220.5328857624963,20.371093103355385L1221.5197816400891,20.371093103355385L1222.5066775176815,20.371093103355385L1223.3290907490089,20.371093103355385L1223.9870213340705,20.371093103355385L1224.8916758885305,20.371093103355385L1226.3720197049195,20.371093103355385L1227.112191613114,20.371093103355385L1228.2635701369718,20.371093103355385L1229.41494866083,20.371093103355385L1230.3196032152898,20.371093103355385L1231.4709817391479,20.371093103355385L1232.4578776167405,20.371093103355385L1233.3625321712004,20.371093103355385L1234.4316693719259,20.371093103355385L1235.3363239263858,20.371093103355385L1235.9942545114475,20.371093103355385L1236.8989090659074,20.371093103355385L1237.8858049435,20.371093103355385L1238.3792528822962,20.371093103355385L1239.6128727292871,20.371093103355385L1240.4352859606142,20.371093103355385L1241.2576991919416,20.371093103355385L1242.3268363926668,20.371093103355385L1243.0670083008613,20.371093103355385L1244.0539041784539,20.371093103355385L1244.9585587329138,20.371093103355385L1245.8632132873738,20.371093103355385L1246.8501091649664,20.371093103355385L1247.837005042559,20.371093103355385L1248.741659597019,20.371093103355385L1249.4818315052134,20.371093103355385L1250.222003413408,20.371093103355385L1251.2088992910005,20.371093103355385L1252.5247604611238,20.371093103355385L1253.3471736924512,20.371093103355385L1254.1695869237783,20.371093103355385L1255.4032067707692,20.371093103355385L1256.307861325229,20.371093103355385L1256.9657919102908,20.371093103355385L1257.9526877878834,20.371093103355385L1258.939583665476,20.371093103355385L1259.6797555736705,20.371093103355385L1260.5844101281305,20.371093103355385L1261.7357886519885,20.371093103355385L1262.5582018833156,20.371093103355385L1263.5450977609082,20.371093103355385L1264.6964762847663,20.371093103355385L1265.3544068698282,20.371093103355385L1266.3413027474207,20.371093103355385L1267.163715978748,20.371093103355385L1268.0683705332078,20.371093103355385L1268.7263011182695,20.371093103355385L1269.3842317033314,20.371093103355385L1270.371127580924,20.371093103355385L1271.1112994891184,20.371093103355385L1272.0159540435784,20.371093103355385L1272.9206085980381,20.371093103355385L1273.825263152498,20.371093103355385L1274.8944003532235,20.371093103355385L1275.8812962308161,20.371093103355385L1276.8681921084087,20.371093103355385L1277.5261226934706,20.371093103355385L1278.5130185710632,20.371093103355385L1279.2531904792577,20.371093103355385L1280.2400863568503,20.371093103355385L1281.0624995881774,20.371093103355385L1281.9671541426374,20.371093103355385L1283.0362913433628,20.371093103355385L1284.1876698672206,20.371093103355385L1285.0923244216806,20.371093103355385L1285.832496329875,20.371093103355385L1286.6549095612022,20.371093103355385L1287.4773227925293,20.371093103355385L1288.7109426395202,20.371093103355385L1289.7800798402457,20.371093103355385L1290.7669757178382,20.371093103355385L1292.1650782110944,20.371093103355385L1293.3986980580853,20.371093103355385L1294.303352612545,20.371093103355385L1295.2902484901376,20.371093103355385L1296.0304203983321,20.371093103355385L1297.017316275925,20.371093103355385L1298.1686947997828,20.371093103355385L1299.0733493542427,20.371093103355385L1300.0602452318356,20.371093103355385L1300.8826584631627,20.371093103355385L1301.7050716944898,20.371093103355385L1302.6919675720824,20.371093103355385L1303.8433460959407,20.371093103355385L1304.9124832966659,20.371093103355385L1305.734896527993,20.371093103355385L1306.639551082453,20.371093103355385L1307.46196431378,20.371093103355385L1308.5311015145053,20.371093103355385L1309.4357560689655,20.371093103355385L1310.3404106234252,20.371093103355385L1311.2450651778852,20.371093103355385L1312.0674784092123,20.371093103355385L1313.5478222256013,20.371093103355385L1314.2879941337958,20.371093103355385L1315.2748900113884,20.371093103355385L1316.1795445658483,20.371093103355385L1317.0841991203083,20.371093103355385L1317.8243710285026,20.371093103355385L1318.564542936697,20.371093103355385L1319.5514388142897,20.371093103355385L1320.4560933687496,20.371093103355385L1321.1962652769441,20.371093103355385L1322.3476438008022,20.371093103355385L1323.3345396783948,20.371093103355385L1324.1569529097221,20.371093103355385L1325.2260901104473,20.371093103355385L1326.1307446649073,20.371093103355385L1327.3643645118982,20.371093103355385L1328.4335017126234,20.371093103355385L1329.5026389133488,20.371093103355385L1330.1605694984105,20.371093103355385L1331.3119480222686,20.371093103355385L1332.4633265461266,20.371093103355385L1333.1212571311883,20.371093103355385L1334.1081530087808,20.371093103355385L1335.0950488863737,20.371093103355385L1336.1641860870989,20.371093103355385L1337.1510819646917,20.371093103355385L1338.1379778422843,20.371093103355385L1339.2893563661423,20.371093103355385" style="fill: none;" fill="none"></path></g></g></g></g></g></g><g transform="translate(41, 375)" clip-path="url(#clip_1)"><clipPath id="clip_1"><rect width="1392" height="25"></rect></clipPath><g><g><line x1="94.2379654599123" y1="0" x2="94.2379654599123" y2="5" style="visibility: inherit;" fill="rgb(0, 0, 0)" stroke="rgb(204, 204, 204)" stroke-width="1px"></line><line x1="258.7206117253499" y1="0" x2="258.7206117253499" y2="5" style="visibility: inherit;" fill="rgb(0, 0, 0)" stroke="rgb(204, 204, 204)" stroke-width="1px"></line><line x1="423.2032579907875" y1="0" x2="423.2032579907875" y2="5" style="visibility: inherit;" fill="rgb(0, 0, 0)" stroke="rgb(204, 204, 204)" stroke-width="1px"></line><line x1="587.6859042562251" y1="0" x2="587.6859042562251" y2="5" style="visibility: inherit;" fill="rgb(0, 0, 0)" stroke="rgb(204, 204, 204)" stroke-width="1px"></line><line x1="752.1685505216627" y1="0" x2="752.1685505216627" y2="5" style="visibility: inherit;" fill="rgb(0, 0, 0)" stroke="rgb(204, 204, 204)" stroke-width="1px"></line><line x1="916.6511967871004" y1="0" x2="916.6511967871004" y2="5" style="visibility: inherit;" fill="rgb(0, 0, 0)" stroke="rgb(204, 204, 204)" stroke-width="1px"></line><line x1="1081.133843052538" y1="0" x2="1081.133843052538" y2="5" style="visibility: inherit;" fill="rgb(0, 0, 0)" stroke="rgb(204, 204, 204)" stroke-width="1px"></line><line x1="1245.6164893179755" y1="0" x2="1245.6164893179755" y2="5" style="visibility: inherit;" fill="rgb(0, 0, 0)" stroke="rgb(204, 204, 204)" stroke-width="1px"></line></g><g transform="translate(0, 8)"><text x="94.2379654599123" y="0" dx="0em" dy="0.95em" style="text-anchor: middle; visibility: inherit; font-family: Roboto, sans-serif; font-size: 12px; font-weight: 200;" fill="rgb(255, 255, 255)" stroke="none" stroke-width="1px">0</text><text x="258.7206117253499" y="0" dx="0em" dy="0.95em" style="text-anchor: middle; visibility: inherit; font-family: Roboto, sans-serif; font-size: 12px; font-weight: 200;" fill="rgb(255, 255, 255)" stroke="none" stroke-width="1px">2k</text><text x="423.2032579907875" y="0" dx="0em" dy="0.95em" style="text-anchor: middle; visibility: inherit; font-family: Roboto, sans-serif; font-size: 12px; font-weight: 200;" fill="rgb(255, 255, 255)" stroke="none" stroke-width="1px">4k</text><text x="587.6859042562251" y="0" dx="0em" dy="0.95em" style="text-anchor: middle; visibility: inherit; font-family: Roboto, sans-serif; font-size: 12px; font-weight: 200;" fill="rgb(255, 255, 255)" stroke="none" stroke-width="1px">6k</text><text x="752.1685505216627" y="0" dx="0em" dy="0.95em" style="text-anchor: middle; visibility: inherit; font-family: Roboto, sans-serif; font-size: 12px; font-weight: 200;" fill="rgb(255, 255, 255)" stroke="none" stroke-width="1px">8k</text><text x="916.6511967871004" y="0" dx="0em" dy="0.95em" style="text-anchor: middle; visibility: inherit; font-family: Roboto, sans-serif; font-size: 12px; font-weight: 200;" fill="rgb(255, 255, 255)" stroke="none" stroke-width="1px">10k</text><text x="1081.133843052538" y="0" dx="0em" dy="0.95em" style="text-anchor: middle; visibility: inherit; font-family: Roboto, sans-serif; font-size: 12px; font-weight: 200;" fill="rgb(255, 255, 255)" stroke="none" stroke-width="1px">12k</text><text x="1245.6164893179755" y="0" dx="0em" dy="0.95em" style="text-anchor: middle; visibility: inherit; font-family: Roboto, sans-serif; font-size: 12px; font-weight: 200;" fill="rgb(255, 255, 255)" stroke="none" stroke-width="1px">14k</text></g><line x1="0" y1="0" x2="1392.3125" y2="0" fill="rgb(0, 0, 0)" stroke="rgb(204, 204, 204)" stroke-width="1px"></line></g></g></g></g></svg>