<svg viewBox="0 0 633 400" xmlns="http://www.w3.org/2000/svg"><g><g><g><g><g><line x1="41.171875" y1="377" x2="36.171875" y2="377" style="visibility: inherit;" fill="rgb(0, 0, 0)" stroke="rgb(204, 204, 204)" stroke-width="1px"></line><line x1="41.171875" y1="342.7272727272727" x2="36.171875" y2="342.7272727272727" style="visibility: inherit;" fill="rgb(0, 0, 0)" stroke="rgb(204, 204, 204)" stroke-width="1px"></line><line x1="41.171875" y1="308.45454545454544" x2="36.171875" y2="308.45454545454544" style="visibility: inherit;" fill="rgb(0, 0, 0)" stroke="rgb(204, 204, 204)" stroke-width="1px"></line><line x1="41.171875" y1="274.1818181818182" x2="36.171875" y2="274.1818181818182" style="visibility: inherit;" fill="rgb(0, 0, 0)" stroke="rgb(204, 204, 204)" stroke-width="1px"></line><line x1="41.171875" y1="239.9090909090909" x2="36.171875" y2="239.9090909090909" style="visibility: inherit;" fill="rgb(0, 0, 0)" stroke="rgb(204, 204, 204)" stroke-width="1px"></line><line x1="41.171875" y1="205.63636363636363" x2="36.171875" y2="205.63636363636363" style="visibility: inherit;" fill="rgb(0, 0, 0)" stroke="rgb(204, 204, 204)" stroke-width="1px"></line><line x1="41.171875" y1="171.36363636363637" x2="36.171875" y2="171.36363636363637" style="visibility: inherit;" fill="rgb(0, 0, 0)" stroke="rgb(204, 204, 204)" stroke-width="1px"></line><line x1="41.171875" y1="137.0909090909091" x2="36.171875" y2="137.0909090909091" style="visibility: inherit;" fill="rgb(0, 0, 0)" stroke="rgb(204, 204, 204)" stroke-width="1px"></line><line x1="41.171875" y1="102.81818181818181" x2="36.171875" y2="102.81818181818181" style="visibility: inherit;" fill="rgb(0, 0, 0)" stroke="rgb(204, 204, 204)" stroke-width="1px"></line><line x1="41.171875" y1="68.54545454545453" x2="36.171875" y2="68.54545454545453" style="visibility: inherit;" fill="rgb(0, 0, 0)" stroke="rgb(204, 204, 204)" stroke-width="1px"></line><line x1="41.171875" y1="34.27272727272729" x2="36.171875" y2="34.27272727272729" style="visibility: inherit;" fill="rgb(0, 0, 0)" stroke="rgb(204, 204, 204)" stroke-width="1px"></line><line x1="41.171875" y1="0" x2="36.171875" y2="0" style="visibility: inherit;" fill="rgb(0, 0, 0)" stroke="rgb(204, 204, 204)" stroke-width="1px"></line></g><g transform="translate(31.171875, 0)"><text x="0" y="377" dx="0em" dy="0.3em" style="text-anchor: end; visibility: hidden; font-family: Roboto, sans-serif; font-size: 12px; font-weight: 200;" fill="rgb(33, 33, 33)" stroke="none" stroke-width="1px">0</text><text x="0" y="342.7272727272727" dx="0em" dy="0.3em" style="text-anchor: end; visibility: inherit; font-family: Roboto, sans-serif; font-size: 12px; font-weight: 200;" fill="rgb(33, 33, 33)" stroke="none" stroke-width="1px">20</text><text x="0" y="308.45454545454544" dx="0em" dy="0.3em" style="text-anchor: end; visibility: inherit; font-family: Roboto, sans-serif; font-size: 12px; font-weight: 200;" fill="rgb(33, 33, 33)" stroke="none" stroke-width="1px">40</text><text x="0" y="274.1818181818182" dx="0em" dy="0.3em" style="text-anchor: end; visibility: inherit; font-family: Roboto, sans-serif; font-size: 12px; font-weight: 200;" fill="rgb(33, 33, 33)" stroke="none" stroke-width="1px">60</text><text x="0" y="239.9090909090909" dx="0em" dy="0.3em" style="text-anchor: end; visibility: inherit; font-family: Roboto, sans-serif; font-size: 12px; font-weight: 200;" fill="rgb(33, 33, 33)" stroke="none" stroke-width="1px">80</text><text x="0" y="205.63636363636363" dx="0em" dy="0.3em" style="text-anchor: end; visibility: inherit; font-family: Roboto, sans-serif; font-size: 12px; font-weight: 200;" fill="rgb(33, 33, 33)" stroke="none" stroke-width="1px">100</text><text x="0" y="171.36363636363637" dx="0em" dy="0.3em" style="text-anchor: end; visibility: inherit; font-family: Roboto, sans-serif; font-size: 12px; font-weight: 200;" fill="rgb(33, 33, 33)" stroke="none" stroke-width="1px">120</text><text x="0" y="137.0909090909091" dx="0em" dy="0.3em" style="text-anchor: end; visibility: inherit; font-family: Roboto, sans-serif; font-size: 12px; font-weight: 200;" fill="rgb(33, 33, 33)" stroke="none" stroke-width="1px">140</text><text x="0" y="102.81818181818181" dx="0em" dy="0.3em" style="text-anchor: end; visibility: inherit; font-family: Roboto, sans-serif; font-size: 12px; font-weight: 200;" fill="rgb(33, 33, 33)" stroke="none" stroke-width="1px">160</text><text x="0" y="68.54545454545453" dx="0em" dy="0.3em" style="text-anchor: end; visibility: inherit; font-family: Roboto, sans-serif; font-size: 12px; font-weight: 200;" fill="rgb(33, 33, 33)" stroke="none" stroke-width="1px">180</text><text x="0" y="34.27272727272729" dx="0em" dy="0.3em" style="text-anchor: end; visibility: inherit; font-family: Roboto, sans-serif; font-size: 12px; font-weight: 200;" fill="rgb(33, 33, 33)" stroke="none" stroke-width="1px">200</text><text x="0" y="0" dx="0em" dy="0.3em" style="text-anchor: end; visibility: hidden; font-family: Roboto, sans-serif; font-size: 12px; font-weight: 200;" fill="rgb(33, 33, 33)" stroke="none" stroke-width="1px">220</text></g><line x1="41.171875" y1="0" x2="41.171875" y2="377" fill="rgb(0, 0, 0)" stroke="rgb(204, 204, 204)" stroke-width="1px"></line></g></g><g transform="translate(41, 0)" clip-path="url(#clip_0)"><clipPath id="clip_0"><rect width="591" height="377"></rect></clipPath><g><g><g><line x1="0" y1="0" x2="0" y2="377" fill="rgb(0, 0, 0)" stroke="rgb(66, 66, 66)" stroke-width="1px" opacity="0.25"></line><line x1="49.319010416666664" y1="0" x2="49.319010416666664" y2="377" fill="rgb(0, 0, 0)" stroke="rgb(66, 66, 66)" stroke-width="1px" opacity="0.25"></line><line x1="98.63802083333333" y1="0" x2="98.63802083333333" y2="377" fill="rgb(0, 0, 0)" stroke="rgb(66, 66, 66)" stroke-width="1px" opacity="0.25"></line><line x1="147.95703125" y1="0" x2="147.95703125" y2="377" fill="rgb(0, 0, 0)" stroke="rgb(66, 66, 66)" stroke-width="1px" opacity="0.25"></line><line x1="197.27604166666666" y1="0" x2="197.27604166666666" y2="377" fill="rgb(0, 0, 0)" stroke="rgb(66, 66, 66)" stroke-width="1px" opacity="0.25"></line><line x1="246.59505208333334" y1="0" x2="246.59505208333334" y2="377" fill="rgb(0, 0, 0)" stroke="rgb(66, 66, 66)" stroke-width="1px" opacity="0.25"></line><line x1="295.9140625" y1="0" x2="295.9140625" y2="377" fill="rgb(0, 0, 0)" stroke="rgb(66, 66, 66)" stroke-width="1px" opacity="0.25"></line><line x1="345.2330729166667" y1="0" x2="345.2330729166667" y2="377" fill="rgb(0, 0, 0)" stroke="rgb(66, 66, 66)" stroke-width="1px" opacity="0.25"></line><line x1="394.5520833333333" y1="0" x2="394.5520833333333" y2="377" fill="rgb(0, 0, 0)" stroke="rgb(66, 66, 66)" stroke-width="1px" opacity="0.25"></line><line x1="443.87109375" y1="0" x2="443.87109375" y2="377" fill="rgb(0, 0, 0)" stroke="rgb(66, 66, 66)" stroke-width="1px" opacity="0.25"></line><line x1="493.1901041666667" y1="0" x2="493.1901041666667" y2="377" fill="rgb(0, 0, 0)" stroke="rgb(66, 66, 66)" stroke-width="1px" opacity="0.25"></line><line x1="542.5091145833333" y1="0" x2="542.5091145833333" y2="377" fill="rgb(0, 0, 0)" stroke="rgb(66, 66, 66)" stroke-width="1px" opacity="0.25"></line><line x1="591.828125" y1="0" x2="591.828125" y2="377" fill="rgb(0, 0, 0)" stroke="rgb(66, 66, 66)" stroke-width="1px" opacity="0.25"></line></g><g><line x1="0" y1="377" x2="591.828125" y2="377" fill="rgb(0, 0, 0)" stroke="rgb(66, 66, 66)" stroke-width="1px" opacity="0.25"></line><line x1="0" y1="342.7272727272727" x2="591.828125" y2="342.7272727272727" fill="rgb(0, 0, 0)" stroke="rgb(66, 66, 66)" stroke-width="1px" opacity="0.25"></line><line x1="0" y1="308.45454545454544" x2="591.828125" y2="308.45454545454544" fill="rgb(0, 0, 0)" stroke="rgb(66, 66, 66)" stroke-width="1px" opacity="0.25"></line><line x1="0" y1="274.1818181818182" x2="591.828125" y2="274.1818181818182" fill="rgb(0, 0, 0)" stroke="rgb(66, 66, 66)" stroke-width="1px" opacity="0.25"></line><line x1="0" y1="239.9090909090909" x2="591.828125" y2="239.9090909090909" fill="rgb(0, 0, 0)" stroke="rgb(66, 66, 66)" stroke-width="1px" opacity="0.25"></line><line x1="0" y1="205.63636363636363" x2="591.828125" y2="205.63636363636363" fill="rgb(0, 0, 0)" stroke="rgb(66, 66, 66)" stroke-width="1px" opacity="0.25"></line><line x1="0" y1="171.36363636363637" x2="591.828125" y2="171.36363636363637" fill="rgb(0, 0, 0)" stroke="rgb(66, 66, 66)" stroke-width="1px" opacity="0.25"></line><line x1="0" y1="137.0909090909091" x2="591.828125" y2="137.0909090909091" fill="rgb(0, 0, 0)" stroke="rgb(66, 66, 66)" stroke-width="1px" opacity="0.25"></line><line x1="0" y1="102.81818181818181" x2="591.828125" y2="102.81818181818181" fill="rgb(0, 0, 0)" stroke="rgb(66, 66, 66)" stroke-width="1px" opacity="0.25"></line><line x1="0" y1="68.54545454545453" x2="591.828125" y2="68.54545454545453" fill="rgb(0, 0, 0)" stroke="rgb(66, 66, 66)" stroke-width="1px" opacity="0.25"></line><line x1="0" y1="34.27272727272729" x2="591.828125" y2="34.27272727272729" fill="rgb(0, 0, 0)" stroke="rgb(66, 66, 66)" stroke-width="1px" opacity="0.25"></line><line x1="0" y1="0" x2="591.828125" y2="0" fill="rgb(0, 0, 0)" stroke="rgb(66, 66, 66)" stroke-width="1px" opacity="0.25"></line></g></g></g><g><g><line x1="0" y1="377" x2="591.828125" y2="377" fill="rgb(0, 0, 0)" stroke="rgb(153, 153, 153)" stroke-width="1.5px"></line></g></g><g><g><line x1="49.319010416666664" y1="0" x2="49.319010416666664" y2="377" fill="rgb(0, 0, 0)" stroke="rgb(153, 153, 153)" stroke-width="1.5px"></line></g></g><g><g><g><g><g><path stroke="rgb(0, 119, 187)" stroke-width="2px" d="M50.305390625,359.8636363636364L51.29177083333334,351.29545454545456L52.27815104166667,341.01363636363635L53.26453125,342.7272727272727L54.25091145833333,353.0090909090909L55.23729166666667,282.75L56.223671875,353.0090909090909L57.21005208333333,356.43636363636364L58.19643229166666,347.8681818181818L59.182812500000004,323.8772727272727L60.169192708333334,351.29545454545456L61.155572916666664,317.0227272727273L62.141953125,356.43636363636364L63.12833333333334,335.8727272727273L64.11471354166667,347.8681818181818L65.10109375,346.1545454545455L66.08747395833333,323.8772727272727L67.07385416666666,269.0409090909091L68.06023437500001,320.45L69.04661458333334,323.8772727272727L70.03299479166667,342.7272727272727L71.019375,346.1545454545455L72.00575520833334,335.8727272727273L72.99213541666667,344.4409090909091L73.978515625,325.5909090909091L74.96489583333334,339.3L75.95127604166666,351.29545454545456L76.93765625,291.3181818181818L77.92403645833332,347.8681818181818L78.91041666666666,274.1818181818182L79.896796875,359.8636363636364L80.88317708333332,301.6L81.86955729166667,341.01363636363635L82.85593750000001,351.29545454545456L83.84231770833333,245.05L84.82869791666667,325.5909090909091L85.815078125,291.3181818181818L86.80145833333333,248.47727272727275L87.78783854166667,318.73636363636365L88.77421875,306.7409090909091L89.76059895833333,263.9L90.74697916666666,323.8772727272727L91.733359375,353.0090909090909L92.71973958333334,281.03636363636366L93.70611979166667,323.8772727272727L94.6925,308.45454545454544L95.67888020833333,306.7409090909091L96.66526041666667,346.1545454545455L97.651640625,354.7227272727273L98.63802083333333,310.16818181818184L99.62440104166667,322.16363636363633L100.61078125,303.31363636363636L101.59716145833333,359.8636363636364L102.58354166666668,320.45L103.56992187499999,339.3L104.55630208333334,329.01818181818186L105.54268229166668,351.29545454545456L106.5290625,310.16818181818184L107.51544270833334,311.8818181818182L108.50182291666665,169.64999999999998L109.488203125,349.58181818181816L110.47458333333334,227.91363636363636L111.46096354166666,260.4727272727273L112.44734375,270.7545454545455L113.43372395833335,339.3L114.42010416666666,322.16363636363633L115.406484375,329.01818181818186L116.39286458333332,327.30454545454546L117.37924479166666,334.1590909090909L118.36562500000001,346.1545454545455L119.35200520833332,347.8681818181818L120.33838541666667,325.5909090909091L121.324765625,351.29545454545456L122.31114583333333,341.01363636363635L123.29752604166667,311.8818181818182L124.28390625,330.7318181818182L125.27028645833333,329.01818181818186L126.25666666666667,347.8681818181818L127.243046875,356.43636363636364L128.22942708333335,339.3L129.21580729166666,327.30454545454546L130.2021875,356.43636363636364L131.18856770833335,323.8772727272727L132.17494791666667,310.16818181818184L133.161328125,313.5954545454545L134.14770833333333,310.16818181818184L135.13408854166667,329.01818181818186L136.12046875000001,332.44545454545454L137.10684895833333,353.0090909090909L138.09322916666667,351.29545454545456L139.079609375,353.0090909090909L140.06598958333333,234.76818181818183L141.05236979166668,318.73636363636365L142.03875,349.58181818181816L143.02513020833334,205.63636363636363L144.01151041666668,359.8636363636364L144.997890625,327.30454545454546L145.98427083333334,323.8772727272727L146.97065104166666,334.1590909090909L147.95703125,347.8681818181818L148.94341145833332,358.15L149.9297916666667,245.05L150.916171875,341.01363636363635L151.90255208333332,335.8727272727273L152.8889322916667,347.8681818181818L153.8753125,311.8818181818182L154.86169270833332,301.6L155.84807291666664,320.45L156.834453125,358.15L157.82083333333333,320.45L158.80721354166664,250.19090909090906L159.79359375,335.8727272727273L160.77997395833333,299.8863636363636L161.76635416666664,315.3090909090909L162.75273437500002,349.58181818181816L163.73911458333333,299.8863636363636L164.72549479166665,301.6L165.71187500000002,308.45454545454544L166.69825520833334,353.0090909090909L167.68463541666665,339.3L168.671015625,330.7318181818182L169.65739583333334,327.30454545454546L170.64377604166665,291.3181818181818L171.63015625,282.75L172.61653645833334,337.58636363636367L173.60291666666666,306.7409090909091L174.589296875,286.1772727272727L175.57567708333335,347.8681818181818L176.56205729166666,323.8772727272727L177.5484375,318.73636363636365L178.53481770833335,327.30454545454546L179.52119791666667,329.01818181818186L180.507578125,342.7272727272727L181.49395833333332,279.3227272727273L182.48033854166667,296.4590909090909L183.46671875,323.8772727272727L184.45309895833333,227.91363636363636L185.43947916666667,334.1590909090909L186.425859375,294.74545454545455L187.41223958333333,245.05L188.39861979166668,339.3L189.385,330.7318181818182L190.37138020833333,342.7272727272727L191.35776041666665,281.03636363636366L192.344140625,339.3L193.33052083333334,351.29545454545456L194.31690104166665,299.8863636363636L195.30328125,301.6L196.28966145833334,322.16363636363633L197.27604166666666,270.7545454545455L198.262421875,342.7272727272727L199.24880208333335,330.7318181818182L200.23518229166666,305.0272727272727L201.2215625,311.8818181818182L202.20794270833335,310.16818181818184L203.19432291666666,267.3272727272727L204.18070312499998,258.7590909090909L205.16708333333335,299.8863636363636L206.15346354166667,344.4409090909091L207.13984374999998,193.6409090909091L208.12622395833336,281.03636363636366L209.11260416666667,344.4409090909091L210.098984375,303.31363636363636L211.08536458333336,339.3L212.07174479166667,330.7318181818182L213.058125,233.05454545454546L214.04450520833336,107.95909090909092L215.03088541666668,263.9L216.017265625,217.63181818181818L217.0036458333333,34.27272727272729L217.99002604166668,303.31363636363636L218.97640625,327.30454545454546L219.9627864583333,253.61818181818182L220.94916666666668,353.0090909090909L221.935546875,250.19090909090906L222.92192708333332,215.91818181818184L223.9083072916667,281.03636363636366L224.8946875,284.46363636363634L225.88106770833332,185.0727272727273L226.8674479166667,317.0227272727273L227.853828125,277.6090909090909L228.84020833333332,310.16818181818184L229.82658854166664,221.05909090909094L230.81296875,265.6136363636364L231.79934895833333,298.1727272727273L232.78572916666664,303.31363636363636L233.772109375,169.64999999999998L234.75848958333333,294.74545454545455L235.74486979166664,272.4681818181818L236.73125000000002,337.58636363636367L237.71763020833333,318.73636363636365L238.70401041666665,270.7545454545455L239.69039062500002,337.58636363636367L240.67677083333334,277.6090909090909L241.66315104166665,257.04545454545456L242.64953125,310.16818181818184L243.63591145833334,227.91363636363636L244.62229166666665,135.37727272727275L245.608671875,205.63636363636363L246.59505208333334,277.6090909090909L247.58143229166666,34.27272727272729L248.5678125,203.92272727272726L249.55419270833335,203.92272727272726L250.54057291666666,353.0090909090909L251.526953125,263.9L252.51333333333335,202.20909090909092L253.49971354166667,269.0409090909091L254.48609375,282.75L255.47247395833332,198.7818181818182L256.4588541666667,323.8772727272727L257.445234375,221.05909090909094L258.4316145833333,323.8772727272727L259.4179947916667,337.58636363636367L260.404375,34.27272727272729L261.3907552083333,270.7545454545455L262.3771354166667,315.3090909090909L263.363515625,101.10454545454546L264.34989583333333,123.38181818181818L265.3362760416667,135.37727272727275L266.32265625,214.20454545454544L267.3090364583333,231.3409090909091L268.29541666666665,178.21818181818185L269.281796875,207.35000000000002L270.26817708333334,258.7590909090909L271.25455729166663,353.0090909090909L272.24093750000003,260.4727272727273L273.2273177083333,233.05454545454546L274.21369791666666,263.9L275.200078125,203.92272727272726L276.18645833333335,293.0318181818182L277.17283854166664,327.30454545454546L278.15921875,334.1590909090909L279.1455989583333,179.9318181818182L280.13197916666667,277.6090909090909L281.118359375,239.9090909090909L282.10473958333336,335.8727272727273L283.09111979166664,334.1590909090909L284.0775,346.1545454545455L285.06388020833333,344.4409090909091L286.0502604166667,329.01818181818186L287.036640625,95.96363636363635L288.02302083333336,251.90454545454546L289.00940104166665,114.81363636363638L289.99578125,342.7272727272727L290.98216145833334,221.05909090909094L291.9685416666667,339.3L292.954921875,263.9L293.9413020833333,217.63181818181818L294.92768229166666,277.6090909090909L295.9140625,250.19090909090906L296.90044270833334,282.75L297.88682291666663,121.66818181818182L298.873203125,202.20909090909092L299.8595833333334,214.20454545454544L300.84596354166666,221.05909090909094L301.83234375,241.62272727272725L302.81872395833335,207.35000000000002L303.80510416666664,202.20909090909092L304.791484375,203.92272727272726L305.7778645833334,150.8L306.76424479166667,119.95454545454547L307.750625,99.3909090909091L308.7370052083333,169.64999999999998L309.72338541666664,262.18636363636364L310.709765625,248.47727272727275L311.6961458333333,224.48636363636365L312.6825260416667,263.9L313.66890625,193.6409090909091L314.6552864583333,171.36363636363637L315.64166666666665,287.8909090909091L316.628046875,207.35000000000002L317.6144270833333,239.9090909090909L318.6008072916667,53.12272727272726L319.5871875,47.9818181818182L320.5735677083333,65.11818181818182L321.55994791666666,34.27272727272729L322.546328125,173.07727272727274L323.5327083333333,34.27272727272729L324.5190885416667,167.93636363636364L325.50546875000003,152.51363636363635L326.4918489583333,71.97272727272727L327.47822916666667,34.27272727272729L328.464609375,183.3590909090909L329.4509895833333,286.1772727272727L330.4373697916667,246.76363636363635L331.42375000000004,94.25L332.4101302083333,287.8909090909091L333.3965104166667,123.38181818181818L334.38289062499996,113.10000000000002L335.3692708333333,83.96818181818183L336.3556510416667,90.82272727272729L337.34203125,185.0727272727273L338.32841145833333,258.7590909090909L339.3147916666667,159.36818181818182L340.30117187499997,227.91363636363636L341.2875520833333,133.66363636363636L342.2739322916667,44.55454545454545L343.2603125,34.27272727272729L344.24669270833334,34.27272727272729L345.2330729166667,123.38181818181818L346.219453125,34.27272727272729L347.2058333333333,190.21363636363634L348.1922135416667,200.49545454545452L349.17859375,251.90454545454546L350.16497395833335,135.37727272727275L351.1513541666667,157.65454545454546L352.137734375,267.3272727272727L353.1241145833333,219.34545454545454L354.1104947916667,305.0272727272727L355.096875,186.78636363636366L356.08325520833336,107.95909090909092L357.0696354166667,317.0227272727273L358.056015625,159.36818181818182L359.04239583333333,191.9272727272727L360.0287760416666,77.11363636363637L361.01515625,51.40909090909091L362.00153645833336,255.33181818181816L362.98791666666665,34.27272727272729L363.974296875,104.53181818181817L364.96067708333334,34.27272727272729L365.9470572916666,298.1727272727273L366.9334375,34.27272727272729L367.91981770833337,34.27272727272729L368.90619791666666,35.986363636363635L369.892578125,325.5909090909091L370.87895833333334,137.0909090909091L371.86533854166663,104.53181818181817L372.85171875,34.27272727272729L373.8380989583334,161.08181818181816L374.82447916666666,34.27272727272729L375.810859375,34.27272727272729L376.79723958333335,298.1727272727273L377.78361979166664,118.24090909090908L378.77,133.66363636363636L379.7563802083334,231.3409090909091L380.74276041666667,34.27272727272729L381.729140625,65.11818181818182L382.7155208333333,305.0272727272727L383.70190104166664,35.986363636363635L384.68828125,191.9272727272727L385.6746614583333,133.66363636363636L386.6610416666667,143.94545454545454L387.647421875,133.66363636363636L388.6338020833333,116.52727272727273L389.62018229166665,34.27272727272729L390.6065625,111.38636363636363L391.5929427083333,121.66818181818182L392.5793229166667,34.27272727272729L393.565703125,51.40909090909091L394.5520833333333,34.27272727272729L395.53846354166666,34.27272727272729L396.52484375,118.24090909090908L397.5112239583333,138.80454545454546L398.4976041666667,193.6409090909091L399.48398437500003,178.21818181818185L400.4703645833333,334.1590909090909L401.45674479166667,34.27272727272729L402.443125,34.27272727272729L403.4295052083333,34.27272727272729L404.4158854166667,236.48181818181817L405.40226562500004,133.66363636363636L406.3886458333333,173.07727272727274L407.3750260416667,58.263636363636365L408.36140624999996,126.80909090909088L409.3477864583333,125.09545454545453L410.3341666666667,315.3090909090909L411.320546875,104.53181818181817L412.30692708333333,181.64545454545456L413.2933072916667,142.2318181818182L414.27968749999997,234.76818181818183L415.2660677083333,243.33636363636364L416.2524479166667,78.82727272727273L417.238828125,251.90454545454546L418.22520833333334,181.64545454545456L419.2115885416667,34.27272727272729L420.19796875,317.0227272727273L421.1843489583333,106.24545454545456L422.1707291666667,282.75L423.157109375,34.27272727272729L424.14348958333335,34.27272727272729L425.1298697916667,251.90454545454546L426.11625,97.67727272727271L427.1026302083333,214.20454545454544L428.0890104166667,219.34545454545454L429.075390625,78.82727272727273L430.06177083333336,65.11818181818182L431.0481510416667,34.27272727272729L432.03453125,130.23636363636365L433.02091145833333,258.7590909090909L434.0072916666666,166.22272727272727L434.993671875,59.97727272727271L435.98005208333336,34.27272727272729L436.96643229166665,68.54545454545453L437.9528125,179.9318181818182L438.93919270833334,34.27272727272729L439.9255729166666,34.27272727272729L440.911953125,34.27272727272729L441.89833333333337,303.31363636363636L442.88471354166666,272.4681818181818L443.87109375,34.27272727272729L444.85747395833334,306.7409090909091L445.84385416666663,75.39999999999998L446.830234375,49.69545454545455L447.8166145833334,34.27272727272729L448.80299479166666,34.27272727272729L449.789375,34.27272727272729L450.77575520833335,269.0409090909091L451.76213541666664,34.27272727272729L452.748515625,277.6090909090909L453.7348958333334,34.27272727272729L454.72127604166667,34.27272727272729L455.70765625,34.27272727272729L456.6940364583333,106.24545454545456L457.68041666666664,82.25454545454544L458.666796875,34.27272727272729L459.6531770833333,82.25454545454544L460.6395572916667,126.80909090909088L461.6259375,70.25909090909092L462.6123177083333,34.27272727272729L463.59869791666665,34.27272727272729L464.585078125,173.07727272727274L465.5714583333333,195.35454545454544L466.5578385416667,125.09545454545453L467.54421875,34.27272727272729L468.5305989583333,154.22727272727272L469.51697916666666,183.3590909090909L470.503359375,176.50454545454545L471.4897395833333,80.54090909090908L472.4761197916667,155.94090909090912L473.46250000000003,34.27272727272729L474.4488802083333,71.97272727272727L475.43526041666667,46.2681818181818L476.421640625,87.39545454545454L477.4080208333333,34.27272727272729L478.3944010416667,34.27272727272729L479.38078125000004,226.2L480.3671614583333,34.27272727272729L481.3535416666667,34.27272727272729L482.33992187499996,104.53181818181817L483.3263020833333,73.68636363636362L484.3126822916667,34.27272727272729L485.2990625,37.69999999999999L486.28544270833333,34.27272727272729L487.2718229166667,34.27272727272729L488.25820312499997,80.54090909090908L489.2445833333333,34.27272727272729L490.2309635416667,34.27272727272729L491.21734375,34.27272727272729L492.20372395833334,34.27272727272729L493.1901041666667,34.27272727272729L494.176484375,34.27272727272729L495.1628645833333,34.27272727272729L496.1492447916667,44.55454545454545L497.135625,34.27272727272729L498.12200520833335,34.27272727272729L499.1083854166667,34.27272727272729L500.094765625,34.27272727272729L501.0811458333333,353.0090909090909L502.0675260416667,34.27272727272729L503.05390625,34.27272727272729L504.04028645833336,34.27272727272729L505.0266666666667,34.27272727272729L506.013046875,34.27272727272729L506.99942708333333,241.62272727272725L507.9858072916666,34.27272727272729L508.9721875,205.63636363636363L509.95856770833336,34.27272727272729L510.94494791666665,83.96818181818183L511.931328125,34.27272727272729L512.9177083333334,128.52272727272728L513.9040885416666,34.27272727272729L514.89046875,34.27272727272729L515.8768489583333,34.27272727272729L516.8632291666667,34.27272727272729L517.849609375,34.27272727272729L518.8359895833333,58.263636363636365L519.8223697916667,102.81818181818181L520.80875,34.27272727272729L521.7951302083334,145.6590909090909L522.7815104166666,95.96363636363635L523.767890625,70.25909090909092L524.7542708333334,34.27272727272729L525.7406510416666,34.27272727272729L526.72703125,34.27272727272729L527.7134114583333,34.27272727272729L528.6997916666667,253.61818181818182L529.686171875,34.27272727272729L530.6725520833334,34.27272727272729L531.6589322916667,34.27272727272729L532.6453125,34.27272727272729L533.6316927083333,34.27272727272729L534.6180729166666,166.22272727272727L535.604453125,54.83636363636366L536.5908333333333,34.27272727272729L537.5772135416667,34.27272727272729L538.56359375,90.82272727272729L539.5499739583333,34.27272727272729L540.5363541666667,265.6136363636364L541.522734375,34.27272727272729L542.5091145833333,176.50454545454545" style="fill: none;" fill="none"></path></g></g></g></g></g></g><g transform="translate(41, 377)" clip-path="url(#clip_1)"><clipPath id="clip_1"><rect width="591" height="23"></rect></clipPath><g><g><line x1="0" y1="0" x2="0" y2="5" style="visibility: inherit;" fill="rgb(0, 0, 0)" stroke="rgb(204, 204, 204)" stroke-width="1px"></line><line x1="49.319010416666664" y1="0" x2="49.319010416666664" y2="5" style="visibility: inherit;" fill="rgb(0, 0, 0)" stroke="rgb(204, 204, 204)" stroke-width="1px"></line><line x1="98.63802083333333" y1="0" x2="98.63802083333333" y2="5" style="visibility: inherit;" fill="rgb(0, 0, 0)" stroke="rgb(204, 204, 204)" stroke-width="1px"></line><line x1="147.95703125" y1="0" x2="147.95703125" y2="5" style="visibility: inherit;" fill="rgb(0, 0, 0)" stroke="rgb(204, 204, 204)" stroke-width="1px"></line><line x1="197.27604166666666" y1="0" x2="197.27604166666666" y2="5" style="visibility: inherit;" fill="rgb(0, 0, 0)" stroke="rgb(204, 204, 204)" stroke-width="1px"></line><line x1="246.59505208333334" y1="0" x2="246.59505208333334" y2="5" style="visibility: inherit;" fill="rgb(0, 0, 0)" stroke="rgb(204, 204, 204)" stroke-width="1px"></line><line x1="295.9140625" y1="0" x2="295.9140625" y2="5" style="visibility: inherit;" fill="rgb(0, 0, 0)" stroke="rgb(204, 204, 204)" stroke-width="1px"></line><line x1="345.2330729166667" y1="0" x2="345.2330729166667" y2="5" style="visibility: inherit;" fill="rgb(0, 0, 0)" stroke="rgb(204, 204, 204)" stroke-width="1px"></line><line x1="394.5520833333333" y1="0" x2="394.5520833333333" y2="5" style="visibility: inherit;" fill="rgb(0, 0, 0)" stroke="rgb(204, 204, 204)" stroke-width="1px"></line><line x1="443.87109375" y1="0" x2="443.87109375" y2="5" style="visibility: inherit;" fill="rgb(0, 0, 0)" stroke="rgb(204, 204, 204)" stroke-width="1px"></line><line x1="493.1901041666667" y1="0" x2="493.1901041666667" y2="5" style="visibility: inherit;" fill="rgb(0, 0, 0)" stroke="rgb(204, 204, 204)" stroke-width="1px"></line><line x1="542.5091145833333" y1="0" x2="542.5091145833333" y2="5" style="visibility: inherit;" fill="rgb(0, 0, 0)" stroke="rgb(204, 204, 204)" stroke-width="1px"></line><line x1="591.828125" y1="0" x2="591.828125" y2="5" style="visibility: inherit;" fill="rgb(0, 0, 0)" stroke="rgb(204, 204, 204)" stroke-width="1px"></line></g><g transform="translate(0, 8)"><text x="0" y="0" dx="0em" dy="0.95em" style="text-anchor: middle; visibility: hidden; font-family: Roboto, sans-serif; font-size: 12px; font-weight: 200;" fill="rgb(33, 33, 33)" stroke="none" stroke-width="1px">-50</text><text x="49.319010416666664" y="0" dx="0em" dy="0.95em" style="text-anchor: middle; visibility: inherit; font-family: Roboto, sans-serif; font-size: 12px; font-weight: 200;" fill="rgb(33, 33, 33)" stroke="none" stroke-width="1px">0</text><text x="98.63802083333333" y="0" dx="0em" dy="0.95em" style="text-anchor: middle; visibility: inherit; font-family: Roboto, sans-serif; font-size: 12px; font-weight: 200;" fill="rgb(33, 33, 33)" stroke="none" stroke-width="1px">50</text><text x="147.95703125" y="0" dx="0em" dy="0.95em" style="text-anchor: middle; visibility: inherit; font-family: Roboto, sans-serif; font-size: 12px; font-weight: 200;" fill="rgb(33, 33, 33)" stroke="none" stroke-width="1px">100</text><text x="197.27604166666666" y="0" dx="0em" dy="0.95em" style="text-anchor: middle; visibility: inherit; font-family: Roboto, sans-serif; font-size: 12px; font-weight: 200;" fill="rgb(33, 33, 33)" stroke="none" stroke-width="1px">150</text><text x="246.59505208333334" y="0" dx="0em" dy="0.95em" style="text-anchor: middle; visibility: inherit; font-family: Roboto, sans-serif; font-size: 12px; font-weight: 200;" fill="rgb(33, 33, 33)" stroke="none" stroke-width="1px">200</text><text x="295.9140625" y="0" dx="0em" dy="0.95em" style="text-anchor: middle; visibility: inherit; font-family: Roboto, sans-serif; font-size: 12px; font-weight: 200;" fill="rgb(33, 33, 33)" stroke="none" stroke-width="1px">250</text><text x="345.2330729166667" y="0" dx="0em" dy="0.95em" style="text-anchor: middle; visibility: inherit; font-family: Roboto, sans-serif; font-size: 12px; font-weight: 200;" fill="rgb(33, 33, 33)" stroke="none" stroke-width="1px">300</text><text x="394.5520833333333" y="0" dx="0em" dy="0.95em" style="text-anchor: middle; visibility: inherit; font-family: Roboto, sans-serif; font-size: 12px; font-weight: 200;" fill="rgb(33, 33, 33)" stroke="none" stroke-width="1px">350</text><text x="443.87109375" y="0" dx="0em" dy="0.95em" style="text-anchor: middle; visibility: inherit; font-family: Roboto, sans-serif; font-size: 12px; font-weight: 200;" fill="rgb(33, 33, 33)" stroke="none" stroke-width="1px">400</text><text x="493.1901041666667" y="0" dx="0em" dy="0.95em" style="text-anchor: middle; visibility: inherit; font-family: Roboto, sans-serif; font-size: 12px; font-weight: 200;" fill="rgb(33, 33, 33)" stroke="none" stroke-width="1px">450</text><text x="542.5091145833333" y="0" dx="0em" dy="0.95em" style="text-anchor: middle; visibility: inherit; font-family: Roboto, sans-serif; font-size: 12px; font-weight: 200;" fill="rgb(33, 33, 33)" stroke="none" stroke-width="1px">500</text><text x="591.828125" y="0" dx="0em" dy="0.95em" style="text-anchor: middle; visibility: hidden; font-family: Roboto, sans-serif; font-size: 12px; font-weight: 200;" fill="rgb(33, 33, 33)" stroke="none" stroke-width="1px">550</text></g><line x1="0" y1="0" x2="591.828125" y2="0" fill="rgb(0, 0, 0)" stroke="rgb(204, 204, 204)" stroke-width="1px"></line></g></g></g></g></svg>