<svg viewBox="0 0 633 400" xmlns="http://www.w3.org/2000/svg"><g><g><g><g><g><line x1="41.171875" y1="377" x2="36.171875" y2="377" style="visibility: inherit;" fill="rgb(0, 0, 0)" stroke="rgb(204, 204, 204)" stroke-width="1px"></line><line x1="41.171875" y1="342.7272727272727" x2="36.171875" y2="342.7272727272727" style="visibility: inherit;" fill="rgb(0, 0, 0)" stroke="rgb(204, 204, 204)" stroke-width="1px"></line><line x1="41.171875" y1="308.45454545454544" x2="36.171875" y2="308.45454545454544" style="visibility: inherit;" fill="rgb(0, 0, 0)" stroke="rgb(204, 204, 204)" stroke-width="1px"></line><line x1="41.171875" y1="274.1818181818182" x2="36.171875" y2="274.1818181818182" style="visibility: inherit;" fill="rgb(0, 0, 0)" stroke="rgb(204, 204, 204)" stroke-width="1px"></line><line x1="41.171875" y1="239.9090909090909" x2="36.171875" y2="239.9090909090909" style="visibility: inherit;" fill="rgb(0, 0, 0)" stroke="rgb(204, 204, 204)" stroke-width="1px"></line><line x1="41.171875" y1="205.63636363636363" x2="36.171875" y2="205.63636363636363" style="visibility: inherit;" fill="rgb(0, 0, 0)" stroke="rgb(204, 204, 204)" stroke-width="1px"></line><line x1="41.171875" y1="171.36363636363637" x2="36.171875" y2="171.36363636363637" style="visibility: inherit;" fill="rgb(0, 0, 0)" stroke="rgb(204, 204, 204)" stroke-width="1px"></line><line x1="41.171875" y1="137.0909090909091" x2="36.171875" y2="137.0909090909091" style="visibility: inherit;" fill="rgb(0, 0, 0)" stroke="rgb(204, 204, 204)" stroke-width="1px"></line><line x1="41.171875" y1="102.81818181818181" x2="36.171875" y2="102.81818181818181" style="visibility: inherit;" fill="rgb(0, 0, 0)" stroke="rgb(204, 204, 204)" stroke-width="1px"></line><line x1="41.171875" y1="68.54545454545453" x2="36.171875" y2="68.54545454545453" style="visibility: inherit;" fill="rgb(0, 0, 0)" stroke="rgb(204, 204, 204)" stroke-width="1px"></line><line x1="41.171875" y1="34.27272727272729" x2="36.171875" y2="34.27272727272729" style="visibility: inherit;" fill="rgb(0, 0, 0)" stroke="rgb(204, 204, 204)" stroke-width="1px"></line><line x1="41.171875" y1="0" x2="36.171875" y2="0" style="visibility: inherit;" fill="rgb(0, 0, 0)" stroke="rgb(204, 204, 204)" stroke-width="1px"></line></g><g transform="translate(31.171875, 0)"><text x="0" y="377" dx="0em" dy="0.3em" style="text-anchor: end; visibility: hidden; font-family: Roboto, sans-serif; font-size: 12px; font-weight: 200;" fill="rgb(33, 33, 33)" stroke="none" stroke-width="1px">0</text><text x="0" y="342.7272727272727" dx="0em" dy="0.3em" style="text-anchor: end; visibility: inherit; font-family: Roboto, sans-serif; font-size: 12px; font-weight: 200;" fill="rgb(33, 33, 33)" stroke="none" stroke-width="1px">20</text><text x="0" y="308.45454545454544" dx="0em" dy="0.3em" style="text-anchor: end; visibility: inherit; font-family: Roboto, sans-serif; font-size: 12px; font-weight: 200;" fill="rgb(33, 33, 33)" stroke="none" stroke-width="1px">40</text><text x="0" y="274.1818181818182" dx="0em" dy="0.3em" style="text-anchor: end; visibility: inherit; font-family: Roboto, sans-serif; font-size: 12px; font-weight: 200;" fill="rgb(33, 33, 33)" stroke="none" stroke-width="1px">60</text><text x="0" y="239.9090909090909" dx="0em" dy="0.3em" style="text-anchor: end; visibility: inherit; font-family: Roboto, sans-serif; font-size: 12px; font-weight: 200;" fill="rgb(33, 33, 33)" stroke="none" stroke-width="1px">80</text><text x="0" y="205.63636363636363" dx="0em" dy="0.3em" style="text-anchor: end; visibility: inherit; font-family: Roboto, sans-serif; font-size: 12px; font-weight: 200;" fill="rgb(33, 33, 33)" stroke="none" stroke-width="1px">100</text><text x="0" y="171.36363636363637" dx="0em" dy="0.3em" style="text-anchor: end; visibility: inherit; font-family: Roboto, sans-serif; font-size: 12px; font-weight: 200;" fill="rgb(33, 33, 33)" stroke="none" stroke-width="1px">120</text><text x="0" y="137.0909090909091" dx="0em" dy="0.3em" style="text-anchor: end; visibility: inherit; font-family: Roboto, sans-serif; font-size: 12px; font-weight: 200;" fill="rgb(33, 33, 33)" stroke="none" stroke-width="1px">140</text><text x="0" y="102.81818181818181" dx="0em" dy="0.3em" style="text-anchor: end; visibility: inherit; font-family: Roboto, sans-serif; font-size: 12px; font-weight: 200;" fill="rgb(33, 33, 33)" stroke="none" stroke-width="1px">160</text><text x="0" y="68.54545454545453" dx="0em" dy="0.3em" style="text-anchor: end; visibility: inherit; font-family: Roboto, sans-serif; font-size: 12px; font-weight: 200;" fill="rgb(33, 33, 33)" stroke="none" stroke-width="1px">180</text><text x="0" y="34.27272727272729" dx="0em" dy="0.3em" style="text-anchor: end; visibility: inherit; font-family: Roboto, sans-serif; font-size: 12px; font-weight: 200;" fill="rgb(33, 33, 33)" stroke="none" stroke-width="1px">200</text><text x="0" y="0" dx="0em" dy="0.3em" style="text-anchor: end; visibility: hidden; font-family: Roboto, sans-serif; font-size: 12px; font-weight: 200;" fill="rgb(33, 33, 33)" stroke="none" stroke-width="1px">220</text></g><line x1="41.171875" y1="0" x2="41.171875" y2="377" fill="rgb(0, 0, 0)" stroke="rgb(204, 204, 204)" stroke-width="1px"></line></g></g><g transform="translate(41, 0)" clip-path="url(#clip_0)"><clipPath id="clip_0"><rect width="591" height="377"></rect></clipPath><g><g><g><line x1="0" y1="0" x2="0" y2="377" fill="rgb(0, 0, 0)" stroke="rgb(66, 66, 66)" stroke-width="1px" opacity="0.25"></line><line x1="49.319010416666664" y1="0" x2="49.319010416666664" y2="377" fill="rgb(0, 0, 0)" stroke="rgb(66, 66, 66)" stroke-width="1px" opacity="0.25"></line><line x1="98.63802083333333" y1="0" x2="98.63802083333333" y2="377" fill="rgb(0, 0, 0)" stroke="rgb(66, 66, 66)" stroke-width="1px" opacity="0.25"></line><line x1="147.95703125" y1="0" x2="147.95703125" y2="377" fill="rgb(0, 0, 0)" stroke="rgb(66, 66, 66)" stroke-width="1px" opacity="0.25"></line><line x1="197.27604166666666" y1="0" x2="197.27604166666666" y2="377" fill="rgb(0, 0, 0)" stroke="rgb(66, 66, 66)" stroke-width="1px" opacity="0.25"></line><line x1="246.59505208333334" y1="0" x2="246.59505208333334" y2="377" fill="rgb(0, 0, 0)" stroke="rgb(66, 66, 66)" stroke-width="1px" opacity="0.25"></line><line x1="295.9140625" y1="0" x2="295.9140625" y2="377" fill="rgb(0, 0, 0)" stroke="rgb(66, 66, 66)" stroke-width="1px" opacity="0.25"></line><line x1="345.2330729166667" y1="0" x2="345.2330729166667" y2="377" fill="rgb(0, 0, 0)" stroke="rgb(66, 66, 66)" stroke-width="1px" opacity="0.25"></line><line x1="394.5520833333333" y1="0" x2="394.5520833333333" y2="377" fill="rgb(0, 0, 0)" stroke="rgb(66, 66, 66)" stroke-width="1px" opacity="0.25"></line><line x1="443.87109375" y1="0" x2="443.87109375" y2="377" fill="rgb(0, 0, 0)" stroke="rgb(66, 66, 66)" stroke-width="1px" opacity="0.25"></line><line x1="493.1901041666667" y1="0" x2="493.1901041666667" y2="377" fill="rgb(0, 0, 0)" stroke="rgb(66, 66, 66)" stroke-width="1px" opacity="0.25"></line><line x1="542.5091145833333" y1="0" x2="542.5091145833333" y2="377" fill="rgb(0, 0, 0)" stroke="rgb(66, 66, 66)" stroke-width="1px" opacity="0.25"></line><line x1="591.828125" y1="0" x2="591.828125" y2="377" fill="rgb(0, 0, 0)" stroke="rgb(66, 66, 66)" stroke-width="1px" opacity="0.25"></line></g><g><line x1="0" y1="377" x2="591.828125" y2="377" fill="rgb(0, 0, 0)" stroke="rgb(66, 66, 66)" stroke-width="1px" opacity="0.25"></line><line x1="0" y1="342.7272727272727" x2="591.828125" y2="342.7272727272727" fill="rgb(0, 0, 0)" stroke="rgb(66, 66, 66)" stroke-width="1px" opacity="0.25"></line><line x1="0" y1="308.45454545454544" x2="591.828125" y2="308.45454545454544" fill="rgb(0, 0, 0)" stroke="rgb(66, 66, 66)" stroke-width="1px" opacity="0.25"></line><line x1="0" y1="274.1818181818182" x2="591.828125" y2="274.1818181818182" fill="rgb(0, 0, 0)" stroke="rgb(66, 66, 66)" stroke-width="1px" opacity="0.25"></line><line x1="0" y1="239.9090909090909" x2="591.828125" y2="239.9090909090909" fill="rgb(0, 0, 0)" stroke="rgb(66, 66, 66)" stroke-width="1px" opacity="0.25"></line><line x1="0" y1="205.63636363636363" x2="591.828125" y2="205.63636363636363" fill="rgb(0, 0, 0)" stroke="rgb(66, 66, 66)" stroke-width="1px" opacity="0.25"></line><line x1="0" y1="171.36363636363637" x2="591.828125" y2="171.36363636363637" fill="rgb(0, 0, 0)" stroke="rgb(66, 66, 66)" stroke-width="1px" opacity="0.25"></line><line x1="0" y1="137.0909090909091" x2="591.828125" y2="137.0909090909091" fill="rgb(0, 0, 0)" stroke="rgb(66, 66, 66)" stroke-width="1px" opacity="0.25"></line><line x1="0" y1="102.81818181818181" x2="591.828125" y2="102.81818181818181" fill="rgb(0, 0, 0)" stroke="rgb(66, 66, 66)" stroke-width="1px" opacity="0.25"></line><line x1="0" y1="68.54545454545453" x2="591.828125" y2="68.54545454545453" fill="rgb(0, 0, 0)" stroke="rgb(66, 66, 66)" stroke-width="1px" opacity="0.25"></line><line x1="0" y1="34.27272727272729" x2="591.828125" y2="34.27272727272729" fill="rgb(0, 0, 0)" stroke="rgb(66, 66, 66)" stroke-width="1px" opacity="0.25"></line><line x1="0" y1="0" x2="591.828125" y2="0" fill="rgb(0, 0, 0)" stroke="rgb(66, 66, 66)" stroke-width="1px" opacity="0.25"></line></g></g></g><g><g><line x1="0" y1="377" x2="591.828125" y2="377" fill="rgb(0, 0, 0)" stroke="rgb(153, 153, 153)" stroke-width="1.5px"></line></g></g><g><g><line x1="49.319010416666664" y1="0" x2="49.319010416666664" y2="377" fill="rgb(0, 0, 0)" stroke="rgb(153, 153, 153)" stroke-width="1.5px"></line></g></g><g><g><g><g><g><path stroke="rgb(187, 187, 187)" stroke-width="2px" d="M50.305390625,358.15L51.29177083333334,356.43636363636364L52.27815104166667,344.4409090909091L53.26453125,317.0227272727273L54.25091145833333,349.58181818181816L55.23729166666667,351.29545454545456L56.223671875,265.6136363636364L57.21005208333333,341.01363636363635L58.19643229166666,349.58181818181816L59.182812500000004,269.0409090909091L60.169192708333334,332.44545454545454L61.155572916666664,282.75L62.141953125,347.8681818181818L63.12833333333334,332.44545454545454L64.11471354166667,344.4409090909091L65.10109375,358.15L66.08747395833333,245.05L67.07385416666666,341.01363636363635L68.06023437500001,351.29545454545456L69.04661458333334,358.15L70.03299479166667,334.1590909090909L71.019375,351.29545454545456L72.00575520833334,329.01818181818186L72.99213541666667,339.3L73.978515625,329.01818181818186L74.96489583333334,337.58636363636367L75.95127604166666,334.1590909090909L76.93765625,342.7272727272727L77.92403645833332,356.43636363636364L78.91041666666666,341.01363636363635L79.896796875,325.5909090909091L80.88317708333332,353.0090909090909L81.86955729166667,346.1545454545455L82.85593750000001,330.7318181818182L83.84231770833333,358.15L84.82869791666667,353.0090909090909L85.815078125,354.7227272727273L86.80145833333333,359.8636363636364L87.78783854166667,339.3L88.77421875,332.44545454545454L89.76059895833333,325.5909090909091L90.74697916666666,325.5909090909091L91.733359375,353.0090909090909L92.71973958333334,293.0318181818182L93.70611979166667,306.7409090909091L94.6925,329.01818181818186L95.67888020833333,327.30454545454546L96.66526041666667,337.58636363636367L97.651640625,299.8863636363636L98.63802083333333,353.0090909090909L99.62440104166667,334.1590909090909L100.61078125,356.43636363636364L101.59716145833333,337.58636363636367L102.58354166666668,322.16363636363633L103.56992187499999,342.7272727272727L104.55630208333334,332.44545454545454L105.54268229166668,351.29545454545456L106.5290625,349.58181818181816L107.51544270833334,354.7227272727273L108.50182291666665,320.45L109.488203125,327.30454545454546L110.47458333333334,341.01363636363635L111.46096354166666,313.5954545454545L112.44734375,346.1545454545455L113.43372395833335,327.30454545454546L114.42010416666666,293.0318181818182L115.406484375,356.43636363636364L116.39286458333332,349.58181818181816L117.37924479166666,349.58181818181816L118.36562500000001,341.01363636363635L119.35200520833332,339.3L120.33838541666667,320.45L121.324765625,344.4409090909091L122.31114583333333,332.44545454545454L123.29752604166667,347.8681818181818L124.28390625,293.0318181818182L125.27028645833333,339.3L126.25666666666667,341.01363636363635L127.243046875,347.8681818181818L128.22942708333335,337.58636363636367L129.21580729166666,347.8681818181818L130.2021875,356.43636363636364L131.18856770833335,287.8909090909091L132.17494791666667,347.8681818181818L133.161328125,342.7272727272727L134.14770833333333,281.03636363636366L135.13408854166667,337.58636363636367L136.12046875000001,303.31363636363636L137.10684895833333,255.33181818181816L138.09322916666667,221.05909090909094L139.079609375,347.8681818181818L140.06598958333333,294.74545454545455L141.05236979166668,301.6L142.03875,318.73636363636365L143.02513020833334,318.73636363636365L144.01151041666668,329.01818181818186L144.997890625,317.0227272727273L145.98427083333334,243.33636363636364L146.97065104166666,353.0090909090909L147.95703125,320.45L148.94341145833332,349.58181818181816L149.9297916666667,332.44545454545454L150.916171875,284.46363636363634L151.90255208333332,284.46363636363634L152.8889322916667,322.16363636363633L153.8753125,347.8681818181818L154.86169270833332,299.8863636363636L155.84807291666664,341.01363636363635L156.834453125,308.45454545454544L157.82083333333333,329.01818181818186L158.80721354166664,315.3090909090909L159.79359375,347.8681818181818L160.77997395833333,311.8818181818182L161.76635416666664,325.5909090909091L162.75273437500002,305.0272727272727L163.73911458333333,274.1818181818182L164.72549479166665,176.50454545454545L165.71187500000002,313.5954545454545L166.69825520833334,306.7409090909091L167.68463541666665,311.8818181818182L168.671015625,289.6045454545455L169.65739583333334,277.6090909090909L170.64377604166665,329.01818181818186L171.63015625,322.16363636363633L172.61653645833334,335.8727272727273L173.60291666666666,251.90454545454546L174.589296875,306.7409090909091L175.57567708333335,344.4409090909091L176.56205729166666,299.8863636363636L177.5484375,322.16363636363633L178.53481770833335,298.1727272727273L179.52119791666667,219.34545454545454L180.507578125,341.01363636363635L181.49395833333332,335.8727272727273L182.48033854166667,277.6090909090909L183.46671875,291.3181818181818L184.45309895833333,322.16363636363633L185.43947916666667,330.7318181818182L186.425859375,284.46363636363634L187.41223958333333,243.33636363636364L188.39861979166668,236.48181818181817L189.385,241.62272727272725L190.37138020833333,221.05909090909094L191.35776041666665,346.1545454545455L192.344140625,272.4681818181818L193.33052083333334,130.23636363636365L194.31690104166665,179.9318181818182L195.30328125,322.16363636363633L196.28966145833334,330.7318181818182L197.27604166666666,317.0227272727273L198.262421875,197.0681818181818L199.24880208333335,241.62272727272725L200.23518229166666,149.08636363636364L201.2215625,234.76818181818183L202.20794270833335,257.04545454545456L203.19432291666666,289.6045454545455L204.18070312499998,236.48181818181817L205.16708333333335,231.3409090909091L206.15346354166667,274.1818181818182L207.13984374999998,130.23636363636365L208.12622395833336,193.6409090909091L209.11260416666667,281.03636363636366L210.098984375,258.7590909090909L211.08536458333336,94.25L212.07174479166667,296.4590909090909L213.058125,294.74545454545455L214.04450520833336,339.3L215.03088541666668,251.90454545454546L216.017265625,313.5954545454545L217.0036458333333,277.6090909090909L217.99002604166668,342.7272727272727L218.97640625,330.7318181818182L219.9627864583333,303.31363636363636L220.94916666666668,267.3272727272727L221.935546875,239.9090909090909L222.92192708333332,265.6136363636364L223.9083072916667,193.6409090909091L224.8946875,125.09545454545453L225.88106770833332,217.63181818181818L226.8674479166667,227.91363636363636L227.853828125,34.27272727272729L228.84020833333332,167.93636363636364L229.82658854166664,147.37272727272725L230.81296875,164.50909090909093L231.79934895833333,260.4727272727273L232.78572916666664,200.49545454545452L233.772109375,140.5181818181818L234.75848958333333,217.63181818181818L235.74486979166664,34.27272727272729L236.73125000000002,99.3909090909091L237.71763020833333,92.53636363636365L238.70401041666665,34.27272727272729L239.69039062500002,198.7818181818182L240.67677083333334,226.2L241.66315104166665,41.12727272727274L242.64953125,137.0909090909091L243.63591145833334,188.5L244.62229166666665,95.96363636363635L245.608671875,131.95L246.59505208333334,210.77727272727273L247.58143229166666,209.06363636363636L248.5678125,58.263636363636365L249.55419270833335,166.22272727272727L250.54057291666666,131.95L251.526953125,47.9818181818182L252.51333333333335,109.67272727272727L253.49971354166667,106.24545454545456L254.48609375,34.27272727272729L255.47247395833332,34.27272727272729L256.4588541666667,205.63636363636363L257.445234375,130.23636363636365L258.4316145833333,145.6590909090909L259.4179947916667,56.55000000000001L260.404375,34.27272727272729L261.3907552083333,75.39999999999998L262.3771354166667,34.27272727272729L263.363515625,224.48636363636365L264.34989583333333,34.27272727272729L265.3362760416667,161.08181818181816L266.32265625,34.27272727272729L267.3090364583333,293.0318181818182L268.29541666666665,167.93636363636364L269.281796875,174.79090909090908L270.26817708333334,181.64545454545456L271.25455729166663,114.81363636363638L272.24093750000003,34.27272727272729L273.2273177083333,85.68181818181819L274.21369791666666,219.34545454545454L275.200078125,34.27272727272729L276.18645833333335,92.53636363636365L277.17283854166664,121.66818181818182L278.15921875,34.27272727272729L279.1455989583333,80.54090909090908L280.13197916666667,181.64545454545456L281.118359375,34.27272727272729L282.10473958333336,34.27272727272729L283.09111979166664,205.63636363636363L284.0775,143.94545454545454L285.06388020833333,87.39545454545454L286.0502604166667,181.64545454545456L287.036640625,171.36363636363637L288.02302083333336,34.27272727272729L289.00940104166665,49.69545454545455L289.99578125,169.64999999999998L290.98216145833334,53.12272727272726L291.9685416666667,104.53181818181817L292.954921875,114.81363636363638L293.9413020833333,34.27272727272729L294.92768229166666,185.0727272727273L295.9140625,149.08636363636364L296.90044270833334,171.36363636363637L297.88682291666663,185.0727272727273L298.873203125,207.35000000000002L299.8595833333334,121.66818181818182L300.84596354166666,164.50909090909093L301.83234375,207.35000000000002L302.81872395833335,234.76818181818183L303.80510416666664,193.6409090909091L304.791484375,226.2L305.7778645833334,138.80454545454546L306.76424479166667,71.97272727272727L307.750625,34.27272727272729L308.7370052083333,35.986363636363635L309.72338541666664,34.27272727272729L310.709765625,34.27272727272729L311.6961458333333,135.37727272727275L312.6825260416667,34.27272727272729L313.66890625,34.27272727272729L314.6552864583333,68.54545454545453L315.64166666666665,34.27272727272729L316.628046875,145.6590909090909L317.6144270833333,116.52727272727273L318.6008072916667,34.27272727272729L319.5871875,95.96363636363635L320.5735677083333,34.27272727272729L321.55994791666666,83.96818181818183L322.546328125,34.27272727272729L323.5327083333333,34.27272727272729L324.5190885416667,34.27272727272729L325.50546875000003,34.27272727272729L326.4918489583333,34.27272727272729L327.47822916666667,61.69090909090911L328.464609375,34.27272727272729L329.4509895833333,34.27272727272729L330.4373697916667,34.27272727272729L331.42375000000004,34.27272727272729L332.4101302083333,34.27272727272729L333.3965104166667,34.27272727272729L334.38289062499996,61.69090909090911L335.3692708333333,34.27272727272729L336.3556510416667,34.27272727272729L337.34203125,34.27272727272729L338.32841145833333,34.27272727272729L339.3147916666667,34.27272727272729L340.30117187499997,34.27272727272729L341.2875520833333,34.27272727272729L342.2739322916667,34.27272727272729L343.2603125,34.27272727272729L344.24669270833334,34.27272727272729L345.2330729166667,34.27272727272729L346.219453125,34.27272727272729L347.2058333333333,34.27272727272729L348.1922135416667,97.67727272727271L349.17859375,34.27272727272729L350.16497395833335,34.27272727272729L351.1513541666667,34.27272727272729L352.137734375,34.27272727272729L353.1241145833333,34.27272727272729L354.1104947916667,34.27272727272729L355.096875,34.27272727272729L356.08325520833336,34.27272727272729L357.0696354166667,34.27272727272729L358.056015625,34.27272727272729L359.04239583333333,34.27272727272729L360.0287760416666,34.27272727272729L361.01515625,34.27272727272729L362.00153645833336,34.27272727272729L362.98791666666665,34.27272727272729L363.974296875,34.27272727272729L364.96067708333334,34.27272727272729L365.9470572916666,34.27272727272729L366.9334375,34.27272727272729L367.91981770833337,34.27272727272729L368.90619791666666,34.27272727272729L369.892578125,34.27272727272729L370.87895833333334,34.27272727272729L371.86533854166663,34.27272727272729L372.85171875,34.27272727272729L373.8380989583334,59.97727272727271L374.82447916666666,34.27272727272729L375.810859375,109.67272727272727L376.79723958333335,133.66363636363636L377.78361979166664,34.27272727272729L378.77,34.27272727272729L379.7563802083334,34.27272727272729L380.74276041666667,34.27272727272729L381.729140625,34.27272727272729L382.7155208333333,34.27272727272729L383.70190104166664,34.27272727272729L384.68828125,34.27272727272729L385.6746614583333,34.27272727272729L386.6610416666667,34.27272727272729L387.647421875,34.27272727272729L388.6338020833333,34.27272727272729L389.62018229166665,34.27272727272729L390.6065625,34.27272727272729L391.5929427083333,41.12727272727274L392.5793229166667,34.27272727272729L393.565703125,94.25L394.5520833333333,34.27272727272729L395.53846354166666,34.27272727272729L396.52484375,34.27272727272729L397.5112239583333,34.27272727272729L398.4976041666667,34.27272727272729L399.48398437500003,34.27272727272729L400.4703645833333,34.27272727272729L401.45674479166667,34.27272727272729L402.443125,34.27272727272729L403.4295052083333,34.27272727272729L404.4158854166667,34.27272727272729L405.40226562500004,34.27272727272729L406.3886458333333,34.27272727272729L407.3750260416667,34.27272727272729L408.36140624999996,34.27272727272729L409.3477864583333,34.27272727272729L410.3341666666667,75.39999999999998L411.320546875,34.27272727272729L412.30692708333333,46.2681818181818L413.2933072916667,34.27272727272729L414.27968749999997,34.27272727272729L415.2660677083333,34.27272727272729L416.2524479166667,34.27272727272729L417.238828125,34.27272727272729L418.22520833333334,34.27272727272729L419.2115885416667,87.39545454545454L420.19796875,54.83636363636366L421.1843489583333,34.27272727272729L422.1707291666667,34.27272727272729L423.157109375,80.54090909090908L424.14348958333335,34.27272727272729L425.1298697916667,34.27272727272729L426.11625,34.27272727272729L427.1026302083333,34.27272727272729L428.0890104166667,56.55000000000001L429.075390625,34.27272727272729L430.06177083333336,34.27272727272729L431.0481510416667,82.25454545454544L432.03453125,34.27272727272729L433.02091145833333,78.82727272727273L434.0072916666666,34.27272727272729L434.993671875,34.27272727272729L435.98005208333336,34.27272727272729L436.96643229166665,34.27272727272729L437.9528125,34.27272727272729L438.93919270833334,34.27272727272729L439.9255729166666,34.27272727272729L440.911953125,34.27272727272729L441.89833333333337,34.27272727272729L442.88471354166666,34.27272727272729L443.87109375,34.27272727272729L444.85747395833334,34.27272727272729L445.84385416666663,34.27272727272729L446.830234375,34.27272727272729L447.8166145833334,34.27272727272729L448.80299479166666,34.27272727272729L449.789375,34.27272727272729L450.77575520833335,54.83636363636366L451.76213541666664,34.27272727272729L452.748515625,34.27272727272729L453.7348958333334,34.27272727272729L454.72127604166667,34.27272727272729L455.70765625,34.27272727272729L456.6940364583333,34.27272727272729L457.68041666666664,34.27272727272729L458.666796875,34.27272727272729L459.6531770833333,34.27272727272729L460.6395572916667,75.39999999999998L461.6259375,90.82272727272729L462.6123177083333,34.27272727272729L463.59869791666665,34.27272727272729L464.585078125,34.27272727272729L465.5714583333333,66.83181818181818L466.5578385416667,133.66363636363636L467.54421875,73.68636363636362L468.5305989583333,34.27272727272729L469.51697916666666,46.2681818181818L470.503359375,61.69090909090911L471.4897395833333,97.67727272727271L472.4761197916667,35.986363636363635L473.46250000000003,78.82727272727273L474.4488802083333,71.97272727272727L475.43526041666667,34.27272727272729L476.421640625,34.27272727272729L477.4080208333333,34.27272727272729L478.3944010416667,34.27272727272729L479.38078125000004,34.27272727272729L480.3671614583333,34.27272727272729L481.3535416666667,34.27272727272729L482.33992187499996,75.39999999999998L483.3263020833333,34.27272727272729L484.3126822916667,34.27272727272729L485.2990625,34.27272727272729L486.28544270833333,34.27272727272729L487.2718229166667,97.67727272727271L488.25820312499997,34.27272727272729L489.2445833333333,34.27272727272729L490.2309635416667,34.27272727272729L491.21734375,34.27272727272729L492.20372395833334,34.27272727272729L493.1901041666667,34.27272727272729L494.176484375,80.54090909090908L495.1628645833333,34.27272727272729L496.1492447916667,34.27272727272729L497.135625,34.27272727272729L498.12200520833335,34.27272727272729L499.1083854166667,78.82727272727273L500.094765625,68.54545454545453L501.0811458333333,34.27272727272729L502.0675260416667,34.27272727272729L503.05390625,34.27272727272729L504.04028645833336,47.9818181818182L505.0266666666667,34.27272727272729L506.013046875,99.3909090909091L506.99942708333333,82.25454545454544L507.9858072916666,47.9818181818182L508.9721875,34.27272727272729L509.95856770833336,34.27272727272729L510.94494791666665,46.2681818181818L511.931328125,34.27272727272729L512.9177083333334,34.27272727272729L513.9040885416666,75.39999999999998L514.89046875,34.27272727272729L515.8768489583333,34.27272727272729L516.8632291666667,34.27272727272729L517.849609375,34.27272727272729L518.8359895833333,34.27272727272729L519.8223697916667,34.27272727272729L520.80875,34.27272727272729L521.7951302083334,34.27272727272729L522.7815104166666,34.27272727272729L523.767890625,34.27272727272729L524.7542708333334,34.27272727272729L525.7406510416666,34.27272727272729L526.72703125,34.27272727272729L527.7134114583333,34.27272727272729L528.6997916666667,34.27272727272729L529.686171875,34.27272727272729L530.6725520833334,34.27272727272729L531.6589322916667,34.27272727272729L532.6453125,34.27272727272729L533.6316927083333,34.27272727272729L534.6180729166666,34.27272727272729L535.604453125,34.27272727272729L536.5908333333333,34.27272727272729L537.5772135416667,34.27272727272729L538.56359375,34.27272727272729L539.5499739583333,34.27272727272729L540.5363541666667,34.27272727272729L541.522734375,34.27272727272729L542.5091145833333,34.27272727272729" style="fill: none;" fill="none"></path></g><g><path stroke="rgb(238, 51, 119)" stroke-width="2px" d="M50.305390625,347.8681818181818L51.29177083333334,317.0227272727273L52.27815104166667,354.7227272727273L53.26453125,361.5772727272727L54.25091145833333,339.3L55.23729166666667,227.91363636363636L56.223671875,274.1818181818182L57.21005208333333,339.3L58.19643229166666,327.30454545454546L59.182812500000004,344.4409090909091L60.169192708333334,358.15L61.155572916666664,344.4409090909091L62.141953125,353.0090909090909L63.12833333333334,317.0227272727273L64.11471354166667,329.01818181818186L65.10109375,356.43636363636364L66.08747395833333,344.4409090909091L67.07385416666666,334.1590909090909L68.06023437500001,322.16363636363633L69.04661458333334,330.7318181818182L70.03299479166667,349.58181818181816L71.019375,299.8863636363636L72.00575520833334,356.43636363636364L72.99213541666667,354.7227272727273L73.978515625,346.1545454545455L74.96489583333334,342.7272727272727L75.95127604166666,351.29545454545456L76.93765625,347.8681818181818L77.92403645833332,248.47727272727275L78.91041666666666,342.7272727272727L79.896796875,351.29545454545456L80.88317708333332,335.8727272727273L81.86955729166667,320.45L82.85593750000001,347.8681818181818L83.84231770833333,346.1545454545455L84.82869791666667,332.44545454545454L85.815078125,347.8681818181818L86.80145833333333,317.0227272727273L87.78783854166667,310.16818181818184L88.77421875,251.90454545454546L89.76059895833333,298.1727272727273L90.74697916666666,263.9L91.733359375,344.4409090909091L92.71973958333334,351.29545454545456L93.70611979166667,329.01818181818186L94.6925,356.43636363636364L95.67888020833333,305.0272727272727L96.66526041666667,257.04545454545456L97.651640625,301.6L98.63802083333333,351.29545454545456L99.62440104166667,329.01818181818186L100.61078125,356.43636363636364L101.59716145833333,337.58636363636367L102.58354166666668,279.3227272727273L103.56992187499999,351.29545454545456L104.55630208333334,318.73636363636365L105.54268229166668,356.43636363636364L106.5290625,311.8818181818182L107.51544270833334,315.3090909090909L108.50182291666665,342.7272727272727L109.488203125,335.8727272727273L110.47458333333334,301.6L111.46096354166666,287.8909090909091L112.44734375,320.45L113.43372395833335,327.30454545454546L114.42010416666666,281.03636363636366L115.406484375,341.01363636363635L116.39286458333332,332.44545454545454L117.37924479166666,346.1545454545455L118.36562500000001,358.15L119.35200520833332,323.8772727272727L120.33838541666667,337.58636363636367L121.324765625,332.44545454545454L122.31114583333333,354.7227272727273L123.29752604166667,317.0227272727273L124.28390625,354.7227272727273L125.27028645833333,306.7409090909091L126.25666666666667,251.90454545454546L127.243046875,318.73636363636365L128.22942708333335,327.30454545454546L129.21580729166666,337.58636363636367L130.2021875,335.8727272727273L131.18856770833335,358.15L132.17494791666667,358.15L133.161328125,308.45454545454544L134.14770833333333,341.01363636363635L135.13408854166667,332.44545454545454L136.12046875000001,334.1590909090909L137.10684895833333,265.6136363636364L138.09322916666667,353.0090909090909L139.079609375,341.01363636363635L140.06598958333333,308.45454545454544L141.05236979166668,344.4409090909091L142.03875,286.1772727272727L143.02513020833334,351.29545454545456L144.01151041666668,293.0318181818182L144.997890625,347.8681818181818L145.98427083333334,260.4727272727273L146.97065104166666,330.7318181818182L147.95703125,354.7227272727273L148.94341145833332,339.3L149.9297916666667,315.3090909090909L150.916171875,315.3090909090909L151.90255208333332,349.58181818181816L152.8889322916667,335.8727272727273L153.8753125,311.8818181818182L154.86169270833332,332.44545454545454L155.84807291666664,320.45L156.834453125,263.9L157.82083333333333,341.01363636363635L158.80721354166664,198.7818181818182L159.79359375,301.6L160.77997395833333,311.8818181818182L161.76635416666664,306.7409090909091L162.75273437500002,284.46363636363634L163.73911458333333,335.8727272727273L164.72549479166665,351.29545454545456L165.71187500000002,303.31363636363636L166.69825520833334,310.16818181818184L167.68463541666665,291.3181818181818L168.671015625,351.29545454545456L169.65739583333334,337.58636363636367L170.64377604166665,306.7409090909091L171.63015625,306.7409090909091L172.61653645833334,281.03636363636366L173.60291666666666,274.1818181818182L174.589296875,341.01363636363635L175.57567708333335,351.29545454545456L176.56205729166666,277.6090909090909L177.5484375,329.01818181818186L178.53481770833335,349.58181818181816L179.52119791666667,325.5909090909091L180.507578125,284.46363636363634L181.49395833333332,289.6045454545455L182.48033854166667,279.3227272727273L183.46671875,335.8727272727273L184.45309895833333,306.7409090909091L185.43947916666667,337.58636363636367L186.425859375,318.73636363636365L187.41223958333333,262.18636363636364L188.39861979166668,327.30454545454546L189.385,279.3227272727273L190.37138020833333,335.8727272727273L191.35776041666665,291.3181818181818L192.344140625,347.8681818181818L193.33052083333334,185.0727272727273L194.31690104166665,293.0318181818182L195.30328125,306.7409090909091L196.28966145833334,227.91363636363636L197.27604166666666,255.33181818181816L198.262421875,221.05909090909094L199.24880208333335,299.8863636363636L200.23518229166666,284.46363636363634L201.2215625,265.6136363636364L202.20794270833335,34.27272727272729L203.19432291666666,265.6136363636364L204.18070312499998,322.16363636363633L205.16708333333335,260.4727272727273L206.15346354166667,299.8863636363636L207.13984374999998,281.03636363636366L208.12622395833336,262.18636363636364L209.11260416666667,308.45454545454544L210.098984375,253.61818181818182L211.08536458333336,281.03636363636366L212.07174479166667,298.1727272727273L213.058125,161.08181818181816L214.04450520833336,188.5L215.03088541666668,212.49090909090913L216.017265625,251.90454545454546L217.0036458333333,133.66363636363636L217.99002604166668,269.0409090909091L218.97640625,275.8954545454545L219.9627864583333,325.5909090909091L220.94916666666668,246.76363636363635L221.935546875,267.3272727272727L222.92192708333332,323.8772727272727L223.9083072916667,219.34545454545454L224.8946875,305.0272727272727L225.88106770833332,245.05L226.8674479166667,332.44545454545454L227.853828125,173.07727272727274L228.84020833333332,289.6045454545455L229.82658854166664,282.75L230.81296875,282.75L231.79934895833333,243.33636363636364L232.78572916666664,277.6090909090909L233.772109375,205.63636363636363L234.75848958333333,287.8909090909091L235.74486979166664,207.35000000000002L236.73125000000002,270.7545454545455L237.71763020833333,207.35000000000002L238.70401041666665,270.7545454545455L239.69039062500002,253.61818181818182L240.67677083333334,291.3181818181818L241.66315104166665,275.8954545454545L242.64953125,253.61818181818182L243.63591145833334,174.79090909090908L244.62229166666665,248.47727272727275L245.608671875,179.9318181818182L246.59505208333334,162.79545454545453L247.58143229166666,294.74545454545455L248.5678125,212.49090909090913L249.55419270833335,239.9090909090909L250.54057291666666,152.51363636363635L251.526953125,126.80909090909088L252.51333333333335,113.10000000000002L253.49971354166667,34.27272727272729L254.48609375,176.50454545454545L255.47247395833332,246.76363636363635L256.4588541666667,279.3227272727273L257.445234375,301.6L258.4316145833333,245.05L259.4179947916667,274.1818181818182L260.404375,202.20909090909092L261.3907552083333,99.3909090909091L262.3771354166667,219.34545454545454L263.363515625,250.19090909090906L264.34989583333333,34.27272727272729L265.3362760416667,248.47727272727275L266.32265625,34.27272727272729L267.3090364583333,61.69090909090911L268.29541666666665,66.83181818181818L269.281796875,65.11818181818182L270.26817708333334,68.54545454545453L271.25455729166663,231.3409090909091L272.24093750000003,143.94545454545454L273.2273177083333,37.69999999999999L274.21369791666666,34.27272727272729L275.200078125,113.10000000000002L276.18645833333335,34.27272727272729L277.17283854166664,65.11818181818182L278.15921875,128.52272727272728L279.1455989583333,179.9318181818182L280.13197916666667,215.91818181818184L281.118359375,34.27272727272729L282.10473958333336,34.27272727272729L283.09111979166664,116.52727272727273L284.0775,34.27272727272729L285.06388020833333,140.5181818181818L286.0502604166667,34.27272727272729L287.036640625,34.27272727272729L288.02302083333336,157.65454545454546L289.00940104166665,154.22727272727272L289.99578125,137.0909090909091L290.98216145833334,34.27272727272729L291.9685416666667,123.38181818181818L292.954921875,34.27272727272729L293.9413020833333,75.39999999999998L294.92768229166666,47.9818181818182L295.9140625,34.27272727272729L296.90044270833334,34.27272727272729L297.88682291666663,34.27272727272729L298.873203125,34.27272727272729L299.8595833333334,34.27272727272729L300.84596354166666,34.27272727272729L301.83234375,34.27272727272729L302.81872395833335,34.27272727272729L303.80510416666664,70.25909090909092L304.791484375,34.27272727272729L305.7778645833334,34.27272727272729L306.76424479166667,34.27272727272729L307.750625,34.27272727272729L308.7370052083333,34.27272727272729L309.72338541666664,34.27272727272729L310.709765625,34.27272727272729L311.6961458333333,92.53636363636365L312.6825260416667,121.66818181818182L313.66890625,102.81818181818181L314.6552864583333,37.69999999999999L315.64166666666665,104.53181818181817L316.628046875,75.39999999999998L317.6144270833333,131.95L318.6008072916667,149.08636363636364L319.5871875,173.07727272727274L320.5735677083333,154.22727272727272L321.55994791666666,186.78636363636366L322.546328125,114.81363636363638L323.5327083333333,203.92272727272726L324.5190885416667,125.09545454545453L325.50546875000003,200.49545454545452L326.4918489583333,123.38181818181818L327.47822916666667,87.39545454545454L328.464609375,92.53636363636365L329.4509895833333,123.38181818181818L330.4373697916667,53.12272727272726L331.42375000000004,90.82272727272729L332.4101302083333,107.95909090909092L333.3965104166667,34.27272727272729L334.38289062499996,34.27272727272729L335.3692708333333,37.69999999999999L336.3556510416667,39.41363636363634L337.34203125,34.27272727272729L338.32841145833333,34.27272727272729L339.3147916666667,34.27272727272729L340.30117187499997,34.27272727272729L341.2875520833333,34.27272727272729L342.2739322916667,34.27272727272729L343.2603125,34.27272727272729L344.24669270833334,121.66818181818182L345.2330729166667,34.27272727272729L346.219453125,149.08636363636364L347.2058333333333,140.5181818181818L348.1922135416667,49.69545454545455L349.17859375,34.27272727272729L350.16497395833335,34.27272727272729L351.1513541666667,34.27272727272729L352.137734375,80.54090909090908L353.1241145833333,34.27272727272729L354.1104947916667,34.27272727272729L355.096875,34.27272727272729L356.08325520833336,34.27272727272729L357.0696354166667,34.27272727272729L358.056015625,34.27272727272729L359.04239583333333,34.27272727272729L360.0287760416666,34.27272727272729L361.01515625,34.27272727272729L362.00153645833336,42.84090909090909L362.98791666666665,34.27272727272729L363.974296875,34.27272727272729L364.96067708333334,34.27272727272729L365.9470572916666,34.27272727272729L366.9334375,54.83636363636366L367.91981770833337,92.53636363636365L368.90619791666666,34.27272727272729L369.892578125,34.27272727272729L370.87895833333334,131.95L371.86533854166663,34.27272727272729L372.85171875,34.27272727272729L373.8380989583334,34.27272727272729L374.82447916666666,34.27272727272729L375.810859375,34.27272727272729L376.79723958333335,34.27272727272729L377.78361979166664,34.27272727272729L378.77,34.27272727272729L379.7563802083334,34.27272727272729L380.74276041666667,42.84090909090909L381.729140625,34.27272727272729L382.7155208333333,34.27272727272729L383.70190104166664,34.27272727272729L384.68828125,34.27272727272729L385.6746614583333,34.27272727272729L386.6610416666667,34.27272727272729L387.647421875,34.27272727272729L388.6338020833333,94.25L389.62018229166665,34.27272727272729L390.6065625,34.27272727272729L391.5929427083333,44.55454545454545L392.5793229166667,34.27272727272729L393.565703125,34.27272727272729L394.5520833333333,34.27272727272729L395.53846354166666,34.27272727272729L396.52484375,34.27272727272729L397.5112239583333,82.25454545454544L398.4976041666667,34.27272727272729L399.48398437500003,51.40909090909091L400.4703645833333,34.27272727272729L401.45674479166667,34.27272727272729L402.443125,34.27272727272729L403.4295052083333,34.27272727272729L404.4158854166667,34.27272727272729L405.40226562500004,34.27272727272729L406.3886458333333,34.27272727272729L407.3750260416667,34.27272727272729L408.36140624999996,34.27272727272729L409.3477864583333,34.27272727272729L410.3341666666667,34.27272727272729L411.320546875,34.27272727272729L412.30692708333333,34.27272727272729L413.2933072916667,34.27272727272729L414.27968749999997,65.11818181818182L415.2660677083333,34.27272727272729L416.2524479166667,34.27272727272729L417.238828125,34.27272727272729L418.22520833333334,77.11363636363637L419.2115885416667,42.84090909090909L420.19796875,70.25909090909092L421.1843489583333,34.27272727272729L422.1707291666667,54.83636363636366L423.157109375,41.12727272727274L424.14348958333335,39.41363636363634L425.1298697916667,35.986363636363635L426.11625,34.27272727272729L427.1026302083333,34.27272727272729L428.0890104166667,34.27272727272729L429.075390625,34.27272727272729L430.06177083333336,34.27272727272729L431.0481510416667,34.27272727272729L432.03453125,34.27272727272729L433.02091145833333,34.27272727272729L434.0072916666666,34.27272727272729L434.993671875,34.27272727272729L435.98005208333336,34.27272727272729L436.96643229166665,34.27272727272729L437.9528125,34.27272727272729L438.93919270833334,34.27272727272729L439.9255729166666,34.27272727272729L440.911953125,34.27272727272729L441.89833333333337,34.27272727272729L442.88471354166666,34.27272727272729L443.87109375,34.27272727272729L444.85747395833334,34.27272727272729L445.84385416666663,34.27272727272729L446.830234375,34.27272727272729L447.8166145833334,34.27272727272729L448.80299479166666,34.27272727272729L449.789375,34.27272727272729L450.77575520833335,34.27272727272729L451.76213541666664,34.27272727272729L452.748515625,34.27272727272729L453.7348958333334,34.27272727272729L454.72127604166667,34.27272727272729L455.70765625,34.27272727272729L456.6940364583333,34.27272727272729L457.68041666666664,34.27272727272729L458.666796875,34.27272727272729L459.6531770833333,34.27272727272729L460.6395572916667,34.27272727272729L461.6259375,34.27272727272729L462.6123177083333,34.27272727272729L463.59869791666665,34.27272727272729L464.585078125,34.27272727272729L465.5714583333333,34.27272727272729L466.5578385416667,34.27272727272729L467.54421875,34.27272727272729L468.5305989583333,34.27272727272729L469.51697916666666,34.27272727272729L470.503359375,65.11818181818182L471.4897395833333,92.53636363636365L472.4761197916667,34.27272727272729L473.46250000000003,54.83636363636366L474.4488802083333,34.27272727272729L475.43526041666667,119.95454545454547L476.421640625,46.2681818181818L477.4080208333333,111.38636363636363L478.3944010416667,47.9818181818182L479.38078125000004,34.27272727272729L480.3671614583333,80.54090909090908L481.3535416666667,37.69999999999999L482.33992187499996,34.27272727272729L483.3263020833333,34.27272727272729L484.3126822916667,34.27272727272729L485.2990625,34.27272727272729L486.28544270833333,34.27272727272729L487.2718229166667,34.27272727272729L488.25820312499997,34.27272727272729L489.2445833333333,34.27272727272729L490.2309635416667,34.27272727272729L491.21734375,34.27272727272729L492.20372395833334,34.27272727272729L493.1901041666667,34.27272727272729L494.176484375,34.27272727272729L495.1628645833333,34.27272727272729L496.1492447916667,34.27272727272729L497.135625,34.27272727272729L498.12200520833335,34.27272727272729L499.1083854166667,34.27272727272729L500.094765625,34.27272727272729L501.0811458333333,34.27272727272729L502.0675260416667,34.27272727272729L503.05390625,34.27272727272729L504.04028645833336,34.27272727272729L505.0266666666667,34.27272727272729L506.013046875,34.27272727272729L506.99942708333333,34.27272727272729L507.9858072916666,34.27272727272729L508.9721875,34.27272727272729L509.95856770833336,34.27272727272729L510.94494791666665,34.27272727272729L511.931328125,34.27272727272729L512.9177083333334,34.27272727272729L513.9040885416666,34.27272727272729L514.89046875,34.27272727272729L515.8768489583333,34.27272727272729L516.8632291666667,35.986363636363635L517.849609375,34.27272727272729L518.8359895833333,34.27272727272729L519.8223697916667,37.69999999999999L520.80875,80.54090909090908L521.7951302083334,46.2681818181818L522.7815104166666,34.27272727272729L523.767890625,42.84090909090909L524.7542708333334,75.39999999999998L525.7406510416666,58.263636363636365L526.72703125,34.27272727272729L527.7134114583333,51.40909090909091L528.6997916666667,75.39999999999998L529.686171875,101.10454545454546L530.6725520833334,34.27272727272729L531.6589322916667,47.9818181818182L532.6453125,34.27272727272729L533.6316927083333,47.9818181818182L534.6180729166666,41.12727272727274L535.604453125,71.97272727272727L536.5908333333333,34.27272727272729L537.5772135416667,34.27272727272729L538.56359375,34.27272727272729L539.5499739583333,34.27272727272729L540.5363541666667,34.27272727272729L541.522734375,51.40909090909091L542.5091145833333,34.27272727272729L543.4954947916667,54.83636363636366L544.4818750000001,34.27272727272729L545.4682552083333,34.27272727272729L546.4546354166666,34.27272727272729L547.441015625,34.27272727272729L548.4273958333333,34.27272727272729L549.4137760416667,34.27272727272729L550.40015625,34.27272727272729L551.3865364583334,34.27272727272729L552.3729166666667,34.27272727272729L553.359296875,34.27272727272729" style="fill: none;" fill="none"></path></g></g></g></g></g></g><g transform="translate(41, 377)" clip-path="url(#clip_1)"><clipPath id="clip_1"><rect width="591" height="23"></rect></clipPath><g><g><line x1="0" y1="0" x2="0" y2="5" style="visibility: inherit;" fill="rgb(0, 0, 0)" stroke="rgb(204, 204, 204)" stroke-width="1px"></line><line x1="49.319010416666664" y1="0" x2="49.319010416666664" y2="5" style="visibility: inherit;" fill="rgb(0, 0, 0)" stroke="rgb(204, 204, 204)" stroke-width="1px"></line><line x1="98.63802083333333" y1="0" x2="98.63802083333333" y2="5" style="visibility: inherit;" fill="rgb(0, 0, 0)" stroke="rgb(204, 204, 204)" stroke-width="1px"></line><line x1="147.95703125" y1="0" x2="147.95703125" y2="5" style="visibility: inherit;" fill="rgb(0, 0, 0)" stroke="rgb(204, 204, 204)" stroke-width="1px"></line><line x1="197.27604166666666" y1="0" x2="197.27604166666666" y2="5" style="visibility: inherit;" fill="rgb(0, 0, 0)" stroke="rgb(204, 204, 204)" stroke-width="1px"></line><line x1="246.59505208333334" y1="0" x2="246.59505208333334" y2="5" style="visibility: inherit;" fill="rgb(0, 0, 0)" stroke="rgb(204, 204, 204)" stroke-width="1px"></line><line x1="295.9140625" y1="0" x2="295.9140625" y2="5" style="visibility: inherit;" fill="rgb(0, 0, 0)" stroke="rgb(204, 204, 204)" stroke-width="1px"></line><line x1="345.2330729166667" y1="0" x2="345.2330729166667" y2="5" style="visibility: inherit;" fill="rgb(0, 0, 0)" stroke="rgb(204, 204, 204)" stroke-width="1px"></line><line x1="394.5520833333333" y1="0" x2="394.5520833333333" y2="5" style="visibility: inherit;" fill="rgb(0, 0, 0)" stroke="rgb(204, 204, 204)" stroke-width="1px"></line><line x1="443.87109375" y1="0" x2="443.87109375" y2="5" style="visibility: inherit;" fill="rgb(0, 0, 0)" stroke="rgb(204, 204, 204)" stroke-width="1px"></line><line x1="493.1901041666667" y1="0" x2="493.1901041666667" y2="5" style="visibility: inherit;" fill="rgb(0, 0, 0)" stroke="rgb(204, 204, 204)" stroke-width="1px"></line><line x1="542.5091145833333" y1="0" x2="542.5091145833333" y2="5" style="visibility: inherit;" fill="rgb(0, 0, 0)" stroke="rgb(204, 204, 204)" stroke-width="1px"></line><line x1="591.828125" y1="0" x2="591.828125" y2="5" style="visibility: inherit;" fill="rgb(0, 0, 0)" stroke="rgb(204, 204, 204)" stroke-width="1px"></line></g><g transform="translate(0, 8)"><text x="0" y="0" dx="0em" dy="0.95em" style="text-anchor: middle; visibility: hidden; font-family: Roboto, sans-serif; font-size: 12px; font-weight: 200;" fill="rgb(33, 33, 33)" stroke="none" stroke-width="1px">-50</text><text x="49.319010416666664" y="0" dx="0em" dy="0.95em" style="text-anchor: middle; visibility: inherit; font-family: Roboto, sans-serif; font-size: 12px; font-weight: 200;" fill="rgb(33, 33, 33)" stroke="none" stroke-width="1px">0</text><text x="98.63802083333333" y="0" dx="0em" dy="0.95em" style="text-anchor: middle; visibility: inherit; font-family: Roboto, sans-serif; font-size: 12px; font-weight: 200;" fill="rgb(33, 33, 33)" stroke="none" stroke-width="1px">50</text><text x="147.95703125" y="0" dx="0em" dy="0.95em" style="text-anchor: middle; visibility: inherit; font-family: Roboto, sans-serif; font-size: 12px; font-weight: 200;" fill="rgb(33, 33, 33)" stroke="none" stroke-width="1px">100</text><text x="197.27604166666666" y="0" dx="0em" dy="0.95em" style="text-anchor: middle; visibility: inherit; font-family: Roboto, sans-serif; font-size: 12px; font-weight: 200;" fill="rgb(33, 33, 33)" stroke="none" stroke-width="1px">150</text><text x="246.59505208333334" y="0" dx="0em" dy="0.95em" style="text-anchor: middle; visibility: inherit; font-family: Roboto, sans-serif; font-size: 12px; font-weight: 200;" fill="rgb(33, 33, 33)" stroke="none" stroke-width="1px">200</text><text x="295.9140625" y="0" dx="0em" dy="0.95em" style="text-anchor: middle; visibility: inherit; font-family: Roboto, sans-serif; font-size: 12px; font-weight: 200;" fill="rgb(33, 33, 33)" stroke="none" stroke-width="1px">250</text><text x="345.2330729166667" y="0" dx="0em" dy="0.95em" style="text-anchor: middle; visibility: inherit; font-family: Roboto, sans-serif; font-size: 12px; font-weight: 200;" fill="rgb(33, 33, 33)" stroke="none" stroke-width="1px">300</text><text x="394.5520833333333" y="0" dx="0em" dy="0.95em" style="text-anchor: middle; visibility: inherit; font-family: Roboto, sans-serif; font-size: 12px; font-weight: 200;" fill="rgb(33, 33, 33)" stroke="none" stroke-width="1px">350</text><text x="443.87109375" y="0" dx="0em" dy="0.95em" style="text-anchor: middle; visibility: inherit; font-family: Roboto, sans-serif; font-size: 12px; font-weight: 200;" fill="rgb(33, 33, 33)" stroke="none" stroke-width="1px">400</text><text x="493.1901041666667" y="0" dx="0em" dy="0.95em" style="text-anchor: middle; visibility: inherit; font-family: Roboto, sans-serif; font-size: 12px; font-weight: 200;" fill="rgb(33, 33, 33)" stroke="none" stroke-width="1px">450</text><text x="542.5091145833333" y="0" dx="0em" dy="0.95em" style="text-anchor: middle; visibility: inherit; font-family: Roboto, sans-serif; font-size: 12px; font-weight: 200;" fill="rgb(33, 33, 33)" stroke="none" stroke-width="1px">500</text><text x="591.828125" y="0" dx="0em" dy="0.95em" style="text-anchor: middle; visibility: hidden; font-family: Roboto, sans-serif; font-size: 12px; font-weight: 200;" fill="rgb(33, 33, 33)" stroke="none" stroke-width="1px">550</text></g><line x1="0" y1="0" x2="591.828125" y2="0" fill="rgb(0, 0, 0)" stroke="rgb(204, 204, 204)" stroke-width="1px"></line></g></g></g></g></svg>