<svg viewBox="0 0 633 400" xmlns="http://www.w3.org/2000/svg"><g><g><g><g><g><line x1="51.5625" y1="360.937856173677" x2="46.5625" y2="360.937856173677" style="visibility: inherit;" fill="rgb(0, 0, 0)" stroke="rgb(204, 204, 204)" stroke-width="1px"></line><line x1="51.5625" y1="322.3682496607869" x2="46.5625" y2="322.3682496607869" style="visibility: inherit;" fill="rgb(0, 0, 0)" stroke="rgb(204, 204, 204)" stroke-width="1px"></line><line x1="51.5625" y1="283.7986431478968" x2="46.5625" y2="283.7986431478968" style="visibility: inherit;" fill="rgb(0, 0, 0)" stroke="rgb(204, 204, 204)" stroke-width="1px"></line><line x1="51.5625" y1="245.22903663500674" x2="46.5625" y2="245.22903663500674" style="visibility: inherit;" fill="rgb(0, 0, 0)" stroke="rgb(204, 204, 204)" stroke-width="1px"></line><line x1="51.5625" y1="206.65943012211667" x2="46.5625" y2="206.65943012211667" style="visibility: inherit;" fill="rgb(0, 0, 0)" stroke="rgb(204, 204, 204)" stroke-width="1px"></line><line x1="51.5625" y1="168.08982360922656" x2="46.5625" y2="168.08982360922656" style="visibility: inherit;" fill="rgb(0, 0, 0)" stroke="rgb(204, 204, 204)" stroke-width="1px"></line><line x1="51.5625" y1="129.52021709633647" x2="46.5625" y2="129.52021709633647" style="visibility: inherit;" fill="rgb(0, 0, 0)" stroke="rgb(204, 204, 204)" stroke-width="1px"></line><line x1="51.5625" y1="90.95061058344639" x2="46.5625" y2="90.95061058344639" style="visibility: inherit;" fill="rgb(0, 0, 0)" stroke="rgb(204, 204, 204)" stroke-width="1px"></line><line x1="51.5625" y1="52.38100407055627" x2="46.5625" y2="52.38100407055627" style="visibility: inherit;" fill="rgb(0, 0, 0)" stroke="rgb(204, 204, 204)" stroke-width="1px"></line><line x1="51.5625" y1="13.811397557666194" x2="46.5625" y2="13.811397557666194" style="visibility: inherit;" fill="rgb(0, 0, 0)" stroke="rgb(204, 204, 204)" stroke-width="1px"></line></g><g transform="translate(41.5625, 0)"><text x="0" y="360.937856173677" dx="0em" dy="0.3em" style="text-anchor: end; visibility: inherit; font-family: Roboto, sans-serif; font-size: 12px; font-weight: 200;" fill="rgb(33, 33, 33)" stroke="none" stroke-width="1px">-500</text><text x="0" y="322.3682496607869" dx="0em" dy="0.3em" style="text-anchor: end; visibility: inherit; font-family: Roboto, sans-serif; font-size: 12px; font-weight: 200;" fill="rgb(33, 33, 33)" stroke="none" stroke-width="1px">-450</text><text x="0" y="283.7986431478968" dx="0em" dy="0.3em" style="text-anchor: end; visibility: inherit; font-family: Roboto, sans-serif; font-size: 12px; font-weight: 200;" fill="rgb(33, 33, 33)" stroke="none" stroke-width="1px">-400</text><text x="0" y="245.22903663500674" dx="0em" dy="0.3em" style="text-anchor: end; visibility: inherit; font-family: Roboto, sans-serif; font-size: 12px; font-weight: 200;" fill="rgb(33, 33, 33)" stroke="none" stroke-width="1px">-350</text><text x="0" y="206.65943012211667" dx="0em" dy="0.3em" style="text-anchor: end; visibility: inherit; font-family: Roboto, sans-serif; font-size: 12px; font-weight: 200;" fill="rgb(33, 33, 33)" stroke="none" stroke-width="1px">-300</text><text x="0" y="168.08982360922656" dx="0em" dy="0.3em" style="text-anchor: end; visibility: inherit; font-family: Roboto, sans-serif; font-size: 12px; font-weight: 200;" fill="rgb(33, 33, 33)" stroke="none" stroke-width="1px">-250</text><text x="0" y="129.52021709633647" dx="0em" dy="0.3em" style="text-anchor: end; visibility: inherit; font-family: Roboto, sans-serif; font-size: 12px; font-weight: 200;" fill="rgb(33, 33, 33)" stroke="none" stroke-width="1px">-200</text><text x="0" y="90.95061058344639" dx="0em" dy="0.3em" style="text-anchor: end; visibility: inherit; font-family: Roboto, sans-serif; font-size: 12px; font-weight: 200;" fill="rgb(33, 33, 33)" stroke="none" stroke-width="1px">-150</text><text x="0" y="52.38100407055627" dx="0em" dy="0.3em" style="text-anchor: end; visibility: inherit; font-family: Roboto, sans-serif; font-size: 12px; font-weight: 200;" fill="rgb(33, 33, 33)" stroke="none" stroke-width="1px">-100</text><text x="0" y="13.811397557666194" dx="0em" dy="0.3em" style="text-anchor: end; visibility: inherit; font-family: Roboto, sans-serif; font-size: 12px; font-weight: 200;" fill="rgb(33, 33, 33)" stroke="none" stroke-width="1px">-50</text></g><line x1="51.5625" y1="0" x2="51.5625" y2="377" fill="rgb(0, 0, 0)" stroke="rgb(204, 204, 204)" stroke-width="1px"></line></g></g><g transform="translate(51, 0)" clip-path="url(#clip_0)"><clipPath id="clip_0"><rect width="581" height="377"></rect></clipPath><g><g><g><line x1="39.609926597831105" y1="0" x2="39.609926597831105" y2="377" fill="rgb(0, 0, 0)" stroke="rgb(66, 66, 66)" stroke-width="1px" opacity="0.25"></line><line x1="117.61397976032535" y1="0" x2="117.61397976032535" y2="377" fill="rgb(0, 0, 0)" stroke="rgb(66, 66, 66)" stroke-width="1px" opacity="0.25"></line><line x1="195.6180329228196" y1="0" x2="195.6180329228196" y2="377" fill="rgb(0, 0, 0)" stroke="rgb(66, 66, 66)" stroke-width="1px" opacity="0.25"></line><line x1="273.6220860853138" y1="0" x2="273.6220860853138" y2="377" fill="rgb(0, 0, 0)" stroke="rgb(66, 66, 66)" stroke-width="1px" opacity="0.25"></line><line x1="351.62613924780806" y1="0" x2="351.62613924780806" y2="377" fill="rgb(0, 0, 0)" stroke="rgb(66, 66, 66)" stroke-width="1px" opacity="0.25"></line><line x1="429.6301924103023" y1="0" x2="429.6301924103023" y2="377" fill="rgb(0, 0, 0)" stroke="rgb(66, 66, 66)" stroke-width="1px" opacity="0.25"></line><line x1="507.63424557279654" y1="0" x2="507.63424557279654" y2="377" fill="rgb(0, 0, 0)" stroke="rgb(66, 66, 66)" stroke-width="1px" opacity="0.25"></line></g><g><line x1="0" y1="360.937856173677" x2="581.4375" y2="360.937856173677" fill="rgb(0, 0, 0)" stroke="rgb(66, 66, 66)" stroke-width="1px" opacity="0.25"></line><line x1="0" y1="322.3682496607869" x2="581.4375" y2="322.3682496607869" fill="rgb(0, 0, 0)" stroke="rgb(66, 66, 66)" stroke-width="1px" opacity="0.25"></line><line x1="0" y1="283.7986431478968" x2="581.4375" y2="283.7986431478968" fill="rgb(0, 0, 0)" stroke="rgb(66, 66, 66)" stroke-width="1px" opacity="0.25"></line><line x1="0" y1="245.22903663500674" x2="581.4375" y2="245.22903663500674" fill="rgb(0, 0, 0)" stroke="rgb(66, 66, 66)" stroke-width="1px" opacity="0.25"></line><line x1="0" y1="206.65943012211667" x2="581.4375" y2="206.65943012211667" fill="rgb(0, 0, 0)" stroke="rgb(66, 66, 66)" stroke-width="1px" opacity="0.25"></line><line x1="0" y1="168.08982360922656" x2="581.4375" y2="168.08982360922656" fill="rgb(0, 0, 0)" stroke="rgb(66, 66, 66)" stroke-width="1px" opacity="0.25"></line><line x1="0" y1="129.52021709633647" x2="581.4375" y2="129.52021709633647" fill="rgb(0, 0, 0)" stroke="rgb(66, 66, 66)" stroke-width="1px" opacity="0.25"></line><line x1="0" y1="90.95061058344639" x2="581.4375" y2="90.95061058344639" fill="rgb(0, 0, 0)" stroke="rgb(66, 66, 66)" stroke-width="1px" opacity="0.25"></line><line x1="0" y1="52.38100407055627" x2="581.4375" y2="52.38100407055627" fill="rgb(0, 0, 0)" stroke="rgb(66, 66, 66)" stroke-width="1px" opacity="0.25"></line><line x1="0" y1="13.811397557666194" x2="581.4375" y2="13.811397557666194" fill="rgb(0, 0, 0)" stroke="rgb(66, 66, 66)" stroke-width="1px" opacity="0.25"></line></g></g></g><g><g><line x1="0" y1="-24.758208955223886" x2="581.4375" y2="-24.758208955223886" fill="rgb(0, 0, 0)" stroke="rgb(153, 153, 153)" stroke-width="1.5px"></line></g></g><g><g><line x1="39.609926597831105" y1="0" x2="39.609926597831105" y2="377" fill="rgb(0, 0, 0)" stroke="rgb(153, 153, 153)" stroke-width="1.5px"></line></g></g><g><g><g><g><g><path stroke="rgb(204, 51, 17)" stroke-width="2px" d="M44.290169787580766,360.937856173677L45.0702103192057,360.937856173677L48.19037244570547,360.937856173677L48.97041297733041,360.937856173677L50.5304940405803,360.937856173677L51.31053457220524,360.937856173677L52.09057510383018,360.937856173677L54.43069669870501,360.937856173677L55.210737230329954,360.937856173677L55.990777761954895,360.937856173677L59.11093988845466,360.937856173677L66.13130467307916,360.937856173677L66.91134520470409,360.937856173677L68.47142626795397,360.937856173677L70.8115478628288,360.937856173677L71.59158839445374,360.937856173677L73.15166945770363,360.937856173677L74.71175052095352,360.937856173677L75.49179105257845,360.937856173677L77.05187211582835,360.937856173677L78.61195317907823,360.937856173677L79.39199371070318,360.937856173677L81.73211530557799,360.937856173677L82.51215583720294,360.937856173677L83.29219636882789,360.937856173677L84.07223690045282,360.937856173677L84.85227743207777,360.937856173677L87.1923990269526,360.937856173677L87.97243955857753,259.1140949796472L89.53252062182742,360.937856173677L91.09260168507731,360.937856173677L91.87264221670225,360.937856173677L92.6526827483272,360.937856173677L93.43272327995213,360.937856173677L95.77284487482696,360.937856173677L96.5528854064519,360.937856173677L97.33292593807684,360.937856173677L98.11296646970177,360.937856173677L99.67304753295167,360.937856173677L102.01316912782649,360.937856173677L105.9133717859512,360.937856173677L106.69341231757616,360.937856173677L107.4734528492011,360.937856173677L108.25349338082604,360.937856173677L109.03353391245098,360.937856173677L109.81357444407591,360.937856173677L113.71377710220062,360.937856173677L119.95410135520017,360.937856173677L122.29422295007501,360.937856173677L123.07426348169994,360.937856173677L128.53454720307454,360.937856173677L130.87466879794937,360.937856173677L132.43474986119926,360.937856173677L133.2147903928242,360.937856173677L133.99483092444913,360.937856173677L137.1149930509489,286.884211668928L137.89503358257386,360.937856173677L138.6750741141988,360.937856173677L141.01519570907362,360.937856173677L141.79523624069856,360.937856173677L144.1353578355734,360.937856173677L147.25551996207318,360.937856173677L148.81560102532305,360.937856173677L150.37568208857292,360.937856173677L151.15572262019788,360.937856173677L151.9357631518228,360.937856173677L152.71580368344775,360.937856173677L155.83596580994754,360.937856173677L157.3960468731974,360.937856173677L159.73616846807224,360.937856173677L160.51620899969717,360.937856173677L161.2962495313221,360.937856173677L162.85633059457203,360.937856173677L163.63637112619696,360.937856173677L164.4164116578219,360.937856173677L166.75653325269673,360.937856173677L168.3166143159466,360.937856173677L169.09665484757156,360.937856173677L170.65673591082145,173.4895685210312L171.4367764424464,106.37845318860242L173.7768980373212,121.03490366350067L177.67710069544592,215.14474355495247L178.45714122707088,131.06300135685206L179.2371817586958,120.26351153324286L180.79726282194568,138.00553052917226L183.1373844168205,360.937856173677L184.6974654800704,360.937856173677L185.47750601169534,360.937856173677L187.03758707494524,360.937856173677L188.5976681381951,360.937856173677L189.37770866982004,360.937856173677L194.83799239119466,360.937856173677L197.9581545176944,187.3746268656716L201.0783166441942,90.17921845318858L201.85835717581912,111.00680597014924L202.63839770744406,124.89186431478964L205.75855983394382,64.72327815468113L208.09868142881865,87.09364993215738L210.43880302369348,94.0361791044776L211.21884355531841,87.09364993215738L213.55896515019325,80.92251289009496L214.33900568181818,168.08982360922656L215.89908674506808,117.17794301221166L216.679127276693,82.46529715061055L217.45916780831797,73.97998371777474L219.01924887156784,102.52149253731339L221.35937046644267,104.83566892808679L222.1394109980676,84.00808141112617L222.91945152969254,80.92251289009496L225.2595731245674,94.80757123473536L227.5996947194422,83.23668928086836L231.49989737756692,71.66580732700135L233.05997844081682,64.72327815468113L234.6200595040667,94.0361791044776L235.40010003569162,131.06300135685206L239.30030269381635,360.937856173677L241.64042428869118,360.937856173677L242.4204648203161,360.937856173677L243.20050535194105,360.937856173677L243.98054588356598,360.937856173677L245.5406269468159,360.937856173677L248.66078907331567,360.937856173677L250.22087013656554,360.937856173677L251.7809511998154,360.937856173677L253.34103226306533,360.937856173677L257.24123492119,38.495945725915874L258.8013159844399,44.66708276797828L261.9214781109397,81.69390502035273L265.8216807690644,67.03745454545452L267.3817618323143,43.89569063772047L268.1618023639392,50.066827679782875L270.501923958814,31.55341655359565L272.0620050220639,52.38100407055627L272.8420455536889,35.41037720488467L273.6220860853138,44.66708276797828L275.1821671485637,42.352906377204846L275.9622076801886,29.239240162822217L276.7422482118136,25.38227951153324L279.86241033831334,31.55341655359565L280.64245086993833,44.66708276797828L282.2025319331882,29.239240162822217L284.542653528063,46.981259158751676L287.66281565456273,36.95316146540025L288.4428561861877,50.83821981004069L289.22289671781266,57.78074898236091L290.0029372494376,29.239240162822217L291.5630183126875,51.6096119402985L293.9031399075623,107.92123744911804L294.68318043918725,48.5240434192673L295.4632209708122,40.038729986431456L297.803342565687,50.066827679782875L298.583383097312,36.95316146540025L300.14346416056185,33.86759294436904L304.8237073503115,75.52276797829033L306.38378841356143,43.89569063772047L308.72391000843623,42.352906377204846L309.50395054006117,34.63898507462686L311.06403160331104,50.066827679782875L311.84407213493597,49.29543554952507L315.7442747930607,43.124298507462655L316.52431532468563,47.752651289009485L318.0843963879355,51.6096119402985L319.6444774511854,42.352906377204846L320.42451798281036,67.03745454545452L321.2045585144353,53.15239620081408L323.54468010931015,73.20859158751693L324.3247206409351,86.32225780189957L326.6648422358099,242.14346811397553L327.4448827674348,229.0298018995929L329.0049638306847,107.14984531886023L329.7850043623097,216.6875278154681L331.34508542555955,144.17666757123473L334.46524755205934,86.32225780189957L335.2452880836843,70.89441519674354L336.0253286153092,128.74882496607867L337.58540967855913,165.00425508819535L338.36545021018406,101.75010040705558L340.70557180505887,70.12302306648573L341.4856123366838,90.17921845318858L342.26565286830873,175.03235278154676L343.04569339993367,360.937856173677L344.60577446318354,234.4295468113975L345.38581499480847,180.4320976933514L346.16585552643346,47.752651289009485L346.9458960580584,111.77819810040701L353.9662608426829,360.937856173677L354.74630137430785,360.937856173677L356.3063824375577,360.937856173677L358.6465040324325,360.937856173677L364.10678775380717,360.937856173677L364.8868282854321,115.63515875169603L368.00699041193184,85.55086567164176L368.7870309435568,142.6338833107191L369.56707147518176,138.00553052917226L371.12715253843163,104.83566892808679L372.6872336016815,310.02597557666206L375.80739572818123,201.25968521031203L382.82776051280575,89.40782632293077L383.6078010444307,65.4946702849389L384.3878415760556,94.0361791044776L385.1678821076806,178.8893134328358L386.7279631709305,179.6607055630936L387.5080037025554,80.92251289009496L389.8481252974302,100.97870827679782L392.188246892305,94.0361791044776L397.64853061367967,97.89313975576661L398.4285711453046,92.49339484396198L399.20861167692954,77.06555223880595L399.98865220855447,75.52276797829033L401.5487332718044,95.57896336499317L402.3287738034293,103.29288466757122L403.10881433505426,84.00808141112617L404.66889539830413,70.89441519674354L405.44893592992906,107.14984531886023L406.228976461554,89.40782632293077L407.78905752480387,127.20604070556308L409.34913858805385,114.86376662143822L410.1291791196788,88.63643419267295L413.2493412461785,84.77947354138398L418.7096249675531,87.09364993215738L421.0497465624279,115.63515875169603L421.82978709405285,117.94933514246942L423.3898681573027,25.38227951153324L424.9499492205527,211.28778290366347L427.2900708154275,47.752651289009485L435.8705166633018,25.38227951153324L438.21063825817663,44.66708276797828L438.99067878980156,44.66708276797828L439.7707193214265,46.20986702849386L441.3308003846765,35.41037720488467L442.89088144792635,31.55341655359565L443.6709219795513,30.78202442333784L445.23100304280115,51.6096119402985L449.1312057009259,42.352906377204846L449.9112462325508,43.89569063772047L454.5914894223004,36.95316146540025L456.1515704855503,46.20986702849386L456.9316110171753,50.066827679782875L457.71165154880026,36.181769335142434L458.4916920804252,47.752651289009485L459.27173261205013,121.80629579375844L460.05177314367506,63.951886024423324L460.8318136753,73.20859158751693L461.61185420692493,57.0093568521031L462.39189473854987,77.83694436906376L463.1719352701748,56.23796472184529L464.7320163334247,43.89569063772047L467.0721379282995,63.951886024423324L467.85217845992446,50.83821981004069L468.6322189915494,30.78202442333784L470.19230005479926,114.09237449118045L473.3124621812991,75.52276797829033L474.872543244549,89.40782632293077L476.43262430779885,43.124298507462655L479.5527864342986,87.86504206241518L480.3328269659236,52.38100407055627L481.1128674975485,47.752651289009485L482.6729485607984,38.495945725915874L484.23302962404824,59.32353324287649L485.7931106872981,30.01063229308003L487.35319175054804,49.29543554952507L488.133232282173,53.9237883310719L490.4733538770478,52.38100407055627L492.0334349402977,64.72327815468113L492.81347547192263,30.78202442333784L493.59351600354756,43.89569063772047L494.3735565351725,71.66580732700135L495.15359706679743,49.29543554952507L495.93363759842237,54.695180461329706L497.4937186616723,158.06172591587512L498.2737591932972,50.83821981004069L502.17396185142195,31.55341655359565L502.9540023830469,30.01063229308003L504.5140834462968,139.5483147896879L505.29412397792174,58.55214111261868L506.0741645095467,43.124298507462655L508.4142861044215,36.181769335142434L509.97436716767135,50.83821981004069L511.5344482309212,42.352906377204846L513.0945292941711,86.32225780189957L514.654610357421,31.55341655359565L516.2146914206709,54.695180461329706L516.9947319522959,50.066827679782875L517.7747724839207,89.40782632293077L520.1148940787956,30.78202442333784L523.2350562052953,49.29543554952507L524.0150967369203,30.01063229308003L525.5751778001702,91.72200271370416L526.3552183317952,61.637709633649926L527.915299395045,23.83949525101762L531.0354615215448,43.124298507462655L534.9356641796695,36.181769335142434L540.3959479010441,40.038729986431456L541.1759884326691,32.32480868385342L542.736069495919,37.72455359565806L543.516110027544,46.20986702849386L544.2961505591688,57.0093568521031L545.0761910907938,30.78202442333784L545.8562316224187,36.95316146540025L546.6362721540437,26.15367164179101L548.1963532172936,49.29543554952507L548.9763937489184,40.810122116689264L552.0965558754183,30.01063229308003L552.8765964070432,41.58151424694708L554.4366774702931,35.41037720488467L555.996758533543,30.78202442333784L558.3368801284178,46.20986702849386L559.8969611916677,24.61088738127543L560.6770017232926,36.95316146540025L561.4570422549176,46.981259158751676L563.7971638497924,138.00553052917226L564.5772043814173,53.15239620081408L565.3572449130422,33.096200814111235L566.1372854446672,57.78074898236091L566.9173259762921,30.78202442333784L568.4774070395421,37.72455359565806L569.2574475711671,25.38227951153324L570.0374881027919,46.981259158751676L571.5975691660418,32.32480868385342L572.3776096976668,36.95316146540025L573.1576502292917,51.6096119402985L573.9376907609167,37.72455359565806L574.7177312925415,44.66708276797828L575.4977718241665,63.951886024423324L577.0578528874164,50.83821981004069L577.8378934190414,46.981259158751676L580.1780150139161,46.20986702849386L583.2981771404159,35.41037720488467" style="fill: none;" fill="none"></path></g><g><path stroke="rgb(51, 187, 238)" stroke-width="2px" d="M47.41033191408053,360.937856173677L55.210737230329954,360.937856173677L63.01114254657937,360.937856173677L70.8115478628288,360.937856173677L78.61195317907823,360.937856173677L86.41235849532765,360.937856173677L94.21276381157706,360.937856173677L102.01316912782649,360.937856173677L109.81357444407591,360.937856173677L117.61397976032535,360.937856173677L125.41438507657477,360.937856173677L133.2147903928242,360.937856173677L141.01519570907362,360.937856173677L148.81560102532305,360.937856173677L156.61600634157247,360.937856173677L164.4164116578219,360.937856173677L172.21681697407132,360.937856173677L180.01722229032075,360.937856173677L187.81762760657017,360.937856173677L195.6180329228196,360.937856173677L203.418438239069,360.937856173677L211.21884355531841,360.937856173677L219.01924887156784,360.937856173677L226.81965418781726,360.937856173677L234.6200595040667,360.937856173677L242.4204648203161,360.937856173677L250.22087013656554,360.937856173677L258.02127545281496,360.937856173677L265.8216807690644,360.937856173677L273.6220860853138,360.937856173677L281.42249140156326,360.937856173677L289.22289671781266,360.937856173677L297.02330203406206,360.937856173677L304.8237073503115,360.937856173677L312.6241126665609,360.937856173677L320.42451798281036,360.937856173677L328.22492329905975,360.937856173677L336.0253286153092,360.937856173677L343.8257339315586,360.937856173677L351.62613924780806,360.937856173677L359.42654456405745,360.937856173677L367.2269498803069,360.937856173677L375.0273551965563,360.937856173677L382.82776051280575,360.937856173677L390.62816582905515,360.937856173677L398.4285711453046,360.937856173677L406.228976461554,360.937856173677L414.02938177780345,360.937856173677L421.82978709405285,360.937856173677L429.6301924103023,360.937856173677L437.4305977265517,360.937856173677L445.23100304280115,360.937856173677L453.03140835905054,360.937856173677L460.8318136753,360.937856173677L468.6322189915494,360.937856173677L476.43262430779885,360.937856173677L484.23302962404824,360.937856173677L492.0334349402977,360.937856173677L499.8338402565471,360.937856173677L507.63424557279654,360.937856173677L515.434650889046,360.937856173677L523.2350562052953,360.937856173677" style="fill: none;" fill="none"></path></g></g></g></g></g></g><g transform="translate(51, 377)" clip-path="url(#clip_1)"><clipPath id="clip_1"><rect width="581" height="23"></rect></clipPath><g><g><line x1="39.609926597831105" y1="0" x2="39.609926597831105" y2="5" style="visibility: inherit;" fill="rgb(0, 0, 0)" stroke="rgb(204, 204, 204)" stroke-width="1px"></line><line x1="117.61397976032535" y1="0" x2="117.61397976032535" y2="5" style="visibility: inherit;" fill="rgb(0, 0, 0)" stroke="rgb(204, 204, 204)" stroke-width="1px"></line><line x1="195.6180329228196" y1="0" x2="195.6180329228196" y2="5" style="visibility: inherit;" fill="rgb(0, 0, 0)" stroke="rgb(204, 204, 204)" stroke-width="1px"></line><line x1="273.6220860853138" y1="0" x2="273.6220860853138" y2="5" style="visibility: inherit;" fill="rgb(0, 0, 0)" stroke="rgb(204, 204, 204)" stroke-width="1px"></line><line x1="351.62613924780806" y1="0" x2="351.62613924780806" y2="5" style="visibility: inherit;" fill="rgb(0, 0, 0)" stroke="rgb(204, 204, 204)" stroke-width="1px"></line><line x1="429.6301924103023" y1="0" x2="429.6301924103023" y2="5" style="visibility: inherit;" fill="rgb(0, 0, 0)" stroke="rgb(204, 204, 204)" stroke-width="1px"></line><line x1="507.63424557279654" y1="0" x2="507.63424557279654" y2="5" style="visibility: inherit;" fill="rgb(0, 0, 0)" stroke="rgb(204, 204, 204)" stroke-width="1px"></line></g><g transform="translate(0, 8)"><text x="39.609926597831105" y="0" dx="0em" dy="0.95em" style="text-anchor: middle; visibility: inherit; font-family: Roboto, sans-serif; font-size: 12px; font-weight: 200;" fill="rgb(33, 33, 33)" stroke="none" stroke-width="1px">0</text><text x="117.61397976032535" y="0" dx="0em" dy="0.95em" style="text-anchor: middle; visibility: inherit; font-family: Roboto, sans-serif; font-size: 12px; font-weight: 200;" fill="rgb(33, 33, 33)" stroke="none" stroke-width="1px">100</text><text x="195.6180329228196" y="0" dx="0em" dy="0.95em" style="text-anchor: middle; visibility: inherit; font-family: Roboto, sans-serif; font-size: 12px; font-weight: 200;" fill="rgb(33, 33, 33)" stroke="none" stroke-width="1px">200</text><text x="273.6220860853138" y="0" dx="0em" dy="0.95em" style="text-anchor: middle; visibility: inherit; font-family: Roboto, sans-serif; font-size: 12px; font-weight: 200;" fill="rgb(33, 33, 33)" stroke="none" stroke-width="1px">300</text><text x="351.62613924780806" y="0" dx="0em" dy="0.95em" style="text-anchor: middle; visibility: inherit; font-family: Roboto, sans-serif; font-size: 12px; font-weight: 200;" fill="rgb(33, 33, 33)" stroke="none" stroke-width="1px">400</text><text x="429.6301924103023" y="0" dx="0em" dy="0.95em" style="text-anchor: middle; visibility: inherit; font-family: Roboto, sans-serif; font-size: 12px; font-weight: 200;" fill="rgb(33, 33, 33)" stroke="none" stroke-width="1px">500</text><text x="507.63424557279654" y="0" dx="0em" dy="0.95em" style="text-anchor: middle; visibility: inherit; font-family: Roboto, sans-serif; font-size: 12px; font-weight: 200;" fill="rgb(33, 33, 33)" stroke="none" stroke-width="1px">600</text></g><line x1="0" y1="0" x2="581.4375" y2="0" fill="rgb(0, 0, 0)" stroke="rgb(204, 204, 204)" stroke-width="1px"></line></g></g></g></g></svg>